<!-- Generated by IcoMoon.io -->
<svg version="1.1" xmlns="http://www.w3.org/2000/svg" width="1227" height="1024" viewBox="0 0 1227 1024">
<title></title>
<g id="icomoon-ignore">
</g>
<path d="M1117.726 819.142h-788.202v107.16c0.004 0.207 0.007 0.455 0.007 0.705 0 15.195-8.408 28.43-20.823 35.311l-0.204 0.104c-6.242 3.541-13.709 5.624-21.66 5.624s-15.419-2.084-21.881-5.74l0.221 0.115c-12.626-6.983-21.027-20.213-21.027-35.415 0-0.249 0.002-0.491 0.007-0.739l-0.001 0.035v-107.16h-133.862c-0.58 0.029-1.257 0.044-1.939 0.044-22.777 0-41.242-18.466-41.242-41.242s18.466-41.242 41.242-41.242c0.682 0 1.359 0.019 2.032 0.048l-0.093-0.004h133.862v-638.996c-0.004-0.207-0.007-0.455-0.007-0.705 0-15.195 8.408-28.43 20.823-35.311l0.204-0.104c6.242-3.541 13.709-5.624 21.66-5.624s15.419 2.084 21.881 5.74l-0.221-0.115c12.626 6.983 21.027 20.213 21.027 35.415 0 0.249-0.002 0.491-0.007 0.739l0.001-0.035v639.021h788.202c0.289-0.008 0.629-0.013 0.969-0.013 22.755 0 41.198 18.443 41.198 41.198s-18.443 41.198-41.198 41.198c-0.341 0-0.68-0.005-1.019-0.014l0.049 0.001zM942.894 647.751v0c-1.947 3.829-5.712 6.482-10.122 6.837l-0.042 0.003h-119.244c-0.014 0-0.029 0-0.042 0-3.752 0-7.158-1.476-9.673-3.882l0.006 0.006c-2.43-2.316-3.946-5.582-3.946-9.202 0-0.034 0-0.074 0.001-0.108v0.006-93.182l1.324 0.412v-383.18c0.129-6.713 5.602-12.111 12.335-12.111 0.066 0 0.132 0.001 0.197 0.002h118.074c0.055-0.001 0.12-0.002 0.186-0.002 6.733 0 12.206 5.391 12.335 12.098v381.387h0.386v94.62c-0.016 2.026-0.499 3.942-1.354 5.635l0.030-0.075c-0.1 0.277-0.207 0.51-0.332 0.733l0.015-0.029zM741.868 654.478c-0.685 0.116-1.473 0.184-2.278 0.184-0.001 0-0.001 0-0.002 0h-117.331c-0.014 0-0.029 0-0.042 0-3.752 0-7.158-1.476-9.673-3.882l0.006 0.006c-2.43-2.316-3.946-5.582-3.946-9.202 0-0.034 0-0.074 0.001-0.108v0.006-373.35c0-0.029 0-0.068 0-0.101 0-3.62 1.511-6.88 3.94-9.197l0.006-0.005c2.509-2.4 5.915-3.876 9.667-3.876 0.017 0 0.029 0 0.044 0h64.726l-0.228 0.386h53.466c0.055-0.001 0.12-0.002 0.186-0.002 6.733 0 12.206 5.391 12.335 12.098v258.021l0.544 0.368v115.64c0 0.015 0 0.029 0 0.043 0 3.541-1.429 6.75-3.737 9.077l0.001-0.001c-1.965 2.133-4.639 3.575-7.645 3.962l-0.063 0.007zM548.432 654.658h-117.397c-0.014 0-0.029 0-0.042 0-3.752 0-7.158-1.476-9.673-3.882l0.006 0.006c-2.43-2.316-3.946-5.582-3.946-9.202 0-0.034 0-0.074 0.001-0.108v0.006-262.612c0-0.029 0-0.061 0-0.090 0-3.62 1.511-6.887 3.941-9.206l0.006-0.005c2.509-2.4 5.915-3.876 9.667-3.876 0.017 0 0.029 0 0.044 0h117.461c0.014 0 0.029 0 0.042 0 3.752 0 7.158 1.476 9.673 3.882l-0.006-0.006c2.43 2.316 3.946 5.582 3.946 9.202 0 0.034 0 0.074-0.001 0.108v-0.006 262.586c0.001 0.042 0.001 0.093 0.001 0.144 0 3.609-1.506 6.865-3.916 9.174l-0.005 0.005c-2.509 2.4-5.915 3.876-9.667 3.876-0.026 0-0.045 0-0.071 0h0.004z"></path>
</svg>
