<svg xmlns="http://www.w3.org/2000/svg" width="20" height="18" viewBox="0 0 20 18">
  <path id="Path_chat-question-outline" data-name="Path / chat-question-outline" d="M12,3C6.5,3,2,6.6,2,11a6.962,6.962,0,0,0,2.8,5.5c0,.6-.4,2.2-2.8,4.5a11.157,11.157,0,0,0,6.5-2.5A13.449,13.449,0,0,0,12,19c5.5,0,10-3.6,10-8S17.5,3,12,3m0,14c-4.4,0-8-2.7-8-6s3.6-6,8-6,8,2.7,8,6-3.6,6-8,6m.2-10.5a4.064,4.064,0,0,0-2.1.5,1.689,1.689,0,0,0-.8,1.7h2a.6.6,0,0,1,.3-.6,1.445,1.445,0,0,1,.7-.2,1.136,1.136,0,0,1,.8.3.908.908,0,0,1,.3.7,1.445,1.445,0,0,1-.2.7,2.651,2.651,0,0,1-.6.5,6.293,6.293,0,0,0-1.1.8A1.173,1.173,0,0,0,11,12h2c0-.3.1-.5.1-.7.1-.2.3-.3.5-.5a2.445,2.445,0,0,0,1.1-.9,1.922,1.922,0,0,0,.4-1.2A2.136,2.136,0,0,0,14.3,7a3.81,3.81,0,0,0-2.1-.5M11,13v2h2V13Z" transform="translate(-2 -3)" fill="#e86e25"/>
</svg>
