<svg xmlns="http://www.w3.org/2000/svg" width="28.903" height="26.852" viewBox="0 0 28.903 26.852">
  <path id="Union_765" data-name="Union 765" d="M14643.638,2094.5a1.636,1.636,0,0,1-1.639-1.635V2069.29a1.64,1.64,0,0,1,1.639-1.638h25.626a1.642,1.642,0,0,1,1.639,1.638v23.579a1.639,1.639,0,0,1-1.639,1.635Zm-.412-1.635a.414.414,0,0,0,.412.412h25.626a.414.414,0,0,0,.412-.412V2074h-26.45Zm0-23.579v3.487h26.45v-3.487a.411.411,0,0,0-.412-.412h-25.626A.411.411,0,0,0,14643.226,2069.29Zm2.975,23.167a1.64,1.64,0,0,1-1.639-1.638v-4.1a1.64,1.64,0,0,1,1.639-1.638h20.5a1.642,1.642,0,0,1,1.639,1.638v4.1a1.642,1.642,0,0,1-1.639,1.638Zm-.412-5.74v4.1a.411.411,0,0,0,.412.412h20.5a.411.411,0,0,0,.412-.412v-4.1a.411.411,0,0,0-.412-.412h-20.5A.411.411,0,0,0,14645.788,2086.716Zm-.1-2.463a.611.611,0,1,1,0-1.222h21.528a.611.611,0,1,1,0,1.222Zm.516-2.051a1.636,1.636,0,0,1-1.639-1.635v-4.1a1.64,1.64,0,0,1,1.639-1.638h20.5a1.642,1.642,0,0,1,1.639,1.638v4.1a1.639,1.639,0,0,1-1.639,1.635Zm-.412-5.736v4.1a.414.414,0,0,0,.412.412h20.5a.414.414,0,0,0,.412-.412v-4.1a.411.411,0,0,0-.412-.412h-20.5A.411.411,0,0,0,14645.788,2076.466Zm4.41-5.637a1.125,1.125,0,1,1,1.127,1.123A1.127,1.127,0,0,1,14650.2,2070.829Zm-3.074,0a1.125,1.125,0,1,1,1.123,1.123A1.126,1.126,0,0,1,14647.124,2070.829Zm-3.074,0a1.125,1.125,0,1,1,1.123,1.123A1.126,1.126,0,0,1,14644.05,2070.829Z" transform="translate(-14641.999 -2067.651)" fill="#666"/>
</svg>
