<svg xmlns="http://www.w3.org/2000/svg" width="12.13" height="13.646" viewBox="0 0 12.13 13.646">
  <path id="Path_database-outline" data-name="Path / database-outline" d="M10.065,3C6.714,3,4,4.357,4,6.032v7.581c0,1.675,2.722,3.032,6.065,3.032s6.065-1.357,6.065-3.032V6.032C16.13,4.357,13.416,3,10.065,3m4.549,10.614c0,.379-1.615,1.516-4.549,1.516s-4.549-1.137-4.549-1.516V11.923a10.638,10.638,0,0,0,4.549.932,10.638,10.638,0,0,0,4.549-.932v1.691m0-3.449a8.177,8.177,0,0,1-4.549,1.175,8.177,8.177,0,0,1-4.549-1.175V8.034a9.518,9.518,0,0,0,4.549,1.031,9.518,9.518,0,0,0,4.549-1.031v2.13M10.065,7.549c-2.934,0-4.549-1.137-4.549-1.516s1.615-1.516,4.549-1.516,4.549,1.137,4.549,1.516S13,7.549,10.065,7.549Z" transform="translate(-4 -3)" fill="#999"/>
</svg>
