<!-- Generated by IcoMoon.io -->
<svg version="1.1" xmlns="http://www.w3.org/2000/svg" width="1051" height="1024" viewBox="0 0 1051 1024">
<title></title>
<g id="icomoon-ignore">
</g>
<path stroke-linejoin="miter" stroke-linecap="butt" stroke-miterlimit="4" stroke-width="16.7869" stroke="#000" fill="#000" d="M830.641 88.383h-610.609c-1.641-0.091-3.564-0.144-5.492-0.144-56.854 0-102.936 46.090-102.936 102.936 0 3.001 0.132 5.977 0.383 8.92l-0.026-0.385-21.432 536.948v95.174c0 57.22 54.164 103.784 120.728 103.784h628.171c66.597 0 120.728-46.573 120.728-103.784v-95.174l-39.535-536.948c0.114-61.399-18.558-111.328-89.976-111.328zM920.765 788.396v43.436c-3.292 39.377-36.059 70.087-76.002 70.087-1.88 0-3.734-0.071-5.584-0.199l0.244 0.017h-628.171c-1.587 0.12-3.438 0.185-5.307 0.185-39.943 0-72.708-30.707-75.98-69.804l-0.022-0.28v-95.174c3.294-39.377 36.059-70.085 76.002-70.085 1.869 0 3.72 0.070 5.549 0.197l-0.242-0.017h628.171c1.587-0.12 3.438-0.185 5.307-0.185 39.943 0 72.708 30.707 75.98 69.804l0.022 0.28v51.737zM920.765 660.182c-21.952-17.025-49.882-27.288-80.21-27.288-0.387 0-0.768 0.002-1.149 0.006h-628.145c-0.326-0.003-0.713-0.005-1.089-0.005-30.327 0-58.264 10.263-80.517 27.513l0.297-0.226 21.742-460.332c0-42.841 18.639-77.577 68.346-77.577h610.609c49.676 0 58.858 34.736 58.858 77.439z"></path>
<path fill="#000" d="M525.359 202.839c-72.687 0-131.604 58.919-131.604 131.604s58.919 131.604 131.604 131.604c72.687 0 131.604-58.919 131.604-131.604v0c-0.079-72.649-58.955-131.528-131.595-131.604h-0.009zM525.359 427.474c-51.397 0-93.056-41.659-93.056-93.056s41.659-93.056 93.056-93.056c51.397 0 93.056 41.659 93.056 93.056 0 0.012 0 0.024 0 0.026v-0.002c-0.094 51.346-41.707 92.947-93.046 93.026h-0.009z"></path>
<path fill="#000" d="M229.419 727.821h38.548v122.79h-38.548v-122.79z"></path>
<path fill="#000" d="M348.795 727.821h38.548v122.79h-38.548v-122.79z"></path>
</svg>
