<svg xmlns="http://www.w3.org/2000/svg" width="20" height="20" viewBox="0 0 20 20">
  <g id="Group_148795" data-name="Group 148795" transform="translate(-1160 -488)">
    <g id="Rectangle_177226" data-name="Rectangle 177226" transform="translate(1160 488)" fill="#e95a15" stroke="#fdfdfd" stroke-width="1">
      <rect width="20" height="20" rx="4" stroke="none"/>
      <rect x="0.5" y="0.5" width="19" height="19" rx="3.5" fill="none"/>
    </g>
    <g id="noun-like-1388393" transform="translate(1163.751 491.886)">
      <path id="Path_112624" data-name="Path 112624" d="M215.914,0a.521.521,0,0,0-.417.223,2.412,2.412,0,0,0-.436,1.089,3.471,3.471,0,0,1-.347,1.14h0a2.6,2.6,0,0,1-.236.315c-.378.461-.752.924-1.138,1.378-.232.271-.489.528-.734.785h0a.58.58,0,0,1-.34.168.512.512,0,0,0-.419.462v5.006a.575.575,0,0,0,.543.649,6.313,6.313,0,0,1,1.2.333c.52.161,1.038.331,1.565.47a6.323,6.323,0,0,0,1.607.21h.136c.335-.007.671,0,1.008-.012a2.047,2.047,0,0,0,.993-.287,1.563,1.563,0,0,0,.734-1.1,5.723,5.723,0,0,0,.034-.577.234.234,0,0,1,.049-.133,1.634,1.634,0,0,0,.429-1.039,5.021,5.021,0,0,0-.023-.507.279.279,0,0,1,.032-.16,1.653,1.653,0,0,0,.213-1.467.264.264,0,0,1,.051-.275,1.648,1.648,0,0,0,.326-.767.474.474,0,0,1,.023-.1V5.418a3.3,3.3,0,0,0-.21-.566,1.467,1.467,0,0,0-1.317-.776h-2.218c.044-.11.079-.207.122-.3.13-.279.284-.548.391-.835h0a3.135,3.135,0,0,0,.081-1.794,1.3,1.3,0,0,0-.528-.83,1.87,1.87,0,0,0-.543-.245A3.2,3.2,0,0,0,215.963,0Z" transform="translate(-208.266 0.001)" fill="#fff"/>
      <path id="Path_112625" data-name="Path 112625" d="M81.641,233.2H80.367a.638.638,0,0,0-.245.068.575.575,0,0,0-.269.337v5.31a.091.091,0,0,1,.02.021.511.511,0,0,0,.554.367h2.167a.772.772,0,0,0,.182-.015.519.519,0,0,0,.393-.558v-4.974a.516.516,0,0,0-.512-.562H81.639Z" transform="translate(-79.853 -228.102)" fill="#fff"/>
    </g>
  </g>
</svg>
