<!-- Generated by IcoMoon.io -->
<svg version="1.1" xmlns="http://www.w3.org/2000/svg" width="1024" height="1024" viewBox="0 0 1024 1024">
<title></title>
<g id="icomoon-ignore">
</g>
<path stroke-linejoin="miter" stroke-linecap="butt" stroke-miterlimit="4" stroke-width="17.0667" stroke="#000" fill="#000" d="M518.109 440.556c39.7 0 71.885-32.185 71.885-71.885s-32.185-71.885-71.885-71.885c-39.7 0-71.885 32.185-71.885 71.885v0c0.053 39.681 32.205 71.833 71.881 71.885h0.005zM518.109 317.332c28.341 0 51.313 22.973 51.313 51.313s-22.973 51.313-51.313 51.313c-28.341 0-51.313-22.973-51.313-51.313v0c0-28.341 22.973-51.313 51.313-51.313v0z"></path>
<path stroke-linejoin="miter" stroke-linecap="butt" stroke-miterlimit="4" stroke-width="17.0667" stroke="#000" fill="#000" d="M754.112 600.961h-87.748l37.321-54.979c70.511-95.817 60.32-253.333-21.832-337.068-42.16-43.304-101.019-70.171-166.156-70.171s-123.996 26.863-166.106 70.12l-0.050 0.051c-82.105 83.76-92.321 241.272-22.065 336.72l37.576 55.327h-92.063l-134.187 287.341h749.521zM347.348 530.985c-63.701-86.581-54.605-228.816 19.571-304.392 37.759-38.803 90.488-62.877 148.836-62.877s111.077 24.074 148.79 62.83l0.046 0.047c74.125 75.572 83.268 217.832 19.265 304.787l-168.127 247.525-120.848-177.944zM288.479 625.92h93.535l133.699 196.84 133.673-196.84h89.216l110.908 237.403h-671.896z"></path>
</svg>
