<svg xmlns="http://www.w3.org/2000/svg" width="21" height="19" viewBox="0 0 21 19">
  <path id="Path_chat-plus-outline" data-name="Path / chat-plus-outline" d="M12,3c5.5,0,10,3.58,10,8a6.671,6.671,0,0,1-.22,1.68,6.234,6.234,0,0,0-1.9-.62A4.656,4.656,0,0,0,20,11c0-3.31-3.58-6-8-6S4,7.69,4,11s3.58,6,8,6l1.09-.05L13,18l.08.95L12,19a12.811,12.811,0,0,1-3.53-.5A11.034,11.034,0,0,1,2,21c2.33-2.33,2.75-3.9,2.75-4.5A7.218,7.218,0,0,1,2,11C2,6.58,6.5,3,12,3m6,11h2v3h3v2H20v3H18V19H15V17h3Z" transform="translate(-2 -3)" fill="#059cdf"/>
</svg>
