<svg xmlns="http://www.w3.org/2000/svg" width="17.35" height="13.012" viewBox="0 0 17.35 13.012">
  <path id="Path_page-previous-outline" data-name="Path / page-previous-outline" d="M1.446,3H13.735a1.446,1.446,0,0,1,1.446,1.446V7.337H13.735V4.446H1.446V14.566H13.735V11.675h1.446v2.892a1.446,1.446,0,0,1-1.446,1.446H1.446A1.446,1.446,0,0,1,0,14.566V4.446A1.446,1.446,0,0,1,1.446,3m10.844,8.675V10.229h5.06V8.783h-5.06V7.337L9.4,9.506l2.892,2.169m-9.4-1.446h5.06V8.783H2.892v1.446m0-2.892h5.06V5.892H2.892V7.337m0,5.783H5.783V11.675H2.892Z" transform="translate(0 -3)" fill="#666" opacity="0.8"/>
</svg>
