<svg xmlns="http://www.w3.org/2000/svg" width="24.424" height="24.424" viewBox="0 0 24.424 24.424">
  <path id="Path_account-lock-outline" data-name="Path / account-lock-outline" d="M27.139,20.711v-.643a3.214,3.214,0,0,0-6.427,0v.643A1.289,1.289,0,0,0,19.426,22v5.142a1.289,1.289,0,0,0,1.285,1.285h6.427a1.289,1.289,0,0,0,1.285-1.285V22a1.289,1.289,0,0,0-1.285-1.285m-1.285,0H22v-.643a1.928,1.928,0,0,1,3.856,0v.643m-9,3.856H4V20.711c0-3.432,6.852-5.142,10.284-5.142a18.433,18.433,0,0,1,5.142.848,6.02,6.02,0,0,0-1.08,2.211,14.913,14.913,0,0,0-4.062-.617c-3.818,0-7.841,1.877-7.841,2.7v1.414H16.855v2.442M14.284,14.284A5.142,5.142,0,1,0,9.142,9.142a5.141,5.141,0,0,0,5.142,5.142m0-7.713a2.571,2.571,0,1,1-2.571,2.571A2.57,2.57,0,0,1,14.284,6.571Z" transform="translate(-4 -4)" fill="#666"/>
</svg>
