<!-- Generated by IcoMoon.io -->
<svg version="1.1" xmlns="http://www.w3.org/2000/svg" width="1024" height="1024" viewBox="0 0 1024 1024">
<g id="icomoon-ignore">
</g>
<path d="M776.661 565.163l-158.891-249.259c-0.758-0.69-1.579-1.361-2.433-1.989l-0.084-0.059c-3.157-2.347-6.784-4.267-10.24-6.613-1.749-1.024-3.627-1.963-5.419-2.901-6.935-3.614-15.179-7.068-23.723-9.86l-1.194-0.338c-12.835-4-27.592-6.304-42.887-6.304-11.429 0-22.557 1.286-33.248 3.722l1-0.192c-24.789 3.741-46.971 12.557-66.264 25.378l0.6-0.375-2.688 1.963c-21.319 15.049-36.322 37.823-40.958 64.17l-0.087 0.598c-0.203 2.87-0.319 6.218-0.319 9.594 0 23.396 5.555 45.495 15.418 65.049l-0.379-0.829c23.936 58.496 55.467 113.963 74.155 174.379 6.174 14.802 9.76 31.998 9.76 50.032 0 24.288-6.505 47.057-17.867 66.66l0.342-0.639c-48.597 75.947-150.443 105.429-234.667 115.413 10.136 20.956 22.374 38.99 36.828 54.984l-0.178-0.2c12.173 13.509 29.729 21.965 49.26 21.965 11.189 0 21.73-2.775 30.972-7.674l-0.359 0.174c36.316-20.059 66.549-39.17 95.626-59.804l-3.082 2.076 101.973-64 201.899-127.189c11.853-6.715 22.023-14.71 30.836-24.006l0.055-0.058c9.689-11.479 15.578-26.439 15.578-42.775 0-6.293-0.874-12.382-2.507-18.152l0.113 0.469c-4.414-12.682-10.19-23.678-17.333-33.627l0.266 0.39z"></path>
<path d="M323.968 729.472c7.677-10.652 12.916-23.548 14.637-37.533l0.040-0.398c0.036-1.414 0.057-3.079 0.057-4.748 0-38.697-11.146-74.791-30.402-105.246l0.478 0.81c-19.041-31.989-37.271-69.408-52.428-108.362l-1.801-5.259c-5.248-18.781-8.264-40.348-8.264-62.619 0-2.076 0.026-4.146 0.078-6.21l-0.006 0.306c3.064-28.079 11.727-53.59 24.856-76.184l-0.493 0.92c13.428-21.485 31.052-39.121 51.846-52.169l0.676-0.396c35.639-25.47 78.314-43.526 124.539-50.973l1.712-0.227c9.8-1.405 21.118-2.208 32.623-2.208 9.009 0 17.902 0.492 26.656 1.45l-1.081-0.096c20.011 2.176 39.083 9.728 58.453 13.44 0.597-1.963-1.408-5.504-2.816-8.533-2.731-5.719-5.388-10.457-8.307-15.012l0.329 0.548c-3.328-5.163-6.656-9.899-8.192-12.8-4.267-6.4-8.192-11.904-12.8-18.048-2.091-2.859-4.267-5.803-6.613-8.533-1.621-2.091-3.371-4.267-4.907-6.101-11.449-14.152-28.815-23.126-48.277-23.126-11.657 0-22.563 3.22-31.875 8.819l0.28-0.156c-36.288 20.060-66.521 39.198-95.589 59.87l3.045-2.056-102.016 64-201.899 127.317c-11.858 6.702-22.030 14.699-30.834 24.004l-0.056 0.060c-9.694 11.48-15.587 26.445-15.587 42.786 0 6.305 0.877 12.405 2.516 18.185l-0.114-0.469c4.414 12.666 10.19 23.648 17.332 33.582l-0.265-0.388-2.645-3.797 171.947 272.043c1.835 2.773 23.509 1.877 26.155 1.664 13.865-1.235 26.646-3.999 38.784-8.15l-1.152 0.342c28.878-10.206 53.085-27.592 71.277-50.050l0.233-0.297z"></path>
<path d="M917.547 198.101v-113.579h-66.304v113.579h-107.179v62.293h107.179v121.472h66.304v-121.472h106.667v-62.293z"></path>
</svg>
