<!-- Generated by IcoMoon.io -->
<svg version="1.1" xmlns="http://www.w3.org/2000/svg" width="1030" height="1024" viewBox="0 0 1030 1024">
<g id="icomoon-ignore">
</g>
<path fill="#fff" d="M500.134 1008.007c33.296-18.524 61.034-36.168 87.709-55.205l-2.793 1.894 279.242-174.982c42.694-25.668 79.352-51.567 113.99-79.845l-1.722 1.363c32.287-21.608 53.259-57.931 53.259-99.153 0-18.75-4.339-36.486-12.067-52.259l0.31 0.701c-24.339-64.423-68.63-122.413-104.53-180.808q-12.192-19.795-24.316-39.567l-24.879-40.489q-12.349-20.245-24.744-40.264-11.989-19.547-24.024-39.095-11.247-18.423-22.652-36.845c-28.478-46.383-50.229-99.739-91.709-136.629-26.734-22.945-61.756-36.913-100.039-36.913-0.005 0-0.010 0-0.015 0h0.001c-1.789-0.084-3.887-0.131-5.996-0.131-17.341 0-33.929 3.225-49.196 9.109l0.936-0.317c-19.491 10.684-36.095 21.507-51.819 33.43l1.027-0.747-305.493 191.335q-69.124 43.324-138.789 85.815c-31.578 19.302-52.333 53.588-52.333 92.723 0 6.572 0.585 13.008 1.707 19.258l-0.098-0.657c4.84 27.786 15.702 52.414 31.216 73.395l-0.331-0.469c4.206 6.411 7.243 13.496 11.247 19.907l15.746 25.463 92.631 150.711q50.589 82.306 101.224 164.612c12.417 20.245 25.373 40.062 37.138 60.577 31.267 54.481 72.386 97.040 139.306 99.784 1.323 0.043 2.878 0.067 4.438 0.067 24.285 0 47.194-5.895 67.372-16.333l-0.819 0.385z"></path>
<path fill="#100f0c" d="M771.301 247.458c-0.871-0.804-1.81-1.586-2.787-2.318l-0.093-0.066c-3.644-2.699-7.805-5.174-11.809-7.626-2.024-1.237-4.184-2.249-6.253-3.374-8.002-4.184-17.506-8.176-27.357-11.4l-1.368-0.387c-14.803-4.615-31.823-7.273-49.463-7.273-13.154 0-25.962 1.478-38.268 4.277l1.152-0.22c-28.583 4.298-54.163 14.461-76.405 29.246l0.69-0.431-3.127 2.249c-24.529 17.375-41.789 43.617-47.137 73.967l-0.101 0.691c-0.23 3.284-0.361 7.116-0.361 10.979 0 27.028 6.423 52.556 17.827 75.14l-0.438-0.956c27.578 67.482 63.861 131.366 85.478 200.94 14.126 45.596 17.883 91.799-8.998 133.728-55.965 87.547-173.385 121.468-270.559 133.030 11.69 24.149 25.787 44.933 42.43 63.376l-0.208-0.235c14.015 15.566 34.234 25.309 56.729 25.309 12.92 0 25.089-3.214 35.751-8.886l-0.412 0.2c41.875-23.056 76.762-45.072 110.3-68.864l-3.521 2.371 350.234-220.33c13.641-7.752 25.348-16.966 35.5-27.668l0.063-0.067c11.169-13.207 17.958-30.43 17.958-49.238 0-7.295-1.021-14.351-2.929-21.033l0.132 0.539c-5.055-14.589-11.664-27.241-19.837-38.7l0.312 0.46z"></path>
<path fill="#e45718" d="M78.639 475.526s198.106 313.298 198.218 313.456c2.114 3.239 27.105 2.249 30.142 1.934 15.959-1.397 30.683-4.585 44.655-9.389l-1.308 0.391c33.288-11.762 61.194-31.794 82.173-57.671l0.268-0.341c8.832-12.272 14.867-27.12 16.869-43.22l0.047-0.463c6.546-42.401-15.746-88.604-34.371-125.81-21.94-36.863-42.96-79.991-60.45-124.884l-2.084-6.077c-6.171-21.848-9.718-46.938-9.718-72.857 0-2.168 0.025-4.33 0.074-6.486l-0.006 0.321c3.55-32.354 13.538-61.743 28.665-87.777l-0.57 1.062c15.499-24.735 35.804-45.047 59.751-60.097l0.78-0.457c41.079-29.286 90.264-50.028 143.53-58.541l1.962-0.259c11.249-1.6 24.241-2.514 37.446-2.514 10.43 0 20.727 0.57 30.861 1.68l-1.252-0.111c23.101 2.474 44.988 11.247 67.482 15.476 0.697-2.249-1.62-6.343-3.307-9.875-3.165-6.611-6.221-12.072-9.57-17.328l0.393 0.659c-3.846-6.006-7.648-11.427-9.627-14.621-4.499-7.333-9.493-13.721-14.644-20.785-2.429-3.329-5.016-6.748-7.626-10.1-1.845-2.407-3.914-4.724-5.691-7.063-13.19-16.291-33.189-26.621-55.6-26.621-13.458 0-26.046 3.725-36.789 10.2l0.321-0.18c-41.906 23.085-76.799 45.1-110.353 68.881l3.551-2.389-350.211 220.33c-13.641 7.743-25.349 16.95-35.501 27.647l-0.062 0.066c-11.159 13.224-17.942 30.458-17.942 49.276 0 7.281 1.015 14.324 2.912 20.996l-0.131-0.54c5.059 14.589 11.667 27.241 19.837 38.701l-0.312-0.461z"></path>
</svg>
