<!-- Generated by IcoMoon.io -->
<svg version="1.1" xmlns="http://www.w3.org/2000/svg" width="1024" height="1024" viewBox="0 0 1024 1024">
<title></title>
<g id="icomoon-ignore">
</g>
<path fill="#000" d="M921.963 638.464c-9.505 10.006-20.397 18.568-32.398 25.408l-0.69 0.362-325.675 204.8c-27.91 19.919-60.355 40.402-93.923 59.112l-5.384 2.755c-9.533 5.090-20.851 8.079-32.867 8.079-20.914 0-39.712-9.056-52.688-23.461l-0.056-0.064c-16.999-15.328-29.809-34.988-36.707-57.248l-0.242-0.907c46.784-7.872 91.733-9.643 136.533-28.032 43.584-17.899 94.528-50.667 112.768-96.213 10.015-21.487 15.858-46.647 15.858-73.172 0-18.24-2.763-35.835-7.893-52.389l0.334 1.252c-20.053-64.661-53.781-124.117-79.424-186.773-10.187-20.064-16.154-43.75-16.154-68.829 0-3.638 0.126-7.247 0.373-10.822l-0.027 0.482c5.054-28.861 21.108-53.26 43.592-69.174l0.333-0.224q1.451-1.067 2.923-2.133c20.037-13.355 43.823-22.806 69.439-26.675l0.961-0.119c10.375-2.398 22.288-3.772 34.522-3.772 16.402 0 32.227 2.47 47.123 7.059l-1.133-0.3c10.432 3.351 19.269 7.059 27.716 11.416l-1.006-0.472c1.941 1.024 3.925 2.005 5.824 3.136 3.733 2.261 7.595 4.565 10.987 7.083 1 0.725 1.869 1.424 2.702 2.164l-0.035-0.031 170.261 267.264c7.313 10.241 13.459 22.022 17.856 34.622l0.299 0.983c1.645 5.704 2.59 12.256 2.59 19.029 0 17.494-6.31 33.514-16.779 45.909l0.087-0.106zM567.211 169.536c-51.348 8.157-97.078 27.436-136.257 55.32l0.983-0.664c-22.996 14.41-41.881 33.288-55.873 55.552l-0.425 0.725c-13.526 23.211-22.802 50.528-26.008 79.673l-0.083 0.924c-0.040 1.704-0.063 3.712-0.063 5.726 0 24.093 3.294 47.416 9.456 69.544l-0.432-1.819c18.206 47.391 37.748 87.486 60.249 125.625l-2.115-3.876c1.835 3.669 3.755 7.296 5.717 10.901 15.299 23.059 27.696 49.744 35.779 78.243l0.488 2.013c1.551 6.568 2.44 14.109 2.44 21.857 0 21.846-7.068 42.041-19.041 58.423l0.195-0.28c-28.339 32.352-69.191 53.139-114.923 54.755l-0.277 0.008c-1.518 0.076-3.297 0.119-5.086 0.119-7.447 0-14.719-0.75-21.745-2.179l0.697 0.118c-5.264-0.258-9.93-2.62-13.212-6.255l-0.015-0.017c-2.411-3.435-4.523-7.125-6.741-10.667l-174.977-276.586c-7.263-10.18-13.366-21.89-17.73-34.415l-0.296-0.977c-1.642-5.699-2.586-12.246-2.586-19.013 0-17.492 6.308-33.51 16.774-45.904l-0.087 0.106c9.505-10.006 20.397-18.568 32.398-25.408l0.69-0.362 325.696-204.885c27.909-19.917 60.353-40.4 93.921-59.111l5.386-2.756c9.69-5.848 21.391-9.308 33.9-9.308 20.842 0 39.441 9.604 51.613 24.629l0.097 0.124c1.664 2.133 3.563 4.267 5.291 6.571 2.432 3.179 4.821 6.293 7.083 9.387 4.8 6.571 9.387 12.501 13.611 19.307 1.835 2.987 5.376 8.021 8.939 13.589 2.775 4.293 5.617 9.368 8.154 14.617l0.379 0.871c1.768 2.588 2.89 5.744 3.070 9.15l0.002 0.045c-20.757-3.989-41.195-12.096-62.656-14.379-8.186-0.911-17.678-1.431-27.291-1.431-12.374 0-24.547 0.861-36.463 2.527l1.375-0.157zM103.595 482.923l2.368 3.733 0.128 0.213z"></path>
</svg>
