<svg xmlns="http://www.w3.org/2000/svg" xmlns:xlink="http://www.w3.org/1999/xlink" width="24" height="20.038" viewBox="0 0 24 20.038">
  <defs>
    <clipPath id="clip-path">
      <rect id="Rectangle_177673" data-name="Rectangle 177673" width="24" height="20.038" fill="#059cdf"/>
    </clipPath>
  </defs>
  <g id="Group_154462" data-name="Group 154462" transform="translate(-13821.322 -11868.581)">
    <g id="Group_154460" data-name="Group 154460" transform="translate(13821.322 11868.581)">
      <g id="Group_154459" data-name="Group 154459" clip-path="url(#clip-path)">
        <path id="Path_114250" data-name="Path 114250" d="M18.424,11.455,14.7,5.613a.709.709,0,0,0-.059-.048c-.074-.055-.159-.1-.24-.155-.041-.024-.085-.046-.127-.068A3.958,3.958,0,0,0,13.69,5.1a3.493,3.493,0,0,0-1.761-.065,3.817,3.817,0,0,0-1.539.586l-.063.046a2.332,2.332,0,0,0-.962,1.518,3.39,3.39,0,0,0,.345,1.73c.561,1.371,1.3,2.671,1.738,4.087a3.12,3.12,0,0,1-.182,2.72c-1.139,1.78-3.526,2.471-5.5,2.7a5.39,5.39,0,0,0,.859,1.284,1.552,1.552,0,0,0,1.872.339A23.313,23.313,0,0,0,10.666,18.7l2.39-1.5,4.732-2.981a3.05,3.05,0,0,0,.724-.564,1.559,1.559,0,0,0,.309-1.417,3.054,3.054,0,0,0-.4-.779" transform="translate(-0.221 -0.19)" fill="#059cdf"/>
        <path id="Path_114251" data-name="Path 114251" d="M7.593,15.17a1.924,1.924,0,0,0,.344-.889,4.622,4.622,0,0,0-.7-2.559A18.087,18.087,0,0,1,5.966,9.059a5.657,5.657,0,0,1-.192-1.606,4.511,4.511,0,0,1,.571-1.764A3.8,3.8,0,0,1,7.576,4.457a7,7,0,0,1,2.959-1.2,5.675,5.675,0,0,1,1.364-.02c.469.051.916.228,1.37.315.014-.046-.033-.129-.066-.2a3.215,3.215,0,0,0-.187-.339c-.078-.121-.156-.232-.192-.3-.1-.15-.192-.279-.3-.423-.049-.067-.1-.136-.155-.2-.038-.049-.079-.1-.115-.143a1.452,1.452,0,0,0-1.872-.339A23.174,23.174,0,0,0,8.213,2.963l-2.391,1.5L1.09,7.447a3.03,3.03,0,0,0-.724.564A1.559,1.559,0,0,0,.057,9.429a3.048,3.048,0,0,0,.4.778L.4,10.118l4.03,6.376c.043.065.551.044.613.039a3.836,3.836,0,0,0,.882-.183A3.715,3.715,0,0,0,7.6,15.17" transform="translate(0 -0.054)" fill="#059cdf"/>
        <path id="Path_114252" data-name="Path 114252" d="M22.2,2.662V0H20.646V2.662H18.134v1.46h2.512V6.969H22.2V4.122h2.5V2.662Z" transform="translate(-0.695)" fill="#059cdf"/>
      </g>
    </g>
  </g>
</svg>
