<svg xmlns="http://www.w3.org/2000/svg" width="28.649" height="28.601" viewBox="0 0 28.649 28.601">
  <g id="noun-work-flow-7120025" transform="translate(-9.868 -9.9)">
    <g id="Group_162690" data-name="Group 162690" transform="translate(17.831 17.312)">
      <path id="Path_118549" data-name="Path 118549" d="M30.77,39.524l1.122-.673a5.053,5.053,0,0,0,1.345.557l.318,1.268a.222.222,0,0,0,.218.173H35.2a.226.226,0,0,0,.22-.173l.318-1.268a5.084,5.084,0,0,0,1.345-.557l1.122.673a.23.23,0,0,0,.277-.034l1.009-1.009a.227.227,0,0,0,.034-.277l-.673-1.122a5.054,5.054,0,0,0,.557-1.345l1.268-.318a.222.222,0,0,0,.17-.218V33.773a.226.226,0,0,0-.173-.22l-1.268-.318a5.084,5.084,0,0,0-.557-1.345l.673-1.122a.227.227,0,0,0-.034-.277l-1.009-1.009a.227.227,0,0,0-.277-.034l-1.122.673a5.054,5.054,0,0,0-1.345-.557l-.318-1.268a.222.222,0,0,0-.218-.17H33.774a.226.226,0,0,0-.22.173l-.318,1.268a5.084,5.084,0,0,0-1.345.557l-1.122-.673a.23.23,0,0,0-.277.034l-1.009,1.009a.227.227,0,0,0-.034.277l.673,1.122a5.054,5.054,0,0,0-.557,1.345l-1.268.318a.222.222,0,0,0-.17.218V35.2a.226.226,0,0,0,.173.22l1.268.318a5.084,5.084,0,0,0,.557,1.345l-.673,1.122a.227.227,0,0,0,.034.277l1.009,1.009A.23.23,0,0,0,30.77,39.524ZM30.584,37.2a.231.231,0,0,0,0-.239,4.6,4.6,0,0,1-.6-1.456.226.226,0,0,0-.166-.17l-1.231-.309V33.95l1.231-.307a.223.223,0,0,0,.166-.17,4.581,4.581,0,0,1,.6-1.456.226.226,0,0,0,0-.239l-.652-1.088.759-.759,1.088.652a.231.231,0,0,0,.239,0,4.593,4.593,0,0,1,1.459-.6.226.226,0,0,0,.17-.166l.3-1.232h1.072l.307,1.232a.223.223,0,0,0,.17.166,4.563,4.563,0,0,1,1.459.6.226.226,0,0,0,.239,0l1.088-.652.759.759-.652,1.088a.231.231,0,0,0,0,.239,4.6,4.6,0,0,1,.6,1.456.226.226,0,0,0,.166.17l1.229.307v1.072l-1.231.307A.223.223,0,0,0,39,35.5a4.581,4.581,0,0,1-.6,1.456.226.226,0,0,0,0,.239l.652,1.088-.759.759L37.2,38.39a.226.226,0,0,0-.239,0A4.593,4.593,0,0,1,35.5,39a.226.226,0,0,0-.17.166l-.3,1.232H33.951l-.307-1.232a.223.223,0,0,0-.17-.166,4.563,4.563,0,0,1-1.459-.6.226.226,0,0,0-.239,0l-1.088.652-.759-.759Z" transform="translate(-28.125 -28.124)" fill="#666"/>
      <path id="Path_118549_-_Outline" data-name="Path 118549 - Outline" d="M35.2,41.1H33.774a.47.47,0,0,1-.461-.365l-.282-1.123a5.316,5.316,0,0,1-1.136-.47l-1,.6a.468.468,0,0,1-.244.068.484.484,0,0,1-.332-.132l-.006-.005L29.307,38.66a.48.48,0,0,1-.07-.585l.6-.994a5.337,5.337,0,0,1-.47-1.136l-1.126-.282a.475.475,0,0,1-.362-.463V33.773a.469.469,0,0,1,.362-.461l1.123-.282a5.317,5.317,0,0,1,.47-1.136l-.6-1a.479.479,0,0,1,.072-.582l1.009-1.009a.48.48,0,0,1,.581-.073l1,.6a5.337,5.337,0,0,1,1.136-.47l.282-1.126a.475.475,0,0,1,.463-.362H35.2a.469.469,0,0,1,.461.362l.282,1.123a5.317,5.317,0,0,1,1.136.47l1-.6a.468.468,0,0,1,.244-.068.482.482,0,0,1,.338.14l1.009,1.009a.48.48,0,0,1,.07.585l-.6.994a5.337,5.337,0,0,1,.47,1.136l1.126.282a.475.475,0,0,1,.362.463V35.2a.469.469,0,0,1-.362.461l-1.123.282a5.317,5.317,0,0,1-.47,1.136l.6,1a.479.479,0,0,1-.072.582L38.66,39.667a.48.48,0,0,1-.581.073l-1-.6a5.337,5.337,0,0,1-1.136.47l-.282,1.126A.475.475,0,0,1,35.2,41.1Zm-1.054-.954h.681l.257-1.042a.479.479,0,0,1,.36-.35,4.349,4.349,0,0,0,1.378-.571.483.483,0,0,1,.5,0l.92.551.483-.483-.552-.921a.476.476,0,0,1,0-.5,4.33,4.33,0,0,0,.572-1.379.47.47,0,0,1,.351-.359l1.041-.259v-.682l-1.04-.259a.478.478,0,0,1-.35-.36,4.355,4.355,0,0,0-.571-1.376.484.484,0,0,1-.006-.5l.552-.922-.483-.483-.921.552a.485.485,0,0,1-.5,0,4.318,4.318,0,0,0-1.381-.572.47.47,0,0,1-.359-.351l-.259-1.041h-.681l-.257,1.042a.479.479,0,0,1-.36.35,4.349,4.349,0,0,0-1.378.571.488.488,0,0,1-.5.006l-.922-.552-.483.483.552.921a.476.476,0,0,1,0,.5,4.33,4.33,0,0,0-.572,1.379.47.47,0,0,1-.351.359l-1.041.259v.682l1.042.262a.478.478,0,0,1,.349.36,4.355,4.355,0,0,0,.571,1.376.484.484,0,0,1,.006.5l-.554.92.483.483.921-.552a.464.464,0,0,1,.245-.069.48.48,0,0,1,.255.073,4.319,4.319,0,0,0,1.381.572.47.47,0,0,1,.359.351Z" transform="translate(-28.125 -28.124)" fill="#707070"/>
      <path id="Path_118550" data-name="Path 118550" d="M42.487,45.568a3.081,3.081,0,1,0-3.081-3.081A3.084,3.084,0,0,0,42.487,45.568Zm0-5.708a2.627,2.627,0,1,1-2.627,2.627A2.631,2.631,0,0,1,42.487,39.861Z" transform="translate(-36.127 -36.125)" fill="#666"/>
      <path id="Path_118550_-_Outline" data-name="Path 118550 - Outline" d="M42.487,45.818a3.331,3.331,0,1,1,3.331-3.331A3.335,3.335,0,0,1,42.487,45.818Zm0-5.708a2.377,2.377,0,1,0,2.377,2.377A2.379,2.379,0,0,0,42.487,40.111Z" transform="translate(-36.127 -36.125)" fill="#707070"/>
    </g>
    <g id="Group_162691" data-name="Group 162691" transform="translate(30.555 11.608)">
      <path id="Path_118551" data-name="Path 118551" d="M71.824,10.156a3.856,3.856,0,1,0,3.856,3.856,3.86,3.86,0,0,0-3.856-3.856Zm0,7.161a3.305,3.305,0,1,1,3.305-3.305A3.308,3.308,0,0,1,71.824,17.317Z" transform="translate(-67.968 -10.156)" fill="#666"/>
      <path id="Path_118551_-_Outline" data-name="Path 118551 - Outline" d="M71.824,9.906a4.106,4.106,0,1,1-4.106,4.106A4.111,4.111,0,0,1,71.824,9.906Zm0,7.712a3.606,3.606,0,1,0-3.606-3.606A3.61,3.61,0,0,0,71.824,17.618Zm0-7.162a3.555,3.555,0,1,1-3.555,3.555A3.559,3.559,0,0,1,71.824,10.457Zm0,6.61a3.055,3.055,0,1,0-3.055-3.055A3.059,3.059,0,0,0,71.824,17.067Z" transform="translate(-67.968 -10.156)" fill="#707070"/>
      <path id="Path_118552" data-name="Path 118552" d="M76.715,17.266l-2.1,2.005-1.077-1.25a.275.275,0,0,0-.416.361l1.267,1.468a.279.279,0,0,0,.2.1h.014a.274.274,0,0,0,.19-.077l2.314-2.2a.274.274,0,0,0,.011-.388.279.279,0,0,0-.394-.011Z" transform="translate(-71.259 -14.71)" fill="#666"/>
      <path id="Path_118552_-_Outline" data-name="Path 118552 - Outline" d="M76.905,16.94a.526.526,0,0,1,.365.907l-2.313,2.2a.525.525,0,0,1-.362.146h-.032a.529.529,0,0,1-.368-.183l-1.266-1.467a.526.526,0,0,1-.127-.381.528.528,0,0,1,.524-.489.524.524,0,0,1,.4.183l.9,1.051,1.914-1.824A.524.524,0,0,1,76.905,16.94ZM74.594,19.7a.024.024,0,0,0,.018-.009l2.313-2.2a.025.025,0,0,0,0-.035.032.032,0,0,0-.022-.009.025.025,0,0,0-.018.007l-2.294,2.186-1.248-1.45c-.017-.019-.029-.007-.034,0a.024.024,0,0,0-.01.017.028.028,0,0,0,.007.021l1.266,1.467a.027.027,0,0,0,.019.01Z" transform="translate(-71.259 -14.71)" fill="#707070"/>
    </g>
    <path id="Path_118553" data-name="Path 118553" d="M14.012,67.969a3.856,3.856,0,1,0,3.856,3.856A3.86,3.86,0,0,0,14.012,67.969Zm0,7.161a3.305,3.305,0,1,1,3.305-3.305A3.308,3.308,0,0,1,14.012,75.13Z" transform="translate(-0.038 -40.347)" fill="#666"/>
    <path id="Path_118553_-_Outline" data-name="Path 118553 - Outline" d="M14.012,67.719a4.106,4.106,0,1,1-4.106,4.106A4.111,4.111,0,0,1,14.012,67.719Zm0,7.712a3.606,3.606,0,1,0-3.606-3.606A3.61,3.61,0,0,0,14.012,75.431Zm0-7.162a3.555,3.555,0,1,1-3.555,3.555A3.559,3.559,0,0,1,14.012,68.27Zm0,6.61a3.055,3.055,0,1,0-3.055-3.055A3.059,3.059,0,0,0,14.012,74.88Z" transform="translate(-0.038 -40.347)" fill="#707070"/>
    <path id="Path_118555" data-name="Path 118555" d="M15.867,24.471a.134.134,0,0,0,.033,0,.274.274,0,0,0,.267-.212c.091-.388,2.333-9.464,13.038-9.5v.961a.276.276,0,0,0,.457.207l3-2.65a.28.28,0,0,0,.094-.207.27.27,0,0,0-.094-.207l-3-2.65a.276.276,0,0,0-.457.207v.956c-1.27.006-6.39.237-10,3.66-2.325,2.2-3.528,5.283-3.58,9.152a.273.273,0,0,0,.242.278Zm3.713-9.028c3.517-3.338,8.709-3.506,9.72-3.506.107,0,.168,0,.174,0a.28.28,0,0,0,.2-.077.273.273,0,0,0,.085-.2v-.625l2.308,2.038-2.308,2.038V14.49a.276.276,0,0,0-.273-.275c-8.318-.1-11.865,5.194-13.182,8.087a11.073,11.073,0,0,1,3.275-6.858Z" transform="translate(-3.523)" fill="#666"/>
    <path id="Path_118555_-_Outline" data-name="Path 118555 - Outline" d="M16.144,24.755l-.278-.032-.036,0a.523.523,0,0,1-.456-.53c.053-3.939,1.284-7.078,3.658-9.329,3.44-3.262,8.193-3.686,9.923-3.726v-.709a.525.525,0,0,1,.311-.479A.513.513,0,0,1,29.48,9.9a.529.529,0,0,1,.346.129l3,2.651a.521.521,0,0,1,.178.394.531.531,0,0,1-.176.392l-3,2.652a.518.518,0,0,1-.346.131.526.526,0,0,1-.527-.525v-.709c-10.29.174-12.457,8.928-12.545,9.3a.52.52,0,0,1-.275.349Zm-.261-.538.023.006a.024.024,0,0,0,.017-.016c.093-.4,2.385-9.659,13.282-9.7h.251v1.212a.025.025,0,0,0,.014.022.021.021,0,0,0,.026,0l3-2.651a.029.029,0,0,0,.009-.019.02.02,0,0,0-.007-.017l-3-2.651a.023.023,0,0,0-.025,0,.026.026,0,0,0-.016.023v1.2h-.249c-1.424.006-6.34.283-9.83,3.592-2.273,2.154-3.451,5.174-3.5,8.974A.025.025,0,0,0,15.882,24.217Zm.649-1.813-.476-.135a11.336,11.336,0,0,1,3.351-7.008l0,0c3.581-3.4,8.865-3.572,9.888-3.572.092,0,.151,0,.173,0h.011a.04.04,0,0,0,.016-.005.027.027,0,0,0,.011-.02V10.485l2.936,2.592-2.936,2.592V14.49a.026.026,0,0,0-.027-.025h-.225C21.331,14.463,17.882,19.439,16.532,22.4ZM29.3,12.187c-.99,0-6.1.166-9.548,3.437l0,0a10.346,10.346,0,0,0-2.892,5.084,14.047,14.047,0,0,1,3.2-3.724,14.218,14.218,0,0,1,9.2-3.025h.233a.523.523,0,0,1,.52.525v.071l1.68-1.484-1.68-1.484v.071a.526.526,0,0,1-.161.377.533.533,0,0,1-.384.148h-.008C29.436,12.189,29.382,12.187,29.3,12.187Z" transform="translate(-3.523)" fill="#707070"/>
    <path id="Path_118556" data-name="Path 118556" d="M52.671,49.223a.273.273,0,0,0-.3.212c-.091.388-2.333,9.464-13.038,9.5v-.961a.276.276,0,0,0-.457-.207l-3,2.65a.28.28,0,0,0-.094.207.27.27,0,0,0,.094.207l3,2.65a.282.282,0,0,0,.182.069.269.269,0,0,0,.113-.025.275.275,0,0,0,.162-.251v-.956c1.272,0,6.393-.234,10-3.658,2.325-2.2,3.528-5.283,3.58-9.152a.279.279,0,0,0-.245-.284Zm-3.713,9.028c-3.892,3.694-9.833,3.506-9.893,3.506a.28.28,0,0,0-.2.077.273.273,0,0,0-.085.2v.625L36.471,60.62l2.308-2.038v.625a.276.276,0,0,0,.273.275h.212c8.169,0,11.667-5.219,12.97-8.089a11.073,11.073,0,0,1-3.275,6.858Z" transform="translate(-16.574 -25.297)" fill="#666"/>
    <path id="Path_118556_-_Outline" data-name="Path 118556 - Outline" d="M52.485,48.95l.215.025a.532.532,0,0,1,.466.532c-.053,3.944-1.284,7.083-3.658,9.334-3.45,3.271-8.2,3.687-9.925,3.723v.709a.525.525,0,0,1-.311.479.512.512,0,0,1-.214.046.534.534,0,0,1-.343-.128l0,0-3-2.65a.521.521,0,0,1-.178-.394.531.531,0,0,1,.176-.392l3-2.652a.518.518,0,0,1,.346-.131.526.526,0,0,1,.527.525v.709c10.29-.174,12.457-8.928,12.545-9.3A.516.516,0,0,1,52.472,49Zm.16.522h-.007a.023.023,0,0,0-.023.018c-.093.4-2.386,9.659-13.282,9.7h-.251V57.974a.025.025,0,0,0-.014-.022.021.021,0,0,0-.026,0l-3,2.651a.029.029,0,0,0-.009.019.02.02,0,0,0,.007.017l3,2.649a.026.026,0,0,0,.045-.016V62.068h.249c1.422,0,6.332-.271,9.832-3.589,2.273-2.154,3.451-5.174,3.5-8.974C52.666,49.5,52.665,49.476,52.645,49.472Zm-.639,1.818.476.135a11.336,11.336,0,0,1-3.351,7.008L49,58.558h0c-3.583,3.284-8.76,3.453-9.772,3.453h-.17a.04.04,0,0,0-.016.006.027.027,0,0,0-.011.02v1.179L36.093,60.62l2.936-2.592v1.179a.026.026,0,0,0,.027.025h.208C47.213,59.233,50.659,54.257,52.006,51.29Zm-3.185,6.747a10.358,10.358,0,0,0,2.86-5.05,14.009,14.009,0,0,1-3.2,3.722,14.255,14.255,0,0,1-9.217,3.024h-.212a.524.524,0,0,1-.523-.525v-.071l-1.68,1.484,1.68,1.484v-.071a.526.526,0,0,1,.161-.377.532.532,0,0,1,.383-.148h.153c.991,0,6.112-.166,9.561-3.439Z" transform="translate(-16.574 -25.297)" fill="#707070"/>
  </g>
</svg>
