<svg xmlns="http://www.w3.org/2000/svg" width="30.926" height="27.599" viewBox="0 0 30.926 27.599">
  <path id="Union_766" data-name="Union 766" d="M14446.447,2097.451a1.677,1.677,0,0,1-1.676-1.676v-5.467a1.677,1.677,0,0,1,1.676-1.676h2.6v-1.654a1.176,1.176,0,0,0-1.176-1.176h-3.225l-4.821,4.825a.734.734,0,0,1-.512.214.718.718,0,0,1-.508-.214l-4.825-4.825h-3.225a1.178,1.178,0,0,0-1.176,1.176v1.654h2.6a1.68,1.68,0,0,1,1.68,1.676v5.467a1.68,1.68,0,0,1-1.68,1.676h-6.653a1.677,1.677,0,0,1-1.676-1.676v-5.467a1.677,1.677,0,0,1,1.676-1.676h2.6v-1.654a2.631,2.631,0,0,1,2.627-2.626h3.225l4.607-4.607v-.834h-5.932a3.82,3.82,0,0,1-3.812-3.816v-1.426a3.82,3.82,0,0,1,3.813-3.816h13.314a3.82,3.82,0,0,1,3.815,3.816v1.426a3.82,3.82,0,0,1-3.815,3.816h-5.932v.834l4.607,4.607h3.225a2.631,2.631,0,0,1,2.627,2.626v1.654h2.6a1.677,1.677,0,0,1,1.676,1.676v5.467a1.677,1.677,0,0,1-1.676,1.676Zm-.225-7.143v5.467a.226.226,0,0,0,.225.225h6.657a.226.226,0,0,0,.225-.225v-5.467a.224.224,0,0,0-.225-.225h-6.657A.224.224,0,0,0,14446.223,2090.308Zm-20.917,0v5.467a.223.223,0,0,0,.225.225h6.653a.223.223,0,0,0,.225-.225v-5.467a.221.221,0,0,0-.225-.225h-6.653A.221.221,0,0,0,14425.306,2090.308Zm9.99-5.231,4.02,4.019,4.023-4.019-4.023-4.02Zm-5-11.409v1.426a2.371,2.371,0,0,0,2.365,2.365h13.314a2.368,2.368,0,0,0,2.365-2.365v-1.426a2.366,2.366,0,0,0-2.365-2.365h-13.314A2.368,2.368,0,0,0,14430.293,2073.668Zm11.246,21.545a.713.713,0,0,1,0-1.02l.313-.308h-6.813a.725.725,0,1,1,0-1.451h6.813l-.312-.308a.721.721,0,1,1,1.02-1.02l1.545,1.545a.707.707,0,0,1,0,1.016l-1.545,1.545a.707.707,0,0,1-.508.218A.715.715,0,0,1,14441.539,2095.213Zm-8.881-20.108a.725.725,0,0,1,0-1.451h13.314a.725.725,0,0,1,0,1.451Z" transform="translate(-14423.854 -2069.852)" fill="#666"/>
</svg>
