<svg xmlns="http://www.w3.org/2000/svg" xmlns:xlink="http://www.w3.org/1999/xlink" width="200" height="144" viewBox="0 0 200 144">
  <defs>
    <clipPath id="clip-Verified-2-white">
      <rect width="200" height="144"/>
    </clipPath>
  </defs>
  <g id="Verified-2-white" clip-path="url(#clip-Verified-2-white)">
    <g id="stamp" transform="translate(-69.135 14.361)" opacity="0.3">
      <path id="Union_375" data-name="Union 375" d="M35.161,74.762H9.337A6.083,6.083,0,0,1,3.3,68.63V64.355h-1.1A2.244,2.244,0,0,1,0,62.125v-9.2A10.276,10.276,0,0,1,10.16,42.613h7.691A2.283,2.283,0,0,0,20.14,40.29v-.557a21.71,21.71,0,0,0-4.665-13.194,16.6,16.6,0,0,1,2.1-22.391,15.786,15.786,0,0,1,12.816-4A16.435,16.435,0,0,1,44.586,14.089,16.791,16.791,0,0,1,41.016,27a18.141,18.141,0,0,0-4.3,11.428V40.29A2.284,2.284,0,0,0,39,42.613H46.69a10.16,10.16,0,0,1,10.074,9.479A18.38,18.38,0,0,1,70.588,69.93a18,18,0,0,1-35.427,4.832Zm3.748-4.922A13.645,13.645,0,1,0,52.552,55.992,13.778,13.778,0,0,0,38.908,69.84ZM7.691,68.63A1.652,1.652,0,0,0,9.337,70.3H34.516V69.93a18.7,18.7,0,0,1,.823-5.575H7.691Zm-3.2-15.794v6.875h33.05A17.632,17.632,0,0,1,52.184,51.44,5.809,5.809,0,0,0,46.6,46.983H38.908a6.811,6.811,0,0,1-6.776-6.875V38.245a22.569,22.569,0,0,1,5.4-14.215A12.214,12.214,0,0,0,40.1,14.645a11.775,11.775,0,0,0-19.59-7.153A12.4,12.4,0,0,0,16.57,16.5a12.35,12.35,0,0,0,2.473,7.25,26.41,26.41,0,0,1,5.583,15.89V40.2a6.81,6.81,0,0,1-6.776,6.875H10.16A5.745,5.745,0,0,0,4.487,52.836ZM48.8,75.874l-3.842-3.9a2.318,2.318,0,0,1,0-3.157,2.234,2.234,0,0,1,3.109,0l2.289,2.323,6.137-6.229a2.245,2.245,0,0,1,3.109,0,2.325,2.325,0,0,1,0,3.162l-7.687,7.8a2.185,2.185,0,0,1-3.116,0Z" transform="translate(134.135 13.639)" fill="#fff" stroke="#999" stroke-width="1"/>
    </g>
  </g>
</svg>
