<svg xmlns="http://www.w3.org/2000/svg" width="184" height="144" viewBox="0 0 270 270">
  <g id="grp1" transform="translate(64 72)" opacity="0.3" fill="#000" stroke="#bbb" stroke-linecap="round" stroke-linejoin="round" stroke-width="1.25">
    <path id="path1" d="M130.589,138.484H19.42a19.109,19.109,0,0,1-16.795-9.908,19.918,19.918,0,0,1,.012-19.791L58.222,10.493a19.19,19.19,0,0,1,33.578,0l55.572,98.293a19.972,19.972,0,0,1,0,19.8A19.117,19.117,0,0,1,130.589,138.484ZM75,13.359a6.7,6.7,0,0,0-5.956,3.514l-55.6,98.293a7.05,7.05,0,0,0,0,7.041,6.759,6.759,0,0,0,5.969,3.514H130.589a6.735,6.735,0,0,0,5.956-3.514,7.019,7.019,0,0,0,0-7.041L80.973,16.874A6.723,6.723,0,0,0,75,13.359Z"/>
    <path id="path2" d="M11.966,51.719a6.377,6.377,0,0,1-6.381-6.381V10.206a6.381,6.381,0,0,1,12.762,0V45.338A6.377,6.377,0,0,1,11.966,51.719Z" transform="translate(64 38)"/>
    <circle id="path3" cx="7.657" cy="7.657" r="7.657" transform="translate(68 96)"/>
  </g>
</svg>
