<svg xmlns="http://www.w3.org/2000/svg" xmlns:xlink="http://www.w3.org/1999/xlink" width="200" height="144" viewBox="0 0 200 144">
  <defs>
    <clipPath id="clip-Overdue-4-dark">
      <rect width="200" height="144"/>
    </clipPath>
  </defs>
  <g id="Overdue-4-dark" clip-path="url(#clip-Overdue-4-dark)">
    <rect width="200" height="144" fill="rgba(255,255,255,0)"/>
    <g id="noun-delay-3777046" transform="translate(-24.717 16.018)" opacity="0.3">
      <path id="Path_43883" data-name="Path 43883" d="M166.455,43.693l-4.967-20.979a2.529,2.529,0,0,0-4.27-1.255l-4.357,4.483a40.648,40.648,0,0,0-56.988,1.434,43.626,43.626,0,0,0,0,60.427c.523.538,1.045.986,1.481,1.524a4.3,4.3,0,0,0,2.963,1.166,4.447,4.447,0,0,0,3.311-1.524,4.646,4.646,0,0,0-.348-6.455l-1.22-1.166a34.434,34.434,0,0,1,.087-47.517,31.926,31.926,0,0,1,44.44-1.435l-4.793,4.931a2.653,2.653,0,0,0,1.22,4.393l20.39,5.111a2.548,2.548,0,0,0,3.05-3.138Z" transform="translate(0 0)" stroke="#bbb" stroke-width="1"/>
      <path id="Path_43884" data-name="Path 43884" d="M337.3,154.052l-8.21-5.192V135.738a3.593,3.593,0,0,0-3.578-3.578A3.534,3.534,0,0,0,322,135.738v15.016a3.56,3.56,0,0,0,1.684,3.017l9.823,6.245a3.717,3.717,0,0,0,1.895.561,3.536,3.536,0,0,0,1.894-6.525Z" transform="translate(-198.741 -96.151)" stroke="#bbb" stroke-width="1"/>
      <path id="Path_43885" data-name="Path 43885" d="M253.738,479.056l-1.333-.421a3.55,3.55,0,0,0-2.245,6.736,15.268,15.268,0,0,0,1.684.491,4.113,4.113,0,0,0,.912.141,3.582,3.582,0,0,0,3.438-2.667,3.43,3.43,0,0,0-2.456-4.281Z" transform="translate(-137.755 -388.985)" stroke="#bbb" stroke-width="1"/>
      <path id="Path_43886" data-name="Path 43886" d="M361.442,485.672l-1.4.21a3.574,3.574,0,0,0-3.017,4.07,3.664,3.664,0,0,0,3.508,3.087,1.75,1.75,0,0,0,.561-.07c.561-.07,1.193-.21,1.754-.28a3.589,3.589,0,0,0,2.806-4.21,3.682,3.682,0,0,0-4.21-2.807Z" transform="translate(-229.499 -395.249)" stroke="#bbb" stroke-width="1"/>
      <path id="Path_43887" data-name="Path 43887" d="M461.641,440.451l-1.123.842a3.582,3.582,0,0,0-.842,4.982,3.588,3.588,0,0,0,4.982.912c.491-.351.982-.7,1.4-1.052a3.582,3.582,0,0,0,.561-5.052A3.494,3.494,0,0,0,461.641,440.451Z" transform="translate(-315.268 -355.08)" stroke="#bbb" stroke-width="1"/>
      <path id="Path_43888" data-name="Path 43888" d="M537.3,353.3a3.623,3.623,0,0,0-4.771,1.754l-.632,1.263a3.578,3.578,0,0,0,1.474,4.842,3.439,3.439,0,0,0,3.3,0,3.642,3.642,0,0,0,1.543-1.544,11.418,11.418,0,0,0,.772-1.614A3.424,3.424,0,0,0,537.3,353.3Z" transform="translate(-375.535 -283.615)" stroke="#bbb" stroke-width="1"/>
    </g>
  </g>
</svg>
