<svg xmlns="http://www.w3.org/2000/svg" xmlns:xlink="http://www.w3.org/1999/xlink" width="500" height="152" viewBox="0 0 500 152">
  <defs>
    <clipPath id="clip-path">
      <rect id="Rectangle_171397" data-name="Rectangle 171397" width="500" height="152" rx="4" opacity="0.4"/>
    </clipPath>
    <filter id="Rectangle_171163" x="-8.385" y="-4.6" width="513.386" height="153.6" filterUnits="userSpaceOnUse">
      <feOffset dx="2" dy="4" input="SourceAlpha"/>
      <feGaussianBlur stdDeviation="1" result="blur"/>
      <feFlood flood-opacity="0.2"/>
      <feComposite operator="in" in2="blur"/>
      <feComposite in="SourceGraphic"/>
    </filter>
    <clipPath id="clip-path-2">
      <rect id="Rectangle_171395" data-name="Rectangle 171395" width="509.382" height="146.6" fill="none"/>
    </clipPath>
    <filter id="Path_110760" x="125.922" y="38.784" width="21.463" height="55.701" filterUnits="userSpaceOnUse">
      <feOffset dy="6" input="SourceAlpha"/>
      <feGaussianBlur stdDeviation="0.5" result="blur-2"/>
      <feFlood flood-opacity="0.588"/>
      <feComposite operator="in" in2="blur-2"/>
      <feComposite in="SourceGraphic"/>
    </filter>
    <filter id="Path_110494" x="298.049" y="34.03" width="21.464" height="55.701" filterUnits="userSpaceOnUse">
      <feOffset dy="6" input="SourceAlpha"/>
      <feGaussianBlur stdDeviation="0.5" result="blur-3"/>
      <feFlood flood-opacity="0.588"/>
      <feComposite operator="in" in2="blur-3"/>
      <feComposite in="SourceGraphic"/>
    </filter>
    <filter id="Path_110559" x="9.914" y="48.564" width="21.464" height="55.701" filterUnits="userSpaceOnUse">
      <feOffset dy="6" input="SourceAlpha"/>
      <feGaussianBlur stdDeviation="0.5" result="blur-4"/>
      <feFlood flood-opacity="0.588"/>
      <feComposite operator="in" in2="blur-4"/>
      <feComposite in="SourceGraphic"/>
    </filter>
    <filter id="Path_110669" x="352.365" y="33.311" width="22.195" height="57.612" filterUnits="userSpaceOnUse">
      <feOffset dy="6" input="SourceAlpha"/>
      <feGaussianBlur stdDeviation="0.5" result="blur-5"/>
      <feFlood flood-opacity="0.588"/>
      <feComposite operator="in" in2="blur-5"/>
      <feComposite in="SourceGraphic"/>
    </filter>
    <clipPath id="clip-_11d-Thunderstrom">
      <rect width="500" height="152"/>
    </clipPath>
  </defs>
  <g id="_11d-Thunderstrom" data-name="11d-Thunderstrom" clip-path="url(#clip-_11d-Thunderstrom)">
    <g id="Group_143179" data-name="Group 143179" transform="translate(-1038 -285)">
      <g id="Group_143169" data-name="Group 143169" transform="translate(1038 285)">
        <g id="Mask_Group_326" data-name="Mask Group 326" transform="translate(0)" clip-path="url(#clip-path)">
          <g id="Group_143167" data-name="Group 143167" transform="translate(-7.385 -4.6)">
            <g transform="matrix(1, 0, 0, 1, 7.39, 4.6)" filter="url(#Rectangle_171163)">
              <rect id="Rectangle_171163-2" data-name="Rectangle 171163" width="507.386" height="146.6" transform="translate(-7.39 -4.6)" fill="#171840"/>
            </g>
            <g id="Group_143163" data-name="Group 143163" clip-path="url(#clip-path-2)">
              <g transform="matrix(1, 0, 0, 1, 7.39, 4.6)" filter="url(#Path_110760)">
                <path id="Path_110760-2" data-name="Path 110760" d="M529.82,401.522c-2.335,3.745-14.62,23.584-16.273,26.03l-.057-.046,7.3-17.31c-2.643,1.32-4.634,2.2-5.467,2.549.508-1.121,3.942-9.647,4.954-11.985-1.642.635-3.866,1.442-6.087,2.316.441-1.592,4.133-16.415,4.863-19.448l12.9-4.277L521.71,396.413c2.431-1.016,8.153-3.836,8.153-3.836-1.763,3.593-4.814,9.933-6,12.34,1.21-.666,4.157-2.407,5.956-3.395" transform="translate(-386.07 -340.57)" fill="#ffd569"/>
              </g>
              <g transform="matrix(1, 0, 0, 1, 7.39, 4.6)" filter="url(#Path_110494)">
                <path id="Path_110494-2" data-name="Path 110494" d="M890.5,504.614c-2.336,3.745-14.62,23.584-16.273,26.03l-.057-.046,7.3-17.31c-2.643,1.32-4.635,2.2-5.467,2.549.507-1.121,3.942-9.647,4.954-11.985-1.642.635-3.866,1.442-6.087,2.316.441-1.592,4.133-16.415,4.863-19.447l12.9-4.277L882.39,499.505c2.431-1.016,8.154-3.836,8.154-3.836-1.763,3.593-4.814,9.933-6,12.34,1.21-.666,4.157-2.407,5.956-3.395" transform="translate(-574.62 -448.41)" fill="#ffd569"/>
              </g>
              <path id="Path_110500" data-name="Path 110500" d="M1138.807,333.494a9.92,9.92,0,0,1,.129,3.365,9.605,9.605,0,0,1-6.253,7.849,6.791,6.791,0,0,1,.27,2.912,6.258,6.258,0,0,1-7.007,5.541,5.394,5.394,0,0,1-1.334-.383,7.6,7.6,0,0,1-6.837,2.592,7.47,7.47,0,0,1-3.572-1.591,5.369,5.369,0,0,1-5.942,4.447,5.149,5.149,0,0,0-8.215,2.169,5.183,5.183,0,0,1-3.216-1.843,8.425,8.425,0,0,1-9.366,6.562,8.542,8.542,0,0,1-6.629-5.337,7.471,7.471,0,0,1-4.62.823,8.013,8.013,0,0,1-6.641-7.181,7.409,7.409,0,0,1-4.885,1,7.8,7.8,0,0,1-2.479-.855,9.053,9.053,0,0,1-.058,2,9.332,9.332,0,0,1-10.448,8.261,9.1,9.1,0,0,1-5.824-3.41,6.155,6.155,0,0,1-6.658,4.139,6.408,6.408,0,0,1-5.322-6.682,7.249,7.249,0,0,1-3.847.464,7.739,7.739,0,0,1-5.147-3.175,8.457,8.457,0,0,1-1.507-6.069,8.7,8.7,0,0,1-3.807.284,9.065,9.065,0,0,1-5.477-3,6.1,6.1,0,0,1-9.852,2.012,10.752,10.752,0,0,1-10.943,5.586A11.341,11.341,0,0,1,984,341.429a8.229,8.229,0,0,1-6.032,1.511,8.591,8.591,0,0,1-6.843-5.91,5.106,5.106,0,0,1-3.082.526,5.565,5.565,0,0,1-4.532-6.329,4.306,4.306,0,0,1,.148-.62l-.063-.009a9.818,9.818,0,0,1-2.267-18.551c-3.851-7.327-5.422-15.924-2.942-23.737,2.867-9.024,10.632-15.653,19.15-19.247,8.516-3.578,17.841-4.536,27-5.466,34.778-3.526,69.972-7.04,104.6-1.852,7.563,1.132,15.568,2.937,20.969,8.55,6.138,6.363,7.442,15.985,8.422,24.9.6,5.411,1.2,10.891,1.293,16.329a11.508,11.508,0,0,1,7.306,12.433,11.217,11.217,0,0,1-8.315,9.539" transform="translate(-662.958 -285.899)" fill="#14274d"/>
              <path id="Path_110501" data-name="Path 110501" d="M1144.839,508.858a6.409,6.409,0,0,1-5.322-6.683,7.248,7.248,0,0,1-3.847.464,7.74,7.74,0,0,1-5.147-3.175,8.459,8.459,0,0,1-1.507-6.069,8.691,8.691,0,0,1-3.807.284,9.066,9.066,0,0,1-5.477-3c-.077.167-.161.328-.25.486a9.045,9.045,0,0,0,5.37,2.893,8.693,8.693,0,0,0,3.807-.284,8.458,8.458,0,0,0,1.507,6.069,7.74,7.74,0,0,0,5.147,3.175,7.247,7.247,0,0,0,3.847-.464,6.409,6.409,0,0,0,5.322,6.682,6.022,6.022,0,0,0,5.421-2.035,6,6,0,0,1-5.063,1.66" transform="translate(-768.218 -430.573)" fill="#32528f"/>
              <path id="Path_110502" data-name="Path 110502" d="M1214.438,531.517a9.1,9.1,0,0,1-5.824-3.41c-.066.185-.14.365-.221.541a9.086,9.086,0,0,0,5.688,3.244,8.99,8.99,0,0,0,8.006-2.94,8.96,8.96,0,0,1-7.648,2.565" transform="translate(-825.334 -453.961)" fill="#32528f"/>
              <path id="Path_110503" data-name="Path 110503" d="M1095.5,497.628a6.155,6.155,0,0,1-3.356-1.644c-.085.154-.18.3-.272.451a6.146,6.146,0,0,0,3.27,1.568,6.06,6.06,0,0,0,5.448-2.051,6.025,6.025,0,0,1-5.091,1.676" transform="translate(-750.481 -433.87)" fill="#32528f"/>
              <path id="Path_110504" data-name="Path 110504" d="M993.676,444.927a11.34,11.34,0,0,1-9.32-12.544,8.229,8.229,0,0,1-6.033,1.511,8.59,8.59,0,0,1-6.843-5.91,5.107,5.107,0,0,1-3.082.526,5.565,5.565,0,0,1-4.532-6.329,4.281,4.281,0,0,1,.148-.62l-.063-.009a9.631,9.631,0,0,1-7.876-10.946,9.821,9.821,0,0,1,2.446-5.312,9.8,9.8,0,0,0-2.8,5.687,9.632,9.632,0,0,0,7.876,10.946l.063.009a4.279,4.279,0,0,0-.148.62,5.565,5.565,0,0,0,4.532,6.329,5.107,5.107,0,0,0,3.082-.526,8.59,8.59,0,0,0,6.843,5.91A8.23,8.23,0,0,0,984,432.758a11.34,11.34,0,0,0,9.32,12.544,10.572,10.572,0,0,0,9.3-3.337,10.548,10.548,0,0,1-8.944,2.962" transform="translate(-662.957 -377.228)" fill="#32528f"/>
              <path id="Path_110505" data-name="Path 110505" d="M964.491,342.4c-3.851-7.327-5.422-15.924-2.942-23.737A27.443,27.443,0,0,1,967.73,308.3a27.6,27.6,0,0,0-6.539,10.738c-2.461,7.756-.931,16.282,2.857,23.574.146-.074.292-.146.442-.212" transform="translate(-665.765 -316.625)" fill="#32528f"/>
              <path id="Path_110506" data-name="Path 110506" d="M1279.931,521.141a8.541,8.541,0,0,1-6.629-5.337,7.475,7.475,0,0,1-4.62.823,8.014,8.014,0,0,1-6.641-7.181,7.406,7.406,0,0,1-4.885,1,7.794,7.794,0,0,1-2.479-.855c.017.186.025.374.028.562a7.136,7.136,0,0,0,6.979-.335,8.013,8.013,0,0,0,6.641,7.181,7.473,7.473,0,0,0,4.62-.823,8.543,8.543,0,0,0,6.63,5.337,8.219,8.219,0,0,0,7.327-2.674,8.2,8.2,0,0,1-6.97,2.3" transform="translate(-855.068 -442.301)" fill="#32528f"/>
              <path id="Path_110507" data-name="Path 110507" d="M1429.883,506.042a5.364,5.364,0,0,1-1.334-.383c-.113.13-.232.255-.353.377a5.376,5.376,0,0,0,1.329.381,6.027,6.027,0,0,0,5.4-2.007,6,6,0,0,1-5.04,1.632" transform="translate(-966.536 -439.155)" fill="#32528f"/>
              <path id="Path_110508" data-name="Path 110508" d="M1451.752,482.566c.022.07.04.141.06.212a9.331,9.331,0,0,0,3.415-2.412,9.262,9.262,0,0,1-3.475,2.2" transform="translate(-981.669 -424.132)" fill="#32528f"/>
              <path id="Path_110509" data-name="Path 110509" d="M1468.877,451.373c.018.086.028.174.044.26a10.849,10.849,0,0,0,5.118-3.244,10.8,10.8,0,0,1-5.162,2.984" transform="translate(-992.669 -404.154)" fill="#32528f"/>
              <path id="Path_110510" data-name="Path 110510" d="M1378.422,519.924a5.253,5.253,0,0,1-2.579-1.191c-.066.165-.142.324-.223.48a5.042,5.042,0,0,0,7.087-.691,5.1,5.1,0,0,1-4.286,1.4" transform="translate(-932.762 -447.972)" fill="#32528f"/>
              <path id="Path_110511" data-name="Path 110511" d="M1354.408,524.971a5.179,5.179,0,0,1-3.216-1.843c-.047.2-.107.393-.166.586a5.082,5.082,0,0,0,7.7-.161,5.127,5.127,0,0,1-4.323,1.418" transform="translate(-916.962 -450.85)" fill="#32528f"/>
              <path id="Path_110512" data-name="Path 110512" d="M1403.406,511.054a7.47,7.47,0,0,1-3.572-1.591c-.036.185-.081.366-.134.543a7.391,7.391,0,0,0,3.348,1.424,7.6,7.6,0,0,0,6.784-2.533,7.564,7.564,0,0,1-6.426,2.158" transform="translate(-948.23 -441.958)" fill="#32528f"/>
              <path id="Path_110514" data-name="Path 110514" d="M1525.389,512.753a6.257,6.257,0,0,1-6.5-5.413,7.343,7.343,0,0,1-3.678,1.272,7.575,7.575,0,0,1-5.654-2.016,8.309,8.309,0,0,1-2.647-5.623,8.781,8.781,0,0,1-3.673,1.087,8.887,8.887,0,0,1-5.943-1.778c-.043.179-.094.356-.152.529a8.8,8.8,0,0,0,9.49.606,8.31,8.31,0,0,0,2.646,5.623,7.576,7.576,0,0,0,5.654,2.016,7.343,7.343,0,0,0,3.677-1.272,6.257,6.257,0,0,0,6.5,5.413,6.154,6.154,0,0,0,4.916-3.144,6.119,6.119,0,0,1-4.638,2.7" transform="translate(-1010.827 -436.575)" fill="#32528f"/>
              <path id="Path_110515" data-name="Path 110515" d="M1474.953,508.967a6.044,6.044,0,0,1-3.6-.9c-.054.169-.118.334-.179.5a6.038,6.038,0,0,0,3.5.841,6.194,6.194,0,0,0,4.94-3.166,6.148,6.148,0,0,1-4.662,2.722" transform="translate(-994.143 -440.301)" fill="#32528f"/>
              <path id="Path_110516" data-name="Path 110516" d="M1366.137,479.694a11.075,11.075,0,0,1-11.548-10.3,8.26,8.26,0,0,1-13.458-1.572,5.18,5.18,0,0,1-2.917,1.17,5.436,5.436,0,0,1-5.659-5.236,4.257,4.257,0,0,1,.025-.638l-.064,0a9.409,9.409,0,0,1-9.825-9.046,10,10,0,0,1,1.37-5.722,9.981,9.981,0,0,0-1.648,6.166,9.408,9.408,0,0,0,9.825,9.045l.064,0a4.263,4.263,0,0,0-.025.639,5.436,5.436,0,0,0,5.66,5.235,5.176,5.176,0,0,0,2.917-1.17,8.26,8.26,0,0,0,13.458,1.573,11.075,11.075,0,0,0,11.548,10.3,10.8,10.8,0,0,0,8.465-5.245,10.765,10.765,0,0,1-8.187,4.8" transform="translate(-898.569 -404.129)" fill="#32528f"/>
              <path id="Path_110517" data-name="Path 110517" d="M1320.292,383.822c-5.185-6.357-8.383-14.442-7.462-22.621a28.059,28.059,0,0,1,4.053-11.461,28.233,28.233,0,0,0-4.331,11.9c-.913,8.118,2.231,16.143,7.348,22.478.129-.1.258-.2.392-.3" transform="translate(-892.146 -342.519)" fill="#32528f"/>
              <path id="Path_110518" data-name="Path 110518" d="M414.126,307.3a11.522,11.522,0,0,1,8.082-13.478,15.62,15.62,0,0,1,2.451-7.443c4.425-6.725,12.99-8.511,20.684-9.806A1182.154,1182.154,0,0,0,619.174,233.5c6.459-2.13,13.872-4.229,19.694-.583,5.631,3.515,7.52,11.036,8.423,17.84a149.4,149.4,0,0,1-4.644,61.3,14,14,0,0,1,3.152,6.514c1.477,7.523-3.134,14.871-10.3,16.421a12.588,12.588,0,0,1-7.661-.743,6.8,6.8,0,0,1-5.063,4.94,6.6,6.6,0,0,1-7.3-3.716,6.047,6.047,0,0,1-2.658,1.352,6.755,6.755,0,0,1-1.625.113c.016.083.048.141.065.224a8.951,8.951,0,0,1-6.615,10.569,8.448,8.448,0,0,1-9.77-6.034l-.1.021a4.476,4.476,0,0,1-5.288-3.653c0-.021,0-.021-.008-.041a10.659,10.659,0,0,1-4.458,2.151,10.98,10.98,0,0,1-12.958-8.952,10.818,10.818,0,0,1-.161-1.132,8.186,8.186,0,0,1-3.79,1.986,8.337,8.337,0,0,1-8.8-3.823,6.594,6.594,0,0,1-11.327-3.58,8.535,8.535,0,0,1-.132-1.613,10.608,10.608,0,0,1-14.113.587,13.737,13.737,0,0,1-10.57,13.389,13.015,13.015,0,0,1-13.661-5.819,4.448,4.448,0,0,1-3.044,2.429,4.216,4.216,0,0,1-3.413-.71,8.884,8.884,0,0,1-6.686,9.892,8.485,8.485,0,0,1-9.9-6.394,6.606,6.606,0,0,1-3.741,2.342,6.744,6.744,0,0,1-7.952-5.476,7.547,7.547,0,0,1-.088-.974,9.525,9.525,0,0,1-3.72,1.711,9.809,9.809,0,0,1-10.791-5.359,8.383,8.383,0,0,1-15.474-3.094,9.721,9.721,0,0,1-.112-2.46c-.118.026-.229.093-.347.118a4.418,4.418,0,0,1-4.875-2.49,6.622,6.622,0,0,1-3.32,1.862,6.746,6.746,0,0,1-7.937-5.5,7.008,7.008,0,0,1-.117-1.12,6.58,6.58,0,0,1-.9.259,11.006,11.006,0,0,1-12.959-8.952" transform="translate(-314.951 -268.29)" fill="#14274d"/>
              <path id="Path_110519" data-name="Path 110519" d="M579.814,504.491a8.485,8.485,0,0,1-9.9-6.394,6.605,6.605,0,0,1-3.74,2.342,6.745,6.745,0,0,1-7.952-5.476,7.559,7.559,0,0,1-.088-.975,9.525,9.525,0,0,1-3.72,1.711,9.809,9.809,0,0,1-10.791-5.359c-.094.152-.195.3-.3.446a9.806,9.806,0,0,0,10.774,5.328,9.526,9.526,0,0,0,3.721-1.711,7.549,7.549,0,0,0,.088.975,6.745,6.745,0,0,0,7.952,5.476,6.6,6.6,0,0,0,3.74-2.342,8.485,8.485,0,0,0,9.9,6.394,8.346,8.346,0,0,0,4.987-3.289,8.313,8.313,0,0,1-4.672,2.874" transform="translate(-398.092 -430.365)" fill="#32528f"/>
              <path id="Path_110520" data-name="Path 110520" d="M667.481,501.149a4.214,4.214,0,0,1-3.413-.71c.026.219.038.436.049.653a4.217,4.217,0,0,0,3.049.472,4.4,4.4,0,0,0,2.719-1.875,4.363,4.363,0,0,1-2.4,1.46" transform="translate(-475.66 -436.205)" fill="#32528f"/>
              <path id="Path_110521" data-name="Path 110521" d="M455.08,443.184A8.539,8.539,0,0,1,445,436.223a9.72,9.72,0,0,1-.113-2.46c-.118.026-.229.093-.347.119a4.418,4.418,0,0,1-4.874-2.49,6.62,6.62,0,0,1-3.32,1.863,6.746,6.746,0,0,1-7.936-5.5,7.011,7.011,0,0,1-.117-1.12,6.689,6.689,0,0,1-.9.259,11.006,11.006,0,0,1-12.959-8.952,11.9,11.9,0,0,1,2-9.265,11.883,11.883,0,0,0-2.313,9.68,11.006,11.006,0,0,0,12.959,8.952,6.691,6.691,0,0,0,.9-.259,7.01,7.01,0,0,0,.117,1.12,6.746,6.746,0,0,0,7.936,5.5,6.62,6.62,0,0,0,3.32-1.863,4.418,4.418,0,0,0,4.874,2.49c.118-.026.229-.093.347-.119a9.743,9.743,0,0,0,.113,2.461,8.539,8.539,0,0,0,10.076,6.961,8.415,8.415,0,0,0,5.075-3.386,8.38,8.38,0,0,1-4.761,2.971" transform="translate(-314.951 -379.341)" fill="#32528f"/>
              <path id="Path_110522" data-name="Path 110522" d="M437.515,384.1a15.623,15.623,0,0,1,2.451-7.443c.128-.194.26-.384.395-.57-.246.317-.484.643-.709.986a15.524,15.524,0,0,0-2.416,7.109c.093-.027.185-.056.28-.081" transform="translate(-329.942 -358.981)" fill="#32528f"/>
              <path id="Path_110523" data-name="Path 110523" d="M978.067,512.163a6.6,6.6,0,0,1-7.3-3.716,6.039,6.039,0,0,1-2.658,1.352,6.753,6.753,0,0,1-1.625.114c.016.083.048.141.064.224.013.065.022.13.034.2a5.849,5.849,0,0,0,1.212-.118,6.04,6.04,0,0,0,2.658-1.352,6.494,6.494,0,0,0,11.307,1.017,6.53,6.53,0,0,1-3.694,2.284" transform="translate(-669.934 -441.677)" fill="#32528f"/>
              <path id="Path_110524" data-name="Path 110524" d="M695.3,502.924a13.016,13.016,0,0,1-13.661-5.819,4.563,4.563,0,0,1-.271.478,12.906,12.906,0,0,0,21.454.6,13.091,13.091,0,0,1-7.522,4.739" transform="translate(-486.773 -434.591)" fill="#32528f"/>
              <path id="Path_110525" data-name="Path 110525" d="M1020.421,499.267a12.586,12.586,0,0,1-7.661-.743c-.045.162-.1.321-.151.479a12.576,12.576,0,0,0,7.5.679,13.137,13.137,0,0,0,7.84-5.158,13.1,13.1,0,0,1-7.525,4.742" transform="translate(-699.563 -432.979)" fill="#32528f"/>
              <path id="Path_110526" data-name="Path 110526" d="M820.751,500.035A8.449,8.449,0,0,1,810.98,494l-.1.021a4.477,4.477,0,0,1-5.288-3.653l-.008-.041a10.661,10.661,0,0,1-4.458,2.151,10.981,10.981,0,0,1-12.959-8.953,10.752,10.752,0,0,1-.16-1.132,8.189,8.189,0,0,1-3.79,1.986,8.337,8.337,0,0,1-8.8-3.823,6.594,6.594,0,0,1-11.327-3.579,8.526,8.526,0,0,1-.132-1.614,10.608,10.608,0,0,1-14.113.587c0,.213-.011.425-.024.636a10.594,10.594,0,0,0,13.822-.808,8.529,8.529,0,0,0,.132,1.614,6.594,6.594,0,0,0,11.327,3.579,8.337,8.337,0,0,0,8.8,3.823,8.19,8.19,0,0,0,3.79-1.986,10.767,10.767,0,0,0,.16,1.132,10.981,10.981,0,0,0,12.959,8.953,10.658,10.658,0,0,0,4.457-2.151c0,.021,0,.021.008.041a4.477,4.477,0,0,0,5.288,3.653l.1-.021a8.3,8.3,0,0,0,14.86,2.632,8.388,8.388,0,0,1-4.775,2.986" transform="translate(-530.748 -421.008)" fill="#32528f"/>
              <g transform="matrix(1, 0, 0, 1, 7.39, 4.6)" filter="url(#Path_110559)">
                <path id="Path_110559-2" data-name="Path 110559" d="M206.1,494.358c-2.335,3.745-14.62,23.584-16.273,26.03l-.057-.046,7.3-17.31c-2.643,1.32-4.634,2.2-5.467,2.549.507-1.121,3.942-9.647,4.954-11.985-1.642.634-3.866,1.442-6.087,2.316.441-1.592,4.133-16.415,4.863-19.448l12.9-4.277L197.99,489.249c2.431-1.016,8.153-3.836,8.153-3.836-1.763,3.593-4.814,9.933-6,12.34,1.21-.666,4.157-2.407,5.956-3.395" transform="translate(-178.36 -423.62)" fill="#ffd569"/>
              </g>
              <path id="Path_110560" data-name="Path 110560" d="M224.825,531.436l.1-.159c-1.719.944-4.482,2.572-5.78,3.3l-.071.144c1.166-.642,3.941-2.279,5.752-3.282" transform="translate(-189.795 -455.941)" fill="#feffdb"/>
              <path id="Path_110561" data-name="Path 110561" d="M221.034,507.566l.063-.129s-5.456,2.689-7.976,3.761l-.073.122c2.186-.913,7.03-3.285,7.986-3.754" transform="translate(-185.924 -441.046)" fill="#feffdb"/>
              <path id="Path_110562" data-name="Path 110562" d="M196.7,476.511l12.733-4.222.061-.1-12.9,4.277c-.73,3.033-4.422,17.856-4.863,19.448l.131-.051c.536-1.984,4.118-16.366,4.837-19.35" transform="translate(-172.232 -419.022)" fill="#feffdb"/>
              <path id="Path_110563" data-name="Path 110563" d="M197.176,554.518l-.157.078-7.25,17.186.058.045.129-.194Z" transform="translate(-170.97 -470.462)" fill="#feffdb"/>
              <path id="Path_110564" data-name="Path 110564" d="M199.811,529.427c-1.063,2.471-4.409,10.775-4.909,11.881l.154-.066c.648-1.481,3.92-9.6,4.9-11.872l-.149.057" transform="translate(-174.267 -454.75)" fill="#feffdb"/>
              <path id="Path_110565" data-name="Path 110565" d="M94.531,378.176q1.474-15.544,2.948-31.1c.63-6.622,1.6-13.945,6.463-18.2,3.993-3.489,9.561-3.965,14.739-4.256q47.487-2.776,95.062-3.41c8.277-.119,16.7-.146,24.565,2.551,7.307,2.5,14.135,7.825,16.982,15.227a5.545,5.545,0,0,1,0,11.077c-.1,0-.2-.026-.3-.026a7.09,7.09,0,0,1,.063.912,7.253,7.253,0,0,1-7.067,7.415,6.715,6.715,0,0,1-3.225-.833,4.541,4.541,0,0,1,.365,1.811,4.314,4.314,0,0,1-4.208,4.415,4.089,4.089,0,0,1-3.112-1.467,4.267,4.267,0,0,1-4.019,3.053,4.149,4.149,0,0,1-2.381-.767,2.964,2.964,0,0,1-5.921.093,3.2,3.2,0,0,1-1.953.674,3.3,3.3,0,0,1-2.872-1.758,4.871,4.871,0,0,1-7.306.212,7.227,7.227,0,0,1-7,6.067,6.994,6.994,0,0,1-5.417-2.617,5.718,5.718,0,0,1-4.775,2.617,5.576,5.576,0,0,1-3.477-1.229,4.355,4.355,0,0,1-2.872,3.067,9.555,9.555,0,0,1,.517,3.146,9.28,9.28,0,0,1-9.045,9.5,8.389,8.389,0,0,1-2.457-.37,8.635,8.635,0,0,1,.164,1.719,8.155,8.155,0,0,1-7.949,8.354,7.454,7.454,0,0,1-1.209-.119,4.473,4.473,0,0,1-4.145,2.921,4.082,4.082,0,0,1-.806-.093A10.826,10.826,0,0,1,143.7,394.8a8.33,8.33,0,0,1-5.467,2.049,8.6,8.6,0,0,1-7.773-5.129c-.012,0-.038.013-.05.013a9,9,0,0,1-8.025,5.116c-.1,0-.2-.013-.315-.013a4.73,4.73,0,0,1,.076.74,5.4,5.4,0,0,1-5.279,5.525,5.173,5.173,0,0,1-4.057-2.036,3.754,3.754,0,0,1-6.493.316c-.593-.883-1.207-2.911-.334-3.79.338-.34.787-.532,1.14-.855a1.126,1.126,0,0,0,.358-1.3,1.327,1.327,0,0,0-1.164-.478,19.2,19.2,0,0,1-5.472-.677,9.233,9.233,0,0,1-4.149-2.824c-2.885-3.5-2.608-8.684-2.167-13.284" transform="translate(-109.612 -324.666)" fill="#14274d"/>
              <path id="Path_110566" data-name="Path 110566" d="M334.195,484.24a8.381,8.381,0,0,1-2.457-.37c.033.162.059.327.082.493a8.309,8.309,0,0,0,2.017.253,8.815,8.815,0,0,0,6.565-2.969,8.782,8.782,0,0,1-6.208,2.593" transform="translate(-262.171 -424.933)" fill="#32528f"/>
              <path id="Path_110567" data-name="Path 110567" d="M220,521.077a11.108,11.108,0,0,1-10.809-9.781,8.331,8.331,0,0,1-5.467,2.049,8.6,8.6,0,0,1-7.773-5.128c-.013,0-.038.013-.05.013-.079.16-.166.316-.253.47a8.584,8.584,0,0,0,7.719,5.021,8.331,8.331,0,0,0,5.467-2.049,11.108,11.108,0,0,0,10.809,9.781,10.646,10.646,0,0,0,7.893-3.55A10.612,10.612,0,0,1,220,521.077" transform="translate(-174.747 -441.533)" fill="#32528f"/>
              <path id="Path_110568" data-name="Path 110568" d="M307.473,510.66a7.51,7.51,0,0,1-1.209-.119c-.053.137-.114.27-.179.4a6.844,6.844,0,0,0,1.031.094,7.748,7.748,0,0,0,5.79-2.631,7.716,7.716,0,0,1-5.432,2.255" transform="translate(-245.691 -441.651)" fill="#32528f"/>
              <path id="Path_110569" data-name="Path 110569" d="M293.28,519.905a4.05,4.05,0,0,1-.806-.093c-.045.139-.1.273-.149.41a3.571,3.571,0,0,0,.6.058,4.365,4.365,0,0,0,3.333-1.564,4.334,4.334,0,0,1-2.976,1.188" transform="translate(-236.852 -448.094)" fill="#32528f"/>
              <path id="Path_110570" data-name="Path 110570" d="M130.118,529.725a3.832,3.832,0,0,1-3.154-1.719c-.549-.819-1.115-2.62-.5-3.579a2.206,2.206,0,0,0-.192.165c-.873.879-.259,2.907.334,3.79a3.832,3.832,0,0,0,3.154,1.719,3.739,3.739,0,0,0,2.88-1.378,3.7,3.7,0,0,1-2.523,1" transform="translate(-129.9 -451.661)" fill="#32528f"/>
              <path id="Path_110571" data-name="Path 110571" d="M173.35,517.619c-.1,0-.2-.013-.315-.013.02.125.039.254.053.384a8.814,8.814,0,0,0,6.437-2.933,8.78,8.78,0,0,1-6.175,2.562" transform="translate(-160.22 -445.807)" fill="#32528f"/>
              <path id="Path_110572" data-name="Path 110572" d="M150.679,535.159a5.172,5.172,0,0,1-4.056-2.036,4.187,4.187,0,0,1-.29.453,5.075,5.075,0,0,0,7.9.14,5.125,5.125,0,0,1-3.551,1.442" transform="translate(-143.067 -457.094)" fill="#32528f"/>
              <path id="Path_110573" data-name="Path 110573" d="M398.42,445.59A7,7,0,0,1,393,442.973c-.1.148-.2.289-.313.427a6.9,6.9,0,0,0,10.584.184,6.927,6.927,0,0,1-4.854,2.006" transform="translate(-301.327 -400.77)" fill="#32528f"/>
              <path id="Path_110574" data-name="Path 110574" d="M519.35,415.978a6.716,6.716,0,0,1-3.225-.832,4.446,4.446,0,0,1,.216.651,6.652,6.652,0,0,0,2.651.556,6.891,6.891,0,0,0,5.166-2.37,6.855,6.855,0,0,1-4.808,1.995" transform="translate(-380.621 -382.657)" fill="#32528f"/>
              <path id="Path_110575" data-name="Path 110575" d="M499.413,431.23a4.089,4.089,0,0,1-3.112-1.467,4.586,4.586,0,0,1-.21.531,4.065,4.065,0,0,0,2.964,1.311,4.107,4.107,0,0,0,3.144-1.488,4.073,4.073,0,0,1-2.786,1.113" transform="translate(-367.751 -392.516)" fill="#32528f"/>
              <path id="Path_110576" data-name="Path 110576" d="M362.458,453.276c.024.069.041.142.064.212a4.234,4.234,0,0,0,1.533-1.155,4.165,4.165,0,0,1-1.6.942" transform="translate(-281.906 -406.618)" fill="#32528f"/>
              <path id="Path_110577" data-name="Path 110577" d="M545.031,394.769c-.1,0-.2-.026-.3-.026.017.129.03.262.041.4a5.157,5.157,0,0,0,3.8-1.815,5.118,5.118,0,0,1-3.543,1.445" transform="translate(-398.996 -369.75)" fill="#32528f"/>
              <path id="Path_110578" data-name="Path 110578" d="M481,436.05a4.148,4.148,0,0,1-2.381-.767,3.281,3.281,0,0,1-.091.547,4.071,4.071,0,0,0,5.263-.892A4.083,4.083,0,0,1,481,436.05" transform="translate(-356.468 -395.75)" fill="#32528f"/>
              <path id="Path_110579" data-name="Path 110579" d="M373.661,447.293a5.578,5.578,0,0,1-3.477-1.229,4.662,4.662,0,0,1-.171.512,5.552,5.552,0,0,0,3.29,1.093,5.67,5.67,0,0,0,4.279-1.97,5.643,5.643,0,0,1-3.921,1.595" transform="translate(-286.759 -402.472)" fill="#32528f"/>
              <path id="Path_110580" data-name="Path 110580" d="M455.877,437.074a3.042,3.042,0,0,1-2.961-2.776,3.2,3.2,0,0,1-1.952.674,3.3,3.3,0,0,1-2.872-1.758q-.17.2-.357.376a3.3,3.3,0,0,0,2.872,1.758,3.2,3.2,0,0,0,1.952-.674,3.042,3.042,0,0,0,2.961,2.776,2.9,2.9,0,0,0,2.266-1.111,2.865,2.865,0,0,1-1.908.736" transform="translate(-336.687 -394.672)" fill="#32528f"/>
              <path id="Path_110581" data-name="Path 110581" d="M431.626,435.325a4.931,4.931,0,0,1-3.565-1.547c-.037.2-.082.4-.133.589a4.855,4.855,0,0,0,7.07-.412,4.889,4.889,0,0,1-3.372,1.37" transform="translate(-323.963 -395.025)" fill="#32528f"/>
              <path id="Path_110583" data-name="Path 110583" d="M440.727,489.683a6.877,6.877,0,0,1-6.5-2.493c-.121.153-.252.3-.382.445a6.875,6.875,0,0,0,6.475,2.47,6.953,6.953,0,0,0,4.021-2.268,6.917,6.917,0,0,1-3.619,1.846" transform="translate(-327.768 -428.396)" fill="#2e497a"/>
              <path id="Path_110584" data-name="Path 110584" d="M365.324,445.473a9.778,9.778,0,0,1-11.165-8.4c-.043-.275-.027-.543-.049-.815a4.809,4.809,0,0,1-2.473,1.251,4.971,4.971,0,0,1-5.676-4.27,5.389,5.389,0,0,1,.379-2.991,7.268,7.268,0,0,1-5.52-6.044,7.683,7.683,0,0,1,.716-4.606,7.851,7.851,0,0,1-5.432-4.9c-.126.151-.263.291-.4.435a7.848,7.848,0,0,0,5.427,4.885,7.683,7.683,0,0,0-.716,4.606,7.268,7.268,0,0,0,5.52,6.044,5.385,5.385,0,0,0-.379,2.99,4.971,4.971,0,0,0,5.676,4.27,4.814,4.814,0,0,0,2.473-1.251c.021.273.006.541.049.815a9.778,9.778,0,0,0,11.165,8.4,9.452,9.452,0,0,0,5.44-3.083,9.374,9.374,0,0,1-5.039,2.662" transform="translate(-264.721 -383.106)" fill="#2e497a"/>
              <path id="Path_110585" data-name="Path 110585" d="M233.805,373.816a6.038,6.038,0,0,1-6.888-5.137,8.242,8.242,0,0,1-3.623,1.633,8.583,8.583,0,0,1-9.8-7.373,9.26,9.26,0,0,1,.462-4.583,12.312,12.312,0,0,1-9.871-10.37,12.986,12.986,0,0,1,3.164-10.751,12.963,12.963,0,0,0-3.566,11.173,12.312,12.312,0,0,0,9.871,10.37,9.26,9.26,0,0,0-.462,4.583,8.583,8.583,0,0,0,9.8,7.373,8.238,8.238,0,0,0,3.624-1.633,6.038,6.038,0,0,0,6.887,5.137,5.843,5.843,0,0,0,3.428-1.96,5.8,5.8,0,0,1-3.026,1.538" transform="translate(-179.805 -334.706)" fill="#2e497a"/>
              <path id="Path_110586" data-name="Path 110586" d="M306.376,420.264a11.419,11.419,0,0,1-5.741-.48c-.063.165-.134.325-.21.483a11.4,11.4,0,0,0,5.548.419,11.772,11.772,0,0,0,6.654-3.662,11.74,11.74,0,0,1-6.252,3.241" transform="translate(-242.056 -384.556)" fill="#2e497a"/>
              <path id="Path_110587" data-name="Path 110587" d="M650.234,355.6l.032.039c.147-.14.288-.287.421-.44-.146.14-.3.276-.453.4" transform="translate(-466.773 -345.93)" fill="#2e497a"/>
              <path id="Path_110588" data-name="Path 110588" d="M645.876,376.623c.03.046.054.1.083.144a5.037,5.037,0,0,0,1.133-.992,4.955,4.955,0,0,1-1.216.848" transform="translate(-463.973 -358.785)" fill="#2e497a"/>
              <path id="Path_110589" data-name="Path 110589" d="M606.037,417.292a4.7,4.7,0,0,1-2.8-.38s0,.006,0,.009a3.805,3.805,0,0,1,.043.592,4.669,4.669,0,0,0,2.354.2,4.819,4.819,0,0,0,2.86-1.653,4.779,4.779,0,0,1-2.458,1.231" transform="translate(-436.582 -383.955)" fill="#2e497a"/>
              <path id="Path_110590" data-name="Path 110590" d="M558.058,428.635a7.444,7.444,0,0,1-6.42-2.016q-.114.285-.245.563a7.421,7.421,0,0,0,6.263,1.875,7.537,7.537,0,0,0,4.359-2.467,7.487,7.487,0,0,1-3.957,2.046" transform="translate(-403.278 -390.533)" fill="#2e497a"/>
              <path id="Path_110591" data-name="Path 110591" d="M587.584,425.337a3.468,3.468,0,0,1-3.879-2.529c-.115.178-.241.348-.369.517a3.394,3.394,0,0,0,5.94,1.185,3.392,3.392,0,0,1-1.691.828" transform="translate(-423.797 -388.171)" fill="#2e497a"/>
              <path id="Path_110592" data-name="Path 110592" d="M626.505,403.276a6.2,6.2,0,0,1-4.007-.672,5.453,5.453,0,0,1,.022.628,6.15,6.15,0,0,0,3.584.465,6.4,6.4,0,0,0,3.725-2.114,6.361,6.361,0,0,1-3.323,1.693" transform="translate(-448.955 -374.91)" fill="#2e497a"/>
              <path id="Path_110593" data-name="Path 110593" d="M469.828,463.163a6.674,6.674,0,0,1-1.947.019c.066.155.127.312.186.471a6.051,6.051,0,0,0,1.36-.068,6.927,6.927,0,0,0,4.005-2.256,6.891,6.891,0,0,1-3.6,1.834" transform="translate(-349.629 -412.238)" fill="#2e497a"/>
              <path id="Path_110594" data-name="Path 110594" d="M514.949,437.045a9.441,9.441,0,0,1-9.026-3.574,5.449,5.449,0,0,1-.191.672,9.325,9.325,0,0,0,14.263.275,9.42,9.42,0,0,1-5.046,2.628" transform="translate(-373.945 -394.833)" fill="#2e497a"/>
              <path id="Path_110595" data-name="Path 110595" d="M491.6,442.02a4.694,4.694,0,0,1-1.924-.069c.023.17.032.339.044.508a4.682,4.682,0,0,0,1.478-.018,4.841,4.841,0,0,0,2.883-1.673,4.8,4.8,0,0,1-2.481,1.252" transform="translate(-363.627 -399.392)" fill="#2e497a"/>
              <path id="Path_110629" data-name="Path 110629" d="M1423.848,454.829a7.861,7.861,0,0,1-5.509-5.407c-.184.1-.374.186-.563.275a7.856,7.856,0,0,0,5.5,5.375,7.345,7.345,0,0,0,4.958-.479,7.336,7.336,0,0,1-4.383.236" transform="translate(-959.843 -404.799)" fill="#2e497a"/>
              <path id="Path_110630" data-name="Path 110630" d="M1367.556,378.8a11.156,11.156,0,0,1-7.8-13.424c.068-.295.193-.556.282-.84a5.106,5.106,0,0,1-2.991.151,5.769,5.769,0,0,1-2.369-9.657,8.287,8.287,0,0,1-3.087-8.535,8.086,8.086,0,0,1,2.589-4.3,9,9,0,0,1-3.464-7.347c-.188.095-.382.174-.574.26a9,9,0,0,0,3.464,7.33,8.085,8.085,0,0,0-2.589,4.3,8.288,8.288,0,0,0,3.087,8.536,5.768,5.768,0,0,0,2.369,9.657,5.109,5.109,0,0,0,2.991-.15c-.089.283-.214.545-.282.84a11.156,11.156,0,0,0,7.8,13.424,9.989,9.989,0,0,0,6.714-.663,9.933,9.933,0,0,1-6.139.42" transform="translate(-916.394 -333.214)" fill="#2e497a"/>
              <path id="Path_110632" data-name="Path 110632" d="M1316.522,332.358a12.833,12.833,0,0,1-5.568-3.047c-.13.137-.267.265-.407.391a12.811,12.811,0,0,0,5.4,2.9,12.457,12.457,0,0,0,8.167-.7,12.449,12.449,0,0,1-7.593.458" transform="translate(-890.958 -329.755)" fill="#2e497a"/>
              <path id="Path_110633" data-name="Path 110633" d="M1567.536,443.477a8.489,8.489,0,0,1-5.626-4.893c-.154.157-.312.308-.474.455a8.457,8.457,0,0,0,5.526,4.682,7.964,7.964,0,0,0,5.378-.528,7.938,7.938,0,0,1-4.8.284" transform="translate(-1052.129 -398.027)" fill="#2e497a"/>
              <path id="Path_110634" data-name="Path 110634" d="M1463.314,443.315a7.441,7.441,0,0,1-1.962-.851q0,.277-.005.555a6.709,6.709,0,0,0,1.393.539,7.321,7.321,0,0,0,4.937-.474,7.311,7.311,0,0,1-4.362.23" transform="translate(-987.833 -400.452)" fill="#2e497a"/>
              <path id="Path_110635" data-name="Path 110635" d="M1520.646,433.515a10.792,10.792,0,0,1-7.61-7.624,5.608,5.608,0,0,1-.464.589,10.752,10.752,0,0,0,7.5,7.278,10.008,10.008,0,0,0,6.708-.625,9.988,9.988,0,0,1-6.133.382" transform="translate(-1020.74 -390.097)" fill="#2e497a"/>
              <path id="Path_110636" data-name="Path 110636" d="M1494.369,430.242a5.25,5.25,0,0,1-1.9-.929c-.046.181-.1.355-.163.529a5.2,5.2,0,0,0,1.492.643,5.114,5.114,0,0,0,3.574-.391,5.1,5.1,0,0,1-3,.147" transform="translate(-1007.719 -392.235)" fill="#2e497a"/>
              <g transform="matrix(1, 0, 0, 1, 7.39, 4.6)" filter="url(#Path_110669)">
                <path id="Path_110669-2" data-name="Path 110669" d="M1164.387,454.582c-2.428,3.894-15.2,24.519-16.918,27.062l-.06-.047,7.592-18c-2.748,1.373-4.818,2.283-5.684,2.65.528-1.166,4.1-10.03,5.151-12.46-1.707.66-4.019,1.5-6.328,2.408.458-1.655,4.3-17.066,5.056-20.219l13.41-4.446-10.65,17.739c2.527-1.056,8.476-3.988,8.476-3.988-1.833,3.735-5,10.327-6.236,12.829,1.257-.693,4.321-2.5,6.192-3.529" transform="translate(-793.54 -398.22)" fill="#ffd569"/>
              </g>
              <path id="Path_110670" data-name="Path 110670" d="M1183.854,493.131l.1-.166c-1.787.982-4.66,2.674-6.01,3.428l-.074.15c1.212-.668,4.1-2.369,5.98-3.412" transform="translate(-805.729 -432.004)" fill="#feffdb"/>
              <path id="Path_110671" data-name="Path 110671" d="M1179.912,468.314l.066-.135s-5.672,2.8-8.292,3.911l-.076.127c2.273-.95,7.309-3.415,8.3-3.9" transform="translate(-801.705 -416.518)" fill="#feffdb"/>
              <path id="Path_110672" data-name="Path 110672" d="M1154.615,436.027l13.238-4.39.064-.105-13.41,4.446c-.758,3.153-4.6,18.564-5.056,20.219l.136-.053c.558-2.063,4.282-17.015,5.028-20.117" transform="translate(-787.47 -393.621)" fill="#feffdb"/>
              <path id="Path_110673" data-name="Path 110673" d="M1155.109,517.128l-.163.081-7.537,17.868.06.047c.039-.057.085-.127.134-.2Z" transform="translate(-786.159 -447.101)" fill="#feffdb"/>
              <path id="Path_110674" data-name="Path 110674" d="M1157.849,491.041c-1.105,2.569-4.584,11.2-5.1,12.352l.161-.068c.674-1.54,4.076-9.981,5.1-12.343l-.155.059" transform="translate(-789.586 -430.765)" fill="#feffdb"/>
              <path id="Path_110675" data-name="Path 110675" d="M1041.757,310.717a6.474,6.474,0,0,0-7.392-5.561,5.953,5.953,0,0,0-.7.2c0-.026,0-.051,0-.077a3.68,3.68,0,0,0-3.376-3.168,5.573,5.573,0,0,0,.3-2.82,5.159,5.159,0,0,0-5.891-4.431,5.012,5.012,0,0,0-2.825,1.564c-.36-.3-.72-.6-1.084-.891-30.509-24.5-73.68-30.361-109.129-14.826-8.976,3.933-17.723,9.381-23.3,17.744a31.532,31.532,0,0,0-3.6,7.38c-.152.02-.3.028-.457.054-6.794,1.176-11.394,7.907-10.274,15.035a12.781,12.781,0,0,0,10.247,10.766,9.61,9.61,0,0,0-.48,4.758,8.91,8.91,0,0,0,10.174,7.654,8.548,8.548,0,0,0,3.761-1.7,6.145,6.145,0,0,0,11.9,1.3,11.851,11.851,0,0,0,5.959.5,12.276,12.276,0,0,0,7.332-4.268,8.149,8.149,0,0,0,5.639,5.085,7.973,7.973,0,0,0-.743,4.781,7.545,7.545,0,0,0,5.73,6.274,5.594,5.594,0,0,0-.394,3.1,5.16,5.16,0,0,0,5.893,4.433,5,5,0,0,0,2.567-1.3c.023.283.006.561.051.846a10.151,10.151,0,0,0,11.591,8.719,9.913,9.913,0,0,0,6.085-3.709,7.14,7.14,0,0,0,6.743,2.588,7.679,7.679,0,0,0,6.057-8.864,7.91,7.91,0,0,0-.562-1.873A6.921,6.921,0,0,0,973.6,360a7.661,7.661,0,0,0,6.067-8.684,4.872,4.872,0,0,0,2,.071,5.236,5.236,0,0,0,4.163-4.142,9.8,9.8,0,0,0,9.37,3.71,10.16,10.16,0,0,0,7.637-6.36,7.725,7.725,0,0,0,6.664,2.093,7.958,7.958,0,0,0,5.323-3.6,3.6,3.6,0,0,0,4.027,2.625,3.778,3.778,0,0,0,2.98-4.361.062.062,0,0,0,0-.009,4.879,4.879,0,0,0,2.908.395,5.325,5.325,0,0,0,4.243-5.858,6.431,6.431,0,0,0,4.16.7,7.066,7.066,0,0,0,5.574-8.156,7.251,7.251,0,0,0-1.055-2.772,5.491,5.491,0,0,0,1.618-8.478,6.881,6.881,0,0,0,2.483-6.456" transform="translate(-610.43 -294.017)" fill="#1b3259"/>
              <path id="Path_110676" data-name="Path 110676" d="M1120.105,529.54a7.139,7.139,0,0,1-6.743-2.588c-.126.159-.262.31-.4.462a7.136,7.136,0,0,0,6.722,2.565,7.215,7.215,0,0,0,4.174-2.354,7.177,7.177,0,0,1-3.757,1.917" transform="translate(-764.032 -453.239)" fill="#2e497a"/>
              <path id="Path_110677" data-name="Path 110677" d="M1041.829,483.644a10.15,10.15,0,0,1-11.59-8.719c-.045-.285-.029-.563-.051-.846a5,5,0,0,1-2.567,1.3,5.16,5.16,0,0,1-5.892-4.433,5.593,5.593,0,0,1,.393-3.1,7.545,7.545,0,0,1-5.73-6.274,7.972,7.972,0,0,1,.743-4.781,8.149,8.149,0,0,1-5.639-5.085c-.131.156-.273.3-.411.452a8.149,8.149,0,0,0,5.633,5.071,7.973,7.973,0,0,0-.744,4.781,7.546,7.546,0,0,0,5.73,6.274,5.59,5.59,0,0,0-.394,3.1,5.16,5.16,0,0,0,5.892,4.432,4.991,4.991,0,0,0,2.567-1.3c.023.283.006.561.051.846a10.151,10.151,0,0,0,11.59,8.719,9.812,9.812,0,0,0,5.648-3.2,9.73,9.73,0,0,1-5.231,2.763" transform="translate(-698.584 -406.222)" fill="#2e497a"/>
              <path id="Path_110678" data-name="Path 110678" d="M905.3,409.256a6.268,6.268,0,0,1-7.15-5.333,8.547,8.547,0,0,1-3.761,1.7,8.91,8.91,0,0,1-10.174-7.654,9.609,9.609,0,0,1,.48-4.757,12.782,12.782,0,0,1-10.247-10.766,13.482,13.482,0,0,1,3.285-11.161,13.458,13.458,0,0,0-3.7,11.6,12.781,12.781,0,0,0,10.247,10.766,9.617,9.617,0,0,0-.48,4.757,8.911,8.911,0,0,0,10.174,7.654,8.552,8.552,0,0,0,3.762-1.7,6.268,6.268,0,0,0,7.15,5.333,6.068,6.068,0,0,0,3.559-2.034,6.022,6.022,0,0,1-3.142,1.6" transform="translate(-610.431 -355.977)" fill="#2e497a"/>
              <path id="Path_110679" data-name="Path 110679" d="M980.635,457.474a11.851,11.851,0,0,1-5.959-.5c-.065.171-.14.337-.218.5a11.84,11.84,0,0,0,5.759.435,12.219,12.219,0,0,0,6.908-3.8,12.183,12.183,0,0,1-6.49,3.364" transform="translate(-675.055 -407.728)" fill="#2e497a"/>
              <path id="Path_110680" data-name="Path 110680" d="M905.013,341.188a31.526,31.526,0,0,1,3.6-7.38,37.194,37.194,0,0,1,3.451-4.405,37.4,37.4,0,0,0-3.867,4.843,31.418,31.418,0,0,0-3.454,6.973c.091-.01.181-.018.273-.031" transform="translate(-630.268 -329.812)" fill="#2e497a"/>
              <path id="Path_110681" data-name="Path 110681" d="M1337.6,390.348c.011.013.021.027.032.041.153-.146.3-.3.437-.457-.15.145-.306.286-.47.417" transform="translate(-908.335 -367.63)" fill="#2e497a"/>
              <path id="Path_110682" data-name="Path 110682" d="M1333.073,412.171c.031.048.056.1.086.15a5.239,5.239,0,0,0,1.177-1.03,5.152,5.152,0,0,1-1.263.88" transform="translate(-905.429 -380.975)" fill="#2e497a"/>
              <path id="Path_110683" data-name="Path 110683" d="M1291.715,454.39a4.88,4.88,0,0,1-2.908-.395.054.054,0,0,1,0,.009,3.984,3.984,0,0,1,.044.614,4.85,4.85,0,0,0,2.444.209,5,5,0,0,0,2.969-1.716,4.963,4.963,0,0,1-2.552,1.278" transform="translate(-876.993 -407.104)" fill="#2e497a"/>
              <path id="Path_110684" data-name="Path 110684" d="M1241.907,466.164a7.727,7.727,0,0,1-6.664-2.093c-.079.2-.164.392-.254.584a7.7,7.7,0,0,0,6.5,1.946,7.825,7.825,0,0,0,4.525-2.561,7.773,7.773,0,0,1-4.108,2.124" transform="translate(-842.42 -413.932)" fill="#2e497a"/>
              <path id="Path_110685" data-name="Path 110685" d="M1272.558,462.741a3.6,3.6,0,0,1-4.028-2.625c-.119.185-.25.361-.383.536a3.524,3.524,0,0,0,6.166,1.23,3.526,3.526,0,0,1-1.755.859" transform="translate(-863.721 -411.48)" fill="#2e497a"/>
              <path id="Path_110686" data-name="Path 110686" d="M1312.963,439.839a6.432,6.432,0,0,1-4.16-.7,5.57,5.57,0,0,1,.022.652,6.384,6.384,0,0,0,3.72.483,6.644,6.644,0,0,0,3.867-2.2,6.605,6.605,0,0,1-3.449,1.757" transform="translate(-889.838 -397.714)" fill="#2e497a"/>
              <path id="Path_110687" data-name="Path 110687" d="M1150.316,502.009a6.933,6.933,0,0,1-2.021.02q.1.241.192.489a6.3,6.3,0,0,0,1.412-.071,7.193,7.193,0,0,0,4.158-2.342,7.157,7.157,0,0,1-3.741,1.9" transform="translate(-786.728 -436.465)" fill="#2e497a"/>
              <path id="Path_110688" data-name="Path 110688" d="M1197.156,474.895a9.8,9.8,0,0,1-9.37-3.711,5.7,5.7,0,0,1-.2.7,9.682,9.682,0,0,0,14.806.286,9.778,9.778,0,0,1-5.239,2.727" transform="translate(-811.97 -418.396)" fill="#2e497a"/>
              <path id="Path_110689" data-name="Path 110689" d="M1172.911,480.061a4.866,4.866,0,0,1-2-.071c.024.177.034.352.046.527a4.846,4.846,0,0,0,1.534-.018,5.026,5.026,0,0,0,2.993-1.737,4.983,4.983,0,0,1-2.576,1.3" transform="translate(-801.258 -423.13)" fill="#2e497a"/>
              <path id="Path_110761" data-name="Path 110761" d="M548.545,438.6l.1-.159c-1.719.944-4.482,2.572-5.78,3.3l-.071.145c1.166-.642,3.941-2.279,5.752-3.282" transform="translate(-397.753 -397.939)" fill="#feffdb"/>
              <path id="Path_110762" data-name="Path 110762" d="M544.754,414.73l.063-.129s-5.456,2.689-7.976,3.761l-.073.122c2.186-.914,7.03-3.285,7.985-3.754" transform="translate(-393.882 -383.043)" fill="#feffdb"/>
              <path id="Path_110767" data-name="Path 110767" d="M631.183,414.951a8.535,8.535,0,0,1-7.087-8.9,9.659,9.659,0,0,1-5.123.618,10.308,10.308,0,0,1-6.854-4.228,11.262,11.262,0,0,1-2.006-8.082,11.582,11.582,0,0,1-5.069.378,12.07,12.07,0,0,1-7.293-4c-.1.222-.215.437-.334.648a12.041,12.041,0,0,0,7.15,3.852,11.571,11.571,0,0,0,5.069-.378,11.263,11.263,0,0,0,2.006,8.082,10.305,10.305,0,0,0,6.854,4.228,9.653,9.653,0,0,0,5.123-.618,8.533,8.533,0,0,0,7.086,8.9,8.019,8.019,0,0,0,7.218-2.709,7.984,7.984,0,0,1-6.742,2.21" transform="translate(-432.844 -368.134)" fill="#4d648a"/>
              <path id="Path_110768" data-name="Path 110768" d="M723.861,445.122a12.117,12.117,0,0,1-7.756-4.541c-.087.247-.187.486-.294.72a12.1,12.1,0,0,0,7.574,4.321,11.971,11.971,0,0,0,10.66-3.916,11.932,11.932,0,0,1-10.184,3.416" transform="translate(-508.9 -399.275)" fill="#4d648a"/>
              <path id="Path_110769" data-name="Path 110769" d="M565.482,400a8.192,8.192,0,0,1-4.468-2.189c-.114.206-.239.4-.362.6A8.187,8.187,0,0,0,565,400.5a8.069,8.069,0,0,0,7.255-2.731A8.022,8.022,0,0,1,565.482,400" transform="translate(-409.225 -372.524)" fill="#4d648a"/>
              <path id="Path_110770" data-name="Path 110770" d="M429.9,329.82c-7.782-1.147-13.243-8.568-12.411-16.7a10.96,10.96,0,0,1-8.033,2.012,11.439,11.439,0,0,1-9.112-7.869,6.8,6.8,0,0,1-4.1.7,7.411,7.411,0,0,1-6.035-8.428,5.711,5.711,0,0,1,.2-.826l-.084-.012c-6.73-.992-11.433-7.514-10.487-14.575a13.082,13.082,0,0,1,3.257-7.074,13.047,13.047,0,0,0-3.733,7.573c-.945,7.061,3.757,13.583,10.487,14.575l.084.013a5.648,5.648,0,0,0-.2.826,7.41,7.41,0,0,0,6.034,8.428,6.8,6.8,0,0,0,4.1-.7,11.438,11.438,0,0,0,9.112,7.869,10.96,10.96,0,0,0,8.033-2.011c-.832,8.136,4.63,15.557,12.411,16.7a14.079,14.079,0,0,0,12.387-4.444,14.045,14.045,0,0,1-11.91,3.945" transform="translate(-292.68 -297.098)" fill="#4d648a"/>
              <path id="Path_110771" data-name="Path 110771" d="M811.072,431.307c-4.579-.289-8.289-2.785-8.828-7.107a9.95,9.95,0,0,1-6.152,1.1,10.67,10.67,0,0,1-8.842-9.562,9.861,9.861,0,0,1-6.505,1.336,10.372,10.372,0,0,1-3.3-1.139c.022.247.033.5.037.749a9.5,9.5,0,0,0,9.292-.447,10.67,10.67,0,0,0,8.842,9.562,9.951,9.951,0,0,0,6.152-1.1,11.376,11.376,0,0,0,8.828,7.107,10.945,10.945,0,0,0,9.757-3.561,11.868,11.868,0,0,1-9.281,3.061" transform="translate(-548.493 -383.751)" fill="#4d648a"/>
              <path id="Path_110772" data-name="Path 110772" d="M1010.745,411.2a7.157,7.157,0,0,1-1.776-.51q-.227.26-.47.5a7.143,7.143,0,0,0,1.77.507,8.027,8.027,0,0,0,7.188-2.673,7.991,7.991,0,0,1-6.711,2.173" transform="translate(-696.923 -379.561)" fill="#4d648a"/>
              <path id="Path_110773" data-name="Path 110773" d="M1039.866,379.941c.029.093.054.188.081.282a12.426,12.426,0,0,0,4.547-3.212,12.34,12.34,0,0,1-4.628,2.93" transform="translate(-717.073 -359.557)" fill="#4d648a"/>
              <path id="Path_110774" data-name="Path 110774" d="M1062.669,338.4c.024.114.037.231.058.346a14.458,14.458,0,0,0,6.816-4.321,14.384,14.384,0,0,1-6.874,3.974" transform="translate(-731.721 -332.953)" fill="#4d648a"/>
              <path id="Path_110775" data-name="Path 110775" d="M942.221,429.686a6.992,6.992,0,0,1-3.434-1.586c-.089.22-.19.431-.3.639a6.715,6.715,0,0,0,9.438-.92,6.8,6.8,0,0,1-5.707,1.867" transform="translate(-651.949 -391.302)" fill="#4d648a"/>
              <path id="Path_110776" data-name="Path 110776" d="M910.245,436.406a6.9,6.9,0,0,1-4.283-2.454c-.062.266-.142.523-.221.78a6.766,6.766,0,0,0,10.26-.213,6.829,6.829,0,0,1-5.756,1.887" transform="translate(-630.911 -395.133)" fill="#4d648a"/>
              <path id="Path_110777" data-name="Path 110777" d="M975.487,417.874a9.95,9.95,0,0,1-4.756-2.119c-.048.246-.108.487-.178.723a9.851,9.851,0,0,0,4.458,1.9A10.118,10.118,0,0,0,984.044,415a10.072,10.072,0,0,1-8.557,2.874" transform="translate(-672.546 -383.292)" fill="#4d648a"/>
              <path id="Path_110779" data-name="Path 110779" d="M183.178,426.514a12.719,12.719,0,0,1-10.289-11.582,10.294,10.294,0,0,1-5.615.609,10.493,10.493,0,0,1-4.042-1.61c-.137.191-.283.372-.433.55a10.476,10.476,0,0,0,3.876,1.512,10.3,10.3,0,0,0,5.615-.609,12.719,12.719,0,0,0,10.289,11.582,11.855,11.855,0,0,0,9.485-2.506,11.814,11.814,0,0,1-8.886,2.054" transform="translate(-153.644 -382.625)" fill="#4d648a"/>
              <path id="Path_110780" data-name="Path 110780" d="M133.938,419.119a7.929,7.929,0,0,1-4.228-2.185c-.134.21-.275.414-.422.613a7.907,7.907,0,0,0,4.051,2.022,7.735,7.735,0,0,0,6.293-1.728,7.684,7.684,0,0,1-5.694,1.276" transform="translate(-132.117 -384.501)" fill="#4d648a"/>
              <path id="Path_110781" data-name="Path 110781" d="M260.105,436.685a11.219,11.219,0,0,1-6.855-4.09c-.139.218-.287.428-.438.635a11.194,11.194,0,0,0,6.695,3.906,10.957,10.957,0,0,0,8.778-2.321,10.921,10.921,0,0,1-8.18,1.87" transform="translate(-211.469 -394.286)" fill="#4d648a"/>
              <path id="Path_110782" data-name="Path 110782" d="M455.88,390.888a10.783,10.783,0,0,1-5.444-2.685c-.136.2-.279.4-.427.6a10.756,10.756,0,0,0,5.272,2.539,10.646,10.646,0,0,0,8.537-2.27,10.61,10.61,0,0,1-7.938,1.819" transform="translate(-338.148 -366.55)" fill="#4d648a"/>
              <path id="Path_110783" data-name="Path 110783" d="M502.07,363.918c-.016.156-.032.311-.05.467a13.689,13.689,0,0,0,8.694-3.01,13.623,13.623,0,0,1-8.644,2.543" transform="translate(-371.56 -349.788)" fill="#4d648a"/>
              <path id="Path_110784" data-name="Path 110784" d="M321.724,388.581c-.007.166-.01.331-.015.5a4.3,4.3,0,0,0,2.928-1.1,4.254,4.254,0,0,1-2.913.6" transform="translate(-255.728 -366.41)" fill="#4d648a"/>
              <path id="Path_110785" data-name="Path 110785" d="M335.853,375.616c-.006.15-.009.3-.023.45a7.627,7.627,0,0,0,4.6-1.785,7.581,7.581,0,0,1-4.582,1.336" transform="translate(-264.8 -357.851)" fill="#4d648a"/>
              <path id="Path_110786" data-name="Path 110786" d="M377.662,380.518a11.327,11.327,0,0,1-9.062-9.22,10.589,10.589,0,0,1-7.379,1.439,10.968,10.968,0,0,1-7.121-4.579c-.141.221-.3.432-.456.636a10.941,10.941,0,0,0,6.978,4.394A10.589,10.589,0,0,0,368,371.749a11.328,11.328,0,0,0,9.062,9.22,10.623,10.623,0,0,0,8.518-2.262,10.584,10.584,0,0,1-7.919,1.811" transform="translate(-276.244 -354.025)" fill="#4d648a"/>
              <path id="Path_110788" data-name="Path 110788" d="M975.9,388.188a13.306,13.306,0,0,1-9.032-13.269,10.586,10.586,0,0,1-5.812-.165,10.962,10.962,0,0,1-3.923-2.211c-.164.175-.336.34-.512.5a10.949,10.949,0,0,0,3.767,2.087,10.59,10.59,0,0,0,5.812.165,13.305,13.305,0,0,0,9.032,13.269,12.131,12.131,0,0,0,10-1.229,12.1,12.1,0,0,1-9.336.852" transform="translate(-663.597 -356.766)" fill="#4d648a"/>
              <path id="Path_110790" data-name="Path 110790" d="M926.526,373.951a8.3,8.3,0,0,1-4.039-2.823c-.163.2-.334.384-.508.567a8.274,8.274,0,0,0,3.879,2.633,7.91,7.91,0,0,0,6.646-.883,7.87,7.87,0,0,1-5.978.505" transform="translate(-641.341 -355.882)" fill="#4d648a"/>
              <path id="Path_110791" data-name="Path 110791" d="M1053.029,408.766a11.749,11.749,0,0,1-6.48-5.137c-.17.2-.348.4-.528.587a11.722,11.722,0,0,0,6.339,4.928,11.211,11.211,0,0,0,9.26-1.14,11.185,11.185,0,0,1-8.591.763" transform="translate(-721.027 -376.188)" fill="#4d648a"/>
              <path id="Path_110792" data-name="Path 110792" d="M1357.32,332.1c-.01.158-.028.316-.043.474a10.909,10.909,0,0,0,7.17-1.436,10.878,10.878,0,0,1-7.127.962" transform="translate(-920.978 -330.895)" fill="#4d648a"/>
              <path id="Path_110793" data-name="Path 110793" d="M1259.07,388.144a11.279,11.279,0,0,1-5.218-3.506c-.165.19-.336.373-.512.55a11.256,11.256,0,0,0,5.061,3.332,10.89,10.89,0,0,0,9.006-1.122,10.863,10.863,0,0,1-8.338.745" transform="translate(-854.209 -364.323)" fill="#4d648a"/>
              <path id="Path_110794" data-name="Path 110794" d="M1309.291,368.665c-.036.157-.072.313-.11.47a13.968,13.968,0,0,0,9.262-1.855,13.924,13.924,0,0,1-9.151,1.385" transform="translate(-890.08 -353.477)" fill="#4d648a"/>
              <path id="Path_110795" data-name="Path 110795" d="M1122.252,368.41c-.028.168-.052.336-.079.5a4.393,4.393,0,0,0,3.13-.711,4.364,4.364,0,0,1-3.051.206" transform="translate(-769.947 -354.055)" fill="#4d648a"/>
              <path id="Path_110796" data-name="Path 110796" d="M1138.26,357.449c-.025.152-.047.3-.081.456a7.775,7.775,0,0,0,4.929-1.177,7.748,7.748,0,0,1-4.849.721" transform="translate(-780.229 -346.885)" fill="#4d648a"/>
              <path id="Path_110797" data-name="Path 110797" d="M1180.632,367.231a11.859,11.859,0,0,1-8.08-10.686,10.854,10.854,0,0,1-7.718.435,11.49,11.49,0,0,1-6.689-5.675c-.173.206-.356.4-.546.586a11.461,11.461,0,0,0,6.566,5.465,10.853,10.853,0,0,0,7.718-.435,11.859,11.859,0,0,0,8.08,10.686,10.867,10.867,0,0,0,8.986-1.117,10.836,10.836,0,0,1-8.317.74" transform="translate(-792.705 -343.496)" fill="#4d648a"/>
              <path id="Path_110831" data-name="Path 110831" d="M1266.7,368.4a9.454,9.454,0,0,1-7.851-9.858,10.694,10.694,0,0,1-5.675.684,11.418,11.418,0,0,1-7.593-4.684,12.478,12.478,0,0,1-2.222-8.953,12.822,12.822,0,0,1-5.616.419,13.368,13.368,0,0,1-8.078-4.432c-.114.246-.238.484-.37.717a13.34,13.34,0,0,0,7.92,4.268,12.822,12.822,0,0,0,5.616-.419,12.475,12.475,0,0,0,2.223,8.953,11.418,11.418,0,0,0,7.593,4.684,10.694,10.694,0,0,0,5.675-.684,9.454,9.454,0,0,0,7.851,9.857,8.884,8.884,0,0,0,8-3,8.845,8.845,0,0,1-7.469,2.448" transform="translate(-838.76 -337.419)" fill="#4d648a"/>
              <path id="Path_110832" data-name="Path 110832" d="M1369.363,401.825a13.423,13.423,0,0,1-8.592-5.031c-.1.273-.207.538-.326.8a13.4,13.4,0,0,0,8.39,4.786,13.26,13.26,0,0,0,11.809-4.338,13.218,13.218,0,0,1-11.282,3.784" transform="translate(-923.013 -371.918)" fill="#4d648a"/>
              <path id="Path_110833" data-name="Path 110833" d="M1193.912,351.834a9.078,9.078,0,0,1-4.95-2.425c-.126.227-.265.445-.4.665a9.068,9.068,0,0,0,4.823,2.313,8.939,8.939,0,0,0,8.037-3.025,8.887,8.887,0,0,1-7.51,2.472" transform="translate(-812.595 -342.282)" fill="#4d648a"/>
              <path id="Path_110835" data-name="Path 110835" d="M1465.975,386.52c-5.073-.32-9.182-3.085-9.78-7.873a11.02,11.02,0,0,1-6.815,1.214,11.82,11.82,0,0,1-9.8-10.593,10.93,10.93,0,0,1-7.207,1.48,11.494,11.494,0,0,1-3.656-1.262c.025.274.036.551.041.83a10.526,10.526,0,0,0,10.295-.495,11.82,11.82,0,0,0,9.8,10.593,11.022,11.022,0,0,0,6.815-1.214,12.6,12.6,0,0,0,9.779,7.873,12.125,12.125,0,0,0,10.809-3.944,13.147,13.147,0,0,1-10.281,3.39" transform="translate(-966.874 -354.72)" fill="#4d648a"/>
            </g>
          </g>
        </g>
      </g>
    </g>
  </g>
</svg>
