<svg xmlns="http://www.w3.org/2000/svg" width="112.618" height="79.627" viewBox="0 0 112.618 79.627">
  <g id="Group_80469" data-name="Group 80469" transform="translate(4305.364 12945.392)">
    <g id="Group_80262" data-name="Group 80262" transform="translate(-4375.154 -12990.884)">
      <g id="Group_80261" data-name="Group 80261" transform="translate(70.204 45.492)">
        <path id="Path_110883" data-name="Path 110883" d="M0,6.463V72.319c37.3,22.391,74.6-22.391,111.9,0V6.463C74.6-15.928,37.3,28.853,0,6.463" transform="translate(0 0.001)" fill="#25c325"/>
        <path id="Path_110884" data-name="Path 110884" d="M106.369,36.37c-16.933-7.487-33.865-2.4-50.8,2.678V67.273C38.636,72.356,21.7,77.438,4.769,69.951V41.726c16.933,7.487,33.865,2.4,50.8-2.678V10.821C72.5,5.739,89.436.657,106.369,8.143Z" transform="translate(0.377 0.345)" fill="#fdfeff"/>
      </g>
    </g>
    <path id="Path_110940" data-name="Path 110940" d="M-4193.05-12873.233s-14.75-11.332-46.75-2.4-42,14.533-65.333,2.4" fill="none" stroke="#707070" stroke-width="1"/>
  </g>
</svg>
