<svg xmlns="http://www.w3.org/2000/svg" xmlns:xlink="http://www.w3.org/1999/xlink" width="200" height="144" viewBox="0 0 200 144">
  <defs>
    <clipPath id="clip-Overdue-3-dark">
      <rect width="200" height="144"/>
    </clipPath>
  </defs>
  <g id="Overdue-3-dark" clip-path="url(#clip-Overdue-3-dark)">
    <rect width="200" height="144" fill="rgba(255,255,255,0)"/>
    <g id="noun-delay-1757910" transform="translate(-26.442 12.76)" opacity="0.3">
      <path id="Path_43878" data-name="Path 43878" d="M303.592,120.164h-7.409a6.853,6.853,0,0,0-1.606-1.607V101.239a2.678,2.678,0,0,0-5.357,0v17.318a5.084,5.084,0,0,0,2.678,9.462,5.066,5.066,0,0,0,4.284-2.5h7.41a2.686,2.686,0,0,0,2.678-2.678,2.746,2.746,0,0,0-2.678-2.678Z" transform="translate(-170.182 -68.693)" stroke="#bbb" stroke-width="1"/>
      <path id="Path_43879" data-name="Path 43879" d="M157.754,66.11a37.3,37.3,0,0,0,1.906-11.438A38.11,38.11,0,1,0,121.551,93.1,36.291,36.291,0,0,0,133.8,91a18.677,18.677,0,0,0,35.931-7.321A18.838,18.838,0,0,0,157.754,66.11ZM132.439,83.588a13.71,13.71,0,0,0,.182,1.922,34.941,34.941,0,0,1-8.257,1.83V79.561a2.722,2.722,0,1,0-5.444,0v7.686a32.14,32.14,0,0,1-18.147-7.595l5.353-5.4a2.778,2.778,0,0,0,0-3.934,2.722,2.722,0,0,0-3.9,0l-5.353,5.4a32.7,32.7,0,0,1-7.531-18.3h7.531a2.742,2.742,0,0,0,2.722-2.745,2.8,2.8,0,0,0-2.722-2.745H89.34a32.7,32.7,0,0,1,7.531-18.3l5.353,5.4a2.755,2.755,0,0,0,1.906.823,2.6,2.6,0,0,0,1.906-.823,2.778,2.778,0,0,0,0-3.934l-5.353-5.4a31.606,31.606,0,0,1,41.738,0l-5.353,5.4a2.792,2.792,0,0,0,1.906,4.758,2.6,2.6,0,0,0,1.906-.823l5.353-5.4a32.7,32.7,0,0,1,7.531,18.3h-7.622a2.742,2.742,0,0,0-2.722,2.745,2.8,2.8,0,0,0,2.722,2.745h7.713a30.532,30.532,0,0,1-1.542,7.595c-.454,0-.908-.183-1.361-.183a18.687,18.687,0,0,0-18.512,18.759Zm21.232-9.059V85.235a2.631,2.631,0,1,1-5.262,0V74.529a2.631,2.631,0,1,1,5.263,0ZM151.04,95.392a2.653,2.653,0,1,1,2.631-2.653A2.644,2.644,0,0,1,151.04,95.392Z" transform="translate(0 0)" stroke="#bbb" stroke-width="1"/>
    </g>
  </g>
</svg>
