<svg xmlns="http://www.w3.org/2000/svg" xmlns:xlink="http://www.w3.org/1999/xlink" width="48" height="48" viewBox="0 0 48 48">
  <defs>
    <clipPath id="clip-Wind">
      <rect width="48" height="48"/>
    </clipPath>
  </defs>
  <g id="Wind" clip-path="url(#clip-Wind)">
    <g id="noun-wind-4736941" transform="translate(-111.284 -81.643)">
      <path id="Path_43855" data-name="Path 43855" d="M128.135,111.5a1.15,1.15,0,0,1,0-2.3h12.332a5.791,5.791,0,0,1,3.389,1.211,5.508,5.508,0,0,1,1.939,3.049,5.364,5.364,0,0,1-.305,3.511,5.589,5.589,0,0,1-10.389-.405,6.367,6.367,0,0,1-.244-2.614,1.167,1.167,0,0,1,1.333-.967,1.15,1.15,0,0,1,.967,1.272,2.765,2.765,0,0,0,.122,1.572,2.815,2.815,0,0,0,.788,1.272,3.485,3.485,0,0,0,1.939.967,3.38,3.38,0,0,0,3.45-2,3.6,3.6,0,0,0,.122-2.121,2.919,2.919,0,0,0-1.15-1.742,2.887,2.887,0,0,0-1.878-.727Zm-9.387-4.665a1.188,1.188,0,0,1-1.15-1.159,1.15,1.15,0,0,1,1.15-1.15h29.561a3.28,3.28,0,0,0,2.906-4.6,3.224,3.224,0,0,0-5.328-1.028,2.949,2.949,0,0,0-.85,1.272,3.419,3.419,0,0,0-.126,1.59,1.141,1.141,0,0,1-.958,1.263,1.072,1.072,0,0,1-1.272-.967,5.557,5.557,0,0,1,4.757-6.36,5.663,5.663,0,0,1,5.872,3.389,5.355,5.355,0,0,1,.244,3.511,5.5,5.5,0,0,1-1.939,3.049,5.663,5.663,0,0,1-3.389,1.211Zm4.661-4.722a1.084,1.084,0,0,1-1.089-1.089,1.1,1.1,0,0,1,1.089-1.15h12.78a3.606,3.606,0,0,0,1.938-.732,3.237,3.237,0,0,0,.967-3.877A2.941,2.941,0,0,0,137.7,93.7a3.432,3.432,0,0,0-2.06-.436,3.649,3.649,0,0,0-1.878.91,3.552,3.552,0,0,0-.849,1.333,3.227,3.227,0,0,0-.122,1.516,1.168,1.168,0,0,1-.967,1.333,1.15,1.15,0,0,1-1.268-.95,5.721,5.721,0,0,1,1.572-4.792,5.385,5.385,0,0,1,3.21-1.572,5.174,5.174,0,0,1,3.511.7,5.6,5.6,0,0,1,2.361,2.666,5.355,5.355,0,0,1,.244,3.511,5.97,5.97,0,0,1-1.939,3.049,5.588,5.588,0,0,1-3.406,1.15Z" transform="translate(0)" fill="#fff"/>
    </g>
  </g>
</svg>
