<svg xmlns="http://www.w3.org/2000/svg" xmlns:xlink="http://www.w3.org/1999/xlink" width="200" height="144" viewBox="0 0 200 144">
  <defs>
    <clipPath id="clip-path">
      <rect id="Rectangle_145729" data-name="Rectangle 145729" width="200" height="144"/>
    </clipPath>
  </defs>
  <g id="In_Progress-4-white" data-name="In Progress-4-white" clip-path="url(#clip-path)">
    <g id="noun-safety-helmet-3642813" transform="translate(-79.462 -11)" opacity="0.3">
      <path id="Path_43904" data-name="Path 43904" d="M216.528,83.6v-.857a4.214,4.214,0,0,0-2.3-3.689V73.448A25.47,25.47,0,0,0,211.966,62.9a26.874,26.874,0,0,0-6.183-8.609,28.989,28.989,0,0,0-9.164-5.808c-.359-.145-.738-.289-1.117-.414l-.052-.019.021.048a3.339,3.339,0,0,1,.1.351,9.973,9.973,0,0,1,.369,2.359V51.4c-.01.211-.021.4-.041.587l-.031.289-.031.222c0,.029-.01.048-.01.067l-.082.511c-.236,1.386-.482,2.734-.718,4.007-.263,1.368-.543,2.717-.82,4-.277,1.227-.574,2.533-.933,3.833-.133-1.339-.216-2.677-.277-3.93-.061-1.31-.113-2.677-.133-4.065-.031-1.291-.041-2.658-.031-4.054v-.511l-.01-.433-.041-.424-.031-.182a2.394,2.394,0,0,0-.04-.24c-.031-.193-.082-.741-.123-1.377a20.971,20.971,0,0,0-.351-3.005,7.756,7.756,0,0,0-.82-1.444l-.092-.116a.175.175,0,0,0-.041-.048l-.123-.164c-.061-.067-.123-.145-.175-.211-.031-.039-.061-.067-.092-.106l-.144-.154c-.021-.019-.031-.039-.052-.058s-.061-.067-.092-.1l-.225-.211-.1-.059-.031-.029-.021-.019a8.168,8.168,0,0,0-1.292-.915L188.846,43l-.277-.145a.825.825,0,0,0-.133-.067c-.021-.01-.031-.019-.052-.019l-.185-.088c-.082-.029-.153-.067-.236-.1l-.153-.058a1.243,1.243,0,0,0-.175-.067,2.135,2.135,0,0,0-.225-.077,7.743,7.743,0,0,0-1.62-.337l-.205-.019c-.04,0-.082-.01-.123-.01h-.082l-.205-.01h-.421l-.81.01-2.153.019h-2.152l-2.153-.01c-.256,0-.513,0-.759-.01-.451,0-.923-.01-1.394-.01L174.524,42H174.1l-.205.01h-.082a.544.544,0,0,0-.123.01l-.2.03a7.982,7.982,0,0,0-4.439,1.928l-.021.019-.031.029-.082.067-.225.211c-.031.029-.061.067-.092.1s-.031.039-.052.058l-.144.154c-.031.039-.061.067-.092.106-.061.067-.123.135-.184.211l-.153.2a1.006,1.006,0,0,0-.092.125,8.171,8.171,0,0,0-.82,1.444,19.5,19.5,0,0,0-.351,3.005c-.052.635-.092,1.184-.123,1.377a2.38,2.38,0,0,1-.04.24c-.01.058-.021.116-.031.182l-.04.424-.01.433v.5c0,1.4-.01,2.763-.031,4.054-.031,1.4-.072,2.763-.133,4.065-.061,1.252-.144,2.6-.277,3.93-.359-1.29-.656-2.61-.933-3.833-.287-1.281-.564-2.629-.82-4-.246-1.271-.482-2.619-.718-4.007l-.082-.5c0-.019-.01-.039-.01-.067L163.4,52c-.01-.182-.031-.376-.04-.587v-.6a8.977,8.977,0,0,1,.369-2.35c.031-.106.061-.222.113-.356l.021-.048-.052.019c-.379.135-.759.28-1.128.424a28.8,28.8,0,0,0-9.165,5.808,27.048,27.048,0,0,0-6.182,8.609,25.47,25.47,0,0,0-2.265,10.545v5.609a4.214,4.214,0,0,0-2.3,3.689v.857a2.321,2.321,0,0,0-1.315,2.061v2.552a.578.578,0,0,0,.594.558h.83v4.44a3.734,3.734,0,0,0,3.845,3.612h4.962a26.159,26.159,0,0,0,2.532,5.75l-3.506,3.293a3.463,3.463,0,0,0,0,5.1l5.885,5.528a4.027,4.027,0,0,0,5.434-.01l3.505-3.293a30.428,30.428,0,0,0,6.121,2.388v4.661a3.734,3.734,0,0,0,3.845,3.612h8.326a3.734,3.734,0,0,0,3.845-3.612v-4.661a29.348,29.348,0,0,0,6.121-2.388l3.505,3.293a4.014,4.014,0,0,0,5.434,0l5.885-5.528a3.463,3.463,0,0,0,0-5.1l-3.505-3.293a26.15,26.15,0,0,0,2.532-5.75h4.962a3.734,3.734,0,0,0,3.845-3.612V88.783h.83a.578.578,0,0,0,.594-.558V85.672a2.459,2.459,0,0,0-1.355-2.07Zm-48.8,5.181h23.825c.01.182.031.356.031.54,0,6.183-5.362,11.218-11.943,11.218S167.7,95.5,167.7,89.324c0-.193.019-.366.03-.54ZM213,93.223a.41.41,0,0,1-.421.4h-7.624l-.308,1.233a23.339,23.339,0,0,1-3.147,7.136l-.718,1.079,5.4,5.075a.39.39,0,0,1,0,.569l-5.885,5.528a.454.454,0,0,1-.6,0l-5.4-5.075-1.148.675a26.392,26.392,0,0,1-7.6,2.956l-1.315.289v7.165a.41.41,0,0,1-.421.4h-8.326a.41.41,0,0,1-.421-.4v-7.165l-1.315-.289a26.619,26.619,0,0,1-7.6-2.956l-1.149-.675-5.4,5.075a.454.454,0,0,1-.6,0l-5.885-5.528a.39.39,0,0,1,0-.569l5.4-5.075-.718-1.079a23.14,23.14,0,0,1-3.147-7.136l-.308-1.233H146.72a.41.41,0,0,1-.421-.4V88.782h18.023c-.01.182-.031.356-.031.54a13.9,13.9,0,0,0,4.5,10.2,16.057,16.057,0,0,0,21.706-.011,13.9,13.9,0,0,0,4.5-10.2c0-.182-.021-.356-.031-.54h18.02v4.45Z" fill="#fff" stroke="#999" stroke-width="1.25"/>
    </g>
  </g>
</svg>
