<svg xmlns="http://www.w3.org/2000/svg" xmlns:xlink="http://www.w3.org/1999/xlink" width="48" height="48" viewBox="0 0 48 48">
  <defs>
    <linearGradient id="linear-gradient" y1="0.5" x2="1" y2="0.5" gradientUnits="objectBoundingBox">
      <stop offset="0" stop-color="#00aeef"/>
      <stop offset="1" stop-color="#00bdf2"/>
    </linearGradient>
    <filter id="Path_43926" x="8.25" y="23.583" width="33.704" height="15.209" filterUnits="userSpaceOnUse">
      <feOffset dy="3" input="SourceAlpha"/>
      <feGaussianBlur stdDeviation="1.5" result="blur"/>
      <feFlood flood-opacity="0.2"/>
      <feComposite operator="in" in2="blur"/>
      <feComposite in="SourceGraphic"/>
    </filter>
    <filter id="Path_43927" x="-0.107" y="18.255" width="48.487" height="15.209" filterUnits="userSpaceOnUse">
      <feOffset dy="3" input="SourceAlpha"/>
      <feGaussianBlur stdDeviation="1.5" result="blur-2"/>
      <feFlood flood-opacity="0.2"/>
      <feComposite operator="in" in2="blur-2"/>
      <feComposite in="SourceGraphic"/>
    </filter>
    <linearGradient id="linear-gradient-3" x1="0" y1="0.5" x2="1" y2="0.5" xlink:href="#linear-gradient"/>
    <filter id="Path_43928" x="14.676" y="9.071" width="27.277" height="15.209" filterUnits="userSpaceOnUse">
      <feOffset dy="3" input="SourceAlpha"/>
      <feGaussianBlur stdDeviation="1.5" result="blur-3"/>
      <feFlood flood-opacity="0.2"/>
      <feComposite operator="in" in2="blur-3"/>
      <feComposite in="SourceGraphic"/>
    </filter>
    <linearGradient id="linear-gradient-4" y1="0.5" x2="1" y2="0.5" gradientUnits="objectBoundingBox">
      <stop offset="0" stop-color="#d0e8f8"/>
      <stop offset="1" stop-color="#e1eef9"/>
    </linearGradient>
    <filter id="Ellipse_16755" x="3.325" y="30.743" width="3.414" height="3.414" filterUnits="userSpaceOnUse">
      <feOffset dx="1" dy="1" input="SourceAlpha"/>
      <feGaussianBlur result="blur-4"/>
      <feFlood flood-color="#00bcf1" flood-opacity="0.6"/>
      <feComposite operator="in" in2="blur-4"/>
      <feComposite in="SourceGraphic"/>
    </filter>
    <filter id="Ellipse_16756" x="9.359" y="30.743" width="3.414" height="3.414" filterUnits="userSpaceOnUse">
      <feOffset dx="1" dy="1" input="SourceAlpha"/>
      <feGaussianBlur result="blur-5"/>
      <feFlood flood-color="#00bcf1" flood-opacity="0.6"/>
      <feComposite operator="in" in2="blur-5"/>
      <feComposite in="SourceGraphic"/>
    </filter>
    <filter id="Ellipse_16757" x="15.393" y="30.743" width="3.414" height="3.414" filterUnits="userSpaceOnUse">
      <feOffset dx="1" dy="1" input="SourceAlpha"/>
      <feGaussianBlur result="blur-6"/>
      <feFlood flood-color="#00bcf1" flood-opacity="0.6"/>
      <feComposite operator="in" in2="blur-6"/>
      <feComposite in="SourceGraphic"/>
    </filter>
    <filter id="Ellipse_16758" x="21.427" y="30.743" width="3.414" height="3.414" filterUnits="userSpaceOnUse">
      <feOffset dx="1" dy="1" input="SourceAlpha"/>
      <feGaussianBlur result="blur-7"/>
      <feFlood flood-color="#00bcf1" flood-opacity="0.6"/>
      <feComposite operator="in" in2="blur-7"/>
      <feComposite in="SourceGraphic"/>
    </filter>
    <filter id="Ellipse_16759" x="6.342" y="34.967" width="3.414" height="3.414" filterUnits="userSpaceOnUse">
      <feOffset dx="1" dy="1" input="SourceAlpha"/>
      <feGaussianBlur result="blur-8"/>
      <feFlood flood-color="#00bcf1" flood-opacity="0.6"/>
      <feComposite operator="in" in2="blur-8"/>
      <feComposite in="SourceGraphic"/>
    </filter>
    <filter id="Ellipse_16760" x="12.376" y="34.967" width="3.414" height="3.414" filterUnits="userSpaceOnUse">
      <feOffset dx="1" dy="1" input="SourceAlpha"/>
      <feGaussianBlur result="blur-9"/>
      <feFlood flood-color="#00bcf1" flood-opacity="0.6"/>
      <feComposite operator="in" in2="blur-9"/>
      <feComposite in="SourceGraphic"/>
    </filter>
    <filter id="Ellipse_16761" x="18.41" y="34.967" width="3.414" height="3.414" filterUnits="userSpaceOnUse">
      <feOffset dx="1" dy="1" input="SourceAlpha"/>
      <feGaussianBlur result="blur-10"/>
      <feFlood flood-color="#00bcf1" flood-opacity="0.6"/>
      <feComposite operator="in" in2="blur-10"/>
      <feComposite in="SourceGraphic"/>
    </filter>
    <filter id="Ellipse_16762" x="6.342" y="26.519" width="3.414" height="3.414" filterUnits="userSpaceOnUse">
      <feOffset dx="1" dy="1" input="SourceAlpha"/>
      <feGaussianBlur result="blur-11"/>
      <feFlood flood-color="#00bcf1" flood-opacity="0.6"/>
      <feComposite operator="in" in2="blur-11"/>
      <feComposite in="SourceGraphic"/>
    </filter>
    <clipPath id="clip-_50d">
      <rect width="48" height="48"/>
    </clipPath>
  </defs>
  <g id="_50d" data-name="50d" clip-path="url(#clip-_50d)">
    <g id="Breezy_Snow" transform="translate(3.325 10.571)">
      <g id="Group_98347" data-name="Group 98347">
        <g transform="matrix(1, 0, 0, 1, -3.32, -10.57)" filter="url(#Path_43926)">
          <path id="Path_43926-2" data-name="Path 43926" d="M37.228,30.259a3.1,3.1,0,0,1-3.1-3.1,3.056,3.056,0,0,1,.235-1.177H16.585a.965.965,0,0,1,0-1.931H37.222a3.1,3.1,0,0,1,0,6.2Z" transform="translate(-2.87 1.03)" fill="url(#linear-gradient)"/>
        </g>
        <g transform="matrix(1, 0, 0, 1, -3.32, -10.57)" filter="url(#Path_43927)">
          <path id="Path_43927-2" data-name="Path 43927" d="M38.162,21.429a3.1,3.1,0,0,1-3.1-3.1,3.056,3.056,0,0,1,.235-1.177H2.735a.965.965,0,0,1,0-1.931h35.42a3.1,3.1,0,1,1,0,6.2Z" transform="translate(2.62 4.53)" fill="url(#linear-gradient)"/>
        </g>
        <g transform="matrix(1, 0, 0, 1, -3.32, -10.57)" filter="url(#Path_43928)">
          <path id="Path_43928-2" data-name="Path 43928" d="M41.452,0a3.1,3.1,0,0,0-3.1,3.1,3.056,3.056,0,0,0,.235,1.177H27.235a.965.965,0,1,0,0,1.931h14.21a3.1,3.1,0,0,0,0-6.2Z" transform="translate(-7.09 10.57)" fill="url(#linear-gradient-3)"/>
        </g>
      </g>
      <g transform="matrix(1, 0, 0, 1, -3.32, -10.57)" filter="url(#Ellipse_16755)">
        <circle id="Ellipse_16755-2" data-name="Ellipse 16755" cx="1.207" cy="1.207" r="1.207" transform="translate(3.32 30.74)" fill="url(#linear-gradient-4)"/>
      </g>
      <g transform="matrix(1, 0, 0, 1, -3.32, -10.57)" filter="url(#Ellipse_16756)">
        <circle id="Ellipse_16756-2" data-name="Ellipse 16756" cx="1.207" cy="1.207" r="1.207" transform="translate(9.36 30.74)" fill="url(#linear-gradient-4)"/>
      </g>
      <g transform="matrix(1, 0, 0, 1, -3.32, -10.57)" filter="url(#Ellipse_16757)">
        <circle id="Ellipse_16757-2" data-name="Ellipse 16757" cx="1.207" cy="1.207" r="1.207" transform="translate(15.39 30.74)" fill="url(#linear-gradient-4)"/>
      </g>
      <g transform="matrix(1, 0, 0, 1, -3.32, -10.57)" filter="url(#Ellipse_16758)">
        <circle id="Ellipse_16758-2" data-name="Ellipse 16758" cx="1.207" cy="1.207" r="1.207" transform="translate(21.43 30.74)" fill="url(#linear-gradient-4)"/>
      </g>
      <g transform="matrix(1, 0, 0, 1, -3.32, -10.57)" filter="url(#Ellipse_16759)">
        <circle id="Ellipse_16759-2" data-name="Ellipse 16759" cx="1.207" cy="1.207" r="1.207" transform="translate(6.34 34.97)" fill="url(#linear-gradient-4)"/>
      </g>
      <g transform="matrix(1, 0, 0, 1, -3.32, -10.57)" filter="url(#Ellipse_16760)">
        <circle id="Ellipse_16760-2" data-name="Ellipse 16760" cx="1.207" cy="1.207" r="1.207" transform="translate(12.38 34.97)" fill="url(#linear-gradient-4)"/>
      </g>
      <g transform="matrix(1, 0, 0, 1, -3.32, -10.57)" filter="url(#Ellipse_16761)">
        <circle id="Ellipse_16761-2" data-name="Ellipse 16761" cx="1.207" cy="1.207" r="1.207" transform="translate(18.41 34.97)" fill="url(#linear-gradient-4)"/>
      </g>
      <g transform="matrix(1, 0, 0, 1, -3.32, -10.57)" filter="url(#Ellipse_16762)">
        <circle id="Ellipse_16762-2" data-name="Ellipse 16762" cx="1.207" cy="1.207" r="1.207" transform="translate(6.34 26.52)" fill="url(#linear-gradient-4)"/>
      </g>
    </g>
  </g>
</svg>
