<svg xmlns="http://www.w3.org/2000/svg" xmlns:xlink="http://www.w3.org/1999/xlink" width="200" height="144" viewBox="0 0 200 144">
  <defs>
    <clipPath id="clip-path">
      <rect id="Rectangle_145726" data-name="Rectangle 145726" width="200" height="144"/>
    </clipPath>
  </defs>
  <g id="Overdue-2-dark" clip-path="url(#clip-path)">
    <rect width="200" height="144" fill="rgba(255,255,255,0)"/>
    <path id="noun-deadline-2966127" d="M206.947,88.272v13.866a4.587,4.587,0,0,1-2.423,4,5.052,5.052,0,0,1-4.847,0,4.587,4.587,0,0,1-2.423-4V88.272a4.587,4.587,0,0,1,2.423-4,5.052,5.052,0,0,1,4.847,0A4.587,4.587,0,0,1,206.947,88.272Zm-2.132,23.895a3.761,3.761,0,0,0-.872-.416l-.872-.37a5.068,5.068,0,0,0-2.811.278,4.876,4.876,0,0,0-1.6.97A4.511,4.511,0,0,0,197.254,116a4.427,4.427,0,0,0,.339,1.756,6.735,6.735,0,0,0,1.066,1.525,5.013,5.013,0,0,0,6.882,0,5.289,5.289,0,0,0,1.017-1.525,4.427,4.427,0,0,0,.388-1.756,4.735,4.735,0,0,0-1.405-3.281,7.537,7.537,0,0,0-.727-.555Zm36.057-10.03a35.887,35.887,0,0,1-7.98,22.487,38.915,38.915,0,0,1-20.672,13.224,40.531,40.531,0,0,1-24.843-1.489A38.281,38.281,0,0,1,168.6,120.772a35.556,35.556,0,0,1-4.966-23.261,36.327,36.327,0,0,1,10.888-21.348l-3.49-3.374a4.461,4.461,0,0,1-.966-4.317,4.737,4.737,0,0,1,3.273-3.121,5.023,5.023,0,0,1,4.526.922l4.362,4.16a39.742,39.742,0,0,1,15.024-4.946V55.918H194.83a4.894,4.894,0,0,1-4.2-2.31,4.438,4.438,0,0,1,0-4.622,4.894,4.894,0,0,1,4.2-2.31H209.37a4.894,4.894,0,0,1,4.2,2.31,4.438,4.438,0,0,1,0,4.622,4.893,4.893,0,0,1-4.2,2.31h-2.423v9.568a39.742,39.742,0,0,1,15.024,4.946l4.362-4.16a5.023,5.023,0,0,1,4.527-.922,4.738,4.738,0,0,1,3.273,3.121,4.461,4.461,0,0,1-.966,4.317l-3.49,3.374a36.114,36.114,0,0,1,11.2,25.975Zm-9.693,0a27.1,27.1,0,0,0-8.517-19.61,30.087,30.087,0,0,0-41.123,0,26.833,26.833,0,0,0,0,39.218,30.085,30.085,0,0,0,41.123,0A27.1,27.1,0,0,0,231.178,102.137Z" transform="translate(-101.83 -21.175)" stroke="#bbb" stroke-width="1" opacity="0.3"/>
  </g>
</svg>
