<svg xmlns="http://www.w3.org/2000/svg" xmlns:xlink="http://www.w3.org/1999/xlink" width="500" height="152" viewBox="0 0 500 152">
  <defs>
    <clipPath id="clip-path">
      <rect id="Rectangle_169144" data-name="Rectangle 169144" width="485" height="142"/>
    </clipPath>
    <clipPath id="clip-path-2">
      <rect id="Rectangle_145860" data-name="Rectangle 145860" width="499" height="142" rx="4" opacity="0.2"/>
    </clipPath>
    <filter id="Rectangle_166494" x="-1" y="0" width="506" height="149" filterUnits="userSpaceOnUse">
      <feOffset dx="2" dy="4" input="SourceAlpha"/>
      <feGaussianBlur stdDeviation="1" result="blur"/>
      <feFlood flood-opacity="0.302"/>
      <feComposite operator="in" in2="blur"/>
      <feComposite in="SourceGraphic"/>
    </filter>
    <clipPath id="clip-_04d-Broken_Clouds">
      <rect width="500" height="152"/>
    </clipPath>
  </defs>
  <g id="_04d-Broken_Clouds" data-name="04d-Broken Clouds" clip-path="url(#clip-_04d-Broken_Clouds)">
    <g id="Group_143176" data-name="Group 143176" transform="translate(-1542 -102)">
      <g id="Group_98336" data-name="Group 98336" transform="translate(-4305 137)">
        <g id="weather-card" transform="translate(5847 -35)">
          <g id="Group_73994" data-name="Group 73994">
            <g id="Mask_Group_305" data-name="Mask Group 305" clip-path="url(#clip-path-2)">
              <g id="_ÎÓÈ_1" transform="translate(-1.011 -49.485)">
                <rect id="Rectangle_154626" data-name="Rectangle 154626" width="500.344" height="207.621" fill="#68c0fd"/>
                <g id="Group_98514" data-name="Group 98514" transform="translate(242.598 3.579)">
                  <path id="Path_54873" data-name="Path 54873" d="M468.168,249.688c-1.246-2.768-4.145-3.535-6.9-3.277a9.769,9.769,0,0,0-.87-3.11,6.493,6.493,0,0,0-4.372-3.686,5.031,5.031,0,0,0-2.468.108,8.98,8.98,0,0,0-1.645-5.312,5.712,5.712,0,0,0-5.978-2.11,8.642,8.642,0,0,0-2.742-5.437,6.824,6.824,0,0,0-4.074-1.943,10.288,10.288,0,0,0-1.755-7.3c-2.436-3.177-6.471-3.761-10.3-2.985.932-5.829-.321-11.765-5.061-15.893-4.474-3.9-9.965-4.061-15.232-2a18.288,18.288,0,0,0-7.756,5.637c-2.7-2.376-6.84-3.877-9.934-1.493-2.46,1.893-4.387,7.113-4.168,11.432-3.721,3.01-6.26,7.871-5.5,12.366a7.859,7.859,0,0,0-.878.1,10.289,10.289,0,0,0-3.956,1.534,18.253,18.253,0,0,0-6.307-1.526c-8.422-.542-16.618,4.728-18.13,13.583a13.014,13.014,0,0,0-8.9,2.824c-3.157,2.66-6.065,8.614-3.3,12.624,1.917,2.777,5.649,3.352,8.846,3.244a12.134,12.134,0,0,0,8.078,4.569,10.081,10.081,0,0,0,7.061-1.426,11.7,11.7,0,0,0,.963-.709c2.147,2.577,6.331,2.485,10.289,1.251,2.812,6.671,8.923,11.707,16.171,10.707,4.693-.642,9-3.569,12.408-7.4a11.469,11.469,0,0,0,9.52,1.693c3.322-1.026,4.857-3.819,5.8-6.979a12.152,12.152,0,0,0,14.267-1.7c2.225,2.51,6.182,3.027,9.426,2.56a14.138,14.138,0,0,0,6.691-2.835,43.735,43.735,0,0,0,6.355,4.169c3.267,1.726,7.436,3.11,10.82.976,3.463-2.185,5.258-8.422,3.531-12.241Z" transform="translate(-336.831 -195.433)" fill="#f7f7ff"/>
                  <path id="Path_54874" data-name="Path 54874" d="M461.265,246.421a9.769,9.769,0,0,0-.87-3.11,6.493,6.493,0,0,0-4.372-3.686,5.03,5.03,0,0,0-2.468.108,8.98,8.98,0,0,0-1.645-5.312,5.712,5.712,0,0,0-5.978-2.11,8.642,8.642,0,0,0-2.742-5.437,6.824,6.824,0,0,0-4.074-1.943,10.288,10.288,0,0,0-1.755-7.3c-2.436-3.177-6.471-3.761-10.3-2.985.932-5.829-.321-11.765-5.061-15.893-4.474-3.9-9.965-4.061-15.232-2a18.288,18.288,0,0,0-7.756,5.637c-2.7-2.376-6.84-3.877-9.934-1.493-2.46,1.893-4.387,7.113-4.168,11.432-3.721,3.01-6.26,7.871-5.5,12.366a7.854,7.854,0,0,0-.878.1,10.289,10.289,0,0,0-3.956,1.534,18.253,18.253,0,0,0-6.307-1.526c-8.422-.542-16.618,4.728-18.13,13.583a13.014,13.014,0,0,0-8.892,2.827c-3.157,2.66-6.065,8.614-3.3,12.624a6.006,6.006,0,0,0,.83.967,14.494,14.494,0,0,1,3.142-7.755,16.84,16.84,0,0,1,8.141-5.186,25.063,25.063,0,0,1,4.748-.976,10.557,10.557,0,0,1,6.032,1.084.447.447,0,0,0,.446-.01.439.439,0,0,0,.212-.39c.055-5.278,5.233-7.713,9.281-9.131,4.183-1.468,8.908-2.068,11.823,2.076a.449.449,0,0,0,.83-.117,24.92,24.92,0,0,1,3.675-8.639c1.715-2.61,4.959-6.079,8.3-4.986a.443.443,0,0,0,.517-.225c.5-.967-.643-2.568-.932-3.5-1.042-3.327.572-6.22,3.026-8.213,4.089-3.327,13.045-5.2,13.5,2.718a.465.465,0,0,0,.339.469.471.471,0,0,0,.539-.219c2.436-4.044,7.937-1.593,10.06,1.451a8.445,8.445,0,0,1,.948,6.287,21.725,21.725,0,0,1-1.081,2.593c-.391.892-1.191,1.409-1.543,2.293-.141.342.094.942.541.742a12.24,12.24,0,0,1,12.787,1.317,13.228,13.228,0,0,1,4.6,5.145c.7,1.568.454,3.077.416,4.728-.016.675-.11.976.258,1.509a.494.494,0,0,0,.556.242c2.86-1.009,5.813.008,8.688.709a15.206,15.206,0,0,1,9.52,7.621,6.558,6.558,0,0,1,1.042,2.527,1.571,1.571,0,0,0,.4.934c.4.525,1.481.175,2.005.175a8.581,8.581,0,0,1,4.959,1.217,6.564,6.564,0,0,1,2.265,2.485,8.615,8.615,0,0,0-.643-4.077c-1.246-2.768-4.145-3.535-6.9-3.277Z" transform="translate(-336.831 -195.435)" fill="#fff"/>
                  <path id="Path_54875" data-name="Path 54875" d="M467.947,269.167a6.191,6.191,0,0,1-5-2.093c-.948-1.092-2.118-3.369-1.755-5.078-1.8,1.534-4.058,2.56-6.3,1.509-1.677-.784-3.384-2.4-3.455-4.361-4.074,2.577-9.911,2.293-13.416-1.167a7.083,7.083,0,0,1-6.637,5.687,11.225,11.225,0,0,1-5.837-.575,21.933,21.933,0,0,1-3.361-1.6,4.988,4.988,0,0,1-1.724-1.668c-.956-1.418-.3-1.976.031-3.435.605-2.652,3.815-3.844,5.346-5.87a.674.674,0,0,0,.1-.534c-2.633,2.735-6.5,4.4-9.755,5.678-5.092,2-10.608,1.609-14.98-1.9.971,1.418,2.374,2.21,3.165,3.886a7.6,7.6,0,0,1,.3,6.8,16.314,16.314,0,0,1-4.788,5.528,12.078,12.078,0,0,1-7.4,2.226,16.584,16.584,0,0,1-7.263-1.884A10.791,10.791,0,0,1,382,266.847c-.282-.475-.337-.851-.9-1.009-.5-.15-1.371.217-1.857.217a14.064,14.064,0,0,1-3.43-.375,15.6,15.6,0,0,1-6.448-3.36.442.442,0,0,0-.525-.075,12.311,12.311,0,0,0-3,2.643,16.326,16.326,0,0,1-5.3,3.26,14.974,14.974,0,0,1-5.069,1.593,13.14,13.14,0,0,0,3.416.959,10.082,10.082,0,0,0,7.061-1.426,11.689,11.689,0,0,0,.963-.709c2.147,2.577,6.331,2.485,10.289,1.251,2.812,6.671,8.923,11.707,16.171,10.706,4.693-.642,9-3.569,12.408-7.4a11.469,11.469,0,0,0,9.52,1.693c3.322-1.026,4.858-3.819,5.8-6.979a12.152,12.152,0,0,0,14.267-1.7c2.225,2.51,6.182,3.027,9.426,2.56a14.137,14.137,0,0,0,6.691-2.835,43.74,43.74,0,0,0,6.355,4.169c3.267,1.726,7.436,3.11,10.82.976A7.6,7.6,0,0,0,470.7,269a19.473,19.473,0,0,1-2.773.183Z" transform="translate(-340.866 -204.498)" fill="#ebebff"/>
                </g>
                <g id="Group_98515" data-name="Group 98515" transform="translate(24.726 0.502)">
                  <path id="Path_54876" data-name="Path 54876" d="M147.484,228.937a5.456,5.456,0,0,0-1.433-5.97c-2.773-2.81-7.138-.142-9.464,2.827-1.144-1.893-2.358-3.535-4.732-4.228A8.573,8.573,0,0,0,124.1,223.3a9.332,9.332,0,0,0-6.714-6.1,14.848,14.848,0,0,0-8.1.742,12.335,12.335,0,0,0-2.531-6.821,7.367,7.367,0,0,0-5.246-2.451c.768-3.452-.94-7.821-3.361-10.431a9.789,9.789,0,0,0-8.657-3.052,6.755,6.755,0,0,0-1.645.484,11.066,11.066,0,0,0-7.192-7.5c-3.531-.992-6.96,1.2-8.838,4.4a8.191,8.191,0,0,0-5.391-.2c-4.1,1.159-6.369,5.587-7.145,10.215a9.45,9.45,0,0,0-7.717,8.488,6.8,6.8,0,0,0,.76,4.228,9.417,9.417,0,0,0-4.082,9.039c-2.97-1.743-6.393-2.743-9.715-1.926-4.539,1.117-6.872,6.871-6.96,11.4-.11,5.011,4.568,6.863,8.461,5.57a.558.558,0,0,1,.125-.042,10.848,10.848,0,0,0,10.225,7.421,12.588,12.588,0,0,0,3.455-.559c2.954,6.062,10.693,7.071,16.853,6.3a28.113,28.113,0,0,0,10.679-3.7c4.779,3.352,11.353,1.985,15.976-1.943,7.4,7.713,24.7,5.845,28.5-4.069,5.6,3.077,13.538,3.094,17.519-1.9a7.748,7.748,0,0,0,8.218-1.459c2.092-2.068,1.677-5.453.353-7.838a4.962,4.962,0,0,0-4.451-2.643Z" transform="translate(-31.559 -187.926)" fill="#f7f7ff"/>
                  <path id="Path_54877" data-name="Path 54877" d="M151.592,239.418c2.092-2.068,1.677-5.453.353-7.838a4.962,4.962,0,0,0-4.451-2.643,5.456,5.456,0,0,0-1.433-5.97c-2.773-2.81-7.138-.142-9.464,2.827-1.144-1.893-2.358-3.535-4.732-4.228A8.573,8.573,0,0,0,124.1,223.3a9.332,9.332,0,0,0-6.714-6.1,14.848,14.848,0,0,0-8.1.742,12.335,12.335,0,0,0-2.531-6.821,7.367,7.367,0,0,0-5.246-2.451c.768-3.452-.94-7.821-3.361-10.431a9.789,9.789,0,0,0-8.647-3.056,6.757,6.757,0,0,0-1.645.484,11.066,11.066,0,0,0-7.192-7.5c-3.531-.992-6.96,1.2-8.838,4.4a8.191,8.191,0,0,0-5.391-.2c-4.1,1.159-6.369,5.587-7.145,10.215a9.45,9.45,0,0,0-7.717,8.488,6.8,6.8,0,0,0,.76,4.228,9.417,9.417,0,0,0-4.082,9.039c-2.97-1.743-6.393-2.743-9.715-1.926-4.539,1.117-6.872,6.871-6.96,11.4a6.675,6.675,0,0,0,.3,2.168,15.119,15.119,0,0,1,5.03-6.4,13.313,13.313,0,0,1,7.615-2.443c2.985-.05,4.27,2.293,6.362,3.961.258.208.619-.075.619-.384a15.608,15.608,0,0,1,1.269-6.913,18.132,18.132,0,0,1,3.879-4.753,15.973,15.973,0,0,1,5.688-3.736,12.683,12.683,0,0,1,3.047-.8c.605-.058,1.081.417,1.645.609a.446.446,0,0,0,.5-.217,2.069,2.069,0,0,0,.094-1.534,20.5,20.5,0,0,1-.258-3.794c.071-2.151,2.118-4.128,3.632-5.3a13.3,13.3,0,0,1,5.077-2.151c3.008-.734,8.736-2.01,10.013,2.2.979,3.227-.282,6.812-1.34,9.806-.149.425.447.784.713.442,1.795-2.276,4.936-4.761,7.9-3.052,1.6.926,2.781,2.1,2.7,4.211a12.636,12.636,0,0,1-.94,3.394.446.446,0,0,0,.146.474.455.455,0,0,0,.5.051,21.936,21.936,0,0,1,5.868-2.343c2.7-.467,5.5,1.9,6.385,4.486.728,2.143.423,4.961.047,7.129-.251,1.434-.838,2.968-.635,4.436a.463.463,0,0,0,.268.323.47.47,0,0,0,.421-.023c1.731-.784,3.04-2.143,4.9-2.793a21.169,21.169,0,0,1,6.62-.876c2.335-.033,4.6-.258,6.887.392a10.034,10.034,0,0,1,3.732,2.176c.58.509.94,1.609,1.661,1.96,1.21.584,2.75-.292,4.019-.367a21.818,21.818,0,0,1,6.668.459,11.815,11.815,0,0,1,5.516,2.552,3.56,3.56,0,0,1,1.293,3.686,6.691,6.691,0,0,0,2.147-1.409Z" transform="translate(-31.561 -187.926)" fill="#fff"/>
                  <path id="Path_54878" data-name="Path 54878" d="M147.45,247.456a31.38,31.38,0,0,0-5.728,1.6,10.469,10.469,0,0,1-3.659.45,5.905,5.905,0,0,1-2.178-.617c-1.019-.525,1.019-2.56,1.175-2.668a.506.506,0,0,0,.2-.612.513.513,0,0,0-.565-.314c-1.21.242-2.342.75-3.565,1-1.152.233-5.281.992-5.641-.851a.473.473,0,0,0-.932.133c-.023,4.228-3.565,6.5-6.879,7.821-3.792,1.5-7.85,1.826-11.29-.7-1.379-1.009-2.679-2.11-4.035-3.152-.682-.525-1.77.342-2.288.7a18.871,18.871,0,0,1-5.124,2.143c-1.849.584-6.668.909-6.668-2.235a.457.457,0,0,0-.221-.409.466.466,0,0,0-.468-.008,14.008,14.008,0,0,0-1.731,1.317c-1.089.842-2.825.767-4.082.734a8.779,8.779,0,0,1-4.074-.75A5.992,5.992,0,0,1,76.9,246.4a4.685,4.685,0,0,1,1.442-3.861,18.145,18.145,0,0,1,3.353-2.752c1.951-1.217,3.463-2.26,4.553-4.419.219-.434-.337-.934-.658-.542-2.272,2.793-6.307,4.077-9.574,5-3.839,1.084-8.218.867-11.446-1.718-.29-.275-.58-.542-.878-.775l-.023-.017h0s-.063-.05-.086-.075c-.4-.325-.9.375-.541.742a9.624,9.624,0,0,0,.753.65,10.159,10.159,0,0,1,2.623,4.153c.917,2.752-.861,4.519-2.758,6.062a9.792,9.792,0,0,1-2.623,1.626c-.979.359-2.429-.15-3.377-.484a15.746,15.746,0,0,1-4.959-2.885.432.432,0,0,0-.626,0,10.207,10.207,0,0,1-6.346,4.1,10.573,10.573,0,0,0,7.71,3.3,12.59,12.59,0,0,0,3.455-.559c2.954,6.062,10.693,7.071,16.853,6.3a28.113,28.113,0,0,0,10.679-3.7c4.779,3.352,11.353,1.985,15.976-1.943,7.4,7.713,24.7,5.845,28.5-4.069,5.6,3.077,13.538,3.094,17.519-1.9a7.777,7.777,0,0,0,7.819-1.134c-2.084-.717-5.225-.275-6.808-.058Z" transform="translate(-34.627 -195.697)" fill="#ebebff"/>
                </g>
                <g id="Group_98516" data-name="Group 98516" transform="translate(14.81 84.58)">
                  <path id="Path_54879" data-name="Path 54879" d="M121.692,364.251c5.023,3.661,12.442,3.06,18.1.459,3.925-1.81,8.446-4.661,8.665-9.714a8.817,8.817,0,0,0-1.816-5.77,6.618,6.618,0,0,0,.861-8.238,8.786,8.786,0,0,0-5.562-4.2c-.791-7.838-12.058-11.682-19.166-8.639-3.322-12.266-25.957-8.689-29.639,3.652-3.087-.884-7.3.5-9.825,3.018a12.811,12.811,0,0,0-10.088-5.378,16.91,16.91,0,0,0-10.6,2.785c-.235.167-.486.359-.736.559-1.356-6.245-8.171-11.482-14.048-10.431-3.291.584-8.681,3.119-10.945,6.7a10.749,10.749,0,0,0-5.915,2.193A9.429,9.429,0,0,0,26.87,336.7a4.626,4.626,0,0,0-.11,1.418,9.137,9.137,0,0,0-4.607,1.793c-2.3,1.726-3.956,5.27-2.946,8.2,1.1,3.16,4.85,4.136,7.639,3.861a10.185,10.185,0,0,0,1.88-.384,10.752,10.752,0,0,0,6.7,8.063,17.6,17.6,0,0,0,10.757.675,14.264,14.264,0,0,0,4.458-1.935c7.263,4.294,16.931,4.528,22.7-1.368,3.8,3.777,8.344,6.671,13.79,5.712,3.11-.542,5.044-2.477,6.464-4.945,3.761,5.478,10.828,8.238,16.931,9.005a16.779,16.779,0,0,0,11.134-2.56Z" transform="translate(-18.905 -320.551)" fill="#f7f7ff"/>
                  <path id="Path_54880" data-name="Path 54880" d="M147.516,341a8.787,8.787,0,0,0-5.562-4.2c-.791-7.838-12.058-11.682-19.166-8.639-3.322-12.266-25.957-8.689-29.639,3.652-3.087-.884-7.3.5-9.825,3.018a12.811,12.811,0,0,0-10.088-5.378,16.909,16.909,0,0,0-10.6,2.785c-.235.167-.486.359-.736.559-1.356-6.245-8.171-11.482-14.048-10.431-3.291.584-8.681,3.119-10.945,6.7a10.749,10.749,0,0,0-5.915,2.193,9.429,9.429,0,0,0-4.106,5.453,4.626,4.626,0,0,0-.11,1.418,9.135,9.135,0,0,0-4.607,1.793c-2.3,1.726-3.956,5.27-2.946,8.2.054.15.118.3.181.442a22.728,22.728,0,0,1,5.246-4.394,33.636,33.636,0,0,1,7.388-3.736A9.826,9.826,0,0,1,36.463,340c1.269.158,2.327,1.026,3.542,1.393a.453.453,0,0,0,.432-.131.444.444,0,0,0,.1-.436,7.591,7.591,0,0,1,1.81-7.713,8.8,8.8,0,0,1,7.067-3.06,11.374,11.374,0,0,1,7.566,2.927,7.742,7.742,0,0,1,2.413,3.9c.337,1.192.156,2.443.391,3.652a.464.464,0,0,0,.327.348.469.469,0,0,0,.464-.123,12.872,12.872,0,0,1,11.369-4.194,10.867,10.867,0,0,1,4.865,2.827c1.21,1.076,1.285,2.785,2.413,3.886a.48.48,0,0,0,.7,0c3.04-3.194,8.031-3.769,12.113-4.328a48.371,48.371,0,0,1,6.017-.359c2.178-.033,3.644.834,5.562,1.718a.508.508,0,0,0,.513-.009.5.5,0,0,0,.239-.45,13.6,13.6,0,0,1,.626-3.427c.368-1.518,1.849-2.168,2.977-2.927,2.429-1.626,5.5-2.076,8.313-2.251,2.46-.15,5.038-.042,7.216,1.3,2.883,1.784,2.805,6.7,1.622,9.522-.188.442.227,1.051.682.734a13.6,13.6,0,0,1,15.443-.125c2.225,1.584,3.392,5.287,3.392,8,0,2.568-.384,5.395.016,7.93a.5.5,0,0,0,.292.354.508.508,0,0,0,.461-.029c.886-.5,1.724-1.059,2.609-1.534a8.266,8.266,0,0,0,.47-2.385,8.818,8.818,0,0,0-1.816-5.77,6.618,6.618,0,0,0,.861-8.238Z" transform="translate(-18.907 -320.553)" fill="#fff"/>
                  <path id="Path_54881" data-name="Path 54881" d="M147.484,364.495a13.5,13.5,0,0,0-3.251-1.826.529.529,0,0,0-.588.25c-.682,1.092-2.107,1.534-3.22,1.893a36.662,36.662,0,0,1-4.748,1.334c-3.267.6-7.012.417-9.942-1.317a13.388,13.388,0,0,1-3.632-3.035,7.632,7.632,0,0,1-2.068-5.412,6.08,6.08,0,0,1,1.951-3.961,9.733,9.733,0,0,1,1.371-1.634l.188-.25c.047-.017.094-.042.141-.058a16.559,16.559,0,0,1,1.685-1.326,3.221,3.221,0,0,0,.243-.5,11.329,11.329,0,0,1-2.805,1.084l-.039.05c-.188.042-.384.067-.58.092a11.191,11.191,0,0,1-2.475.175,7.939,7.939,0,0,1-4.216-1.176,4.521,4.521,0,0,1-1.058-1.026c-.008,0-.023-.017-.031-.025-.008-.025-.023-.042-.031-.067a14.894,14.894,0,0,0-1.9-2.41,11.044,11.044,0,0,1,1.042,2.968c.016.008.023.025.031.033,1.583,3.577.713,8.03-2.954,10.064a8.342,8.342,0,0,1-6.254.784,5.158,5.158,0,0,1-3.675-1.543,15.431,15.431,0,0,1-3.956-2.243c-2.594,3.019-6.77,4.319-10.452,5.028a11.839,11.839,0,0,1-6.759-.876c-.94-.375-1.849-.876-2.773-1.3-.549-.258-1.9-.5-2.163-1.126a.437.437,0,0,0-.5-.225c-1.458.6-2.8,1.368-4.309,1.876a7.551,7.551,0,0,1-6.471-.859c-2.64-1.434-2.225-5.078.047-6.746a14.436,14.436,0,0,0,3.267-2.86,34.768,34.768,0,0,1-9.18,3.577c-2.825.742-6.3,1.684-8.987.217a6.76,6.76,0,0,1-1.23,3.794,19.184,19.184,0,0,1-5.595,5.728,16.347,16.347,0,0,1-3,1.584c.368.2.736.392,1.136.567a17.6,17.6,0,0,0,10.757.675,14.262,14.262,0,0,0,4.458-1.935c7.263,4.294,16.931,4.528,22.7-1.368,3.8,3.777,8.344,6.671,13.79,5.712,3.11-.542,5.044-2.477,6.464-4.945,3.761,5.478,10.828,8.238,16.931,9.005a16.779,16.779,0,0,0,11.134-2.56c5.023,3.661,12.442,3.06,18.1.459a22.485,22.485,0,0,0,5.226-3.194c-.605-.375-1.2-.759-1.8-1.142Z" transform="translate(-23.169 -324.672)" fill="#ebebff"/>
                </g>
                <g id="Group_98517" data-name="Group 98517" transform="translate(158.756 46.484)">
                  <path id="Path_54882" data-name="Path 54882" d="M277.912,276.911a11.069,11.069,0,0,0-7.819-1.96,12.5,12.5,0,0,0-1.152-5.028c-1.708-3.377-5.735-3.844-8.877-2.827a9.965,9.965,0,0,0-3.338,1.884,32.286,32.286,0,0,0-2.053-3.852c-3.925-6.3-10.8-8.914-17.44-5.987-7.4,3.269-15.278,15.243-12.646,24.123a12.08,12.08,0,0,0-6.307,5.912c-1.81,4.153.87,8.88,4.576,10.406,4.208,1.734,9.331.2,13.186-1.826a19.367,19.367,0,0,0,5.359-4.094,31.271,31.271,0,0,0,28.2-.158c5.3,2.36,12.818-.792,13.555-7.363.478-4.269-2.017-7.113-5.246-9.222Z" transform="translate(-217.701 -257.945)" fill="#f7f7ff"/>
                  <path id="Path_54883" data-name="Path 54883" d="M277.913,276.911a11.069,11.069,0,0,0-7.819-1.96,12.5,12.5,0,0,0-1.152-5.028c-1.708-3.377-5.735-3.844-8.877-2.827a9.965,9.965,0,0,0-3.338,1.884,32.288,32.288,0,0,0-2.053-3.852c-3.925-6.3-10.8-8.914-17.44-5.987-7.4,3.269-15.278,15.243-12.646,24.123a12.08,12.08,0,0,0-6.307,5.912,7.129,7.129,0,0,0-.258,4.92,26.7,26.7,0,0,1,2.272-4.228,15.769,15.769,0,0,1,4.411-4.928c1.379-.917,4.741-1.726,6.127-.359.36.359.83-.008.768-.475-.212-1.6-1.311-2.927-1.747-4.478-.626-2.218.274-4.828,1.254-6.762a18.959,18.959,0,0,1,7.767-7.755c3.471-1.91,8.211-1.776,10.749,1.7a8.575,8.575,0,0,1,.58,8.914,9.713,9.713,0,0,0-2.233,2.827.5.5,0,0,0,.105.648.508.508,0,0,0,.662-.014,9.375,9.375,0,0,0,2.24-2.777c2.766-2.318,6.872-3.227,10.067-3.427,2.436-.158,4.678-.058,6.053,2.426,1.238,2.251-.744,4.178-1.535,6.037-.282.659.6,1.242.932.584,1.11-2.143,4.285-2.1,6.244-2.135a8.354,8.354,0,0,1,5.952,1.985c2.342,2.151,1.183,6.879,1.1,10.215a8.713,8.713,0,0,0,3.384-5.962c.478-4.269-2.018-7.113-5.246-9.222Z" transform="translate(-217.702 -257.945)" fill="#fff"/>
                  <path id="Path_54884" data-name="Path 54884" d="M272.887,296.134c-.87-.233-3.531-1.409-4.082-2.593-.243-.25-.258-.575.156-1.026l.016-.017a2.712,2.712,0,0,1,.337-.309,23.031,23.031,0,0,0,3-2.218.525.525,0,0,0,.079-.592,17.406,17.406,0,0,1-5.952,2.518,12.084,12.084,0,0,1-9.958-1.709,2.03,2.03,0,0,0,1.211,1.576,7.383,7.383,0,0,0,1.715,1.751c-2.554,2.668-7.929,2.368-11,.9-2.35-1.117-3.282-4.261-3.181-6.754a11.135,11.135,0,0,1,1.45-5.153,3.981,3.981,0,0,0,1.11-1.459,11.027,11.027,0,0,1-2.147,1.217,5.2,5.2,0,0,1-1.481.534,9.486,9.486,0,0,1-6.4-.258,9.758,9.758,0,0,1,3.4,2.985c1.136,1.768,1.183,4.036,1.128,6.087a4.878,4.878,0,0,1-3.463,4.92c-1.223.342-2.429-.409-3.557-.075a3.522,3.522,0,0,0-1.865,1.96c-.517,1.634-1.693,2.593-2.8,3.819a10.671,10.671,0,0,1-2.265,1.884,21.325,21.325,0,0,0,15.356-6.637,31.271,31.271,0,0,0,28.2-.158,10.117,10.117,0,0,0,8.908-.592,17.808,17.808,0,0,1-7.921-.617Z" transform="translate(-220.004 -261.784)" fill="#ebebff"/>
                </g>
                <g id="Group_98518" data-name="Group 98518" transform="translate(386.218 41.122)">
                  <path id="Path_54885" data-name="Path 54885" d="M547.024,288.678c1.928,2.427,5.963,3.077,8.759,2.969a10.2,10.2,0,0,0,6.644-2.6c3.784,5.1,11.008,7.1,16.853,6.862,4.9-.2,9.41-3.11,12.9-6.579a9.813,9.813,0,0,0,2.017-2.918c4.083.892,9.127-.267,11.329-4.3a5.568,5.568,0,0,0-1.311-7.4,14.147,14.147,0,0,0-2.562-9.289c-3-4.119-8.234-4.745-12.567-2.935-.149-2.627-.971-4.886-3.839-6a6.722,6.722,0,0,0-4.552.017,15.168,15.168,0,0,0-13.632-6.354c-5.3.609-11.259,4.019-13.773,9.2-4.082-2.768-11.04.333-13.742,4.536-.721,1.117-1.167,4.069-1.089,7.021-4.756,3.627-5.712,11.549-1.583,16.552,2.742,3.319,6.573,2.918,10.162,1.226Z" transform="translate(-534.237 -250.095)" fill="#f7f7ff"/>
                  <path id="Path_54886" data-name="Path 54886" d="M600.849,285.993a8.53,8.53,0,0,0,4.67-3.886,5.568,5.568,0,0,0-1.311-7.4,14.147,14.147,0,0,0-2.562-9.289c-3-4.119-8.234-4.745-12.567-2.935-.149-2.627-.971-4.886-3.839-6a6.722,6.722,0,0,0-4.552.017,15.168,15.168,0,0,0-13.632-6.354c-5.3.609-11.259,4.019-13.774,9.2-4.082-2.768-11.04.333-13.742,4.536-.721,1.117-1.167,4.069-1.089,7.021a11.645,11.645,0,0,0-4.035,10.973c.079-.208.164-.417.251-.617,1.56-3.527,7.263-9.406,10.874-5.945a.4.4,0,0,0,.482.05.39.39,0,0,0,.169-.45c-.728-2.21-1.591-3.894-1.543-6.362a7.524,7.524,0,0,1,4.952-6.612c2.812-.917,6.417-.567,7.552,2.718a10.864,10.864,0,0,1,.447,3.544,13.658,13.658,0,0,0-.744,4.178c0,.45.658.7.846.242a11.551,11.551,0,0,0,.76-3.894,23.858,23.858,0,0,1,2.327-4.678c1.755-2.8,5.044-4.6,7.937-5.729,2.875-1.126,6.409-1.843,9.449-1.142,3.619.834,3.557,5.036,2.484,8.155a3.194,3.194,0,0,0-.846,2.051.478.478,0,0,0,.347.482.484.484,0,0,0,.553-.223,13.605,13.605,0,0,0,.8-1.759,5.2,5.2,0,0,1,3.956-1.142c2.852.559,1.88,4.561.8,6.262a.5.5,0,0,0,.161.694.511.511,0,0,0,.7-.16c1.45-2.518,5.578-2.251,7.874-1.609,2.825.792,4.771,3.11,6.19,5.712,1.293,2.368.753,6.421.125,8.872-.125.5-.282.992-.447,1.476Z" transform="translate(-534.237 -250.096)" fill="#fff"/>
                  <path id="Path_54887" data-name="Path 54887" d="M590.637,296.02a7.6,7.6,0,0,1-7.169-3.619c-1.473-2.251-.321-6.7,1.238-8.664a11.606,11.606,0,0,1,1.865-1.809,8.647,8.647,0,0,0,3.478-2.143.557.557,0,0,0,.1-.484c-3.839,1.985-8.282,4.086-12.34,2.3a9.5,9.5,0,0,1-1.66-.926,6.183,6.183,0,0,1-2.46-2.685v-.484a10.944,10.944,0,0,1-.643-3.252c-.251-.267-.674-.042-.713.334a7.5,7.5,0,0,0,.4,3.494c0,.242-.016.475-.016.675,0,1.776.274,3.535.282,5.312a5.3,5.3,0,0,1-2.413,4.8c-.886.567-3.721,1.659-4.237.058a.4.4,0,0,0-.283-.3.406.406,0,0,0-.4.1,7.115,7.115,0,0,1-5.915,1.935c-2.837-.567-3.165-3.552-2.17-5.787.156-.267.321-.559.5-.9a.41.41,0,0,0,.013-.42.417.417,0,0,0-.365-.214c-2.86,3.744-7.465,7.6-11.6,5a.37.37,0,0,0,.164.492c.031.017.063.025.094.042h0s.039.017.063.025c.117.058.243.108.36.158,1.606.892.266,3.435-.58,4.428-.11.133-.235.242-.353.367a13.515,13.515,0,0,0,3.659-1.167c1.928,2.426,5.963,3.077,8.759,2.968a10.2,10.2,0,0,0,6.644-2.6c3.784,5.1,11.007,7.1,16.853,6.862a17.931,17.931,0,0,0,9.927-3.994c-.376.05-.736.083-1.089.1Z" transform="translate(-536.757 -254.094)" fill="#ebebff"/>
                </g>
                <g id="Group_98519" data-name="Group 98519" transform="translate(26.527 124.035)">
                  <path id="Path_54888" data-name="Path 54888" d="M39.239,442.789a5.438,5.438,0,0,0,4.717.317c1.3,2.335,4.4,3.335,7.176,3.36a9.43,9.43,0,0,0,6.2-2.251,8.563,8.563,0,0,0,2.163-3.177,18.448,18.448,0,0,0,6.535,1.368c3.863.225,8.062-1.659,9.637-5.512,3.11,5.378,11.471,4.653,13.405-1.234,1.489,2.8,5.391,3.085,8.054,1.718,3.377-1.743,5.414-7.271,4.826-11.073-.791-5.136-5.145-6.037-8.987-4.7-1.63-3.135-5.963-5.1-10.271-5.445a10.358,10.358,0,0,0-.125-2.535,14.049,14.049,0,0,0-3.833-7.079,21.508,21.508,0,0,0-13.951-6.421A17.043,17.043,0,0,0,50.9,405.291a13.4,13.4,0,0,0-3.2,9.823c-5.845-.492-12.481,6.988-9.418,13.358-3.5-.959-4.763,3.869-4.317,7.3.4,3.094,2.86,5.578,5.3,7.029Z" transform="translate(-33.862 -400.047)" fill="#f7f7ff"/>
                  <path id="Path_54889" data-name="Path 54889" d="M101.937,426.294c-.791-5.137-5.145-6.037-8.987-4.7-1.63-3.135-5.963-5.1-10.271-5.445a10.357,10.357,0,0,0-.125-2.535,14.05,14.05,0,0,0-3.833-7.079,21.508,21.508,0,0,0-13.952-6.42,17.043,17.043,0,0,0-13.883,5.161,13.4,13.4,0,0,0-3.2,9.823c-5.845-.492-12.481,6.988-9.418,13.358-3.5-.959-4.763,3.869-4.317,7.3a7.239,7.239,0,0,0,.549,1.918c.086-.217.172-.434.274-.65,1.575-3.41,6.456-8.9,10.475-7.221.549.133.744-.675.227-.884-.948-.225-.963-2.018-.979-2.81-.054-2.326,1.677-4.711,3.056-6.321a6.587,6.587,0,0,1,5.023-2.418c1.755-.042,2.773,1.042,4.121,1.976a.454.454,0,0,0,.588-.083,1.552,1.552,0,0,0,.431-.951,6.208,6.208,0,0,1,2.118-3.452c1.9-1.843,4.913-4.6,7.686-3.394,2.4,1.042,4.4,1.476,6.417,3.427,2.272,2.185,1.685,4.419,2.17,7.179a.533.533,0,0,0,.368.392c1.778.359,3.972-.609,5.774-.8,2.946-.3,5.246.8,7.983,1.676,3.377,1.084,5.265,3.452,5.728,7.179.251,2-.486,4.2.29,6.1a.514.514,0,0,0,.728.2,14.531,14.531,0,0,0,3.026-2.26,12.829,12.829,0,0,0,1.951-8.272Z" transform="translate(-33.859 -400.046)" fill="#fff"/>
                  <path id="Path_54890" data-name="Path 54890" d="M92.75,441.635a17.8,17.8,0,0,1-2.623-3.46c-.5,3.035-4.184,3.986-6.668,4.019a6.461,6.461,0,0,1-4.191-1.326c-.768-.6-1.363-1.367-2.107-1.985-1.513,1.584-3.612,2.61-5.664,1.926-2.925-.967-1.795-5.353-.893-7.83-2.781,2.477-6.153,3.577-9.551,2.1a5.7,5.7,0,0,1,1.473,4.269,6.637,6.637,0,0,1-3.894,4.636c-3.189,1.593-7.192,2.218-10-.033-1.191,2.1-4.3,3.185-6.284,3.652a13.638,13.638,0,0,1-2.178.342c.149.092.29.2.439.283a5.438,5.438,0,0,0,4.717.317c1.3,2.335,4.4,3.335,7.176,3.36a9.43,9.43,0,0,0,6.2-2.251,8.562,8.562,0,0,0,2.163-3.177,18.447,18.447,0,0,0,6.535,1.368c3.863.225,8.062-1.659,9.637-5.512,3.11,5.378,11.471,4.653,13.405-1.234,1.089,2.051,3.471,2.735,5.712,2.426a9.074,9.074,0,0,1-3.392-1.909Z" transform="translate(-35.225 -405.514)" fill="#ebebff"/>
                </g>
                <g id="Group_98520" data-name="Group 98520" transform="translate(99.384 146.105)">
                  <path id="Path_54891" data-name="Path 54891" d="M150.488,456.542a18.586,18.586,0,0,0,6.832,6.354,15.876,15.876,0,0,0,13.867.834c1.458,1.793,3.026,3.277,5.649,3.227,3.1-.05,4.3-2.143,4.584-4.7a16.892,16.892,0,0,0,8.963-.384c4.426-1.5,7.976-7.171,6.8-11.974a8.758,8.758,0,0,0,1.261-1.509c2.711-4.178,1.311-8.922-1.418-12.666-3.047-4.194-8.078-5.328-12.779-4.586a19.827,19.827,0,0,0-7.122,2.335,10.981,10.981,0,0,0-.439-1.618c-1.325-3.586-4.771-5.1-8.156-5.337a15.792,15.792,0,0,0-10.895,3.677,11.126,11.126,0,0,0-4.387.158c-4.082,1.051-8.548,4.428-9.41,8.605a8.942,8.942,0,0,0-4.027,1.876,9.5,9.5,0,0,0-2.724,11.324c2,4.636,9.229,7.221,13.374,4.369Z" transform="translate(-136.247 -426.506)" fill="#f7f7ff"/>
                  <path id="Path_54892" data-name="Path 54892" d="M184.259,431.153a19.828,19.828,0,0,0-7.122,2.335,10.988,10.988,0,0,0-.439-1.618c-1.325-3.586-4.771-5.1-8.156-5.337a15.791,15.791,0,0,0-10.895,3.677,11.125,11.125,0,0,0-4.387.158c-4.082,1.051-8.548,4.428-9.41,8.605a8.942,8.942,0,0,0-4.027,1.876,9.486,9.486,0,0,0-2.993,10.606,22.385,22.385,0,0,1,1.677-2.093,30.274,30.274,0,0,1,3.917-3.5,12.392,12.392,0,0,1,2.623-1.626c1.324-.584,2.609.175,3.808.717a.514.514,0,0,0,.519-.011.5.5,0,0,0,.241-.456c-.4-5.437,4.16-8.689,8.517-9.964a24.914,24.914,0,0,1,6.111-.934c1.4-.042,2.812-.217,3.934.809,1.3,1.184,1.543,2.752,1.551,4.461a.526.526,0,0,0,.383.536.532.532,0,0,0,.612-.252c1-1.9,4.411-1.868,6.2-1.876a6.9,6.9,0,0,1,3.823,1.142c1.7,1.117,1.865,2.993,1.528,4.886a.538.538,0,0,0,.365.671.545.545,0,0,0,.677-.362c.886-2.618,4.262-3.135,6.479-3.052a12.2,12.2,0,0,1,7.082,3.244,6.641,6.641,0,0,1,2.076,3.694c1.982-3.944.605-8.28-1.928-11.757-3.047-4.194-8.078-5.328-12.779-4.586Z" transform="translate(-136.25 -426.507)" fill="#fff"/>
                  <path id="Path_54893" data-name="Path 54893" d="M182.277,460.763a.865.865,0,0,1-.258-.284.238.238,0,0,0-.1.075,8.412,8.412,0,0,1-1.433,1.634,15.491,15.491,0,0,1-2.97,1.334c-2.766,1.134-5.116-1.568-6.385-3.811-1.693-2.993.314-5.5,2.3-7.563a.174.174,0,0,1,.039-.033c.11-.108.212-.217.321-.325a5.588,5.588,0,0,1,.846-.675h0c.439-.35.878-.684,1.324-1-4.913,1.593-10.895,1.534-13.468-2.785a3.854,3.854,0,0,0,1.325,2.176c.533,1.142.94,2.418,1.311,3.452,1.183,3.194-1.2,5.553-3.761,6.621-2.421,1.009-4.763-.1-6.96-1.192-1.45-.717-2.86-1.326-4.262-2.143a.346.346,0,0,0-.368,0,7.166,7.166,0,0,0-1.152,1.468,7.7,7.7,0,0,1-3.44,2.376,6.164,6.164,0,0,1-1.11.309c2.724,1.1,5.861,1.159,8.1-.384a18.585,18.585,0,0,0,6.832,6.354,15.876,15.876,0,0,0,13.867.834c1.458,1.793,3.026,3.277,5.649,3.227,3.1-.05,4.3-2.143,4.584-4.7a16.894,16.894,0,0,0,8.963-.384,11.057,11.057,0,0,0,6.369-6.587.218.218,0,0,0-.071.017c-3.732,4.611-11.275,5.295-16.1,1.993Z" transform="translate(-137.943 -429.968)" fill="#ebebff"/>
                </g>
                <g id="Group_98521" data-name="Group 98521" transform="translate(143.726 97.37)">
                  <path id="Path_54894" data-name="Path 54894" d="M203.226,384.774c3.714,2.418,8.422,2.4,12.991,1.292,4.176,3.027,11.188,2.81,15.772,2.16a20.137,20.137,0,0,0,12.575-6.287,14.089,14.089,0,0,0,1.763-2.585,16.544,16.544,0,0,0,18.114-2.518c7.427,0,16.249-2.685,17.19-10.506,1.4-11.7-10.71-16.293-20.2-15.118a12.606,12.606,0,0,0-7.513-9.047c-7.349-2.8-14.385,3.569-18.258,10.506a14.978,14.978,0,0,0-8.085-2.285,12.908,12.908,0,0,0-9.245,5c-6.6-2.677-14.557-1.217-16.7,7.054a7.189,7.189,0,0,0-.149,3.077,12.671,12.671,0,0,0-3.675,7.388,12.322,12.322,0,0,0,5.437,11.857Z" transform="translate(-197.708 -341.489)" fill="#f7f7ff"/>
                  <path id="Path_54895" data-name="Path 54895" d="M261.421,351.222a12.605,12.605,0,0,0-7.513-9.047c-7.349-2.8-14.385,3.569-18.258,10.506a14.978,14.978,0,0,0-8.085-2.285,12.908,12.908,0,0,0-9.245,5c-6.6-2.677-14.557-1.217-16.7,7.054a7.189,7.189,0,0,0-.149,3.077,12.67,12.67,0,0,0-3.675,7.388,12.924,12.924,0,0,0,1.9,8.313,18.006,18.006,0,0,1,.94-5.954,12.994,12.994,0,0,1,4.9-6.762c2.507-1.651,6.119.167,7.843,2.226a.505.505,0,0,0,.861-.384,10.548,10.548,0,0,1,2.1-6.179c1.763-2.56,4.4-2.768,7.184-3.127a4.725,4.725,0,0,1,4,.917c.87.725,1.16,2.118,1.433,3.2.258.992.3,2.135,1.152,2.768a.515.515,0,0,0,.736-.208c.478-1.151.6-2.36,1.175-3.51a17.828,17.828,0,0,1,3.134-4.144c2.64-2.76,5.539-4.511,9.281-4.745a5.455,5.455,0,0,1,4.527,1.956,5.35,5.35,0,0,1,1.06,4.781,12.755,12.755,0,0,1-.635,2.018c-.039.042-.079.083-.125.125-.117.667-.266,1.334-.447,1.985a11.225,11.225,0,0,1,2.076-1.985.984.984,0,0,1,.29-.133,20.1,20.1,0,0,1,2.017-1.434,18.742,18.742,0,0,1,4.539-2c2.147-.625,3.549-.4,4.865,1.468a.567.567,0,0,0,.893.125c1.277-1.151,2.366-1.985,4.16-1.176a15.82,15.82,0,0,1,2.671,1.759,13.279,13.279,0,0,1,4.419,6.629,39.411,39.411,0,0,1,1.277,4.77,10.236,10.236,0,0,0,5.61-7.888c1.394-11.7-10.71-16.293-20.2-15.118Z" transform="translate(-197.706 -341.491)" fill="#fff"/>
                  <path id="Path_54896" data-name="Path 54896" d="M276.736,380.654c-2.2.042-4.63-.575-5.743-2.693a.414.414,0,0,0-.58-.158,27.682,27.682,0,0,1-6.759,3.244c-2.4.642-6.6,1.818-8.415-.667a.406.406,0,0,0-.588,0c-1.943,1.985-4.842,2.335-7.411,2.376a5.419,5.419,0,0,1-4.741-2.143c-.784-1.134-.125-2.343.753-3.319a4.449,4.449,0,0,0,1.591-1.526.4.4,0,0,0-.088-.526.411.411,0,0,0-.538.018c-.423.367-1.042.884-1.606,1.476a12.583,12.583,0,0,1-4.646,1.309,12.393,12.393,0,0,1-5.447-.525c-.391-.217-.784-.425-1.152-.659-.447-.283-.784.409-.391.717a4.758,4.758,0,0,0,.815.525,5.087,5.087,0,0,1,2.17,2.518c1.23,2.785-1.693,5.17-3.632,6.245a6.663,6.663,0,0,1-5.994.275,19.98,19.98,0,0,1-3.808-2.36.389.389,0,0,0-.533.15c-1.833,2.8-5.375,4.569-8.211,5.929a17.979,17.979,0,0,1-2.7,1.026,19.532,19.532,0,0,0,9.566-.217c4.176,3.027,11.188,2.81,15.772,2.16A20.137,20.137,0,0,0,247,387.541a14.092,14.092,0,0,0,1.763-2.585,16.544,16.544,0,0,0,18.114-2.518,26.253,26.253,0,0,0,9.848-1.784Z" transform="translate(-200.165 -347.082)" fill="#ebebff"/>
                </g>
                <g id="Group_98522" data-name="Group 98522" transform="translate(186.316 144.659)">
                  <path id="Path_54897" data-name="Path 54897" d="M356.962,447.711a14.139,14.139,0,0,0-7.686-4.986c-1.11-3.669-3.384-6.9-7.051-7.8a7.426,7.426,0,0,0-3.956.175c-2.609-6.712-10.757-11.307-17.221-10.131a7.962,7.962,0,0,0-6.2,5.587,6.8,6.8,0,0,0-6.668.834,25.389,25.389,0,0,0-4.539,4.753c-5.468-1.918-13.006,3.711-13.719,9.289a4.322,4.322,0,0,0-2.155-.233,3.012,3.012,0,0,0-1.356.584,4.262,4.262,0,0,0-3.44-2.451c-2.17-.309-4.012,1.3-5.054,3.327a8.134,8.134,0,0,0-6.19-2,5.413,5.413,0,0,0-4.145,2.235,6.737,6.737,0,0,0-2.03-1.3c-2.475-1.009-5.618.309-7.145,2.493-2.672,3.819-1.211,11.365,3.839,11.007a14.971,14.971,0,0,0,15.772,8.8,17.817,17.817,0,0,0,8.759-3.577c3.682,2.768,9.229,3.127,13.437,2.493a17.375,17.375,0,0,0,9.958-5.378,11.658,11.658,0,0,0,6.658,3.3c2.155.258,3.746-1,5.044-2.668,2.939,2.026,7.357,2.51,10.358,2.535,6.275.067,12.958-.375,18.819-2.96,4.952-2.176,10.217-8.272,5.9-13.9Z" transform="translate(-257.088 -424.775)" fill="#f7f7ff"/>
                  <path id="Path_54898" data-name="Path 54898" d="M349.286,442.714c-1.11-3.669-3.384-6.9-7.051-7.8a7.425,7.425,0,0,0-3.956.175c-2.609-6.712-10.757-11.307-17.221-10.131a7.962,7.962,0,0,0-6.2,5.587,6.8,6.8,0,0,0-6.668.834,25.389,25.389,0,0,0-4.539,4.753c-5.469-1.918-13.006,3.711-13.719,9.289a4.321,4.321,0,0,0-2.155-.233,3.011,3.011,0,0,0-1.356.584,4.263,4.263,0,0,0-3.44-2.451c-2.17-.308-4.012,1.3-5.054,3.327a8.133,8.133,0,0,0-6.19-2,5.413,5.413,0,0,0-4.145,2.235,6.736,6.736,0,0,0-2.03-1.3c-2.475-1.009-5.618.309-7.145,2.493-1.917,2.735-1.7,7.355.416,9.648a11.608,11.608,0,0,1,2.3-3.894,8.325,8.325,0,0,1,5.57-2.326c2.288-.1,3.659,1.134,5.054,2.827a.491.491,0,0,0,.486.131.486.486,0,0,0,.344-.364c.353-1.8,2.2-2.418,3.632-3.01a17.772,17.772,0,0,1,6.017-1.7,24.059,24.059,0,0,1,5.845.817,15.5,15.5,0,0,1,2.5.759c1.167.459,1.535,1.518,2.3,2.36.36.4.878.058.932-.409.251-2.326,2.272-4.419,3.7-6.012a27.757,27.757,0,0,1,4.865-4.294c2.288-1.6,8.916-5.136,10.31-.575a.581.581,0,0,0,1.144-.167c.173-4.9,5.493-6.7,9.3-7.63,1.795-.434,4.223-.5,5.72.859.706.642.416,2.827.4,3.719v3.46a.641.641,0,0,0,1.261.183c.416-2.076,4.865-1.543,6.119-1.226a19.178,19.178,0,0,1,5.485,2.226,8.322,8.322,0,0,1,3.988,4.886c.517,1.784.071,3.611.391,5.378a.641.641,0,0,0,.3.415.652.652,0,0,0,.509.069,3.409,3.409,0,0,0,1.11-.659,4.4,4.4,0,0,1,2.633-.776,17.136,17.136,0,0,1,6.62.792,6.239,6.239,0,0,1,.682.284,6.954,6.954,0,0,0-1.371-6.129,14.139,14.139,0,0,0-7.686-4.986Z" transform="translate(-257.092 -424.774)" fill="#fff"/>
                  <path id="Path_54899" data-name="Path 54899" d="M352.613,462.587a.469.469,0,0,0-.174-.382.478.478,0,0,0-.413-.093c-1.481.592-2.805,1.509-4.338,2.043a14.758,14.758,0,0,1-5.68.934,45.5,45.5,0,0,1-5.931-.459c-.924-.175-1.816-.5-2.735-.709-1.5-.35-1.465-1.126-2.084-2.126a.384.384,0,0,0-.079-.083,13.544,13.544,0,0,1-6.55,1.317c-2.24-.083-5.2-.442-5.868-3.144a.745.745,0,0,1-.016-.225c-.549-2.385,2.3-4.77,5.1-6.354.5-.158,1-.325,1.5-.492a7.934,7.934,0,0,0,2.805-1.426c.023-.017.031-.042.047-.058-4.622,2.435-10.687,3.5-15.215,1.451a.048.048,0,0,0,.016.042c3.361,6.687-5.038,10.473-9.583,12.266-4.928,1.951-12.12,1.876-16.179-2.068a.36.36,0,0,0-.517,0c-.462.459-.674,1.059-1.144,1.534a29.5,29.5,0,0,1-3.11,2.852c-2.139,1.576-4.788,2.21-7.278,2.818a13.936,13.936,0,0,1-3.307.334,15.964,15.964,0,0,0,9.331,1.734,17.818,17.818,0,0,0,8.759-3.577c3.682,2.768,9.229,3.127,13.437,2.493a17.375,17.375,0,0,0,9.958-5.378,11.657,11.657,0,0,0,6.658,3.3c2.155.258,3.746-1,5.044-2.668,2.939,2.026,7.357,2.51,10.358,2.535,6.275.067,12.958-.375,18.819-2.96.141-.058.282-.125.416-.192a3.06,3.06,0,0,1-2.068-3.235Z" transform="translate(-260.292 -429.187)" fill="#ebebff"/>
                </g>
                <g id="Group_98523" data-name="Group 98523" transform="translate(242.376 70.458)">
                  <path id="Path_54900" data-name="Path 54900" d="M339.181,349.238a11.718,11.718,0,0,0-.682,6.087c.721,4.628,3.823,6.938,8.133,6.787,3.815-.133,7.615-1.726,11.063-3.677,4.7,5.078,12.771,3.811,19.2-.133,3.549,4.386,12.12,1.543,16.516-.942a15.215,15.215,0,0,0,3.792-2.9c-.431.475,3.095,2.777,3.377,2.943a9.454,9.454,0,0,0,3.91,1.167c3.026.3,5.83-1.109,8.313-3.169,7.8,5.212,20.433,6.929,25-2.226a29.742,29.742,0,0,0,5.837-.459c3.165-.484,6.872-1.176,9.355-3.51,2-1.884,1.042-4.836-.846-6.387-3-2.46-8.078-1.543-11.071.8a12.114,12.114,0,0,0-5.447-7.947,9.2,9.2,0,0,0-9.395-9.555c-.023-6.6-8.07-10.223-14.158-9.005-.423-7.48-3.51-14.225-11.353-15.184-7.326-.9-14.056,3.319-19.054,8.714a26.429,26.429,0,0,0-6.612,12.241c-3.377-2.085-7.623-1.9-11.267-.792-3.4,1.042-8.373,4.161-10.209,8.03a20.448,20.448,0,0,0-10.444,1.559c-4.4,2.018-7.921,6.212-7.553,11.582a7.063,7.063,0,0,0,3.58,5.962Z" transform="translate(-335.564 -301.806)" fill="#f7f7ff"/>
                  <path id="Path_54901" data-name="Path 54901" d="M452.152,342.827c-3-2.46-8.078-1.543-11.071.8a12.114,12.114,0,0,0-5.447-7.947,9.2,9.2,0,0,0-9.395-9.555c-.023-6.6-8.07-10.223-14.158-9.005-.423-7.48-3.51-14.225-11.353-15.184-7.326-.9-14.056,3.319-19.054,8.714a26.429,26.429,0,0,0-6.612,12.241c-3.377-2.085-7.623-1.9-11.267-.792-3.4,1.042-8.373,4.161-10.209,8.03a20.449,20.449,0,0,0-10.444,1.559c-4.4,2.018-7.921,6.212-7.553,11.582a7.979,7.979,0,0,0,.784,3c.572-4.7,5.626-9.856,9.472-10.8a11.913,11.913,0,0,1,8.226.725,11.194,11.194,0,0,1,3.934,2.468.571.571,0,0,0,.917-.125,1.255,1.255,0,0,0,.133-.926,5.9,5.9,0,0,1,1.543-4.428,16.389,16.389,0,0,1,6.362-4.72,8.966,8.966,0,0,1,6.683-.325c1.528.534,2.32,2.218,2.868,3.694a6.5,6.5,0,0,1,.2,1.217,6.513,6.513,0,0,0-.29,2.426.585.585,0,0,0,.415.443.592.592,0,0,0,.588-.159c.564-.675.439-1.509.517-2.393.008-.125,0-.258,0-.392a7.166,7.166,0,0,0,.2-.884,17.3,17.3,0,0,1,1.371-4.253,31.431,31.431,0,0,1,3.745-7.288c3.04-3.969,7.868-5.929,12.45-6.888,2.985-.625,6.448-.133,8.226,2.752,1.56,2.543,1.387,5.929.846,8.764-.6,3.1-2.272,5.362-3.839,7.922a38.423,38.423,0,0,1-2.8,3.9c-.258.325-.525.684-.784,1.034a5.676,5.676,0,0,0-2.163,2.51c-.141.517.454,1.084.9.734a15.22,15.22,0,0,0,2.648-2.793c1.269-1.176,2.671-2.126,4.012-3.2a16.539,16.539,0,0,1,8.9-3.706c2.852-.258,5.884-.167,8.407,1.418a5.306,5.306,0,0,1,2.531,4.594,16.261,16.261,0,0,0-.173,2.885.6.6,0,0,0,.278.394.609.609,0,0,0,.481.065,6.764,6.764,0,0,1,3.981-.625,14.9,14.9,0,0,1,4,1.884c2.852,1.659,4.709,4.761,5.851,7.913a15.791,15.791,0,0,1,.76,3.052,30.37,30.37,0,0,0,5.83-.459c3.165-.484,6.872-1.176,9.355-3.51,2-1.885,1.042-4.836-.846-6.387Z" transform="translate(-335.564 -301.808)" fill="#fff"/>
                  <path id="Path_54902" data-name="Path 54902" d="M416.7,358.55a5.3,5.3,0,0,1-.094-2.518,7.314,7.314,0,0,1,2.374-4.344c.2-.075.391-.158.588-.242.784-.334,1.841-.592,2.219-1.459a.547.547,0,0,0-.047-.517c-3.259,3.677-8.391,2.335-11.259-1.609a.435.435,0,0,0,0,.467,29.311,29.311,0,0,1,1.513,4.2c1.042,2.943-1.2,4.528-3.409,5.612-4.247,2.085-8.932,2.427-13.178.1a.442.442,0,0,0-.619.175c-1.1,1.9-3.212,2.618-5.124,3.21-2.569.8-5.461.759-7.153-1.818a5.679,5.679,0,0,1-.4-5.387,8.628,8.628,0,0,1,2.522-3.719,11.565,11.565,0,0,1,.846-.934c-4.051,2.018-9.886.534-13.437-2.11a.39.39,0,0,0,.016.133,17.165,17.165,0,0,0,2.017,3.736,6.523,6.523,0,0,1-.815,8.172c-3.384,3.877-10.765,3.711-13.75-.434a.412.412,0,0,0-.556-.158c-3.917,2.276-7.107,5.87-11.87,6a23.13,23.13,0,0,1-6.1-.617,9.656,9.656,0,0,1-1.324-.442c1.019,3.886,3.949,5.82,7.9,5.687,3.816-.133,7.615-1.726,11.063-3.677,4.7,5.078,12.771,3.811,19.2-.133,3.549,4.386,12.12,1.543,16.516-.942a15.218,15.218,0,0,0,3.792-2.9c-.431.475,3.095,2.777,3.377,2.943a9.454,9.454,0,0,0,3.91,1.167c3.026.3,5.83-1.109,8.313-3.169,7.091,4.745,18.177,6.587,23.568,0,.016-.167.023-.342.023-.517-5.876,4.436-19.065,2.61-20.59-3.969Z" transform="translate(-336.446 -309.427)" fill="#ebebff"/>
                </g>
                <g id="Group_98524" data-name="Group 98524" transform="translate(305.407 120.756)">
                  <path id="Path_54903" data-name="Path 54903" d="M482.786,432.056c2.139-3.427,1.63-10.49.713-13.992a9.814,9.814,0,0,0-7.976-7.688,13.608,13.608,0,0,0-5.657-.025c.274-3.927-.431-7.746-2.6-10.665-5.273-7.079-14.792-2.618-18.359,4.378-2.711-3.06-6.4-4.878-10.319-3.827-4.4,1.184-5.963,7.329-4.63,11.907a21.578,21.578,0,0,0-2.018.859,9.2,9.2,0,0,0-5.085,7.313,8.687,8.687,0,0,0,.063,2.31,16.209,16.209,0,0,0-3.956,2.76c-2.272,2.018-3.863,4.044-4.129,7.271a16.114,16.114,0,0,0,6.409,13.725,14.144,14.144,0,0,0,8.351,2.685,9.444,9.444,0,0,0,.924,1.668c1.816,2.593,4.85,4.011,7.647,5,3.275,1.159,6.981,1.918,10.279.517,2.327-.984,3.549-2.935,4.693-4.978,3.894.884,7.827.625,11.29-2.251a13.382,13.382,0,0,0,3.518-4.6c3.275.317,7.513-1.859,9.52-3.544,2.037-1.709,3.322-4.778,2.139-7.43a6.979,6.979,0,0,0-.838-1.384Z" transform="translate(-418.798 -396.107)" fill="#f7f7ff"/>
                  <path id="Path_54904" data-name="Path 54904" d="M483.5,418.065a9.814,9.814,0,0,0-7.976-7.688,13.608,13.608,0,0,0-5.657-.025c.274-3.927-.431-7.746-2.6-10.665-5.273-7.079-14.792-2.618-18.359,4.378-2.711-3.06-6.4-4.878-10.319-3.827-4.4,1.184-5.963,7.329-4.63,11.907a21.641,21.641,0,0,0-2.017.859,9.2,9.2,0,0,0-5.085,7.313,8.687,8.687,0,0,0,.063,2.31,16.213,16.213,0,0,0-3.956,2.76c-2.272,2.018-3.863,4.044-4.129,7.271a15.3,15.3,0,0,0,1.747,8.163,18.479,18.479,0,0,1,.635-5.662,11.405,11.405,0,0,1,7.868-8.147c2.132-.742,3.644-1.192,5.75.133,1.583,1,3.1,4.236,3.531,6.145a.585.585,0,0,0,1.152-.167,11.005,11.005,0,0,0-.908-3.535,20.87,20.87,0,0,1-1.575-6.446,6.5,6.5,0,0,1,2.789-5.929,4.21,4.21,0,0,1,4.043-.35.617.617,0,0,0,.536-.12.606.606,0,0,0,.224-.5c0-3.786,3.981-6.754,7.122-7.771,3.3-1.067,7.767-.467,9.794,2.652,2.061,3.169,1.606,7.146.8,10.69a23.766,23.766,0,0,1-1.183,3.769,10.682,10.682,0,0,0-1.473,1.7c-.588.85-2.045,2.768-1.293,3.886a.6.6,0,0,0,.956.133c1.081-.976,1.724-2.685,2.39-3.986.172-.334.314-.684.462-1.034a18.055,18.055,0,0,1,2.163-1.659,12.228,12.228,0,0,1,4.129-1.818c1.073-.233,2.4-.158,1.724,1.4a13.5,13.5,0,0,0-.517,1.259.621.621,0,0,0,.145.6.634.634,0,0,0,.592.186c1.489-.258,2.585-.942,4.183-.625a7.148,7.148,0,0,1,3.2,1.868c2.452,2.351,1.465,7.3.956,10.273-.3,1.8-.666,3.611-1.034,5.412a17.242,17.242,0,0,0,3.746-2.285c2.037-1.709,3.322-4.778,2.139-7.43a6.979,6.979,0,0,0-.838-1.384c2.139-3.427,1.629-10.49.713-13.992Z" transform="translate(-418.798 -396.107)" fill="#fff"/>
                  <path id="Path_54905" data-name="Path 54905" d="M467.908,451.025a10.942,10.942,0,0,1-2.249,2.743c-1.606,1.368-4.184,2.985-6.292,1.843-3.471-1.876-3.307-6.212-1.52-9.406.039-.092.086-.192.133-.284l.047-.025a8.149,8.149,0,0,1,2.484-2.635.521.521,0,0,0-.212-.158,1.392,1.392,0,0,0-.181-.042c-.886.625-1.747,1.326-2.64,1.926a.769.769,0,0,0-.063.108c-.094.042-.188.075-.282.117a6.046,6.046,0,0,1-4.741,1.109,7.767,7.767,0,0,1-5.218-4.051.331.331,0,0,0-.118.042,13.692,13.692,0,0,1,1.917,4.294,10.427,10.427,0,0,1-.258,7.813c-2.132,4.344-10.741,3.094-10.812-2.093a.437.437,0,0,0-.26-.425.444.444,0,0,0-.493.091c-2.656,2.368-6.581,2.877-10.138,2.035a.14.14,0,0,1,.039.033,14.143,14.143,0,0,0,8.352,2.685,9.445,9.445,0,0,0,.925,1.668c1.816,2.593,4.85,4.011,7.646,5,3.275,1.159,6.981,1.918,10.279.517,2.327-.984,3.549-2.935,4.693-4.978,3.894.884,7.827.625,11.29-2.251a13.838,13.838,0,0,0,3.142-3.836,8.7,8.7,0,0,1-5.453-1.843Z" transform="translate(-420.577 -403.778)" fill="#ebebff"/>
                </g>
                <g id="Group_98525" data-name="Group 98525" transform="translate(362.367 104.57)">
                  <path id="Path_54906" data-name="Path 54906" d="M613.7,366.761c-1.693-3.394-5.023-4.253-8.313-3.677-1.254-1.985-4.183-3.319-5.952-3.952a11,11,0,0,0-9.73.984c-2.758-1.743-6.519-2.385-9.1-1.051-2.225-3.052-7.107-4.4-10.914-3.043-1.724-4.144-6.51-7.421-10.506-7.1a17.944,17.944,0,0,0-10.256,4.928,7.207,7.207,0,0,0-4.873-2.135,6.557,6.557,0,0,0-5.626,3.794,8.8,8.8,0,0,0-6.032-1.634c-4.121.342-7.5,3.16-9.41,6.879-2.648-2.26-6.581-3.319-9.433-2.451-2.664.8-3.573,3-3.4,5.337a5.588,5.588,0,0,0-4.129.85,5.95,5.95,0,0,0,2.883,10.64c1.465,2.952,5.077,4.77,8.18,5.236a10.566,10.566,0,0,0,7.545-1.968,16.311,16.311,0,0,0,9.886,3.419,11.924,11.924,0,0,0,7.209-2.276c.807-.575,1.583-1.2,2.35-1.809,4.85,3.886,12.771,5.02,18.258,2.051,3.149,3.744,8.8,2.71,12.34-.65,3.016,3.2,8.313,3.861,12.371,3.46,3.447-.342,7.615-1.8,9.987-4.645a7.594,7.594,0,0,0,6.6-.417,5.364,5.364,0,0,0,2.609-2.81c4.145.65,9.692-3.452,7.436-7.972Z" transform="translate(-503.795 -348.9)" fill="#f7f7ff"/>
                  <path id="Path_54907" data-name="Path 54907" d="M613.7,366.761c-1.693-3.394-5.023-4.253-8.313-3.677-1.254-1.985-4.183-3.319-5.952-3.952a11,11,0,0,0-9.73.984c-2.758-1.743-6.519-2.385-9.1-1.051-2.225-3.052-7.107-4.4-10.914-3.043-1.724-4.144-6.51-7.421-10.506-7.1a17.944,17.944,0,0,0-10.256,4.928,7.207,7.207,0,0,0-4.873-2.135,6.557,6.557,0,0,0-5.626,3.794,8.8,8.8,0,0,0-6.032-1.634c-4.121.342-7.5,3.16-9.41,6.879-2.648-2.26-6.581-3.319-9.433-2.451-2.664.8-3.573,3-3.4,5.337a5.588,5.588,0,0,0-4.129.85,5.81,5.81,0,0,0-2.186,5.287,5.972,5.972,0,0,0,2.468,4.361c.063-.158.118-.317.181-.467.908-2.235,2.163-5.1,4.074-6.5,1.285-.942,3.212-.692,4.693-.684,1.637,0,2.248,1.017,3.322,1.96a.615.615,0,0,0,.6.159.608.608,0,0,0,.429-.451c.345-2.043,2.724-3.811,4.293-4.778a15.018,15.018,0,0,1,6.229-2.093,11.035,11.035,0,0,1,6.254,1.176c1.254.634,2.147,2.01,3.44,2.468a.673.673,0,0,0,.784-.342c2.35-4.82,9.19-5.6,13.648-6.546a14.7,14.7,0,0,1,9.762,1.184c1.685.842,2.5,3.185,2.977,4.953.282,1.034.125,2.068.391,3.06a.693.693,0,0,0,.491.519.7.7,0,0,0,.693-.185c1.5-1.826,3.816-2.41,5.986-2.81,3.174-.584,6.832-.667,8.373,2.893a.677.677,0,0,0,.426.348.684.684,0,0,0,.546-.081c1.152-.934,1.8-1.9,3.259-2.5,1.34-.55,3.58-.425,4.983-.45a11.311,11.311,0,0,1,5.375,1.234c1.412.734,2.005,2.31,3.149,3.369a.7.7,0,0,0,.854.117c.791-.392,1.246-1.234,1.974-1.759a4.938,4.938,0,0,1,3.631-.525,11.677,11.677,0,0,1,5.516,2.743,6.542,6.542,0,0,1,.94,1.009,4.509,4.509,0,0,0,.125-4.411Z" transform="translate(-503.795 -348.9)" fill="#fff"/>
                  <path id="Path_54908" data-name="Path 54908" d="M605.8,376.638c-1.371.734-3.127.976-4.56,1.593a36.777,36.777,0,0,1-6.153,1.993c-4.2.992-10.8,1.726-13.288-2.893a.519.519,0,0,0-.6-.258,3.352,3.352,0,0,0-1.412,1.084,8.081,8.081,0,0,1-3.478,2.318,14.6,14.6,0,0,1-4.247.817c-1.183.067-1.442-1.242-2.358-1.242s-1.9.475-2.907.484a4.154,4.154,0,0,1-4.2-2.577c-1.058-3.069,2.272-7.313,4.208-9.081a.487.487,0,0,0,.025-.693.5.5,0,0,0-.7-.024c-2.781,2.993-8.446,2.31-11.251-.317-.47-.442-1.081.225-.682.725,2.03,2.568,4.63,7.2,1.739,10.106-2.844,2.86-6.134-2.151-8.226-3.686a.471.471,0,0,0-.421-.023.464.464,0,0,0-.268.323c-.846,2.6-4.756,4.169-7.051,4.7-2.954.675-7.577-.492-9.206-3.385a.426.426,0,0,0-.745,0,21.657,21.657,0,0,1-8.446,6.971,10.732,10.732,0,0,0,6.926-2.026,16.311,16.311,0,0,0,9.886,3.419,11.923,11.923,0,0,0,7.208-2.276c.807-.575,1.583-1.2,2.35-1.809,4.85,3.886,12.771,5.02,18.258,2.051,3.149,3.744,8.8,2.71,12.34-.65,3.016,3.2,8.313,3.861,12.371,3.46,3.447-.342,7.615-1.8,9.987-4.645a7.194,7.194,0,0,0,5.1.192,26.786,26.786,0,0,0,.642-4.144.552.552,0,0,0-.264-.5.562.562,0,0,0-.566-.012Z" transform="translate(-507.641 -352.023)" fill="#ebebff"/>
                </g>
                <g id="Group_98526" data-name="Group 98526" transform="translate(401.69 141.075)">
                  <path id="Path_54909" data-name="Path 54909" d="M566.327,431.742c-2.648.767-5.437,2.4-6.44,5.3a14.34,14.34,0,0,0-.753,4.169c-3.988,3-6.6,8.33-4.293,13.366,2.163,4.736,6.3,4.736,10.279,3.277a11.084,11.084,0,0,0,9.512,5.437c3.549-.1,5.187-2.326,6.127-5.145,3.174,2.935,8.611,3.811,12.3,3.1,3.4-.659,6.62-3.836,8.2-7.555,2.985,3.327,7.067,4.753,11.541,3.1,4.928-1.818,8.861-7.1,9.551-12.583.784-6.237-2.225-12.483-7.827-14.851a12.867,12.867,0,0,0-11.063.2,26.264,26.264,0,0,0-2.531-3.877,12.431,12.431,0,0,0-11.548-5.12c-5.346.7-12.348,4.945-14.761,10.715-2.437-.759-5.367-.375-8.282.475Z" transform="translate(-553.979 -420.473)" fill="#f7f7ff"/>
                  <path id="Path_54910" data-name="Path 54910" d="M614.525,429.357a12.867,12.867,0,0,0-11.063.2,26.268,26.268,0,0,0-2.531-3.877,12.431,12.431,0,0,0-11.548-5.12c-5.346.7-12.348,4.945-14.761,10.715-2.437-.759-5.367-.375-8.282.475-2.648.767-5.437,2.4-6.44,5.295a14.338,14.338,0,0,0-.753,4.169c-3.988,3-6.6,8.33-4.293,13.366a6.9,6.9,0,0,0,2.985,3.4,24.028,24.028,0,0,1,.587-6.562c.605-2.5,3.095-7.588,5.97-4.453.447.492,1.144-.133.862-.709a6.272,6.272,0,0,1,2.107-7.646c2.64-2.093,5.508-1.918,8.1.125a.561.561,0,0,0,.838-.367c.728-2.877,2.724-4.753,4.819-6.571a13.716,13.716,0,0,1,7.537-3.669,9.155,9.155,0,0,1,7.686,2.618c1.732,1.693,1.073,6,1.34,8.3.039.325.243.642.588.625a1.185,1.185,0,0,0,1.073-.575c1.136-1.568,3.026-1.768,4.756-1.693a5.659,5.659,0,0,1,4.121,1.8,3.842,3.842,0,0,1,.391,4.561,2.815,2.815,0,0,0-.572.659h0c-.031.05-.063.083-.094.133a.6.6,0,0,0,.132.782.616.616,0,0,0,.8-.015,4.283,4.283,0,0,0,.76-.817,3.405,3.405,0,0,1,2.577-.058c1.513.45,2.225,1.943,2.773,3.377a9.873,9.873,0,0,1-.376,8.113,16.314,16.314,0,0,0,7.741-11.732c.784-6.237-2.225-12.483-7.827-14.851Z" transform="translate(-553.981 -420.473)" fill="#fff"/>
                  <path id="Path_54911" data-name="Path 54911" d="M611.134,460a9.141,9.141,0,0,1-2.515-2.451c-.706-.817-1.974-1.976-2.084-3.169a.474.474,0,0,0-.228-.424.483.483,0,0,0-.485-.01c-1.026.542-1.543,1.476-2.825,1.751-1.778.375-4,.359-5.359-1.026-2.4-2.443-1-7.746.776-10.081a.554.554,0,0,0,.054-.567,7.784,7.784,0,0,1-5.429,1.051,10.032,10.032,0,0,1-4.661-1.342.452.452,0,0,0,.212.384,7.057,7.057,0,0,1,3.2,4.986c.416,2.6.6,5.728-1.175,7.83a10.425,10.425,0,0,1-4.7,2.66c-1.816.575-2.925-.834-4.539-.859a.391.391,0,0,0-.368.392c.016,3.36-2.7,4.444-5.327,5.253a6.926,6.926,0,0,1-4.419.175,10.666,10.666,0,0,0,7.107,2.627c3.549-.1,5.187-2.326,6.127-5.145,3.174,2.935,8.611,3.811,12.3,3.1,3.4-.659,6.62-3.836,8.2-7.555,2.985,3.327,7.067,4.753,11.541,3.1.2-.075.384-.158.572-.242a8.7,8.7,0,0,1-5.978-.417Z" transform="translate(-557.722 -424.34)" fill="#ebebff"/>
                </g>
              </g>
            </g>
          </g>
          <g transform="matrix(1, 0, 0, 1, 0, 0)" filter="url(#Rectangle_166494)">
            <rect id="Rectangle_166494-2" data-name="Rectangle 166494" width="500" height="142" rx="4" fill="#59bee3" opacity="0.691"/>
          </g>
        </g>
      </g>
    </g>
  </g>
</svg>
