<svg xmlns="http://www.w3.org/2000/svg" xmlns:xlink="http://www.w3.org/1999/xlink" width="48" height="48" viewBox="0 0 48 48">
  <defs>
    <filter id="Path_48016" x="-3" y="-1" width="52.657" height="33.886" filterUnits="userSpaceOnUse">
      <feOffset input="SourceAlpha"/>
      <feGaussianBlur stdDeviation="2" result="blur"/>
      <feFlood flood-opacity="0.251"/>
      <feComposite operator="in" in2="blur"/>
      <feComposite in="SourceGraphic"/>
    </filter>
    <clipPath id="clip-_13d_d3">
      <rect width="48" height="48"/>
    </clipPath>
  </defs>
  <g id="_13d_d3" data-name="13d – d3" clip-path="url(#clip-_13d_d3)">
    <g id="Group_143577" data-name="Group 143577" transform="translate(0 -0.079)">
      <g id="Group_143568" data-name="Group 143568" transform="translate(-0.298 3)">
        <g transform="matrix(1, 0, 0, 1, 0.3, -2.92)" filter="url(#Path_48016)">
          <path id="Path_48016-2" data-name="Path 48016" d="M32.813,21.818A8.031,8.031,0,0,0,39.6,18.679a5.531,5.531,0,0,0,0-6.509,8.031,8.031,0,0,0-6.785-3.139h-.078C32.145,4.449,27.97.77,22.551.058S11.819,1.78,9.594,5.993H9.416C4.216,5.993,0,9.535,0,13.905s4.216,7.913,9.416,7.913" transform="translate(3 5.06)" fill="#fff"/>
        </g>
      </g>
      <g id="Group_143569" data-name="Group 143569" transform="translate(2.293 18.814)">
        <g id="Group_80248" data-name="Group 80248" transform="translate(0 6.23)">
          <g id="Group_80249" data-name="Group 80249" transform="translate(0 0)">
            <path id="Path_48087" data-name="Path 48087" d="M13.742,70.108a16.008,16.008,0,0,1-2-1.817c-.245-.3-.079-.94-.1-1.425.453.042,1.018-.071,1.337.159a25.049,25.049,0,0,1,2.245,2.057c0-1.075-.021-1.9.007-2.716.021-.627.063-1.309.934-1.324.846-.015.986.607,1,1.267.02.822,0,1.644,0,2.8.9-.837,1.549-1.435,2.193-2.037.436-.407.9-.671,1.425-.168s.325.976-.093,1.428c-.606.655-1.211,1.311-2.049,2.219,1.074,0,1.854-.015,2.632,0,.672.016,1.419.062,1.432.958.013.983-.793.983-1.49,1-.76.023-1.521,0-2.563,0,.728.771,1.308,1.372,1.87,1.987.422.463.925.976.316,1.592-.631.637-1.2.21-1.682-.286-.554-.57-1.078-1.167-1.616-1.752l-.376.128c0,.839.009,1.677,0,2.516-.01.7-.142,1.375-1.046,1.334-.865-.039-.864-.746-.881-1.369-.022-.8-.005-1.595-.005-2.713-.808.765-1.418,1.336-2.021,1.915-.482.462-1.042.835-1.606.26s-.184-1.132.276-1.611c.568-.592,1.133-1.187,1.926-2.019-1.034,0-1.778.02-2.521-.005-.707-.024-1.592.117-1.578-.989.013-1.022.839-.92,1.521-.937.752-.018,1.5,0,2.256,0l.255-.459" transform="translate(-10.003 -60.334)" fill="#58c2f0"/>
          </g>
        </g>
      </g>
      <path id="Path_111071" data-name="Path 111071" d="M15.913,72.836a24.634,24.634,0,0,1-3.081-2.8c-.378-.466-.122-1.446-.154-2.192.7.065,1.567-.109,2.057.244a38.527,38.527,0,0,1,3.454,3.165c0-1.654-.033-2.918.011-4.179.033-.965.1-2.014,1.436-2.038,1.3-.024,1.517.933,1.542,1.949.031,1.264.008,2.529.008,4.3,1.387-1.288,2.382-2.208,3.374-3.133.671-.625,1.389-1.032,2.193-.259.787.758.5,1.5-.143,2.2-.932,1.007-1.862,2.016-3.152,3.413,1.652,0,2.852-.023,4.05.007,1.034.025,2.184.095,2.2,1.475.02,1.512-1.22,1.512-2.293,1.545-1.169.036-2.34.008-3.943.008,1.12,1.187,2.012,2.11,2.878,3.058.65.712,1.423,1.5.486,2.449-.971.98-1.846.323-2.587-.44-.852-.877-1.659-1.795-2.486-2.695l-.578.2c0,1.29.014,2.58,0,3.87-.016,1.082-.218,2.115-1.609,2.053-1.331-.06-1.328-1.148-1.355-2.107-.033-1.226-.008-2.454-.008-4.174-1.244,1.177-2.182,2.056-3.11,2.946-.741.711-1.6,1.284-2.471.4s-.283-1.742.425-2.479c.874-.911,1.743-1.827,2.963-3.106-1.591,0-2.736.03-3.878-.008-1.087-.037-2.45.18-2.428-1.521.02-1.572,1.291-1.415,2.339-1.441,1.156-.027,2.313-.006,3.471-.006l.393-.707" transform="translate(3.29 -47.289)" fill="#58c2f0"/>
      <g id="Group_143576" data-name="Group 143576" transform="translate(33.293 18.814)">
        <g id="Group_80248-2" data-name="Group 80248" transform="translate(0 6.23)">
          <g id="Group_80249-2" data-name="Group 80249" transform="translate(0 0)">
            <path id="Path_48087-2" data-name="Path 48087" d="M13.742,70.108a16.008,16.008,0,0,1-2-1.817c-.245-.3-.079-.94-.1-1.425.453.042,1.018-.071,1.337.159a25.049,25.049,0,0,1,2.245,2.057c0-1.075-.021-1.9.007-2.716.021-.627.063-1.309.934-1.324.846-.015.986.607,1,1.267.02.822,0,1.644,0,2.8.9-.837,1.549-1.435,2.193-2.037.436-.407.9-.671,1.425-.168s.325.976-.093,1.428c-.606.655-1.211,1.311-2.049,2.219,1.074,0,1.854-.015,2.632,0,.672.016,1.419.062,1.432.958.013.983-.793.983-1.49,1-.76.023-1.521,0-2.563,0,.728.771,1.308,1.372,1.87,1.987.422.463.925.976.316,1.592-.631.637-1.2.21-1.682-.286-.554-.57-1.078-1.167-1.616-1.752l-.376.128c0,.839.009,1.677,0,2.516-.01.7-.142,1.375-1.046,1.334-.865-.039-.864-.746-.881-1.369-.022-.8-.005-1.595-.005-2.713-.808.765-1.418,1.336-2.021,1.915-.482.462-1.042.835-1.606.26s-.184-1.132.276-1.611c.568-.592,1.133-1.187,1.926-2.019-1.034,0-1.778.02-2.521-.005-.707-.024-1.592.117-1.578-.989.013-1.022.839-.92,1.521-.937.752-.018,1.5,0,2.256,0l.255-.459" transform="translate(-10.003 -60.334)" fill="#58c2f0"/>
          </g>
        </g>
      </g>
    </g>
  </g>
</svg>
