<svg xmlns="http://www.w3.org/2000/svg" xmlns:xlink="http://www.w3.org/1999/xlink" width="48" height="48" viewBox="0 0 48 48">
  <defs>
    <clipPath id="clip-Humidity">
      <rect width="48" height="48"/>
    </clipPath>
  </defs>
  <g id="Humidity" clip-path="url(#clip-Humidity)">
    <g id="humidity-2" data-name="humidity" transform="translate(-178.621 -67.468)">
      <path id="Path_43843" data-name="Path 43843" d="M393.005,355.093a1.269,1.269,0,1,1-1.269-1.269,1.268,1.268,0,0,1,1.269,1.269" transform="translate(-184.394 -256.832)" fill="#fff"/>
      <path id="Path_43844" data-name="Path 43844" d="M279.255,294.943a1.269,1.269,0,1,1-1.269-1.269,1.268,1.268,0,0,1,1.269,1.269" transform="translate(-79.44 -201.333)" fill="#fff"/>
      <path id="Path_43845" data-name="Path 43845" d="M209.214,83.744a48.263,48.263,0,0,1-5.52-7.822.846.846,0,0,0-1.511.023,43.136,43.136,0,0,1-5.79,8.354c-2.969,3.628-5.773,7.055-5.773,11.069a12.324,12.324,0,0,0,24.649,0c0-4.151-2.941-7.781-6.055-11.623Zm-13.627,9.865a2.964,2.964,0,1,1,.868,2.092,2.96,2.96,0,0,1-.868-2.092Zm4.514,7.944a.846.846,0,1,1-1.4-.953l7.044-10.325h0a.846.846,0,0,1,1.4.953Zm7.242-.332a2.964,2.964,0,1,1,2.092-.868,2.96,2.96,0,0,1-2.092.868Z" transform="translate(0)" fill="#fff"/>
    </g>
  </g>
</svg>
