<svg xmlns="http://www.w3.org/2000/svg" xmlns:xlink="http://www.w3.org/1999/xlink" width="500" height="152" viewBox="0 0 500 152">
  <defs>
    <clipPath id="clip-path">
      <rect id="Rectangle_169143" data-name="Rectangle 169143" width="500" height="152"/>
    </clipPath>
    <clipPath id="clip-path-2">
      <rect id="Rectangle_145860" data-name="Rectangle 145860" width="500" height="132" rx="4" opacity="0.2"/>
    </clipPath>
    <linearGradient id="linear-gradient" x1="-322.046" y1="-0.011" x2="-322.09" y2="3.726" gradientUnits="objectBoundingBox">
      <stop offset="0.07" stop-color="#fff"/>
      <stop offset="1" stop-color="#c3e3ff"/>
    </linearGradient>
    <linearGradient id="linear-gradient-2" x1="-43.633" y1="14.358" x2="-43.614" y2="16.192" xlink:href="#linear-gradient"/>
    <linearGradient id="linear-gradient-3" x1="-357.834" y1="-0.029" x2="-357.36" y2="10.405" xlink:href="#linear-gradient"/>
    <linearGradient id="linear-gradient-4" x1="-95.842" y1="-0.186" x2="-96.246" y2="3.49" xlink:href="#linear-gradient"/>
    <linearGradient id="linear-gradient-5" x1="-78.574" y1="-0.256" x2="-78.567" y2="2.102" xlink:href="#linear-gradient"/>
    <linearGradient id="linear-gradient-6" x1="-84.018" y1="-0.144" x2="-84.018" y2="2.181" gradientUnits="objectBoundingBox">
      <stop offset="0.07" stop-color="#fff"/>
      <stop offset="0.38" stop-color="#f5faff"/>
      <stop offset="0.9" stop-color="#dbeeff"/>
      <stop offset="1" stop-color="#d6ecff"/>
    </linearGradient>
    <linearGradient id="linear-gradient-7" x1="-324.173" y1="-0.747" x2="-324.173" y2="2.977" gradientUnits="objectBoundingBox">
      <stop offset="0.07" stop-color="#fff"/>
      <stop offset="0.43" stop-color="#eaf5ff"/>
      <stop offset="1" stop-color="#c3e3ff"/>
    </linearGradient>
    <linearGradient id="linear-gradient-8" x1="50.049" y1="-0.005" x2="50.083" y2="2.6" xlink:href="#linear-gradient"/>
    <linearGradient id="linear-gradient-9" x1="-32.783" y1="-1.263" x2="-33.204" y2="5.709" xlink:href="#linear-gradient"/>
    <linearGradient id="linear-gradient-10" x1="-23.445" y1="-0.009" x2="-23.823" y2="3.689" xlink:href="#linear-gradient"/>
    <linearGradient id="linear-gradient-11" x1="-26.596" y1="0.065" x2="-26.74" y2="1.804" xlink:href="#linear-gradient"/>
    <linearGradient id="linear-gradient-12" x1="-151.567" y1="0.074" x2="-151.483" y2="5.076" xlink:href="#linear-gradient"/>
    <linearGradient id="linear-gradient-13" x1="-24.681" y1="0.246" x2="-24.67" y2="2.653" xlink:href="#linear-gradient"/>
    <linearGradient id="linear-gradient-14" x1="-61.312" y1="-0.088" x2="-61.337" y2="3.048" xlink:href="#linear-gradient"/>
    <linearGradient id="linear-gradient-15" x1="-45.099" y1="-0.156" x2="-45.099" y2="5.958" xlink:href="#linear-gradient"/>
    <linearGradient id="linear-gradient-16" x1="149.49" y1="0.077" x2="149.206" y2="1.865" xlink:href="#linear-gradient"/>
    <linearGradient id="linear-gradient-17" x1="74.977" y1="-0.165" x2="74.921" y2="2.672" xlink:href="#linear-gradient"/>
    <linearGradient id="linear-gradient-18" x1="78.998" y1="-1.449" x2="79.009" y2="2.402" gradientUnits="objectBoundingBox">
      <stop offset="0" stop-color="#fff"/>
      <stop offset="1" stop-color="#c3e3ff"/>
    </linearGradient>
    <linearGradient id="linear-gradient-19" x1="389.27" y1="0.235" x2="389.077" y2="4.826" gradientUnits="objectBoundingBox">
      <stop offset="0.13" stop-color="#fff"/>
      <stop offset="1" stop-color="#c3e3ff"/>
    </linearGradient>
    <linearGradient id="linear-gradient-20" x1="203.171" y1="0.398" x2="202.803" y2="5.998" gradientUnits="objectBoundingBox">
      <stop offset="0" stop-color="#fff"/>
      <stop offset="0.704" stop-color="#fff"/>
      <stop offset="1" stop-color="#c3e3ff"/>
    </linearGradient>
    <linearGradient id="linear-gradient-21" x1="201.045" y1="0.431" x2="201.173" y2="2.973" gradientUnits="objectBoundingBox">
      <stop offset="0.12" stop-color="#fff"/>
      <stop offset="1" stop-color="#c3e3ff"/>
    </linearGradient>
    <filter id="Rectangle_166496" x="-1" y="0" width="506" height="149" filterUnits="userSpaceOnUse">
      <feOffset dx="2" dy="4" input="SourceAlpha"/>
      <feGaussianBlur stdDeviation="1" result="blur"/>
      <feFlood flood-opacity="0.302"/>
      <feComposite operator="in" in2="blur"/>
      <feComposite in="SourceGraphic"/>
    </filter>
  </defs>
  <g id="_03d-_Scattered_Clouds_" data-name="03d- Scattered Clouds " clip-path="url(#clip-path)">
    <g id="Group_143175" data-name="Group 143175" transform="translate(-1037 -102)">
      <g id="_03d-_Scattered_Clouds" data-name="03d- Scattered Clouds" transform="translate(1037 102)" clip-path="url(#clip-path)">
        <g id="Group_133398" data-name="Group 133398">
          <g id="Group_133396" data-name="Group 133396">
            <g id="Group_133395" data-name="Group 133395">
              <g id="Group_98336" data-name="Group 98336">
                <g id="weather-card">
                  <g id="Group_73994" data-name="Group 73994">
                    <g id="Mask_Group_305" data-name="Mask Group 305" clip-path="url(#clip-path-2)">
                      <g id="clouds" transform="translate(3.311 -1.632)">
                        <path id="Path_54817" data-name="Path 54817" d="M174.152,271.887c-1.616-11,16.061-5.347,15.37,1.137,5.172-3.39,14.154,3.7,6.855,6.808-2.727,1.159-4.276,1.576-6.566.871-2.626-.806-5.556-1.526-7.991-.432-5.631,2.533-7.809-.518-9.331-.417-1.588.108-7.475,2.512-11.488-.4-8.377-6.1,11.2-17.5,13.148-7.571Z" transform="translate(-52.54 -161.699)" fill="url(#linear-gradient)"/>
                        <path id="Path_54818" data-name="Path 54818" d="M609.17,174.393c-2.637-.6-6.566-1.5-9.215-.713-8.88,2.684-8.363-3.577-7.1-4.455,8-5.556,7.3-.324,9.025-1.108,2.148-.979-.4-5.1,2.776-6.463,2.141-.914,5.179.792,6.505,2.123.495-4.477,8.465-7.917,9.651-2.389,1.818-.166,4.793-.964,6.439.137,2.039,1.353.612,3.858,2.251,5.131,2.121,1.634,12.967-1.857,9.907,5.333-1.624,3.836-8.494,1.022-11.515.713-3.591-.374-4.6,4.952-18.721,1.7Z" transform="translate(-170.185 -131.67)" fill="url(#linear-gradient-2)"/>
                        <path id="Path_54819" data-name="Path 54819" d="M628.823,291.29c-3.22-6.664,10.241-7.147,10.6-.23,3.38-5.326,11.881-1.886,10.642,4.052-4.684.281-8.442,2.512-13.607,1.778-4.181-.59-7.562-1.634-11.758-.849-1.93.374-7.11,1.281-6.465-2.181-.8-.3-2.965.223-3.518-.266-2.849-2.454,3.257-4.009,4.611-3.966,4.04.13,6.315,1.684,9.506,1.655Z" transform="translate(-176.112 -167.421)" fill="url(#linear-gradient-3)"/>
                        <path id="Path_54820" data-name="Path 54820" d="M23.8,244.917c-6.213-2.584-10.279-.417-10.89,2.361-.606,2.7,8.687,11.235,20.069,3.469,6.9,11,12.3,2.21,15.312,3.037,3.139.849,3.3,8.773,8.676,7.953,4.094-.626,4.848-7.715,4.458-10.832,4.04,1.864,11.524,7.823,14.409,1.461,16.959,4.62,19.828-1.943,20.112-2.836,1-3.059-1.741-6.175-5.208-6.261-6.68-.151-6.156,3.865-8.231,1.619-7.052-7.672-7.879-3.778-9.549-4.779-3.985-2.433-17.855-21.663-23.362-6.578-5.106-.669-7.729,6.06-7.24,8.608-5.77.569-5.974-5.628-14.205-3.3-3.11.892-3.985,5.016-4.357,6.089Z" transform="translate(-12.882 -151.088)" fill="url(#linear-gradient-4)"/>
                        <path id="Path_54821" data-name="Path 54821" d="M107.04,214.5c3.037-2.375,6.986-.569,10.526-1.878,2.98-1.094,2.295-3.181,6.738-3.138,2.666.036,9.3,3.275,9.477,6.211.263,4.5-22.859,4.7-26.734-1.2Z" transform="translate(-38.451 -145.95)" fill="url(#linear-gradient-5)"/>
                        <path id="Path_54822" data-name="Path 54822" d="M214.558,266.345c-1.581-2.67,4.9-1.108,7.044-.309.663-1.7.758-4.563,3.307-5.621,2.229-.921,3.4,1.67,4.2,3.246a2.605,2.605,0,0,1,3.139-1.641c1.414.461,1.282,2.21,2.411,2.893,1.166.7,4.67-.345,4.67,1.886,0,2.62-3.146,4.649-11.8,2.879-1.595-.324-9.4,2.728-12.974-3.325Z" transform="translate(-67.582 -160.173)" fill="url(#linear-gradient-6)"/>
                        <path id="Path_54823" data-name="Path 54823" d="M663.425,204.484c6.465-2.756,5.791,1.943,8.458.763,6.054-2.67,6.95.713,8.574,1.065,1.479.309,4.684-.928,3.766,1.655-.9,2.584-9.149,3.3-13.622,2.872-4.04-.417-8.027-1.346-12.1-1.209-3.737.1-13.258,2.972-14.04-3.311-.576-4.685,5.594-.209,7.714-.713,2.069-.511,1.741-3.483,3.241-5.232,3.351-3.93,8.567-.043,8.013,4.117Z" transform="translate(-184.38 -142.941)" fill="url(#linear-gradient-7)"/>
                        <g id="Group_98499" data-name="Group 98499" transform="translate(218.162 46.682)">
                          <path id="Path_54824" data-name="Path 54824" d="M356.652,226.632c-1.69-11.386,9.495-11.573,14.351-1.821-1.363-10.939,13.586-8.939,12.835,1.814,3.933.122,8.472-.533,8.712,4.592,2.535-.13,8.726-.151,10.257,2.353,2.455,4.009-1.472,5.887-5.026,5.275-.284,5.254,1.129,8.528-5.317,8.521-3.434,0-6.556-4.016-9.9-3.491-1.806.288-3.074,3.692-5.215,4.074-5.657,1.022-13.024-4.613-13.949-2.98-1.93,3.447-9.495,1.051-12.937-.338-4.516-1.835-7.044-.569-12.026-1.281-16.543-2.361,1.064-16.985,4.888-8.975,1.318,2.749,7.358-16.524,13.309-7.744Z" transform="translate(-317.557 -194.885)" fill="url(#linear-gradient-8)"/>
                          <path id="Path_54825" data-name="Path 54825" d="M503.871,206.783c1.967-2.555,5.514.05,8.356-1.152.7-.3-1.313-1.223.524-5.707,2.681-6.585,6.5-1.252,7.94,1.677,2.659-3.937.955-7.456,6.825-7.571,5.595-.1,7.467,4.678,7.2,8.14,2.9-2.656,13.8.108,18.036,13.89,8.268-1.454,17.708,7.758,5.383,14.013-7.183,3.649-16.263,6.132-24.315,6.01C524.895,235.939,490.249,224.453,503.871,206.783Z" transform="translate(-363.524 -188.3)" fill="url(#linear-gradient-9)"/>
                          <path id="Path_54826" data-name="Path 54826" d="M486.914,202.158c1.537-3.109,9.259-1.821,8.719,5.628-.1,1.324,17.2-.345,9.463,9.565,1.654-2.116,5.281,4.577,4.291,6.578-.939,1.893-4.466,2.85-6.263,3.5-9.411,3.4-35.14,2.663-38.017,2.382-7.342-.72-15.333-1.627-22.525-3.037-4.225-.828-19.107,1.223-20.826-4.311-1.268-4.074,3.788-3.541,5.04-5.671-3.074-4.138-2.727-6.873,2.418-7.4,1.8-.18,6.221.979,7.525-.281,2.754-2.656-1.717-7.622,3.162-8.967,2.666-.734,7.9,1.929,7.685,5.024,2.141-6.384,4.949-5.175,8.494-1.835-3-4.685-.947-10.306,2.214-9.522,3.933.972,5.529-2.346,8.057,1.871,0-5.779,3.948-10.774,9.484-9.371,7.342,1.871,7.59,5.1,5.529,11.681,3.5-1.591,5.493,1.3,5.556,4.16Z" transform="translate(-342.021 -186.072)" fill="url(#linear-gradient-10)"/>
                          <path id="Path_54827" data-name="Path 54827" d="M568.33,232.961c-3.8-1.288-5.556.043-9.2,1.382-5.05,1.871-13.243,1.252-16.637-3.347-2.586-3.5-1.865-14.279,12.194-8.708-2.727-2.123-8.625-11.839.393-12.221,3.016-.13,4.255,3.217,5.689,3.685,2.935.972,6.206-.713,9.229,2.756.255-5.491,1.18-8.068,5.033-10.536,3-1.929,6.723-2.123,6.76,2.245,6.344-10.1,15.2,5.088,10.06,7.794,5.135-.065,8.072-1.008,7.342,6.089,2.44-3.57,6.1-.6,5.74,3.368,3.715-9.882,13.333-2.094,12.318,3.239,2.626.5,2.2,1.763,1.01,3.706-3.343,5.491-15.741,4.318-21.963,2.742-12.151-3.088-11.065,3.512-27.965-2.2Z" transform="translate(-374.544 -191.283)" fill="url(#linear-gradient-11)"/>
                          <path id="Path_54828" data-name="Path 54828" d="M436.132,245.327c-7.729,1.691-26.3.029-31.163-6.125-4.684-5.959,6.913-6.081,9.433-6.362,6.446-.734,10.038-2.073,8.843-8.939,5.74-2.771,12.339.4,17.98,4.167,3.722,2.49,9.222-9.1,20.542,5.052,4.99-3.08,22.64-.094,26.195,5.5s-.78,7.888-9.6,9.953c-5.448,1.281-18.16,1.137-23.8-1.519-10.286-4.865-16.208-2.2-18.437-1.713Z" transform="translate(-337.218 -196.379)" fill="url(#linear-gradient-12)"/>
                          <path id="Path_54829" data-name="Path 54829" d="M525.482,225.194c-.284-6.924,12.835-11.271,13.323-4.527,5.7-1.965,12.944-.1,12.151,7.154,2.727-3.469,7.124,2.656,8.428,5.815,3.985-3.879,5.936-4.009,9.354-1.857,2.6,1.641,1.355,5.052,3.264,5.642,1.391.439,1.529-1.576,4.218-1.526,5.2.086,5.019-3.663,10.679.554,3.06,2.267,5.434,3.951,3.838,7.183-3.919,2.152-11.218-1.914-17.855-2.289-3.06-.166-6.228,2.087-9.688,2.389-3.722.338-10.635-3.21-14.271-1.814-15.9,6.089-13.586.288-16.732-.036-6.192-.648-11.818,2.785-15.829-.864-1.085-.972-4.646,1.835-4.646,1.835-13.8-9.738,8.392-27.075,13.775-17.662Z" transform="translate(-365.297 -194.823)" fill="url(#linear-gradient-13)"/>
                          <path id="Path_54830" data-name="Path 54830" d="M323.915,251.967c-1.479-8.5,14.562-4.131,13.949.878,4.684-2.62,12.842,2.872,6.213,5.268-2.484.892-3.037-.389-5.121-.928-2.389-.619-5.872.417-8.081,1.267-5.114,1.95-7.095-.4-8.472-.324-1.449.079-4.3,2.548-7.925.3-7.605-4.721,7.671-14.135,9.447-6.463Z" transform="translate(-312.37 -203.193)" fill="url(#linear-gradient-14)"/>
                          <path id="Path_54831" data-name="Path 54831" d="M359.469,243.8c-.153-4.743,7.088-7.722,7.358-3.1,3.146-1.346,7.146-.072,6.709,4.9,1.508-2.382,3.933,1.814,4.655,3.987,2.193-2.656,3.278-2.749,5.158-1.274,1.435,1.13.751,3.462,1.806,3.865.765.3.845-1.08,2.331-1.044,2.878.058,2.776-2.512,5.893.381,1.69,1.555,3,2.706,2.121,4.923-2.164,1.475-6.192-1.317-9.856-1.569-1.683-.108-3.434,1.432-5.346,1.634-2.055.237-5.872-2.2-7.879-1.238-8.778,4.167-7.5.194-9.236-.029-3.423-.439-6.527,1.907-8.741-.59-.6-.669-2.572,1.259-2.572,1.259-7.619-6.672,4.633-18.554,7.605-12.1Z" transform="translate(-322.428 -200.736)" fill="url(#linear-gradient-15)"/>
                        </g>
                        <g id="Group_98500" data-name="Group 98500" transform="translate(24.583)">
                          <path id="Path_54832" data-name="Path 54832" d="M129.414,107.936c7.947-11.184-21.256-21.649-19.915-8.133-.116-3.649-7.029-2.908-9.973-1.922-5.026,1.663-6.694,11.1-5.777,15.171-8.574-2.72-10.191,5.513-12.323,10.709.845-3.4-5.267-4.484-6.993-3.663-3.008,1.4-4.757,7.082-3.212,9.81-4.7-2.62-7.525,3.368-11.094,4.4-5.354,1.54-12.464.058-12.136,6.909.233,5.045,9.484,9.939,14.467,6.974,18.955,10.421,41.426.8,44.545-.288,3.333-1.18,42.957-6.859,39.8-22.793-.758-3.85-4.772-10.522-9.542-12.149-3.9-1.324-6.825-2.253-7.845-5.024Z" transform="translate(-46.995 -93.419)" fill="url(#linear-gradient-16)"/>
                          <path id="Path_54833" data-name="Path 54833" d="M203.637,144.419c-1.363-4.556-12.034-.2-12.543,3.555.19-4.34,1.313-7.55-3.395-10.421-3.729-2.3-8.217-1.152-11.575,1.842-.365-1.929-2.28-2.289-4.343-1.886-1.048.194,1.057-3.527.014-5.081-1.048-1.576-3.293-.4-4.633-1.044-.379-.259,2.273-5.06,2.338-5.664.583-4.944-3.912-9.342-8.617-10.162-2.331-.4-5.668-.108-7.306,1.871-2.178,2.613.131,5.038-1.377,7.888.86-1.655-7.51-1.958-8.428-1.619a6.717,6.717,0,0,0-4.385,7.319c-1.683-.425-4.568-.936-5.791.23,1.537-8.169-15.174-8.169-14.226,1.353-2.491-.158-4.938-.461-6.038,1.907-1.111,2.339.059,4.174,2.47,4.563-5.23-.835-6.9,2.562-6.716,7.01-2.8-.029-8.217,4.361-3.131,7.686-2.361-1.267-5.3-1.015-5.507.964a3.013,3.013,0,0,0-2.089-2.182,3.052,3.052,0,0,0-2.952.707c1.661-2.49,2.323-8.514-.837-9.586-8.982-3.08-10.468,7.672-15.556,10.594-2.513-4.9-11.633-1.288-14.307-.166-3.642-2.152-11.466-1.331-8.523,4.045-2.717,1.547-6.825,2.987-8.544,5.355-3.933,5.355,4.538,8.672,9.558,8.708,8.866.065,13.141.331,21.736,4.174,12.525,5.621,28.817-.784,42.548-2.094,9.914-.928,9.776,8.068,19.624,8.687,38.236,2.353,24.33-7.578,60.031-2.713,26.268,3.591,31.607.943,40.494-5.4,7.211-5.131-10.839-29.616-16.6-20.252,3.333-3.987-3.082-12.969-7.154-14.495-4.348-1.634-12.886-.533-14.219,4.3Z" transform="translate(-46.627 -99.581)" fill="url(#linear-gradient-17)"/>
                          <path id="Path_54834" data-name="Path 54834" d="M171.341,190.719c-6.818,1.418-12.872,4.217-20.171,3.922-6.3-.252-24.607-7.031-44.617-3.339-3.445.641-10.213,1.814-13.629,1.411-4.276-.511-7.83-2.7-12.391-2.972-8.676-.518-16.718,1.2-25.263,1.972,8.61,2.692,17.273,1.144,26,5.06,12.525,5.621,28.817-.784,42.548-2.094,9.914-.928,9.776,8.068,19.624,8.687,38.236,2.353,24.33-7.578,60.031-2.713,10.162,1.389,22.02,3.411,31.913-.389,15.582-5.981-1.187-8.334-9.207-8.687-7.728-.338-25.7-6.945-54.837-.864Z" transform="translate(-48.976 -119.971)" fill="url(#linear-gradient-18)"/>
                          <path id="Path_54835" data-name="Path 54835" d="M101.835,166.442c-1.111-1.49-3.074-.338-3.351-1.958-.182-1.044,1.3-2.62,1.835-3.411,1.7-2.562,2.178-4.642-.539-6.787-1.748-1.4-9.426-1.367-10.839.238-1.2,1.353-1.151,3.534-1.639,5.175-.606,2.123-2.2,3.5-3.584,5.153.095-.684-.969-1.979-1.661-2.375-3.926-2.231-6.221,1.382-8.88,3.44.328-1.425-12.543-4.333-8.246,2.411,2.535,3.966,14.5.518,18.175.561,4.848.043,4.343-2.526,8.064-3.786-.175,4.217,3,4.764,6.556,4.3,1.253-.18,5.346-1.3,4.108-2.951Z" transform="translate(-51.361 -110.196)" fill="url(#linear-gradient-19)"/>
                          <path id="Path_54836" data-name="Path 54836" d="M154.7,131.283c1.828-8.334-15.137-8.262-14.2,1.324-1.631-.72-4.99-.806-6.14,1.54a3.547,3.547,0,0,0-.19,2.911,3.6,3.6,0,0,0,2.062,2.084c-7.11-.964-6.09,5.254-6.148,6.859-2.885-.4-4.575,1.958-5.128,3.016a4.008,4.008,0,0,0-.481,2.217c.4,2.872,3.023-.223,3.774-.986,1.363-1.353,3.248-.489,4.625-1.6.685-.511.505-2.879,4.772-3.814,1.624-.36,2.681,1.483,4.3,1.67,4.319.511,6.192-3.93,9.7-4.851,1.275-.353,2.7.345,4.006.4,5.085.18,7.517-2.411,7.481-7.312,4.283,3.03,10.329-.713,12.813-4.3-.175,6.736,4.305,6.866,9.383,5.391,1.61,8.564,10.992,4.966,11.349,3.778.444-1.4-.619-2.656-3.781-2.073-1.027.194,1.078-3.527.036-5.081-1.048-1.576-3.293-.4-4.633-1.044-.379-.259,2.273-5.06,2.338-5.664.583-4.944-3.912-9.342-8.617-10.162-2.331-.4-5.668-.108-7.306,1.871-2.178,2.613.131,5.038-1.377,7.888.86-1.655-7.51-1.958-8.428-1.619a6.717,6.717,0,0,0-4.385,7.319c-1.7-.425-4.611-.943-5.827.252Z" transform="translate(-67.765 -99.587)" fill="url(#linear-gradient-20)"/>
                          <path id="Path_54837" data-name="Path 54837" d="M256.706,183.391c3.227,2.519,1.887,5.275,6.031,6.614,5.5,1.77,5.936-2.857,16.543-.691,5.208,1.058,20.353-3.375,17.264-10.752-2.951-7.039-14.729-2.972-16.869,3.325-.32-2.944,1.778-7.924-.648-10.479-2.032-2.159-3.861.036-5.879-1.367-3.861-2.72-8.3-17.028-14.848-7-2.848-6.074-8.705-6.449-13.382-1.785-4.655,4.656.735,12.3-4.924,15.97-4.589-9.673-18.422.2-14.78,9,3.1-3.577,5.995-4.764,10.4-3.807,2.345.5,3.227,2.21,6.235,2.584,5.317.684,10.227-5.218,14.861-1.583Z" transform="translate(-94.962 -111.543)" fill="url(#linear-gradient-21)"/>
                        </g>
                      </g>
                    </g>
                    <g transform="matrix(1, 0, 0, 1, 0, 0)" filter="url(#Rectangle_166496)">
                      <rect id="Rectangle_166496-2" data-name="Rectangle 166496" width="500" height="142" rx="4" fill="#75c2de" opacity="0.65"/>
                    </g>
                  </g>
                </g>
              </g>
            </g>
          </g>
        </g>
      </g>
    </g>
  </g>
</svg>
