<svg xmlns="http://www.w3.org/2000/svg" xmlns:xlink="http://www.w3.org/1999/xlink" width="48" height="48" viewBox="0 0 48 48">
  <defs>
    <clipPath id="clip-Location">
      <rect width="48" height="48"/>
    </clipPath>
  </defs>
  <g id="Location" clip-path="url(#clip-Location)">
    <path id="Facebook_Places" d="M87.955,7.6a9.38,9.38,0,0,0-.5-1.222A10.782,10.782,0,0,0,66.9,9.475v1.3c0,.054.019.543.046.787.39,3.04,2.848,6.272,4.684,9.312,1.975,3.258,4.025,6.462,6.055,9.665,1.252-2.09,2.5-4.208,3.723-6.244.333-.6.721-1.195,1.054-1.765.223-.38.648-.76.842-1.113,1.975-3.529,5.154-7.086,5.154-10.588V9.394A10.63,10.63,0,0,0,87.955,7.6Zm-10.33,6.543a3.825,3.825,0,0,1-3.663-2.552,3.458,3.458,0,0,1-.1-.951V9.8c0-2.389,2.078-3.475,3.886-3.475a3.892,3.892,0,0,1,3.947,3.91A4,4,0,0,1,77.626,14.145Z" transform="translate(-53.686 9.457)" fill="#fff"/>
  </g>
</svg>
