<svg xmlns="http://www.w3.org/2000/svg" xmlns:xlink="http://www.w3.org/1999/xlink" width="500" height="152" viewBox="0 0 500 152">
  <defs>
    <filter id="Rectangle_148478" x="-9" y="-4" width="518" height="159" filterUnits="userSpaceOnUse">
      <feOffset dy="3" input="SourceAlpha"/>
      <feGaussianBlur stdDeviation="3" result="blur"/>
      <feFlood flood-opacity="0.161"/>
      <feComposite operator="in" in2="blur"/>
      <feComposite in="SourceGraphic"/>
    </filter>
    <clipPath id="clip-path">
      <rect id="Rectangle_169142" data-name="Rectangle 169142" width="500" height="150"/>
    </clipPath>
    <clipPath id="clip-path-2">
      <rect id="Rectangle_148476" data-name="Rectangle 148476" width="500" height="141" rx="4" fill="#7e97b3"/>
    </clipPath>
    <clipPath id="clip-path-3">
      <rect id="Rectangle_148475" data-name="Rectangle 148475" width="563.762" height="173" fill="none"/>
    </clipPath>
    <clipPath id="clip-path-4">
      <g transform="matrix(1, 0, 0, 1, 0, 0)" filter="url(#Rectangle_148478)">
        <rect id="Rectangle_148478-2" data-name="Rectangle 148478" width="500" height="141" rx="4" opacity="0.3"/>
      </g>
    </clipPath>
    <clipPath id="clip-path-5">
      <rect id="Rectangle_148488" data-name="Rectangle 148488" width="499.997" height="277.875" fill="none"/>
    </clipPath>
    <linearGradient id="linear-gradient" x1="-0.021" y1="1.085" x2="-0.021" y2="1.085" gradientUnits="objectBoundingBox">
      <stop offset="0" stop-color="#7cb6d9"/>
      <stop offset="0.996" stop-color="#3d7ad9"/>
      <stop offset="1" stop-color="#3d7ad9"/>
    </linearGradient>
    <filter id="Path_83323" x="-1.003" y="1" width="506.003" height="148" filterUnits="userSpaceOnUse">
      <feOffset dx="2" dy="4" input="SourceAlpha"/>
      <feGaussianBlur stdDeviation="1" result="blur-2"/>
      <feFlood flood-opacity="0.2"/>
      <feComposite operator="in" in2="blur-2"/>
      <feComposite in="SourceGraphic"/>
    </filter>
    <clipPath id="clip-_02d-Few_Clouds">
      <rect width="500" height="152"/>
    </clipPath>
  </defs>
  <g id="_02d-Few_Clouds" data-name="02d-Few Clouds" clip-path="url(#clip-_02d-Few_Clouds)">
    <g id="Group_143174" data-name="Group 143174" transform="translate(-532 -101)">
      <g id="_02d-Few_Clouds-2" data-name="02d-Few Clouds" transform="translate(532 102)" clip-path="url(#clip-path)">
        <g id="Group_98338" data-name="Group 98338" transform="translate(-5852 -124)">
          <g id="Mask_Group_281" data-name="Mask Group 281" transform="translate(5852 124)" clip-path="url(#clip-path-2)">
            <g id="Group_80269" data-name="Group 80269" transform="translate(-25.304 -28)">
              <g id="Group_80268" data-name="Group 80268">
                <rect id="Rectangle_148474" data-name="Rectangle 148474" width="563.762" height="173" fill="#59b6e8"/>
                <g id="Group_80267" data-name="Group 80267">
                  <g id="Group_80266" data-name="Group 80266" clip-path="url(#clip-path-3)">
                    <path id="Path_48110" data-name="Path 48110" d="M564.434,1288.607c-15.151,1.834-27.2,11.535-29.813,23.9a49.009,49.009,0,0,0-7.664-.6,46.038,46.038,0,0,0-24.387,6.753,20.425,20.425,0,0,0-12.367-3.99,21.671,21.671,0,0,0-6.388.95c-5.315-10.193-17.618-17.333-31.948-17.333-14.274,0-26.537,7.084-31.886,17.213-7.3.258-13.529,3.9-16.435,9.071a58.584,58.584,0,0,0-27.354-6.592,59.3,59.3,0,0,0-23.8,4.876c-8.11-12.148-23.8-20.382-41.831-20.382s-33.707,8.226-41.818,20.365c-3.362-4.417-9.325-7.355-16.124-7.355a23.022,23.022,0,0,0-4.009.35c-6.545-11.117-20.386-18.782-36.4-18.782-11.843,0-22.5,4.192-29.891,10.872a39.38,39.38,0,0,0-7.879-.789,35.969,35.969,0,0,0-24.284,8.919,21.41,21.41,0,0,0-12.626-3.95c-7.98,0-14.816,4.05-17.634,9.79a56.884,56.884,0,0,0-45.9-.629c-5.511-8.413-16.315-14.13-28.741-14.13a39.527,39.527,0,0,0-6.566.544c-4.924-11.3-18.055-19.388-33.481-19.388A43.427,43.427,0,0,0,0,1288.6v99.1H564.434Z" transform="translate(-0.449 -1213.868)" fill="#79c2ed"/>
                    <path id="Path_48111" data-name="Path 48111" d="M564.434,1584.71a28.8,28.8,0,0,0-12.516,12.327,40.107,40.107,0,0,0-13.985-2.472c-14.949,0-27.645,7.947-32.19,18.988a25.592,25.592,0,0,0-16.642-5.841,27.9,27.9,0,0,0-5.041.456c-5.2-13.116-20.188-22.592-37.86-22.592-12.331,0-23.352,4.614-30.657,11.858a41.823,41.823,0,0,0-9.164-1.006,40.175,40.175,0,0,0-18.648,4.466,27.3,27.3,0,0,0-9.073-1.526,28.008,28.008,0,0,0-4.028.289c-6.143-9.927-18.676-16.727-33.138-16.727-15.6,0-28.963,7.917-34.473,19.136a37.119,37.119,0,0,0-6.82-.626,34.747,34.747,0,0,0-19.648,5.856c-6.232-6.255-15.694-10.246-26.288-10.246-13.075,0-24.424,6.078-30.107,14.989a27.909,27.909,0,0,0-14.827-.274c-4.71-7.371-14.1-12.4-24.925-12.4q-1.727,0-3.4.168c-3-14.8-18.626-26.076-37.454-26.076-14.572,0-27.227,6.756-33.594,16.671a37.481,37.481,0,0,0-4.38-.255,33.685,33.685,0,0,0-23.252,8.776,40.056,40.056,0,0,0-15.742-3.154,39.618,39.618,0,0,0-18.031,4.227c-3.914-11.1-16.357-19.211-31.1-19.211A37.436,37.436,0,0,0,0,1584.709v71.6H564.434Z" transform="translate(-0.448 -1482.474)" fill="#b8dcf5"/>
                    <path id="Path_48112" data-name="Path 48112" d="M564.434,2013.735v-58.8q-1.753-.108-3.535-.109c-20.821,0-38.461,11.2-44.511,26.687a21.446,21.446,0,0,0-12.5-3.858c-7.652,0-14.248,3.722-17.265,9.086a58.582,58.582,0,0,0-27.354-6.592,59.3,59.3,0,0,0-23.8,4.877c-8.11-12.148-23.8-20.382-41.831-20.382s-33.707,8.227-41.818,20.365c-3.362-4.417-9.325-7.355-16.124-7.355a22.556,22.556,0,0,0-7.193,1.16c-.619-14.385-14.983-25.891-32.61-25.891-13.876,0-25.728,7.129-30.447,17.18a39.389,39.389,0,0,0-7.927-.8,35.969,35.969,0,0,0-24.285,8.919,21.414,21.414,0,0,0-12.626-3.95c-7.98,0-14.816,4.051-17.634,9.791a56.884,56.884,0,0,0-45.9-.629c-5.511-8.413-16.315-14.13-28.741-14.13a39.407,39.407,0,0,0-7.927.8c-4.719-10.051-16.572-17.18-30.447-17.18-17.628,0-31.991,11.505-32.61,25.891a22.552,22.552,0,0,0-7.193-1.16,22.068,22.068,0,0,0-9.854,2.264c-6.214-13.783-21.747-23.839-40.3-24.982v58.8Z" transform="translate(-0.448 -1839.903)" fill="#fff"/>
                  </g>
                </g>
              </g>
            </g>
          </g>
          <g id="Mask_Group_285" data-name="Mask Group 285" transform="translate(5852 125)" clip-path="url(#clip-path-4)">
            <g id="Group_80291" data-name="Group 80291" transform="translate(0 -136.875)">
              <g id="Group_80288" data-name="Group 80288">
                <g id="Group_80287" data-name="Group 80287" clip-path="url(#clip-path-5)">
                  <rect id="Rectangle_148487" data-name="Rectangle 148487" width="499.997" height="277.875" fill="url(#linear-gradient)"/>
                </g>
              </g>
              <g id="Group_80290" data-name="Group 80290">
                <g id="Group_80289" data-name="Group 80289" clip-path="url(#clip-path-5)">
                  <path id="Path_48119" data-name="Path 48119" d="M4462.275,2895.937c-.505-.793-7.611-11.515-20.927-11.716-12.214-.184-19.43,8.638-20.228,9.649-3.68-5.045-9.764-7.488-15.345-6.2a14.743,14.743,0,0,0-9.068,6.892,22.4,22.4,0,0,0-13.253-4.135c-8.756.255-16.858,6.2-20.926,15.162l-21.623,2.757a23.813,23.813,0,0,0-43.248-8.27c-.63-.655-5.426-5.466-12.556-4.825a15.437,15.437,0,0,0-9.067,4.135c-.54-1.493-4.526-12.031-14.646-15.162-10.858-3.358-24.584,3.1-30.691,16.541l11.859,33.08,223.212,7.582q-1.744-22.743-3.488-45.486" transform="translate(-3993.338 -2716.426)" fill="#8abbdf"/>
                  <path id="Path_48120" data-name="Path 48120" d="M28.311,2586.687c.4-.632,6.3-9.57,16.741-9.649,8.722-.065,16.84,6.077,19.531,15.162a12.261,12.261,0,0,1,9.766-3.446,11.88,11.88,0,0,1,9.766,8.959c6.634-3.837,14.775-2.829,19.531,2.068,5.611,5.776,3.616,13.981,3.488,14.473a25.076,25.076,0,0,1,14.646-11.716c10.949-3.154,19.762,2.651,20.926,3.446a11.2,11.2,0,0,1,4.641-10.046,11.458,11.458,0,0,1,11.085-1.271c1.147-1.908,8.232-13.259,22.562-16.1a35.007,35.007,0,0,1,32.86,11.561,23.751,23.751,0,0,1,18.136-1.378c11.5,4.012,14.457,15.72,14.646,16.54a11.573,11.573,0,0,1,13.253-.689c4.96,3.259,4.894,9.27,4.883,9.648,3.137-7.309,10.6-11.464,17.438-10.338,8.485,1.4,14.984,10.755,12.555,20.675l10.463,8.27c4.486-11.084,15.43-17.166,25.112-15.162s14.118,11.256,14.646,12.406a16.6,16.6,0,0,1,29.994-2.757,24.926,24.926,0,0,1,46.735-4.824,12.423,12.423,0,0,1,23.716,2.756,20.451,20.451,0,0,1,10.464-11.027c7.4-3.187,16.514-1.3,23.019,4.824a12.35,12.35,0,0,1,6.976-11.716,12.737,12.737,0,0,1,15.346,4.135c.627-1.872,6.194-17.615,22.323-22.743a34.472,34.472,0,0,1,20.228,0L541,2729.34H30.4l-2.093-142.659" transform="translate(-37.19 -2427.851)" fill="#a3cbe6"/>
                  <path id="Path_48121" data-name="Path 48121" d="M51.018,3325.079c.295-6.323.845-18.151,7.483-20.675,5.354-2.037,11.951,3.014,14.141,4.824,1.385-1.743,6.263-7.432,13.95-8.27,9.743-1.062,20.142,6.094,24.2,17.923.458-1.549,2.612-8.216,9.278-11.72,7.036-3.7,16.241-2.373,23.019,3.446a25.023,25.023,0,0,1,9.068-10.338,26.063,26.063,0,0,1,27.2,0,24.676,24.676,0,0,1,8.371,8.96,13.779,13.779,0,0,1,25.809-3.445c1.166-.9,10.247-7.638,21.624-4.825,9.748,2.411,17.234,10.862,18.833,21.365.332-1.2,3.116-10.626,12.555-14.472,8.111-3.306,17.831-1.143,24.414,5.513.221-2.229,1.27-9.966,7.677-15.161,8.958-7.27,23.9-5.917,31.39,2.756,5.225,6.048,5.03,13.573,4.883,15.851a14.662,14.662,0,0,1,12.062-1.315,14.476,14.476,0,0,1,8.865,8.2,25.73,25.73,0,0,1,14.646-8.271c10.09-1.647,20.748,3.51,27.2,13.094a15.992,15.992,0,0,1,10.463-8.959c8.247-2.022,14.343,3.833,14.646,4.135a24.471,24.471,0,0,1,43.945-6.892,15.671,15.671,0,0,1,9.068-4.135c8.152-.754,13.5,5.647,13.95,6.2.454-1.218,4.908-12.611,16.741-15.851,10.4-2.85,22.134,1.806,28.6,11.715l-3.488,82.7-453.4.689c-12.71-18.4-28.441-46.479-27.2-73.052" transform="translate(-58.5 -3102.839)" fill="#d3e9f2"/>
                  <path id="Path_48122" data-name="Path 48122" d="M7.041,3589.916c.039-.946.44-7.969,5.869-11.6,5.807-3.881,15.151-2.4,21.125,4.638a8.632,8.632,0,0,1,9.477-2.692,8.5,8.5,0,0,1,5.776,7.91,15.5,15.5,0,0,1,10.563.579c5.818,2.665,9.394,9.371,8.8,16.814a12.373,12.373,0,0,1,18.192,2.319c.153-.971,1.493-8.684,8.215-12.176s16.018-1.329,21.717,5.8a12.208,12.208,0,0,1,21.717,2.9c.775-1.865,4.286-9.724,13.03-13.331,9.371-3.864,19.508-.684,25.7,4.634a24.936,24.936,0,0,1,6.651,9.2,13.717,13.717,0,0,1,13.888-1.658c6.247,2.821,7.524,9.276,7.628,9.856a19.441,19.441,0,0,1,14.084-3.478c7.216,1.2,13.2,6.888,15.252,14.494a23.251,23.251,0,0,1,10.563-9.856c8.931-3.952,20.275-1.431,28.754,6.378a11.877,11.877,0,0,1,1.174-12.176,12.444,12.444,0,0,1,14.671-3.479,22.672,22.672,0,0,1,39.9,5.8c.82-.512,8.76-5.28,17.6-1.74a19.364,19.364,0,0,1,10.058,9.538c.021-.386.374-5.365,4.613-7.8a9.993,9.993,0,0,1,11.736,1.739,15.653,15.653,0,0,1,5.868-8.117,16.026,16.026,0,0,1,24.647,9.856,13.919,13.919,0,0,1,9.976-5.8,13.694,13.694,0,0,1,12.91,7.538c-.2-.58-4.009-11.873,3.521-20.873a22.164,22.164,0,0,1,24.059-6.378c-.13-.72-1.151-6.891,2.929-11.016,4.193-4.233,12.1-4.636,18.192,0a20.587,20.587,0,0,1,11.736-8.7c8.111-2.072,17.246,1.582,22.886,9.277v62.047L0,3640.937l7.041-51.021" transform="translate(-10.537 -3361.889)" fill="#fff"/>
                  <path id="Path_48123" data-name="Path 48123" d="M930.888,2466.989a13.9,13.9,0,0,1,5.907,3.594q.83-.75,1.783-1.48a31.255,31.255,0,0,1,9.271-4.861,12.319,12.319,0,0,0-3.994-.071,12.8,12.8,0,0,0-6.775,3.311,5.632,5.632,0,0,0-2.5-1.117,5.777,5.777,0,0,0-3.7.624" transform="translate(-886.881 -2321.397)" fill="#a0c3e0"/>
                  <path id="Path_48124" data-name="Path 48124" d="M1291.771,2514.7a6.241,6.241,0,0,1,5.615,1.53,7.023,7.023,0,0,1,2.13-1.913c1.041-.6,1.946-.561,1.936-.765-.011-.245-1.284-.575-2.478-.235a3.73,3.73,0,0,0-1.552.905,5.52,5.52,0,0,0-2.186-.557,5.723,5.723,0,0,0-3.467,1.034" transform="translate(-1226.619 -2367.684)" fill="#a0c3e0"/>
                  <path id="Path_48125" data-name="Path 48125" d="M2867.212,1900.581a16.012,16.012,0,0,1,4.209.795,16.189,16.189,0,0,1,6.329,3.941,12.478,12.478,0,0,1,7.317-4.664,12.284,12.284,0,0,0-7.671.816,10.109,10.109,0,0,0-10.179-.889" transform="translate(-2709.749 -1789.636)" fill="#a0c3e0"/>
                  <path id="Path_48126" data-name="Path 48126" d="M7787.009,2420.018a11.593,11.593,0,0,0-2.95.982,11.721,11.721,0,0,0-4.165,3.453,9.112,9.112,0,0,0-5.733-2.646,8.931,8.931,0,0,1,5.6-.159,7.345,7.345,0,0,1,7.243-1.631" transform="translate(-7329.183 -2279.596)" fill="#a0c3e0"/>
                </g>
              </g>
            </g>
          </g>
          <g transform="matrix(1, 0, 0, 1, 5852, 123)" filter="url(#Path_83323)">
            <path id="Path_83323-2" data-name="Path 83323" d="M4.048,0h491.9A4.2,4.2,0,0,1,500,4.338V136.662A4.2,4.2,0,0,1,495.948,141H4.048A4.2,4.2,0,0,1,0,136.662V4.338A4.2,4.2,0,0,1,4.048,0Z" transform="translate(0 1)" fill="#059cdf" opacity="0.75"/>
          </g>
        </g>
      </g>
    </g>
  </g>
</svg>
