<svg xmlns="http://www.w3.org/2000/svg" xmlns:xlink="http://www.w3.org/1999/xlink" width="500" height="152" viewBox="0 0 500 152">
  <defs>
    <clipPath id="clip-path">
      <rect id="Rectangle_170540" data-name="Rectangle 170540" width="498" height="142" rx="4" transform="translate(-2675 -5637)" fill="#333" opacity="0.4"/>
    </clipPath>
    <clipPath id="clip-path-2">
      <path id="Path_109318" data-name="Path 109318" d="M410,0,216.914.3,1.553.64V356.8H509.1V0Z" transform="translate(-1.553)" fill="none"/>
    </clipPath>
    <linearGradient id="linear-gradient" x1="-0.002" y1="1" x2="-0.001" y2="1" gradientUnits="objectBoundingBox">
      <stop offset="0" stop-color="#6c9fc9"/>
      <stop offset="1" stop-color="#5884ab"/>
    </linearGradient>
    <clipPath id="clip-path-3">
      <rect id="Rectangle_170541" data-name="Rectangle 170541" width="510.391" height="356.8" fill="none"/>
    </clipPath>
    <clipPath id="clip-path-4">
      <path id="Path_109566" data-name="Path 109566" d="M1.341,51.342v59.1a28.817,28.817,0,0,0,45.81.927,9.5,9.5,0,0,0,18.174-3.826,9.362,9.362,0,0,0-2.24-6.082A23.929,23.929,0,1,0,49.168,57.4c-7.161-4.32-19.381-7.168-33.259-7.168A93.9,93.9,0,0,0,1.341,51.342" transform="translate(-1.341 -50.235)" fill="none"/>
    </clipPath>
    <linearGradient id="linear-gradient-2" x1="0.016" y1="4.266" x2="0.022" y2="4.266" gradientUnits="objectBoundingBox">
      <stop offset="0" stop-color="#f5fbfe"/>
      <stop offset="0.364" stop-color="#f5fbfe"/>
      <stop offset="1" stop-color="#85acd6"/>
    </linearGradient>
    <clipPath id="clip-path-5">
      <path id="Path_109567" data-name="Path 109567" d="M37.739.937a33.359,33.359,0,0,0-2.8,13.377,33.8,33.8,0,0,0,33.9,33.693A33.949,33.949,0,0,0,83.063,44.9c-.067,1.03-.112,2.064-.112,3.11a48.225,48.225,0,0,0,85.958,29.684,14.426,14.426,0,1,0,9.534-20.712q.212-1.1.372-2.227a14.052,14.052,0,0,0,11.791-15.847A23.4,23.4,0,0,0,223.317,17.6a23.09,23.09,0,0,0-7.4-16.943Z" transform="translate(-34.941 -0.658)" fill="none"/>
    </clipPath>
    <linearGradient id="linear-gradient-3" x1="-0.094" y1="3.389" x2="-0.091" y2="3.389" xlink:href="#linear-gradient-2"/>
    <clipPath id="clip-path-6">
      <path id="Path_109568" data-name="Path 109568" d="M745.8,40.443a23.161,23.161,0,1,0-3.424,40.82A27.856,27.856,0,0,0,792.091,91.78v-57.2a90.943,90.943,0,0,0-14.1-1.071c-13.431,0-25.259,2.757-32.191,6.937" transform="translate(-709.942 -33.506)" fill="none"/>
    </clipPath>
    <linearGradient id="linear-gradient-4" x1="-4.929" y1="4.54" x2="-4.922" y2="4.54" xlink:href="#linear-gradient-2"/>
    <clipPath id="clip-path-7">
      <path id="Path_109569" data-name="Path 109569" d="M584.812,50.976a7.732,7.732,0,1,0-.4,14.144c0,.125-.009.249-.009.375a14.128,14.128,0,0,0,19.009,13.153,26.438,26.438,0,0,0-1.9,9.875,26.8,26.8,0,0,0,53.6,0q0-.681-.034-1.352A20.971,20.971,0,0,0,693.168,75.2a20.68,20.68,0,0,0-5.8-14.377,8.858,8.858,0,0,0,1.019-4.048c0-11.4-23.66-20.637-52.846-20.637-24.027,0-44.305,6.262-50.726,14.834" transform="translate(-573.7 -36.142)" fill="none"/>
    </clipPath>
    <linearGradient id="linear-gradient-5" x1="-2.839" y1="4.101" x2="-2.834" y2="4.101" gradientUnits="objectBoundingBox">
      <stop offset="0" stop-color="#f5fbfe"/>
      <stop offset="1" stop-color="#a1c4e3"/>
    </linearGradient>
    <clipPath id="clip-path-8">
      <path id="Path_109570" data-name="Path 109570" d="M388.076,35.936a21.981,21.981,0,0,0-7.774.082l-.57,42.949a22.185,22.185,0,0,0,13.936-1.525c-.042.67-.074,1.343-.074,2.024a31.357,31.357,0,0,0,62,6.413,26.454,26.454,0,0,0,21.485-.4,15.959,15.959,0,1,0,15-21.685c.047-.64.079-1.284.079-1.937a26.291,26.291,0,0,0-40.421-21.987c-7.813-4.714-21.148-7.82-36.287-7.82a90.679,90.679,0,0,0-27.375,3.891" transform="translate(-379.732 -32.045)" fill="none"/>
    </clipPath>
    <linearGradient id="linear-gradient-6" x1="-1.705" y1="3.95" x2="-1.7" y2="3.95" xlink:href="#linear-gradient-2"/>
    <clipPath id="clip-path-9">
      <path id="Path_109571" data-name="Path 109571" d="M511.632,0c-.059.052-.114.107-.172.158L612.424,0Z" transform="translate(-511.46)" fill="none"/>
    </clipPath>
    <linearGradient id="linear-gradient-7" x1="-16.541" y1="4.132" x2="-16.513" y2="4.132" gradientUnits="objectBoundingBox">
      <stop offset="0" stop-color="#f5fbfe"/>
      <stop offset="0.364" stop-color="#f5fbfe"/>
      <stop offset="1" stop-color="#a1c4e3"/>
    </linearGradient>
    <clipPath id="clip-path-10">
      <path id="Path_109572" data-name="Path 109572" d="M639.836,0,509.713.2c-.079.071-.153.146-.231.219a18.383,18.383,0,0,0,12.67,31.844,18.556,18.556,0,0,0,7.4-1.531A11.149,11.149,0,0,0,538.9,43.3a38.2,38.2,0,0,0,76-5.349c0-.829-.036-1.65-.088-2.466A26.9,26.9,0,0,0,652.957,11.24,26.481,26.481,0,0,0,650.462,0Z" transform="translate(-503.618)" fill="none"/>
    </clipPath>
    <linearGradient id="linear-gradient-8" x1="-1.986" y1="4.408" x2="-1.982" y2="4.408" xlink:href="#linear-gradient-2"/>
    <clipPath id="clip-path-11">
      <path id="Path_109573" data-name="Path 109573" d="M644.259,0a.2.2,0,0,1,0,.033L665.328,0Z" transform="translate(-644.254)" fill="none"/>
    </clipPath>
    <linearGradient id="linear-gradient-9" x1="-18.447" y1="426.26" x2="-18.419" y2="426.26" gradientUnits="objectBoundingBox">
      <stop offset="0" stop-color="#fff"/>
      <stop offset="0.04" stop-color="#fff"/>
      <stop offset="1" stop-color="#d6f0fd"/>
    </linearGradient>
    <clipPath id="clip-path-12">
      <path id="Path_109574" data-name="Path 109574" d="M665.183,0,644.108.033c-.029.162-.043.328-.066.492a13.784,13.784,0,0,0-.155,1.964A14.131,14.131,0,0,0,658.06,16.576a14.189,14.189,0,0,0,6.39-1.513,20.662,20.662,0,0,0,27.156,9.621c-.039.625-.068,1.253-.068,1.889a29.277,29.277,0,0,0,57.893,5.988,24.567,24.567,0,0,0,9.61,1.945A24.689,24.689,0,0,0,765,33.776V0Z" transform="translate(-643.887)" fill="none"/>
    </clipPath>
    <linearGradient id="linear-gradient-10" x1="-3.098" y1="5.642" x2="-3.093" y2="5.642" xlink:href="#linear-gradient-7"/>
    <clipPath id="clip-path-13">
      <path id="Path_109575" data-name="Path 109575" d="M.959,53.106a32.279,32.279,0,0,0,27.868,1.322A38.258,38.258,0,0,0,104.479,46.6c0-.831-.037-1.652-.089-2.469a27,27,0,0,0,35.486-12.572,18.536,18.536,0,0,0,26.869-16.43A18.345,18.345,0,0,0,159.113.245L137.382.216a18.685,18.685,0,0,0-1.889,1.555c-.5-.543-1.032-1.06-1.577-1.56L0,.039Z" transform="translate(0 -0.039)" fill="none"/>
    </clipPath>
    <linearGradient id="linear-gradient-11" x1="0.016" y1="3.776" x2="0.02" y2="3.776" xlink:href="#linear-gradient-7"/>
    <clipPath id="clip-path-14">
      <path id="Path_109576" data-name="Path 109576" d="M402.495.336c-.023.024-.044.051-.068.076l96.117.124c-.157-.119-.315-.237-.478-.349Z" transform="translate(-402.427 -0.187)" fill="none"/>
    </clipPath>
    <linearGradient id="linear-gradient-12" x1="-2.577" y1="20.068" x2="-2.571" y2="20.068" xlink:href="#linear-gradient-7"/>
    <clipPath id="clip-path-15">
      <path id="Path_109577" data-name="Path 109577" d="M392.53,15.681a22.417,22.417,0,0,0,31.793,20.205c-.043.68-.074,1.364-.074,2.055a31.826,31.826,0,0,0,63.651,0,31.361,31.361,0,0,0-2.621-12.579c.332.023.665.04,1,.04A13.727,13.727,0,0,0,494.615.686L398.5.562a22.1,22.1,0,0,0-5.968,15.119" transform="translate(-392.53 -0.562)" fill="none"/>
    </clipPath>
    <linearGradient id="linear-gradient-13" x1="-2.182" y1="5.09" x2="-2.176" y2="5.09" xlink:href="#linear-gradient-7"/>
    <clipPath id="clip-path-16">
      <path id="Path_109578" data-name="Path 109578" d="M38.866,0c-.008.018-.015.037-.023.053L172.968.227c-.081-.076-.162-.152-.246-.227Z" transform="translate(-38.843)" fill="none"/>
    </clipPath>
    <linearGradient id="linear-gradient-14" x1="-2.732" y1="3.234" x2="-2.711" y2="3.234" xlink:href="#linear-gradient-7"/>
    <clipPath id="clip-path-17">
      <path id="Path_109579" data-name="Path 109579" d="M38.444.64,172.992.43c-.06-.056-.122-.111-.183-.168L38.685.089c-.084.183-.16.368-.241.551" transform="translate(-38.444 -0.089)" fill="none"/>
    </clipPath>
    <linearGradient id="linear-gradient-15" x1="-2.685" y1="3.222" x2="-2.664" y2="3.222" xlink:href="#linear-gradient-7"/>
    <clipPath id="clip-path-18">
      <path id="Path_109580" data-name="Path 109580" d="M1.341,0V.025L75.03.12c-.006-.04-.009-.08-.016-.12Z" transform="translate(-1.341)" fill="none"/>
    </clipPath>
    <linearGradient id="linear-gradient-16" x1="-0.011" y1="122.053" x2="-0.003" y2="122.053" xlink:href="#linear-gradient-9"/>
    <clipPath id="clip-path-19">
      <path id="Path_109581" data-name="Path 109581" d="M1.341.657,75.085.541q-.024-.2-.055-.4L1.341.041Z" transform="translate(-1.341 -0.041)" fill="none"/>
    </clipPath>
    <linearGradient id="linear-gradient-17" x1="-0.011" y1="104.359" x2="-0.003" y2="104.359" xlink:href="#linear-gradient-9"/>
    <clipPath id="clip-path-20">
      <path id="Path_109582" data-name="Path 109582" d="M358.716.478l25.866.034c-.029-.024-.056-.05-.085-.074Z" transform="translate(-358.716 -0.438)" fill="none"/>
    </clipPath>
    <linearGradient id="linear-gradient-18" x1="-677.405" y1="14.367" x2="-675.622" y2="14.367" xlink:href="#linear-gradient-7"/>
    <clipPath id="clip-path-21">
      <path id="Path_109583" data-name="Path 109583" d="M269.858,35.928a19.823,19.823,0,0,0-3.25-.272,19.454,19.454,0,1,0,8.212,37.111c-.038.594-.063,1.192-.063,1.8a27.839,27.839,0,0,0,52.1,13.462A15.458,15.458,0,1,0,338,59.56a11.915,11.915,0,0,0,3.059-7.969,12.053,12.053,0,0,0-12.09-12.017,12.256,12.256,0,0,0-2.062.178c-6.851-4.371-18.956-7.275-32.749-7.275a80.466,80.466,0,0,0-24.3,3.452" transform="translate(-247.037 -32.476)" fill="none"/>
    </clipPath>
    <linearGradient id="linear-gradient-19" x1="-1.254" y1="3.951" x2="-1.249" y2="3.951" xlink:href="#linear-gradient-5"/>
    <clipPath id="clip-path-22">
      <path id="Path_109584" data-name="Path 109584" d="M212.319.628q-.352.346-.687.707c-.262-.247-.539-.478-.82-.7L193.236.658a13.836,13.836,0,0,0,8.813,24.584,13.951,13.951,0,0,0,6.284-1.489,20.318,20.318,0,0,0,26.705,9.461c-.039.615-.067,1.233-.067,1.858A28.791,28.791,0,0,0,291.9,40.961,24.152,24.152,0,0,0,325.473,18.9,23.86,23.86,0,0,0,316.854.539L290.989.5Z" transform="translate(-188.112 -0.505)" fill="none"/>
    </clipPath>
    <linearGradient id="linear-gradient-20" x1="-0.826" y1="5.644" x2="-0.821" y2="5.644" xlink:href="#linear-gradient-7"/>
    <filter id="Path_92638" x="-0.999" y="0" width="506" height="149" filterUnits="userSpaceOnUse">
      <feOffset dx="2" dy="4" input="SourceAlpha"/>
      <feGaussianBlur stdDeviation="1" result="blur"/>
      <feFlood flood-opacity="0.302"/>
      <feComposite operator="in" in2="blur"/>
      <feComposite in="SourceGraphic"/>
    </filter>
    <clipPath id="clip-_10d-Rain">
      <rect width="500" height="152"/>
    </clipPath>
  </defs>
  <g id="_10d-Rain" data-name="10d-Rain" clip-path="url(#clip-_10d-Rain)">
    <g id="Group_143178" data-name="Group 143178" transform="translate(-530 -285)">
      <g id="Group_135715" data-name="Group 135715" transform="translate(3206 5920)">
        <g id="Group_135714" data-name="Group 135714">
          <g id="Mask_Group_324" data-name="Mask Group 324" transform="translate(-1 2)" clip-path="url(#clip-path)">
            <g id="Group_135672" data-name="Group 135672" transform="translate(-2681.196 -5692.4)">
              <path id="Path_109316" data-name="Path 109316" d="M1.553,0V.025L216.914.3,410,0Z" transform="translate(-0.617 0)" fill="#7fcfe1"/>
              <path id="Path_109317" data-name="Path 109317" d="M1.553.657,216.914.32,1.553.042Z" transform="translate(-0.617 -0.017)" fill="#7fcfe1"/>
              <g id="Group_135673" data-name="Group 135673" transform="translate(0.936)">
                <g id="Group_135672-2" data-name="Group 135672" clip-path="url(#clip-path-2)">
                  <rect id="Rectangle_170540-2" data-name="Rectangle 170540" width="507.543" height="356.8" transform="translate(0 0)" fill="url(#linear-gradient)"/>
                </g>
              </g>
              <g id="Group_135675" data-name="Group 135675">
                <g id="Group_135674" data-name="Group 135674" clip-path="url(#clip-path-3)">
                  <path id="Path_109319" data-name="Path 109319" d="M509.386,92.026V71h-200.8c-.059.052-.114.106-.172.158l-65.681.1c-.023.025-.045.051-.068.076-.074.08-.144.162-.216.243-.093-.08-.182-.165-.277-.244-.028-.024-.055-.05-.084-.074l-25.781.041-56.985.089c-.072-.053-.139-.111-.212-.163l-1.565,0c-.082-.076-.163-.153-.247-.227H.809v.024H0L.809,115.78v45.537a28.816,28.816,0,0,0,45.81.927,9.5,9.5,0,0,0,18.174-3.826,9.335,9.335,0,0,0-.461-2.879c.634.031,1.271.051,1.913.051a38.274,38.274,0,0,0,16.326-3.635,48.333,48.333,0,0,0,72.467-3.527,14.51,14.51,0,0,0,26.065-.936,27.889,27.889,0,0,0,48.172-2.389,11.07,11.07,0,0,0,14.374-.481,31.378,31.378,0,0,0,61.2-.583,26.451,26.451,0,0,0,21.485-.4A16.006,16.006,0,0,0,356.8,141.3a38.151,38.151,0,0,0,19.313,5.592,26.783,26.783,0,1,0,53.056,5.343q0-.68-.034-1.351A21.012,21.012,0,0,0,464.77,148.7a27.887,27.887,0,0,0,45.483.655v-57.2c-.286-.045-.578-.085-.868-.128M136.214,71.5c-.028-.022-.053-.047-.081-.069l-1.971,0h0l2.926,0-.09.07Zm252.28-.464c0,.016,0,.032-.007.048l-50.113.078c-.022-.015-.043-.032-.066-.047Z" transform="translate(0 -28.444)" fill="#537ca0"/>
                  <path id="Path_109320" data-name="Path 109320" d="M0,53.153v57.2a27.887,27.887,0,0,0,45.483-.655,21.012,21.012,0,0,0,35.633,2.184q-.033.671-.034,1.351a26.8,26.8,0,1,0,53.056-5.343,38.151,38.151,0,0,0,19.313-5.592,16.006,16.006,0,0,0,30.467,2.335,26.451,26.451,0,0,0,21.485.4,31.378,31.378,0,0,0,61.2.583,11.07,11.07,0,0,0,14.374.481,27.889,27.889,0,0,0,48.172,2.389,14.51,14.51,0,0,0,26.065.936,48.333,48.333,0,0,0,72.467,3.527,38.275,38.275,0,0,0,16.326,3.635c.642,0,1.28-.02,1.913-.051a9.336,9.336,0,0,0-.461,2.879,9.5,9.5,0,0,0,18.174,3.826,28.816,28.816,0,0,0,45.81-.927V76.78l.809-44.757h-.809V32H352.952c-.084.074-.165.15-.247.227l-1.565,0c-.072.052-.141.11-.212.163L293.943,32.3l-25.781-.041c-.029.024-.056.05-.084.074-.095.079-.183.164-.276.244-.074-.081-.143-.164-.217-.243-.023-.025-.045-.051-.068-.076l-65.681-.1c-.058-.052-.113-.107-.172-.158H.868V53.026c-.289.043-.581.083-.868.128M373.255,32.5l-.09-.07,2.926,0h0l-1.971,0c-.028.022-.053.047-.081.069Zm-251.5-.463,50.186.079c-.023.015-.043.032-.066.047l-50.113-.078c0-.016,0-.032-.007-.048" transform="translate(0 -12.82)" fill="#486c8b"/>
                  <path id="Path_109321" data-name="Path 109321" d="M.24,266.43l.021,7.154C40.687,176.851,105.53,21.656,105.53,21.656S41.748,169.921.24,266.43" transform="translate(-0.095 -8.676)" fill="#a5d2f1"/>
                  <path id="Path_109322" data-name="Path 109322" d="M.56,459.166l.01,3.621c17.595-42.1,53.37-127.72,53.37-127.72S18.967,416.366.56,459.166" transform="translate(-0.222 -134.234)" fill="#a5d2f1"/>
                  <path id="Path_109323" data-name="Path 109323" d="M0,277.349l.009,3.039C18.593,235.928,44.735,173.36,44.735,173.36S18.945,233.308,0,277.349" transform="translate(-0.001 -69.451)" fill="#a5d2f1"/>
                  <path id="Path_109324" data-name="Path 109324" d="M22.879,531.838c-.394.927-.308,1.146-.125,1.24s.389.025.783-.9,27.519-65.85,27.519-65.85-27.784,64.587-28.176,65.514" transform="translate(-8.972 -186.818)" fill="#a5d2f1"/>
                  <path id="Path_109325" data-name="Path 109325" d="M28.264,275.479c.182.093.386.034.757-.84S54.94,212.563,54.94,212.563,28.733,273.428,28.363,274.3s-.281,1.085-.1,1.178" transform="translate(-11.158 -85.157)" fill="#a5d2f1"/>
                  <path id="Path_109326" data-name="Path 109326" d="M50.684,148.566c.183.094.388.034.762-.84S77.523,85.65,77.523,85.65s-26.367,60.866-26.739,61.739-.282,1.084-.1,1.178" transform="translate(-20.058 -34.313)" fill="#a5d2f1"/>
                  <path id="Path_109327" data-name="Path 109327" d="M78.7,260.189c.182.094.386.034.757-.84s25.919-62.076,25.919-62.076S79.173,258.139,78.8,259.012s-.281,1.085-.1,1.178" transform="translate(-31.182 -79.031)" fill="#a5d2f1"/>
                  <path id="Path_109328" data-name="Path 109328" d="M67.239,523.583c.182.093.348.125.467-.158s8.127-20.113,8.127-20.113-8.667,19.494-8.786,19.775a.333.333,0,0,0,.191.5" transform="translate(-26.599 -201.637)" fill="#a5d2f1"/>
                  <path id="Path_109329" data-name="Path 109329" d="M.123,387.842v.2l.908-2.249s-.351.791-.909,2.044" transform="translate(-0.049 -154.558)" fill="#a5d2f1"/>
                  <path id="Path_109330" data-name="Path 109330" d="M.439,498.751v.142c.39-.967.63-1.558.63-1.558s-.238.533-.63,1.416" transform="translate(-0.174 -199.242)" fill="#a5d2f1"/>
                  <path id="Path_109331" data-name="Path 109331" d="M.336,445.729l0,1.661c3.485-8.47,11.681-28.407,11.681-28.407S4.254,436.758.336,445.729" transform="translate(-0.133 -167.853)" fill="#a5d2f1"/>
                  <path id="Path_109332" data-name="Path 109332" d="M43.65,479.161c.186.095.365.1.556-.351s13.219-32.138,13.219-32.138-13.7,31.343-13.889,31.794-.072.6.114.695" transform="translate(-17.245 -178.945)" fill="#a5d2f1"/>
                  <path id="Path_109333" data-name="Path 109333" d="M86.335,408.793c.315-.736,21.822-52.313,21.822-52.313s-22.1,51.273-22.413,52.009-.229.919-.065,1,.346.038.657-.7" transform="translate(-33.955 -142.813)" fill="#a5d2f1"/>
                  <path id="Path_109334" data-name="Path 109334" d="M32.413,400.875S16.9,436.381,16.682,436.891s-.081.679.127.785.412.115.628-.4,14.975-36.4,14.975-36.4" transform="translate(-6.579 -160.598)" fill="#a5d2f1"/>
                  <path id="Path_109335" data-name="Path 109335" d="M67.724,484.349c-.9,2.118-.7,2.619-.287,2.833s.892.056,1.79-2.062,62.9-150.517,62.9-150.517S68.621,482.231,67.724,484.349" transform="translate(-26.633 -134.048)" fill="#a5d2f1"/>
                  <path id="Path_109336" data-name="Path 109336" d="M52.538,325.475c.416.213.892.058,1.789-2.061S117.23,172.9,117.23,172.9,53.722,320.524,52.825,322.643s-.7,2.619-.287,2.832" transform="translate(-20.718 -69.266)" fill="#a5d2f1"/>
                  <path id="Path_109337" data-name="Path 109337" d="M163.287,303.387c.416.213.892.057,1.789-2.062s62.9-150.517,62.9-150.517-63.509,147.628-64.405,149.746-.7,2.619-.287,2.833" transform="translate(-64.684 -60.417)" fill="#a5d2f1"/>
                  <path id="Path_109338" data-name="Path 109338" d="M128.5,240.387c.416.213.892.057,1.789-2.062s62.9-150.517,62.9-150.517-63.509,147.628-64.405,149.746-.7,2.619-.287,2.833" transform="translate(-50.874 -35.178)" fill="#a5d2f1"/>
                  <path id="Path_109339" data-name="Path 109339" d="M120.549,340.387c.416.213.892.057,1.789-2.062s62.9-150.517,62.9-150.517-63.508,147.628-64.406,149.746-.7,2.619-.287,2.833" transform="translate(-47.717 -75.239)" fill="#a5d2f1"/>
                  <path id="Path_109340" data-name="Path 109340" d="M7.242,183.387c.416.213.892.057,1.789-2.062s62.9-150.517,62.9-150.517S8.426,178.436,7.529,180.554s-.7,2.62-.287,2.833" transform="translate(-2.736 -12.342)" fill="#a5d2f1"/>
                  <path id="Path_109341" data-name="Path 109341" d="M277.588,305.387c.416.213.892.057,1.789-2.062s62.9-150.517,62.9-150.517-63.508,147.628-64.406,149.746-.7,2.619-.286,2.833" transform="translate(-110.06 -61.218)" fill="#a5d2f1"/>
                  <path id="Path_109342" data-name="Path 109342" d="M341.2,255.387c.416.213.891.057,1.789-2.062s62.9-150.517,62.9-150.517-63.509,147.628-64.406,149.746-.7,2.619-.287,2.833" transform="translate(-135.312 -41.187)" fill="#a5d2f1"/>
                  <path id="Path_109343" data-name="Path 109343" d="M397.852,315.387c.416.213.891.057,1.789-2.062s62.9-150.517,62.9-150.517-63.509,147.628-64.406,149.746-.7,2.619-.287,2.833" transform="translate(-157.803 -65.224)" fill="#a5d2f1"/>
                  <path id="Path_109344" data-name="Path 109344" d="M463.326,249.6c.417.213.892.057,1.79-2.062s62.9-150.517,62.9-150.517S464.51,244.653,463.613,246.771s-.7,2.619-.287,2.833" transform="translate(-183.795 -38.87)" fill="#a5d2f1"/>
                  <path id="Path_109345" data-name="Path 109345" d="M367.163,253.387c.417.213.892.057,1.789-2.062s62.9-150.517,62.9-150.517S368.347,248.436,367.45,250.554s-.7,2.619-.287,2.833" transform="translate(-145.62 -40.386)" fill="#a5d2f1"/>
                  <path id="Path_109346" data-name="Path 109346" d="M211.119,241.387c.417.213.892.057,1.789-2.062s62.9-150.517,62.9-150.517S212.3,236.436,211.406,238.554s-.7,2.619-.287,2.833" transform="translate(-83.672 -35.578)" fill="#a5d2f1"/>
                  <path id="Path_109347" data-name="Path 109347" d="M560.779,316.325c.9-2.118,62.9-150.517,62.9-150.517s-63.508,147.628-64.4,149.746-.7,2.619-.287,2.833.891.056,1.789-2.062" transform="translate(-221.772 -66.426)" fill="#a5d2f1"/>
                  <path id="Path_109348" data-name="Path 109348" d="M610.674,320.387c.416.213.892.057,1.789-2.062s62.9-150.517,62.9-150.517-63.508,147.628-64.4,149.746-.7,2.619-.287,2.833" transform="translate(-242.29 -67.227)" fill="#a5d2f1"/>
                  <path id="Path_109349" data-name="Path 109349" d="M649.436,313.387c.416.213.891.057,1.789-2.062s62.9-150.517,62.9-150.517S650.62,308.436,649.723,310.554s-.7,2.619-.287,2.833" transform="translate(-257.678 -64.423)" fill="#a5d2f1"/>
                  <path id="Path_109350" data-name="Path 109350" d="M576.881,248.387c.416.213.891.057,1.789-2.062s62.9-150.517,62.9-150.517-63.508,147.628-64.4,149.746-.7,2.619-.287,2.833" transform="translate(-228.875 -38.383)" fill="#a5d2f1"/>
                  <path id="Path_109351" data-name="Path 109351" d="M738.889,400.387c.416.213.892.057,1.79-2.062s62.9-150.517,62.9-150.517-63.508,147.628-64.406,149.746-.7,2.62-.287,2.833" transform="translate(-293.19 -99.277)" fill="#a5d2f1"/>
                  <path id="Path_109352" data-name="Path 109352" d="M108.746,531.375c-.394.926-.307,1.145-.125,1.239s.39.025.783-.9,27.519-65.85,27.519-65.85-27.784,64.587-28.177,65.514" transform="translate(-43.06 -186.633)" fill="#a5d2f1"/>
                  <path id="Path_109353" data-name="Path 109353" d="M123.944,189s-26.207,60.865-26.577,61.738c-.3.7-.3.975-.19,1.1C85.712,278.5,76.373,300.215,76.033,301.018c-.9,2.118-.7,2.619-.287,2.833a.5.5,0,0,0,.467.02c-1.755,3.951-3.267,7.353-3.315,7.47a.332.332,0,0,0,.191.494c.181.093.347.125.467-.157.064-.15,2.351-5.811,4.483-11.089,5.984-14.293,62.4-149.317,62.4-149.317s-11.739,27.287-25.194,58.567l8.7-20.841" transform="translate(-28.921 -60.602)" fill="#a5d2f1"/>
                  <path id="Path_109354" data-name="Path 109354" d="M17.562,443.467c.182.093.389.025.783-.9s27.519-65.851,27.519-65.851S18.078,441.3,17.686,442.227s-.306,1.147-.124,1.24" transform="translate(-6.911 -150.918)" fill="#a5d2f1"/>
                  <path id="Path_109355" data-name="Path 109355" d="M136.179,150.216c.183.094.388.034.762-.84S163.018,87.3,163.018,87.3s-26.367,60.866-26.739,61.739-.282,1.084-.1,1.178" transform="translate(-53.998 -34.974)" fill="#a5d2f1"/>
                  <path id="Path_109356" data-name="Path 109356" d="M164.437,261c.37-.872,25.919-62.076,25.919-62.076s-26.207,60.866-26.577,61.739-.281,1.084-.1,1.177.385.034.757-.84" transform="translate(-64.916 -79.692)" fill="#a5d2f1"/>
                  <path id="Path_109357" data-name="Path 109357" d="M153.1,523.12c.182.093.348.125.467-.158S161.7,502.85,161.7,502.85s-8.667,19.493-8.786,19.775a.333.333,0,0,0,.191.5" transform="translate(-60.686 -201.451)" fill="#a5d2f1"/>
                  <path id="Path_109358" data-name="Path 109358" d="M72.941,517.142c.182.093.348.126.467-.157s8.127-20.113,8.127-20.113-8.666,19.494-8.785,19.775a.332.332,0,0,0,.191.494" transform="translate(-28.863 -199.056)" fill="#a5d2f1"/>
                  <path id="Path_109359" data-name="Path 109359" d="M82.484,450.315c-.192.452-.071.6.114.693s.365.1.557-.35S96.373,418.52,96.373,418.52s-13.7,31.343-13.889,31.795" transform="translate(-32.706 -167.667)" fill="#a5d2f1"/>
                  <path id="Path_109360" data-name="Path 109360" d="M129.516,478.7c.186.1.365.1.555-.351s13.219-32.137,13.219-32.137S129.593,477.551,129.4,478s-.071.6.115.694" transform="translate(-51.332 -178.76)" fill="#a5d2f1"/>
                  <path id="Path_109361" data-name="Path 109361" d="M171.545,409.029c.163.085.346.037.657-.7s21.821-52.313,21.821-52.313-22.1,51.273-22.413,52.01-.228.919-.064,1" transform="translate(-68.043 -142.627)" fill="#a5d2f1"/>
                  <path id="Path_109362" data-name="Path 109362" d="M63.184,446.781c.182.093.348.125.467-.157s8.128-20.113,8.128-20.113S63.112,446,62.993,446.286a.333.333,0,0,0,.191.5" transform="translate(-24.989 -170.868)" fill="#a5d2f1"/>
                  <path id="Path_109363" data-name="Path 109363" d="M26.286,486.507c.208.107.411.113.628-.4s14.974-36.4,14.974-36.4-15.513,35.5-15.73,36.016-.081.679.127.786" transform="translate(-10.341 -180.161)" fill="#a5d2f1"/>
                  <path id="Path_109364" data-name="Path 109364" d="M102.675,437.212c.209.108.412.114.628-.4s14.975-36.4,14.975-36.4-15.513,35.506-15.731,36.016-.081.679.127.785" transform="translate(-40.666 -160.412)" fill="#a5d2f1"/>
                  <path id="Path_109365" data-name="Path 109365" d="M176.756,336.257c-1.955,4.609-1.526,5.7-.622,6.163s1.94.124,3.893-4.485S316.885,10.45,316.885,10.45s-138.176,321.2-140.13,325.807" transform="translate(-69.62 -4.186)" fill="#a5d2f1"/>
                  <path id="Path_109366" data-name="Path 109366" d="M217.06,473.606c-.9,2.119-.7,2.619-.288,2.833s.892.056,1.79-2.062,62.9-150.517,62.9-150.517S217.957,471.488,217.06,473.606" transform="translate(-85.917 -129.744)" fill="#a5d2f1"/>
                  <path id="Path_109367" data-name="Path 109367" d="M202.16,311.9c-.9,2.118-.7,2.618-.287,2.831s.892.057,1.79-2.061,62.9-150.517,62.9-150.517S203.057,309.782,202.16,311.9" transform="translate(-80.002 -64.962)" fill="#a5d2f1"/>
                  <path id="Path_109368" data-name="Path 109368" d="M312.623,292.645c.416.213.891.058,1.789-2.061s62.9-150.517,62.9-150.517-63.508,147.627-64.405,149.745-.7,2.62-.286,2.833" transform="translate(-123.968 -56.113)" fill="#a5d2f1"/>
                  <path id="Path_109369" data-name="Path 109369" d="M258.082,520.632c-.394.927-.306,1.146-.125,1.239s.389.026.783-.9,27.52-65.85,27.52-65.85-27.785,64.587-28.178,65.514" transform="translate(-102.344 -182.329)" fill="#a5d2f1"/>
                  <path id="Path_109370" data-name="Path 109370" d="M247.044,300.685c.181.094.389.025.783-.9s27.519-65.85,27.519-65.85-27.785,64.587-28.177,65.513-.307,1.147-.125,1.24" transform="translate(-98.012 -93.718)" fill="#a5d2f1"/>
                  <path id="Path_109371" data-name="Path 109371" d="M167.022,431.485c-.393.926-.306,1.145-.125,1.239s.39.025.783-.9,27.519-65.85,27.519-65.85-27.785,64.587-28.178,65.514" transform="translate(-66.195 -146.615)" fill="#a5d2f1"/>
                  <path id="Path_109372" data-name="Path 109372" d="M273.865,165.6c-.4.927-.309,1.146-.126,1.24s.392.025.788-.9,27.687-65.851,27.687-65.851S274.26,164.678,273.865,165.6" transform="translate(-108.61 -40.098)" fill="#a5d2f1"/>
                  <path id="Path_109373" data-name="Path 109373" d="M299.139,282.422c.393-.925,27.519-65.85,27.519-65.85s-27.784,64.587-28.177,65.514-.307,1.145-.125,1.239.389.026.783-.9" transform="translate(-118.382 -86.763)" fill="#a5d2f1"/>
                  <path id="Path_109374" data-name="Path 109374" d="M302.442,512.377c.182.093.347.125.467-.157s8.127-20.113,8.127-20.113-8.667,19.494-8.785,19.775a.333.333,0,0,0,.191.5" transform="translate(-119.971 -197.147)" fill="#a5d2f1"/>
                  <path id="Path_109375" data-name="Path 109375" d="M222.233,394.368a.332.332,0,0,0,.191.494c.182.094.348.125.467-.157s8.127-20.113,8.127-20.113-8.667,19.495-8.786,19.777" transform="translate(-88.205 -150.068)" fill="#a5d2f1"/>
                  <path id="Path_109376" data-name="Path 109376" d="M222.277,506.4c.182.093.348.125.467-.156s8.127-20.114,8.127-20.114-8.667,19.494-8.785,19.776a.332.332,0,0,0,.191.495" transform="translate(-88.147 -194.753)" fill="#a5d2f1"/>
                  <path id="Path_109377" data-name="Path 109377" d="M231.821,439.572c-.192.451-.072.6.114.693s.365.1.556-.349,13.219-32.139,13.219-32.139-13.7,31.343-13.889,31.8" transform="translate(-91.991 -163.363)" fill="#a5d2f1"/>
                  <path id="Path_109378" data-name="Path 109378" d="M278.852,467.954c.186.1.365.1.556-.35s13.219-32.138,13.219-32.138-13.7,31.342-13.889,31.794-.071.6.115.694" transform="translate(-110.616 -174.456)" fill="#a5d2f1"/>
                  <path id="Path_109379" data-name="Path 109379" d="M343.359,345.272s-22.1,51.273-22.413,52.009-.228.92-.065,1,.346.038.657-.7,21.821-52.313,21.821-52.313" transform="translate(-127.327 -138.323)" fill="#a5d2f1"/>
                  <path id="Path_109380" data-name="Path 109380" d="M212.52,436.038c.181.093.347.125.467-.157s8.127-20.112,8.127-20.112-8.667,19.493-8.785,19.775a.332.332,0,0,0,.191.495" transform="translate(-84.273 -166.565)" fill="#a5d2f1"/>
                  <path id="Path_109381" data-name="Path 109381" d="M175.621,475.765c.209.108.411.114.628-.4s14.975-36.4,14.975-36.4-15.513,35.5-15.73,36.015-.082.679.127.786" transform="translate(-69.625 -175.857)" fill="#a5d2f1"/>
                  <path id="Path_109382" data-name="Path 109382" d="M252.012,426.47c.209.107.412.115.628-.4s14.975-36.4,14.975-36.4-15.513,35.5-15.731,36.015-.081.679.128.786" transform="translate(-99.951 -156.109)" fill="#a5d2f1"/>
                  <path id="Path_109383" data-name="Path 109383" d="M372.111,478.3c-.9,2.119-.7,2.619-.287,2.833s.892.057,1.79-2.061,62.9-150.518,62.9-150.518S373.008,476.181,372.111,478.3" transform="translate(-147.47 -131.625)" fill="#a5d2f1"/>
                  <path id="Path_109384" data-name="Path 109384" d="M357.211,316.594c-.9,2.118-.7,2.619-.287,2.832s.892.057,1.79-2.061,62.9-150.517,62.9-150.517-63.509,147.627-64.406,149.746" transform="translate(-141.555 -66.842)" fill="#a5d2f1"/>
                  <path id="Path_109385" data-name="Path 109385" d="M467.674,297.337c.416.213.892.058,1.789-2.062s62.9-150.516,62.9-150.516S468.859,292.386,467.961,294.5s-.7,2.619-.287,2.833" transform="translate(-185.521 -57.993)" fill="#a5d2f1"/>
                  <path id="Path_109386" data-name="Path 109386" d="M413.132,525.325c-.394.927-.306,1.145-.125,1.239s.39.026.783-.9,27.519-65.85,27.519-65.85-27.785,64.587-28.178,65.514" transform="translate(-163.897 -184.209)" fill="#a5d2f1"/>
                  <path id="Path_109387" data-name="Path 109387" d="M415.14,277.938c.37-.873,25.918-62.076,25.918-62.076s-26.206,60.865-26.576,61.738-.281,1.085-.1,1.178.385.034.757-.84" transform="translate(-164.442 -86.478)" fill="#a5d2f1"/>
                  <path id="Path_109388" data-name="Path 109388" d="M322.073,436.179c-.394.926-.307,1.145-.125,1.239s.39.025.783-.9,27.519-65.85,27.519-65.85-27.785,64.587-28.178,65.514" transform="translate(-127.748 -148.495)" fill="#a5d2f1"/>
                  <path id="Path_109389" data-name="Path 109389" d="M439.165,151.866c.183.093.388.034.762-.84S466,88.95,466,88.95s-26.367,60.865-26.739,61.739-.283,1.084-.1,1.178" transform="translate(-174.28 -35.635)" fill="#a5d2f1"/>
                  <path id="Path_109390" data-name="Path 109390" d="M464.822,263.489c.182.093.386.034.757-.841S491.5,200.572,491.5,200.572s-26.207,60.866-26.577,61.739-.28,1.085-.1,1.178" transform="translate(-184.465 -80.353)" fill="#a5d2f1"/>
                  <path id="Path_109391" data-name="Path 109391" d="M457.492,517.07c.182.092.348.125.467-.158s8.127-20.112,8.127-20.112-8.666,19.494-8.785,19.775a.333.333,0,0,0,.191.5" transform="translate(-181.524 -199.027)" fill="#a5d2f1"/>
                  <path id="Path_109392" data-name="Path 109392" d="M377.284,399.06a.333.333,0,0,0,.191.494c.182.093.348.125.467-.156s8.128-20.114,8.128-20.114-8.667,19.495-8.786,19.776" transform="translate(-149.758 -151.948)" fill="#a5d2f1"/>
                  <path id="Path_109393" data-name="Path 109393" d="M377.328,511.092c.182.093.348.125.467-.157s8.127-20.113,8.127-20.113-8.666,19.495-8.785,19.776a.332.332,0,0,0,.191.494" transform="translate(-149.7 -196.633)" fill="#a5d2f1"/>
                  <path id="Path_109394" data-name="Path 109394" d="M386.872,444.265c-.192.451-.072.6.114.693s.365.1.556-.349,13.219-32.139,13.219-32.139-13.7,31.343-13.889,31.8" transform="translate(-153.544 -165.243)" fill="#a5d2f1"/>
                  <path id="Path_109395" data-name="Path 109395" d="M476,401.975c-.312.737-.229.919-.065,1s.345.037.657-.7,21.821-52.314,21.821-52.314-22.1,51.273-22.413,52.01" transform="translate(-188.88 -140.203)" fill="#a5d2f1"/>
                  <path id="Path_109396" data-name="Path 109396" d="M367.38,440.236a.333.333,0,0,0,.191.5c.182.093.348.126.467-.157s8.127-20.113,8.127-20.113-8.667,19.494-8.785,19.775" transform="translate(-145.826 -168.445)" fill="#a5d2f1"/>
                  <path id="Path_109397" data-name="Path 109397" d="M330.673,480.458c.209.107.411.113.628-.4s14.974-36.4,14.974-36.4-15.513,35.5-15.73,36.014-.081.679.127.786" transform="translate(-131.178 -177.738)" fill="#a5d2f1"/>
                  <path id="Path_109398" data-name="Path 109398" d="M407.062,431.164c.209.107.413.114.628-.4s14.975-36.4,14.975-36.4-15.514,35.506-15.731,36.015-.081.679.127.786" transform="translate(-161.504 -157.989)" fill="#a5d2f1"/>
                  <path id="Path_109399" data-name="Path 109399" d="M446.2,344.953c-1.954,4.609-1.525,5.7-.621,6.163s1.939.124,3.893-4.485S586.332,19.146,586.332,19.146,448.156,340.344,446.2,344.953" transform="translate(-176.587 -7.67)" fill="#a5d2f1"/>
                  <path id="Path_109400" data-name="Path 109400" d="M486.507,482.3c-.9,2.117-.7,2.619-.287,2.833s.892.056,1.789-2.063,62.9-150.517,62.9-150.517S487.4,480.183,486.507,482.3" transform="translate(-192.884 -133.228)" fill="#a5d2f1"/>
                  <path id="Path_109401" data-name="Path 109401" d="M471.606,320.6c-.9,2.118-.7,2.619-.286,2.833s.892.056,1.789-2.062,62.9-150.517,62.9-150.517S472.5,318.477,471.606,320.6" transform="translate(-186.969 -68.445)" fill="#a5d2f1"/>
                  <path id="Path_109402" data-name="Path 109402" d="M527.527,529.326c-.393.928-.306,1.147-.124,1.24s.39.024.783-.9,27.52-65.85,27.52-65.85S527.92,528.4,527.527,529.326" transform="translate(-209.311 -185.813)" fill="#a5d2f1"/>
                  <path id="Path_109403" data-name="Path 109403" d="M516.491,309.38c.182.093.389.025.783-.9s27.519-65.85,27.519-65.85-27.785,64.588-28.178,65.514-.306,1.146-.124,1.24" transform="translate(-204.979 -97.201)" fill="#a5d2f1"/>
                  <path id="Path_109404" data-name="Path 109404" d="M435.477,440.179c-.393.928-.306,1.147-.125,1.24.1.054.22.048.372-.14-1.136,2.6-1.891,4.333-1.936,4.437-.191.451-.071.6.115.694s.365.1.555-.35,13.219-32.138,13.219-32.138-5.691,13.023-9.788,22.4c6.066-14.51,25.766-61.657,25.766-61.657s-27.786,64.588-28.178,65.514" transform="translate(-172.17 -150.098)" fill="#a5d2f1"/>
                  <path id="Path_109405" data-name="Path 109405" d="M553.259,157.288c-.373.874-.283,1.084-.1,1.178s.388.034.762-.84S580,95.549,580,95.549s-26.367,60.865-26.74,61.739" transform="translate(-219.534 -38.279)" fill="#a5d2f1"/>
                  <path id="Path_109406" data-name="Path 109406" d="M578.88,269.247c.37-.873,25.919-62.076,25.919-62.076s-26.206,60.867-26.577,61.738-.28,1.085-.1,1.178.386.035.757-.84" transform="translate(-229.444 -82.997)" fill="#a5d2f1"/>
                  <path id="Path_109407" data-name="Path 109407" d="M571.887,521.071c.182.093.348.125.467-.157s8.128-20.112,8.128-20.112-8.667,19.494-8.785,19.775a.331.331,0,0,0,.191.494" transform="translate(-226.937 -200.631)" fill="#a5d2f1"/>
                  <path id="Path_109408" data-name="Path 109408" d="M491.68,403.062a.332.332,0,0,0,.191.494c.182.094.348.125.467-.156s8.127-20.114,8.127-20.114-8.666,19.494-8.785,19.776" transform="translate(-195.172 -153.552)" fill="#a5d2f1"/>
                  <path id="Path_109409" data-name="Path 109409" d="M491.724,515.094c.182.093.347.125.466-.157s8.128-20.112,8.128-20.112-8.667,19.494-8.785,19.775a.332.332,0,0,0,.191.494" transform="translate(-195.113 -198.236)" fill="#a5d2f1"/>
                  <path id="Path_109410" data-name="Path 109410" d="M501.267,448.266c-.191.452-.071.6.115.694s.366.1.555-.35,13.22-32.139,13.22-32.139-13.7,31.343-13.89,31.795" transform="translate(-198.958 -166.846)" fill="#a5d2f1"/>
                  <path id="Path_109411" data-name="Path 109411" d="M590.327,406.981c.163.085.346.037.657-.7S612.8,353.968,612.8,353.968s-22.1,51.273-22.413,52.01-.229.919-.064,1" transform="translate(-234.294 -141.806)" fill="#a5d2f1"/>
                  <path id="Path_109412" data-name="Path 109412" d="M481.967,444.733c.182.093.348.125.466-.158s8.127-20.113,8.127-20.113-8.665,19.495-8.785,19.776a.332.332,0,0,0,.191.494" transform="translate(-191.24 -170.048)" fill="#a5d2f1"/>
                  <path id="Path_109413" data-name="Path 109413" d="M444.94,483.675c-.215.511-.081.679.128.785s.412.114.628-.4,14.975-36.4,14.975-36.4-15.514,35.506-15.731,36.017" transform="translate(-176.592 -179.34)" fill="#a5d2f1"/>
                  <path id="Path_109414" data-name="Path 109414" d="M521.458,435.165c.209.108.412.113.629-.4s14.975-36.4,14.975-36.4-15.514,35.5-15.73,36.016-.083.679.127.785" transform="translate(-206.918 -159.592)" fill="#a5d2f1"/>
                  <path id="Path_109415" data-name="Path 109415" d="M589.055,476.217c-.9,2.118-.7,2.619-.287,2.833s.893.056,1.789-2.062,62.9-150.517,62.9-150.517S589.952,474.1,589.055,476.217" transform="translate(-233.594 -130.79)" fill="#a5d2f1"/>
                  <path id="Path_109416" data-name="Path 109416" d="M573.868,310.933c.416.212.892.057,1.79-2.062.116-.274,1.257-3,3.151-7.533l0,0c.417.213.893.056,1.789-2.062s62.9-150.517,62.9-150.517L610.8,224.8c14.406-34.475,27.764-66.446,27.764-66.446S575.052,305.981,574.155,308.1s-.7,2.619-.287,2.833" transform="translate(-227.679 -59.596)" fill="#a5d2f1"/>
                  <path id="Path_109417" data-name="Path 109417" d="M684.618,295.256c.416.212.892.056,1.79-2.062s62.9-150.517,62.9-150.517S685.8,290.3,684.9,292.423s-.7,2.619-.286,2.833" transform="translate(-271.645 -57.159)" fill="#a5d2f1"/>
                  <path id="Path_109418" data-name="Path 109418" d="M630.075,523.242c-.393.927-.306,1.146-.124,1.239s.389.025.783-.9,27.519-65.85,27.519-65.85-27.786,64.587-28.178,65.512" transform="translate(-250.021 -183.375)" fill="#a5d2f1"/>
                  <path id="Path_109419" data-name="Path 109419" d="M629.058,282.079c.182.094.386.034.757-.84s25.919-62.076,25.919-62.076-26.207,60.865-26.577,61.739-.281,1.085-.1,1.178" transform="translate(-249.665 -87.801)" fill="#a5d2f1"/>
                  <path id="Path_109420" data-name="Path 109420" d="M538.892,435.334c.182.094.39.025.783-.9s27.52-65.852,27.52-65.852-27.786,64.588-28.178,65.513-.306,1.147-.125,1.24" transform="translate(-213.872 -147.661)" fill="#a5d2f1"/>
                  <path id="Path_109421" data-name="Path 109421" d="M655.154,155.166c.183.093.388.034.762-.84S681.993,92.25,681.993,92.25s-26.367,60.865-26.74,61.739-.283,1.084-.1,1.178" transform="translate(-260.024 -36.957)" fill="#a5d2f1"/>
                  <path id="Path_109422" data-name="Path 109422" d="M679.5,266.788c.182.093.386.034.757-.84s25.919-62.077,25.919-62.077S679.966,264.738,679.6,265.61s-.28,1.085-.1,1.178" transform="translate(-269.689 -81.675)" fill="#a5d2f1"/>
                  <path id="Path_109423" data-name="Path 109423" d="M674.246,514.493a.332.332,0,0,0,.19.494c.182.094.348.125.467-.157s8.127-20.112,8.127-20.112-8.667,19.494-8.785,19.775" transform="translate(-267.648 -198.193)" fill="#a5d2f1"/>
                  <path id="Path_109424" data-name="Path 109424" d="M594.419,397.472c.182.093.347.125.467-.157s8.128-20.113,8.128-20.113-8.666,19.494-8.785,19.776a.332.332,0,0,0,.191.494" transform="translate(-235.882 -151.114)" fill="#a5d2f1"/>
                  <path id="Path_109425" data-name="Path 109425" d="M594.272,509.01c.181.094.347.126.466-.157s8.129-20.112,8.129-20.112-8.667,19.494-8.786,19.775a.332.332,0,0,0,.191.494" transform="translate(-235.823 -195.799)" fill="#a5d2f1"/>
                  <path id="Path_109426" data-name="Path 109426" d="M603.815,442.182c-.191.452-.071.6.114.694s.366.1.556-.35S617.7,410.388,617.7,410.388s-13.7,31.343-13.889,31.794" transform="translate(-239.668 -164.409)" fill="#a5d2f1"/>
                  <path id="Path_109427" data-name="Path 109427" d="M650.732,469.871c-.192.452-.071.6.115.693s.365.1.555-.35,13.219-32.138,13.219-32.138-13.7,31.343-13.889,31.795" transform="translate(-258.293 -175.502)" fill="#a5d2f1"/>
                  <path id="Path_109428" data-name="Path 109428" d="M584.514,438.648c.182.093.348.125.466-.158s8.129-20.113,8.129-20.113-8.667,19.495-8.786,19.776a.333.333,0,0,0,.191.495" transform="translate(-231.95 -167.61)" fill="#a5d2f1"/>
                  <path id="Path_109429" data-name="Path 109429" d="M547.616,478.375c.209.108.412.114.629-.4s14.974-36.4,14.974-36.4-9.114,20.859-13.468,30.831c3.24-7.872,12.042-29.281,12.042-29.281s-13.7,31.343-13.889,31.794-.072.6.114.694a.281.281,0,0,0,.339-.011c-.522,1.195-.838,1.92-.867,1.989-.216.512-.081.678.127.785" transform="translate(-217.302 -176.903)" fill="#a5d2f1"/>
                  <path id="Path_109430" data-name="Path 109430" d="M624.007,429.081c.209.108.412.114.628-.4s14.975-36.4,14.975-36.4-15.514,35.5-15.731,36.016-.082.678.127.785" transform="translate(-247.628 -157.155)" fill="#a5d2f1"/>
                  <path id="Path_109431" data-name="Path 109431" d="M777.762,173.927C737.3,267.979,684.325,391.15,683.12,393.991c-1.954,4.61-1.526,5.7-.621,6.163s1.939.125,3.893-4.484c1.194-2.815,52-124.394,91.358-218.589Z" transform="translate(-270.64 -69.678)" fill="#a5d2f1"/>
                  <path id="Path_109432" data-name="Path 109432" d="M723.425,460.664c-.9,2.118-.7,2.619-.287,2.833s.892.056,1.789-2.062,62.9-150.517,62.9-150.517-63.509,147.628-64.406,149.746" transform="translate(-286.937 -124.56)" fill="#a5d2f1"/>
                  <path id="Path_109433" data-name="Path 109433" d="M704.544,294.213l10.81-25.921s-22.1,51.273-22.413,52.01-.229.92-.066,1,.347.038.657-.7c.133-.31,4.036-9.667,8.5-20.382-.32,1.074-.132,1.4.183,1.566.416.212.892.056,1.79-2.062s62.9-150.517,62.9-150.517-51.394,119.467-62.369,145" transform="translate(-275.004 -59.777)" fill="#a5d2f1"/>
                  <path id="Path_109434" data-name="Path 109434" d="M818.987,360.421c.416.213.892.056,1.79-2.062.233-.551,4.6-11,10.94-26.164l.014-3.584c-7.165,16.659-12.209,28.391-12.457,28.977-.9,2.118-.7,2.62-.287,2.833" transform="translate(-324.988 -131.648)" fill="#a5d2f1"/>
                  <path id="Path_109435" data-name="Path 109435" d="M764.445,507.688c-.393.928-.306,1.145-.124,1.239s.388.025.783-.9,27.519-65.851,27.519-65.851-27.785,64.588-28.178,65.513" transform="translate(-303.364 -177.144)" fill="#a5d2f1"/>
                  <path id="Path_109436" data-name="Path 109436" d="M761.739,270.532c.182.093.386.034.757-.841s25.919-62.076,25.919-62.076-26.207,60.866-26.577,61.739-.281,1.085-.1,1.178" transform="translate(-302.337 -83.174)" fill="#a5d2f1"/>
                  <path id="Path_109437" data-name="Path 109437" d="M673.262,419.78c.182.093.39.025.783-.9s27.52-65.85,27.52-65.85-27.786,64.587-28.178,65.513-.306,1.146-.125,1.239" transform="translate(-267.215 -141.43)" fill="#a5d2f1"/>
                  <path id="Path_109438" data-name="Path 109438" d="M788.747,142.441c-.373.874-.283,1.085-.1,1.178s.388.034.762-.84S815.486,80.7,815.486,80.7s-26.367,60.866-26.739,61.739" transform="translate(-313.019 -32.331)" fill="#a5d2f1"/>
                  <path id="Path_109439" data-name="Path 109439" d="M812.936,269.159c.217-.513,9.1-21.795,16.41-39.3l0-.7c-7.539,17.512-16.851,39.141-17.071,39.659-.371.874-.28,1.085-.1,1.178s.386.034.757-.84" transform="translate(-322.361 -91.807)" fill="#a5d2f1"/>
                  <path id="Path_109440" data-name="Path 109440" d="M808.806,499.433c.182.093.347.125.466-.157s8.128-20.113,8.128-20.113-8.667,19.494-8.785,19.775a.332.332,0,0,0,.191.495" transform="translate(-320.99 -191.962)" fill="#a5d2f1"/>
                  <path id="Path_109441" data-name="Path 109441" d="M728.6,381.423a.332.332,0,0,0,.191.494c.182.094.348.125.467-.156s8.127-20.114,8.127-20.114-8.667,19.495-8.785,19.776" transform="translate(-289.225 -144.883)" fill="#a5d2f1"/>
                  <path id="Path_109442" data-name="Path 109442" d="M728.641,493.457c.182.093.347.125.466-.157s8.128-20.113,8.128-20.113-8.666,19.494-8.785,19.776a.332.332,0,0,0,.191.494" transform="translate(-289.166 -189.568)" fill="#a5d2f1"/>
                  <path id="Path_109443" data-name="Path 109443" d="M738.3,427.322c.186.1.365.1.555-.349s13.219-32.139,13.219-32.139-13.7,31.343-13.889,31.8-.072.6.115.693" transform="translate(-293.011 -158.178)" fill="#a5d2f1"/>
                  <path id="Path_109444" data-name="Path 109444" d="M785.217,455.01c.186.095.365.1.556-.349s13.219-32.139,13.219-32.139-13.7,31.343-13.889,31.795-.072.6.114.694" transform="translate(-311.636 -169.27)" fill="#a5d2f1"/>
                  <path id="Path_109445" data-name="Path 109445" d="M718.884,423.094c.181.094.347.125.466-.157s8.128-20.113,8.128-20.113-8.665,19.494-8.785,19.776a.331.331,0,0,0,.191.494" transform="translate(-285.293 -161.379)" fill="#a5d2f1"/>
                  <path id="Path_109446" data-name="Path 109446" d="M681.986,462.822c.209.107.412.115.628-.4s14.975-36.4,14.975-36.4-15.514,35.5-15.73,36.016-.081.678.127.785" transform="translate(-270.645 -170.672)" fill="#a5d2f1"/>
                  <path id="Path_109447" data-name="Path 109447" d="M758.377,413.528c.209.107.412.113.628-.4s14.975-36.4,14.975-36.4-15.513,35.5-15.731,36.015-.081.679.128.786" transform="translate(-300.971 -150.924)" fill="#a5d2f1"/>
                  <path id="Path_109448" data-name="Path 109448" d="M.263,436.092v.081l1.178-2.82s-.425.985-1.178,2.739" transform="translate(-0.104 -173.609)" fill="#e0f0fb"/>
                  <path id="Path_109449" data-name="Path 109449" d="M.571,537.517,6.1,524.288.57,537.14Z" transform="translate(-0.226 -210.04)" fill="#e0f0fb"/>
                  <path id="Path_109450" data-name="Path 109450" d="M78.5,378.329c-.227.536-.177.662-.073.716s.226.014.452-.521,15.894-38.031,15.894-38.031-16.047,37.3-16.273,37.836" transform="translate(-31.098 -136.408)" fill="#e0f0fb"/>
                  <path id="Path_109451" data-name="Path 109451" d="M23.192,565.975c.045.023.1.008.2-.228s6.954-16.639,6.954-16.639-7.021,16.32-7.12,16.554-.077.289-.031.312" transform="translate(-9.192 -219.983)" fill="#e0f0fb"/>
                  <path id="Path_109452" data-name="Path 109452" d="M28.692,306.491c.045.023.1.009.191-.212s6.551-15.685,6.551-15.685-6.622,15.379-6.716,15.6-.071.274-.025.3" transform="translate(-11.374 -116.417)" fill="#e0f0fb"/>
                  <path id="Path_109453" data-name="Path 109453" d="M51.139,179.281c-.093.221-.071.274-.024.3s.1.009.191-.212,6.59-15.685,6.59-15.685-6.663,15.379-6.757,15.6" transform="translate(-20.276 -65.574)" fill="#e0f0fb"/>
                  <path id="Path_109454" data-name="Path 109454" d="M79.132,291.2c.045.023.1.009.191-.212S85.873,275.3,85.873,275.3s-6.623,15.379-6.717,15.6-.071.274-.024.3" transform="translate(-31.398 -110.292)" fill="#e0f0fb"/>
                  <path id="Path_109455" data-name="Path 109455" d="M67.518,533.5a.084.084,0,0,0,.048.125c.046.023.088.032.118-.04s2.054-5.083,2.054-5.083l-2.22,5" transform="translate(-26.799 -211.727)" fill="#e0f0fb"/>
                  <path id="Path_109456" data-name="Path 109456" d="M.34,462.843v.22l1.542-3.752L.34,462.843" transform="translate(-0.135 -184.009)" fill="#e0f0fb"/>
                  <path id="Path_109457" data-name="Path 109457" d="M44.007,495.209c.048.025.093.026.141-.088S47.489,487,47.489,487l-3.51,8.034c-.048.114-.018.151.028.175" transform="translate(-17.449 -195.101)" fill="#e0f0fb"/>
                  <path id="Path_109458" data-name="Path 109458" d="M86.072,435.371c-.08.186-.058.232-.017.254s.088.01.166-.177,5.514-13.219,5.514-13.219-5.585,12.956-5.663,13.142" transform="translate(-34.148 -169.153)" fill="#e0f0fb"/>
                  <path id="Path_109459" data-name="Path 109459" d="M17.181,455.658c-.054.129-.02.171.032.2s.1.029.159-.1,3.783-9.2,3.783-9.2-3.918,8.971-3.974,9.1" transform="translate(-6.81 -178.899)" fill="#e0f0fb"/>
                  <path id="Path_109460" data-name="Path 109460" d="M68.44,562.376c.1.054.226.015.452-.52s15.894-38.033,15.894-38.033-16.046,37.3-16.273,37.837-.177.662-.072.716" transform="translate(-27.135 -209.854)" fill="#e0f0fb"/>
                  <path id="Path_109461" data-name="Path 109461" d="M53.612,399.954c-.227.537-.177.662-.073.716s.226.016.453-.52,15.894-38.032,15.894-38.032-16.047,37.3-16.274,37.836" transform="translate(-21.219 -145.071)" fill="#e0f0fb"/>
                  <path id="Path_109462" data-name="Path 109462" d="M164.362,377.865c-.227.536-.178.662-.073.716s.226.015.452-.52,15.894-38.033,15.894-38.033-16.047,37.3-16.273,37.837" transform="translate(-65.186 -136.222)" fill="#e0f0fb"/>
                  <path id="Path_109463" data-name="Path 109463" d="M109.059,565.511c.045.023.1.007.2-.228s6.954-16.639,6.954-16.639-7.021,16.32-7.12,16.554-.077.289-.03.312" transform="translate(-43.279 -219.797)" fill="#e0f0fb"/>
                  <path id="Path_109464" data-name="Path 109464" d="M113.668,308.14c.045.023.1.009.191-.212s6.551-15.686,6.551-15.686-6.622,15.379-6.716,15.6-.071.274-.025.3" transform="translate(-45.109 -117.078)" fill="#e0f0fb"/>
                  <path id="Path_109465" data-name="Path 109465" d="M18.031,476.051c-.1.234-.077.288-.031.312s.1.007.2-.227S25.151,459.5,25.151,459.5s-7.021,16.319-7.12,16.554" transform="translate(-7.13 -184.083)" fill="#e0f0fb"/>
                  <path id="Path_109466" data-name="Path 109466" d="M136.611,181.227c.045.024.1.009.192-.212s6.59-15.685,6.59-15.685l-6.758,15.6c-.093.221-.071.274-.024.3" transform="translate(-54.217 -66.234)" fill="#e0f0fb"/>
                  <path id="Path_109467" data-name="Path 109467" d="M164.3,292.639c.094-.221,6.551-15.685,6.551-15.685s-6.623,15.379-6.716,15.6-.071.274-.025.3.1.008.191-.212" transform="translate(-65.133 -110.953)" fill="#e0f0fb"/>
                  <path id="Path_109468" data-name="Path 109468" d="M153.433,533.16c.046.023.088.032.118-.04s2.054-5.083,2.054-5.083l-2.22,5a.086.086,0,0,0,.048.126" transform="translate(-60.887 -211.542)" fill="#e0f0fb"/>
                  <path id="Path_109469" data-name="Path 109469" d="M73.368,415.52a.084.084,0,0,0,.048.125c.046.023.088.032.118-.039s2.054-5.083,2.054-5.083l-2.22,5" transform="translate(-29.121 -164.463)" fill="#e0f0fb"/>
                  <path id="Path_109470" data-name="Path 109470" d="M73.268,527.183c.046.023.088.032.118-.04s2.054-5.083,2.054-5.083l-2.22,5a.085.085,0,0,0,.048.125" transform="translate(-29.063 -209.148)" fill="#e0f0fb"/>
                  <path id="Path_109471" data-name="Path 109471" d="M82.956,467.058c.048.023.093.026.141-.088s3.34-8.123,3.34-8.123-3.461,7.921-3.51,8.035-.018.151.028.176" transform="translate(-32.911 -183.823)" fill="#e0f0fb"/>
                  <path id="Path_109472" data-name="Path 109472" d="M129.873,494.745c.048.025.093.026.141-.087s3.34-8.122,3.34-8.122l-3.51,8.035c-.048.113-.017.15.029.174" transform="translate(-51.537 -194.916)" fill="#e0f0fb"/>
                  <path id="Path_109473" data-name="Path 109473" d="M171.92,435.162c.043.02.088.009.166-.177s5.514-13.219,5.514-13.219-5.584,12.957-5.663,13.141-.058.232-.017.255" transform="translate(-68.236 -168.967)" fill="#e0f0fb"/>
                  <path id="Path_109474" data-name="Path 109474" d="M63.511,456.821c.046.023.088.032.118-.04s2.054-5.083,2.054-5.083l-2.22,5a.085.085,0,0,0,.048.125" transform="translate(-25.189 -180.959)" fill="#e0f0fb"/>
                  <path id="Path_109475" data-name="Path 109475" d="M26.689,504.686c.053.027.1.029.159-.1s3.785-9.2,3.785-9.2-3.919,8.972-3.975,9.1-.02.171.032.2" transform="translate(-10.572 -198.461)" fill="#e0f0fb"/>
                  <path id="Path_109476" data-name="Path 109476" d="M103.047,455.194c-.055.129-.02.171.032.2s.1.029.158-.1,3.784-9.2,3.784-9.2-3.918,8.972-3.974,9.1" transform="translate(-40.897 -178.713)" fill="#e0f0fb"/>
                  <path id="Path_109477" data-name="Path 109477" d="M178.471,504.466c-.493,1.165-.384,1.44-.156,1.558s.49.03.983-1.134,34.58-82.746,34.58-82.746-34.915,81.157-35.408,82.321" transform="translate(-70.712 -169.119)" fill="#e0f0fb"/>
                  <path id="Path_109478" data-name="Path 109478" d="M217.776,551.634c.1.053.226.014.452-.52s15.893-38.033,15.893-38.033-16.046,37.3-16.273,37.837-.177.661-.072.716" transform="translate(-86.419 -205.55)" fill="#e0f0fb"/>
                  <path id="Path_109479" data-name="Path 109479" d="M202.876,389.928c.1.053.226.014.452-.52s15.894-38.033,15.894-38.033-16.047,37.3-16.274,37.837-.177.662-.072.716" transform="translate(-80.504 -140.767)" fill="#e0f0fb"/>
                  <path id="Path_109480" data-name="Path 109480" d="M313.7,367.123c-.227.537-.177.662-.072.716s.226.016.452-.52,15.894-38.033,15.894-38.033-16.047,37.3-16.273,37.836" transform="translate(-124.47 -131.918)" fill="#e0f0fb"/>
                  <path id="Path_109481" data-name="Path 109481" d="M258.394,554.769c.045.023.1.007.2-.229s6.955-16.638,6.955-16.638-7.021,16.32-7.121,16.554-.077.289-.031.313" transform="translate(-102.564 -215.494)" fill="#e0f0fb"/>
                  <path id="Path_109482" data-name="Path 109482" d="M247.513,333.269c-.1.235-.077.29-.031.313s.1.007.2-.228,6.955-16.639,6.955-16.639-7.021,16.319-7.121,16.554" transform="translate(-98.232 -126.882)" fill="#e0f0fb"/>
                  <path id="Path_109483" data-name="Path 109483" d="M167.367,465.308c-.1.234-.078.289-.031.312s.1.007.2-.227,6.955-16.639,6.955-16.639-7.021,16.32-7.12,16.554" transform="translate(-66.414 -179.779)" fill="#e0f0fb"/>
                  <path id="Path_109484" data-name="Path 109484" d="M274.181,199.741c.045.023.1.007.2-.228s7-16.639,7-16.639-7.064,16.32-7.164,16.554-.078.289-.031.313" transform="translate(-108.831 -73.263)" fill="#e0f0fb"/>
                  <path id="Path_109485" data-name="Path 109485" d="M298.794,316.223c.045.023.1.007.2-.228s6.955-16.64,6.955-16.64-7.021,16.321-7.121,16.554-.077.29-.031.313" transform="translate(-118.602 -119.927)" fill="#e0f0fb"/>
                  <path id="Path_109486" data-name="Path 109486" d="M302.769,522.418c.046.023.088.032.118-.04s2.055-5.082,2.055-5.082-2.19,4.926-2.22,5a.084.084,0,0,0,.048.125" transform="translate(-120.171 -207.239)" fill="#e0f0fb"/>
                  <path id="Path_109487" data-name="Path 109487" d="M222.752,404.9c.046.023.088.032.118-.039s2.054-5.083,2.054-5.083l-2.22,5a.084.084,0,0,0,.048.125" transform="translate(-88.406 -160.159)" fill="#e0f0fb"/>
                  <path id="Path_109488" data-name="Path 109488" d="M222.6,516.44c.046.023.088.032.118-.04s2.054-5.083,2.054-5.083l-2.22,5a.084.084,0,0,0,.048.125" transform="translate(-88.347 -204.844)" fill="#e0f0fb"/>
                  <path id="Path_109489" data-name="Path 109489" d="M232.292,456.316c.048.024.093.025.141-.088s3.34-8.122,3.34-8.122-3.461,7.921-3.51,8.034-.018.151.028.176" transform="translate(-92.196 -179.52)" fill="#e0f0fb"/>
                  <path id="Path_109490" data-name="Path 109490" d="M279.209,484c.048.025.094.026.141-.087s3.34-8.122,3.34-8.122l-3.509,8.034c-.048.114-.018.152.028.175" transform="translate(-110.821 -190.612)" fill="#e0f0fb"/>
                  <path id="Path_109491" data-name="Path 109491" d="M321.275,424.165c-.079.186-.058.232-.017.255s.089.008.166-.177,5.515-13.219,5.515-13.219-5.584,12.957-5.663,13.142" transform="translate(-127.52 -164.664)" fill="#e0f0fb"/>
                  <path id="Path_109492" data-name="Path 109492" d="M212.847,446.079c.046.023.088.032.118-.04s2.054-5.082,2.054-5.082l-2.22,5a.084.084,0,0,0,.048.125" transform="translate(-84.474 -176.656)" fill="#e0f0fb"/>
                  <path id="Path_109493" data-name="Path 109493" d="M175.993,493.746c-.055.129-.02.171.032.2s.1.03.159-.1,3.784-9.2,3.784-9.2-3.919,8.972-3.974,9.1" transform="translate(-69.856 -194.158)" fill="#e0f0fb"/>
                  <path id="Path_109494" data-name="Path 109494" d="M252.383,444.451c-.054.129-.02.171.032.2s.1.03.158-.1,3.784-9.2,3.784-9.2-3.918,8.972-3.974,9.1" transform="translate(-100.182 -174.409)" fill="#e0f0fb"/>
                  <path id="Path_109495" data-name="Path 109495" d="M333.522,509.159c-.493,1.164-.384,1.44-.156,1.558s.491.03.983-1.133,34.581-82.746,34.581-82.746S334.015,508,333.522,509.159" transform="translate(-132.265 -170.999)" fill="#e0f0fb"/>
                  <path id="Path_109496" data-name="Path 109496" d="M372.827,556.327c.1.053.225.014.452-.52s15.894-38.032,15.894-38.032-16.047,37.3-16.274,37.837-.177.661-.072.716" transform="translate(-147.972 -207.43)" fill="#e0f0fb"/>
                  <path id="Path_109497" data-name="Path 109497" d="M357.927,394.621c.1.053.226.014.452-.52s15.894-38.033,15.894-38.033-16.047,37.3-16.273,37.837-.177.661-.073.716" transform="translate(-142.057 -142.648)" fill="#e0f0fb"/>
                  <path id="Path_109498" data-name="Path 109498" d="M468.677,372.532c.1.055.225.016.452-.519s15.894-38.033,15.894-38.033-16.046,37.3-16.273,37.837-.178.662-.072.715" transform="translate(-186.023 -133.799)" fill="#e0f0fb"/>
                  <path id="Path_109499" data-name="Path 109499" d="M413.446,559.462c.046.023.1.007.2-.228s6.954-16.639,6.954-16.639-7.021,16.32-7.121,16.554-.077.289-.031.313" transform="translate(-164.117 -217.374)" fill="#e0f0fb"/>
                  <path id="Path_109500" data-name="Path 109500" d="M414.81,309.791c.045.024.1.009.191-.212s6.55-15.685,6.55-15.685-6.622,15.379-6.716,15.6-.071.274-.024.3" transform="translate(-164.658 -117.739)" fill="#e0f0fb"/>
                  <path id="Path_109501" data-name="Path 109501" d="M322.418,470c-.1.234-.078.289-.031.312s.1.007.2-.227,6.955-16.639,6.955-16.639-7.021,16.319-7.12,16.554" transform="translate(-127.968 -181.66)" fill="#e0f0fb"/>
                  <path id="Path_109502" data-name="Path 109502" d="M439.6,182.877c.045.023.1.009.191-.212s6.59-15.685,6.59-15.685-6.663,15.379-6.757,15.6-.071.274-.024.3" transform="translate(-174.498 -66.895)" fill="#e0f0fb"/>
                  <path id="Path_109503" data-name="Path 109503" d="M465.25,294.5c.045.024.1.009.191-.212s6.551-15.685,6.551-15.685-6.623,15.379-6.716,15.6-.071.274-.025.3" transform="translate(-184.682 -111.614)" fill="#e0f0fb"/>
                  <path id="Path_109504" data-name="Path 109504" d="M457.938,527.071c.031-.071,2.053-5.082,2.053-5.082s-2.188,4.926-2.219,5a.084.084,0,0,0,.048.125c.046.023.088.032.118-.04" transform="translate(-181.725 -209.119)" fill="#e0f0fb"/>
                  <path id="Path_109505" data-name="Path 109505" d="M377.8,409.6c.046.023.088.032.118-.04s2.054-5.083,2.054-5.083l-2.22,5a.085.085,0,0,0,.048.125" transform="translate(-149.959 -162.04)" fill="#e0f0fb"/>
                  <path id="Path_109506" data-name="Path 109506" d="M377.655,521.133c.046.023.088.032.118-.04s2.054-5.083,2.054-5.083l-2.22,5a.085.085,0,0,0,.048.125" transform="translate(-149.9 -206.724)" fill="#e0f0fb"/>
                  <path id="Path_109507" data-name="Path 109507" d="M387.343,461.01c.048.023.093.025.141-.089s3.34-8.121,3.34-8.121-3.461,7.921-3.51,8.034-.018.151.028.176" transform="translate(-153.749 -181.4)" fill="#e0f0fb"/>
                  <path id="Path_109508" data-name="Path 109508" d="M434.26,488.7c.048.025.094.026.142-.088s3.34-8.121,3.34-8.121-3.461,7.921-3.509,8.034-.018.151.028.175" transform="translate(-172.374 -192.492)" fill="#e0f0fb"/>
                  <path id="Path_109509" data-name="Path 109509" d="M476.326,428.858c-.079.186-.059.232-.017.254s.088.009.166-.177,5.514-13.219,5.514-13.219-5.584,12.956-5.662,13.142" transform="translate(-189.073 -166.544)" fill="#e0f0fb"/>
                  <path id="Path_109510" data-name="Path 109510" d="M367.9,450.772c.046.023.087.032.117-.039s2.054-5.083,2.054-5.083l-2.22,5a.084.084,0,0,0,.049.125" transform="translate(-146.027 -178.536)" fill="#e0f0fb"/>
                  <path id="Path_109511" data-name="Path 109511" d="M331.044,498.439c-.055.129-.021.171.031.2s.1.029.158-.1,3.785-9.2,3.785-9.2-3.919,8.973-3.974,9.1" transform="translate(-131.409 -196.038)" fill="#e0f0fb"/>
                  <path id="Path_109512" data-name="Path 109512" d="M407.434,449.144c-.054.129-.019.172.033.2s.1.029.158-.1,3.784-9.2,3.784-9.2l-3.974,9.1" transform="translate(-161.735 -176.29)" fill="#e0f0fb"/>
                  <path id="Path_109513" data-name="Path 109513" d="M447.917,513.162c-.493,1.164-.385,1.44-.157,1.557s.491.031.984-1.133,34.582-82.746,34.582-82.746S448.411,512,447.917,513.162" transform="translate(-177.678 -172.602)" fill="#e0f0fb"/>
                  <path id="Path_109514" data-name="Path 109514" d="M487.223,560.329c.1.055.225.016.452-.52s15.894-38.032,15.894-38.032-16.046,37.3-16.273,37.837-.177.662-.072.715" transform="translate(-193.386 -209.034)" fill="#e0f0fb"/>
                  <path id="Path_109515" data-name="Path 109515" d="M472.394,397.907c-.227.536-.177.662-.072.715s.226.016.452-.52,15.893-38.031,15.893-38.031-16.046,37.3-16.273,37.836" transform="translate(-187.47 -144.251)" fill="#e0f0fb"/>
                  <path id="Path_109516" data-name="Path 109516" d="M583.144,375.818c-.227.536-.178.662-.072.715s.225.015.452-.52,15.894-38.032,15.894-38.032-16.046,37.3-16.273,37.837" transform="translate(-231.436 -135.402)" fill="#e0f0fb"/>
                  <path id="Path_109517" data-name="Path 109517" d="M527.842,563.463c.046.024.1.007.2-.227s6.955-16.639,6.955-16.639-7.02,16.319-7.12,16.554-.077.29-.031.312" transform="translate(-209.531 -218.977)" fill="#e0f0fb"/>
                  <path id="Path_109518" data-name="Path 109518" d="M516.959,341.964c-.1.234-.077.289-.031.312s.1.007.2-.227,6.955-16.639,6.955-16.639-7.022,16.32-7.121,16.554" transform="translate(-205.198 -130.365)" fill="#e0f0fb"/>
                  <path id="Path_109519" data-name="Path 109519" d="M436.782,474.317c.045.024.1.007.2-.227s6.955-16.639,6.955-16.639-7.021,16.319-7.12,16.554-.077.289-.031.313" transform="translate(-173.381 -183.263)" fill="#e0f0fb"/>
                  <path id="Path_109520" data-name="Path 109520" d="M553.591,189.476c.045.023.1.008.191-.212s6.59-15.685,6.59-15.685-6.663,15.379-6.757,15.6-.071.274-.024.3" transform="translate(-219.752 -69.539)" fill="#e0f0fb"/>
                  <path id="Path_109521" data-name="Path 109521" d="M578.551,301.1c.045.023.1.008.191-.212s6.551-15.686,6.551-15.686-6.623,15.38-6.716,15.6-.071.273-.025.3" transform="translate(-229.661 -114.257)" fill="#e0f0fb"/>
                  <path id="Path_109522" data-name="Path 109522" d="M572.215,531.112c.046.023.088.032.118-.04s2.054-5.083,2.054-5.083l-2.22,5a.085.085,0,0,0,.049.125" transform="translate(-227.137 -210.721)" fill="#e0f0fb"/>
                  <path id="Path_109523" data-name="Path 109523" d="M492.2,413.6c.046.023.089.032.118-.039s2.054-5.083,2.054-5.083l-2.22,5a.084.084,0,0,0,.048.124" transform="translate(-195.372 -163.643)" fill="#e0f0fb"/>
                  <path id="Path_109524" data-name="Path 109524" d="M492.05,525.135c.047.023.088.032.118-.039s2.054-5.083,2.054-5.083-2.19,4.926-2.22,5a.085.085,0,0,0,.048.125" transform="translate(-195.314 -208.327)" fill="#e0f0fb"/>
                  <path id="Path_109525" data-name="Path 109525" d="M501.739,465.01c.047.025.093.026.141-.087s3.34-8.122,3.34-8.122-3.461,7.921-3.509,8.035-.018.151.028.174" transform="translate(-199.162 -183.003)" fill="#e0f0fb"/>
                  <path id="Path_109526" data-name="Path 109526" d="M548.656,492.7c.048.023.094.026.141-.088s3.34-8.122,3.34-8.122-3.461,7.92-3.51,8.034-.018.15.029.175" transform="translate(-217.788 -194.096)" fill="#e0f0fb"/>
                  <path id="Path_109527" data-name="Path 109527" d="M590.72,432.86c-.078.186-.057.232-.018.254s.089.008.166-.177,5.515-13.22,5.515-13.22-5.584,12.957-5.663,13.143" transform="translate(-234.487 -168.147)" fill="#e0f0fb"/>
                  <path id="Path_109528" data-name="Path 109528" d="M482.411,454.734c.031-.071,2.055-5.082,2.055-5.082l-2.22,5a.084.084,0,0,0,.048.125c.046.024.088.032.118-.04" transform="translate(-191.44 -180.139)" fill="#e0f0fb"/>
                  <path id="Path_109529" data-name="Path 109529" d="M445.439,502.441c-.054.129-.02.171.032.2s.1.029.159-.1,3.784-9.2,3.784-9.2-3.918,8.972-3.974,9.1" transform="translate(-176.822 -197.641)" fill="#e0f0fb"/>
                  <path id="Path_109530" data-name="Path 109530" d="M521.829,453.147c-.054.128-.019.17.032.2s.1.029.159-.1,3.783-9.2,3.783-9.2l-3.974,9.1" transform="translate(-207.148 -177.893)" fill="#e0f0fb"/>
                  <path id="Path_109531" data-name="Path 109531" d="M589.772,554.245c.1.055.225.016.451-.52s15.894-38.032,15.894-38.032-16.046,37.3-16.273,37.836-.177.662-.072.715" transform="translate(-234.096 -206.596)" fill="#e0f0fb"/>
                  <path id="Path_109532" data-name="Path 109532" d="M574.87,392.538c.1.055.226.016.453-.52s15.892-38.031,15.892-38.031-16.046,37.3-16.273,37.836-.177.662-.072.715" transform="translate(-228.181 -141.814)" fill="#e0f0fb"/>
                  <path id="Path_109533" data-name="Path 109533" d="M685.62,370.45c.1.055.226.015.452-.52S701.965,331.9,701.965,331.9s-16.046,37.3-16.273,37.837-.178.662-.072.714" transform="translate(-272.147 -132.965)" fill="#e0f0fb"/>
                  <path id="Path_109534" data-name="Path 109534" d="M630.39,557.379c.045.024.1.007.2-.227s6.954-16.639,6.954-16.639-7.02,16.319-7.12,16.555-.077.289-.03.312" transform="translate(-250.241 -216.539)" fill="#e0f0fb"/>
                  <path id="Path_109535" data-name="Path 109535" d="M629.486,313.09c.045.023.1.009.19-.212s6.551-15.685,6.551-15.685-6.622,15.38-6.716,15.6-.071.274-.024.3" transform="translate(-249.881 -119.061)" fill="#e0f0fb"/>
                  <path id="Path_109536" data-name="Path 109536" d="M539.331,468.233c.045.024.1.007.2-.227s6.955-16.639,6.955-16.639-7.021,16.319-7.12,16.554-.077.289-.031.313" transform="translate(-214.092 -180.826)" fill="#e0f0fb"/>
                  <path id="Path_109537" data-name="Path 109537" d="M655.586,186.177c.045.023.1.008.191-.212s6.59-15.685,6.59-15.685-6.663,15.379-6.757,15.6-.071.273-.024.3" transform="translate(-260.242 -68.217)" fill="#e0f0fb"/>
                  <path id="Path_109538" data-name="Path 109538" d="M679.926,297.8c.045.023.1.008.191-.213s6.551-15.685,6.551-15.685-6.623,15.38-6.716,15.6-.071.274-.025.3" transform="translate(-269.905 -112.936)" fill="#e0f0fb"/>
                  <path id="Path_109539" data-name="Path 109539" d="M674.763,525.028c.046.023.088.032.117-.04s2.054-5.083,2.054-5.083-2.19,4.927-2.22,5a.085.085,0,0,0,.048.125" transform="translate(-267.848 -208.284)" fill="#e0f0fb"/>
                  <path id="Path_109540" data-name="Path 109540" d="M594.865,407.474c.031-.071,2.053-5.082,2.053-5.082l-2.22,5a.084.084,0,0,0,.048.124c.046.024.088.032.118-.039" transform="translate(-236.083 -161.206)" fill="#e0f0fb"/>
                  <path id="Path_109541" data-name="Path 109541" d="M594.6,519.051c.046.023.088.031.118-.039s2.054-5.083,2.054-5.083l-2.22,5a.085.085,0,0,0,.048.125" transform="translate(-236.024 -205.89)" fill="#e0f0fb"/>
                  <path id="Path_109542" data-name="Path 109542" d="M604.287,458.927c.047.025.093.026.141-.087s3.34-8.121,3.34-8.121-3.461,7.921-3.509,8.034-.018.151.028.174" transform="translate(-239.873 -180.566)" fill="#e0f0fb"/>
                  <path id="Path_109543" data-name="Path 109543" d="M651.2,486.614c.048.023.093.026.14-.087s3.341-8.122,3.341-8.122l-3.51,8.034c-.047.113-.018.151.029.175" transform="translate(-258.498 -191.658)" fill="#e0f0fb"/>
                  <path id="Path_109544" data-name="Path 109544" d="M693.252,427.03c.042.02.088.009.165-.177s5.515-13.22,5.515-13.22-5.584,12.957-5.663,13.143-.057.232-.017.254" transform="translate(-275.197 -165.709)" fill="#e0f0fb"/>
                  <path id="Path_109545" data-name="Path 109545" d="M584.842,448.689c.046.024.088.032.118-.04s2.054-5.083,2.054-5.083-2.189,4.927-2.221,5a.085.085,0,0,0,.049.125" transform="translate(-232.15 -177.701)" fill="#e0f0fb"/>
                  <path id="Path_109546" data-name="Path 109546" d="M548.02,496.555c.053.027.1.029.159-.1s3.784-9.2,3.784-9.2-3.919,8.972-3.975,9.1-.02.171.033.2" transform="translate(-217.532 -195.204)" fill="#e0f0fb"/>
                  <path id="Path_109547" data-name="Path 109547" d="M624.377,447.063c-.054.128-.019.17.032.2s.1.029.158-.1,3.784-9.2,3.784-9.2l-3.974,9.1" transform="translate(-247.859 -175.455)" fill="#e0f0fb"/>
                  <path id="Path_109548" data-name="Path 109548" d="M684.835,491.524c-.493,1.165-.385,1.44-.156,1.557s.491.031.983-1.133S720.244,409.2,720.244,409.2s-34.915,81.158-35.409,82.322" transform="translate(-271.732 -163.934)" fill="#e0f0fb"/>
                  <path id="Path_109549" data-name="Path 109549" d="M724.141,538.691c.1.054.225.015.452-.52s15.894-38.032,15.894-38.032-16.047,37.3-16.273,37.837-.178.661-.072.715" transform="translate(-287.439 -200.365)" fill="#e0f0fb"/>
                  <path id="Path_109550" data-name="Path 109550" d="M709.312,376.269c-.226.536-.177.662-.072.716s.226.015.452-.521,15.893-38.031,15.893-38.031-16.046,37.3-16.273,37.837" transform="translate(-281.524 -135.582)" fill="#e0f0fb"/>
                  <path id="Path_109551" data-name="Path 109551" d="M820.062,360.569c-.227.535-.178.662-.073.715s.225.016.452-.52c.151-.357,7.122-17.04,11.781-28.189v-.285c-4.77,11.091-12.01,27.92-12.161,28.279" transform="translate(-325.489 -133.122)" fill="#e0f0fb"/>
                  <path id="Path_109552" data-name="Path 109552" d="M764.759,541.825c.046.023.1.007.2-.228s6.955-16.639,6.955-16.639-7.021,16.319-7.12,16.554-.078.289-.032.312" transform="translate(-303.584 -210.308)" fill="#e0f0fb"/>
                  <path id="Path_109553" data-name="Path 109553" d="M762.167,301.543c.045.023.1.008.191-.212s6.55-15.685,6.55-15.685-6.623,15.38-6.717,15.6-.071.273-.024.3" transform="translate(-302.554 -114.435)" fill="#e0f0fb"/>
                  <path id="Path_109554" data-name="Path 109554" d="M673.732,452.365c-.1.234-.077.29-.031.312s.1.007.2-.227,6.956-16.639,6.956-16.639-7.021,16.319-7.121,16.554" transform="translate(-267.435 -174.594)" fill="#e0f0fb"/>
                  <path id="Path_109555" data-name="Path 109555" d="M789.078,174.63c.045.023.1.009.191-.212s6.59-15.685,6.59-15.685-6.663,15.379-6.757,15.6-.071.274-.024.3" transform="translate(-313.237 -63.591)" fill="#e0f0fb"/>
                  <path id="Path_109556" data-name="Path 109556" d="M812.631,285.956c-.093.221-.07.274-.024.3s.1.008.191-.212,6.551-15.685,6.551-15.685-6.624,15.379-6.717,15.6" transform="translate(-322.578 -108.31)" fill="#e0f0fb"/>
                  <path id="Path_109557" data-name="Path 109557" d="M809.133,509.473c.047.024.088.032.118-.039s2.055-5.083,2.055-5.083-2.19,4.927-2.22,5a.084.084,0,0,0,.048.124" transform="translate(-321.191 -202.053)" fill="#e0f0fb"/>
                  <path id="Path_109558" data-name="Path 109558" d="M729.117,391.959c.046.024.088.032.118-.04s2.054-5.082,2.054-5.082l-2.22,5a.084.084,0,0,0,.048.124" transform="translate(-289.426 -154.975)" fill="#e0f0fb"/>
                  <path id="Path_109559" data-name="Path 109559" d="M728.969,503.5c.046.024.088.032.118-.039s2.055-5.083,2.055-5.083l-2.22,5a.084.084,0,0,0,.048.125" transform="translate(-289.367 -199.658)" fill="#e0f0fb"/>
                  <path id="Path_109560" data-name="Path 109560" d="M738.657,443.373c.047.025.093.026.14-.089s3.341-8.12,3.341-8.12-3.461,7.92-3.51,8.034-.017.151.029.175" transform="translate(-293.216 -174.335)" fill="#e0f0fb"/>
                  <path id="Path_109561" data-name="Path 109561" d="M785.574,471.061c.048.024.093.026.141-.087s3.339-8.122,3.339-8.122l-3.51,8.034c-.048.114-.017.15.029.176" transform="translate(-311.841 -185.427)" fill="#e0f0fb"/>
                  <path id="Path_109562" data-name="Path 109562" d="M827.621,411.475c.043.021.089.01.167-.176s5.514-13.22,5.514-13.22-5.584,12.957-5.663,13.142-.057.233-.017.254" transform="translate(-328.54 -159.478)" fill="#e0f0fb"/>
                  <path id="Path_109563" data-name="Path 109563" d="M719.211,433.135c.046.024.088.032.118-.04s2.054-5.082,2.054-5.082-2.188,4.926-2.22,5a.085.085,0,0,0,.048.125" transform="translate(-285.493 -171.471)" fill="#e0f0fb"/>
                  <path id="Path_109564" data-name="Path 109564" d="M682.357,480.8c-.054.129-.02.171.033.2s.1.03.158-.1,3.784-9.2,3.784-9.2-3.92,8.972-3.975,9.1" transform="translate(-270.875 -188.973)" fill="#e0f0fb"/>
                  <path id="Path_109565" data-name="Path 109565" d="M758.747,431.509c-.054.129-.019.171.032.2s.1.03.158-.1,3.784-9.2,3.784-9.2-3.918,8.972-3.974,9.1" transform="translate(-301.202 -169.225)" fill="#e0f0fb"/>
                </g>
              </g>
              <g id="Group_135677" data-name="Group 135677" transform="translate(0.809 30.11)">
                <g id="Group_135676" data-name="Group 135676" clip-path="url(#clip-path-4)">
                  <rect id="Rectangle_170542" data-name="Rectangle 170542" width="89.31" height="77.233" transform="translate(-4.567 0.287) rotate(-3.621)" fill="url(#linear-gradient-2)"/>
                </g>
              </g>
              <g id="Group_135679" data-name="Group 135679" transform="translate(21.07 0.394)">
                <g id="Group_135678" data-name="Group 135678" clip-path="url(#clip-path-5)">
                  <rect id="Rectangle_170543" data-name="Rectangle 170543" width="194.088" height="106.943" transform="translate(-6.039 0.38) rotate(-3.621)" fill="url(#linear-gradient-3)"/>
                </g>
              </g>
              <g id="Group_135681" data-name="Group 135681" transform="translate(428.105 20.083)">
                <g id="Group_135680" data-name="Group 135680" clip-path="url(#clip-path-6)">
                  <rect id="Rectangle_170544" data-name="Rectangle 170544" width="86.44" height="74.751" transform="matrix(0.998, -0.063, 0.063, 0.998, -4.42, 0.278)" fill="url(#linear-gradient-4)"/>
                </g>
              </g>
              <g id="Group_135683" data-name="Group 135683" transform="translate(345.949 21.663)">
                <g id="Group_135682" data-name="Group 135682" clip-path="url(#clip-path-7)">
                  <rect id="Rectangle_170545" data-name="Rectangle 170545" width="121.513" height="82.11" transform="translate(-2.072 0.054) rotate(-1.494)" fill="url(#linear-gradient-5)"/>
                </g>
              </g>
              <g id="Group_135685" data-name="Group 135685" transform="translate(228.984 19.207)">
                <g id="Group_135684" data-name="Group 135684" clip-path="url(#clip-path-8)">
                  <rect id="Rectangle_170546" data-name="Rectangle 170546" width="132.973" height="86.511" transform="translate(-4.983 0.313) rotate(-3.621)" fill="url(#linear-gradient-6)"/>
                </g>
              </g>
              <g id="Group_135687" data-name="Group 135687" transform="translate(308.417)">
                <g id="Group_135686" data-name="Group 135686" clip-path="url(#clip-path-9)">
                  <path id="Path_109585" data-name="Path 109585" d="M0,0,20.939.026l.121,98.783L.121,98.783Z" transform="matrix(0.207, -0.978, 0.978, 0.207, -0.032, 0.151)" fill="url(#linear-gradient-7)"/>
                </g>
              </g>
              <g id="Group_135689" data-name="Group 135689" transform="translate(303.689)">
                <g id="Group_135688" data-name="Group 135688" clip-path="url(#clip-path-10)">
                  <rect id="Rectangle_170548" data-name="Rectangle 170548" width="152.196" height="81.625" transform="translate(-2.949 0.113) rotate(-2.215)" fill="url(#linear-gradient-8)"/>
                </g>
              </g>
              <g id="Group_135691" data-name="Group 135691" transform="translate(388.494)">
                <g id="Group_135690" data-name="Group 135690" clip-path="url(#clip-path-11)">
                  <rect id="Rectangle_170549" data-name="Rectangle 170549" width="21.06" height="0.843" transform="translate(-0.001 0) rotate(-2.202)" fill="url(#linear-gradient-9)"/>
                </g>
              </g>
              <g id="Group_135693" data-name="Group 135693" transform="translate(388.273)">
                <g id="Group_135692" data-name="Group 135692" clip-path="url(#clip-path-12)">
                  <rect id="Rectangle_170550" data-name="Rectangle 170550" width="124.771" height="64.028" transform="translate(-3.924 0.275) rotate(-4.028)" fill="url(#linear-gradient-10)"/>
                </g>
              </g>
              <g id="Group_135695" data-name="Group 135695" transform="translate(0 0.023)">
                <g id="Group_135694" data-name="Group 135694" clip-path="url(#clip-path-13)">
                  <rect id="Rectangle_170551" data-name="Rectangle 170551" width="172.346" height="96.077" transform="translate(-5.962 0.417) rotate(-4.028)" fill="url(#linear-gradient-11)"/>
                </g>
              </g>
              <g id="Group_135697" data-name="Group 135697" transform="translate(242.669 0.112)">
                <g id="Group_135696" data-name="Group 135696" clip-path="url(#clip-path-14)">
                  <path id="Path_109586" data-name="Path 109586" d="M0,0,94.465.1l.02,18.223L.02,18.223Z" transform="translate(-0.065 0.012) rotate(-10.784)" fill="url(#linear-gradient-12)"/>
                </g>
              </g>
              <g id="Group_135699" data-name="Group 135699" transform="translate(236.701 0.337)">
                <g id="Group_135698" data-name="Group 135698" clip-path="url(#clip-path-15)">
                  <rect id="Rectangle_170553" data-name="Rectangle 170553" width="108.319" height="70.147" transform="translate(-0.735 0.008) rotate(-0.606)" fill="url(#linear-gradient-13)"/>
                </g>
              </g>
              <g id="Group_135701" data-name="Group 135701" transform="translate(23.423)">
                <g id="Group_135700" data-name="Group 135700" clip-path="url(#clip-path-16)">
                  <path id="Path_109587" data-name="Path 109587" d="M0,0,27.833.034l.16,131.232L.16,131.232Z" transform="translate(-0.046 0.217) rotate(-78.05)" fill="url(#linear-gradient-14)"/>
                </g>
              </g>
              <g id="Group_135703" data-name="Group 135703" transform="translate(23.182 0.053)">
                <g id="Group_135702" data-name="Group 135702" clip-path="url(#clip-path-17)">
                  <path id="Path_109588" data-name="Path 109588" d="M0,0,28.238.035,28.4,131.748.161,131.713Z" transform="matrix(0.207, -0.978, 0.978, 0.207, -0.112, 0.528)" fill="url(#linear-gradient-15)"/>
                </g>
              </g>
              <g id="Group_135705" data-name="Group 135705" transform="translate(0.809)">
                <g id="Group_135704" data-name="Group 135704" clip-path="url(#clip-path-18)">
                  <rect id="Rectangle_170556" data-name="Rectangle 170556" width="73.639" height="2.952" transform="translate(-0.005 0) rotate(-2.203)" fill="url(#linear-gradient-16)"/>
                </g>
              </g>
              <g id="Group_135707" data-name="Group 135707" transform="translate(0.809 0.025)">
                <g id="Group_135706" data-name="Group 135706" clip-path="url(#clip-path-19)">
                  <rect id="Rectangle_170557" data-name="Rectangle 170557" width="73.714" height="3.449" transform="matrix(0.999, -0.038, 0.038, 0.999, -0.024, 0.001)" fill="url(#linear-gradient-17)"/>
                </g>
              </g>
              <g id="Group_135709" data-name="Group 135709" transform="translate(216.311 0.263)">
                <g id="Group_135708" data-name="Group 135708" clip-path="url(#clip-path-20)">
                  <rect id="Rectangle_170558" data-name="Rectangle 170558" width="0.338" height="25.865" transform="translate(-0.001 0.074) rotate(-89.417)" fill="url(#linear-gradient-18)"/>
                </g>
              </g>
              <g id="Group_135711" data-name="Group 135711" transform="translate(148.967 19.466)">
                <g id="Group_135710" data-name="Group 135710" clip-path="url(#clip-path-21)">
                  <path id="Path_109589" data-name="Path 109589" d="M0,0,114.281.127l.1,87.674L.1,87.674Z" transform="matrix(0.982, -0.187, 0.187, 0.982, -12.895, 2.441)" fill="url(#linear-gradient-19)"/>
                </g>
              </g>
              <g id="Group_135713" data-name="Group 135713" transform="translate(113.434 0.303)">
                <g id="Group_135712" data-name="Group 135712" clip-path="url(#clip-path-22)">
                  <rect id="Rectangle_170560" data-name="Rectangle 170560" width="137.361" height="63.168" transform="translate(0 0)" fill="url(#linear-gradient-20)"/>
                </g>
              </g>
            </g>
          </g>
          <g transform="matrix(1, 0, 0, 1, -2676, -5635)" filter="url(#Path_92638)">
            <path id="Path_92638-2" data-name="Path 92638" d="M4.048,0h491.9A4.181,4.181,0,0,1,500,4.3V137.7a4.181,4.181,0,0,1-4.048,4.3H4.048A4.181,4.181,0,0,1,0,137.7V4.3A4.181,4.181,0,0,1,4.048,0Z" transform="translate(0)" fill="#103a5a" opacity="0.5"/>
          </g>
        </g>
      </g>
    </g>
  </g>
</svg>
