<svg xmlns="http://www.w3.org/2000/svg" xmlns:xlink="http://www.w3.org/1999/xlink" width="500" height="152" viewBox="0 0 500 152">
  <defs>
    <clipPath id="clip-path">
      <rect id="Rectangle_169148" data-name="Rectangle 169148" width="500" height="152"/>
    </clipPath>
    <filter id="Polygon_99" x="240" y="65" width="19" height="19" filterUnits="userSpaceOnUse">
      <feOffset dx="2" dy="4" input="SourceAlpha"/>
      <feGaussianBlur stdDeviation="1" result="blur"/>
      <feFlood flood-opacity="0.302"/>
      <feComposite operator="in" in2="blur"/>
      <feComposite in="SourceGraphic"/>
    </filter>
    <filter id="Path_92371" x="-1.002" y="0" width="506.002" height="149" filterUnits="userSpaceOnUse">
      <feOffset dx="2" dy="4" input="SourceAlpha"/>
      <feGaussianBlur stdDeviation="1" result="blur-2"/>
      <feFlood flood-opacity="0.302"/>
      <feComposite operator="in" in2="blur-2"/>
      <feComposite in="SourceGraphic"/>
    </filter>
    <clipPath id="clip-path-2">
      <rect id="Rectangle_166840" data-name="Rectangle 166840" width="500" height="142" rx="4" transform="translate(9030 3090)" opacity="0.4"/>
    </clipPath>
    <clipPath id="clip-path-3">
      <rect id="Rectangle_166839" data-name="Rectangle 166839" width="2251.727" height="366.324" fill="none"/>
    </clipPath>
    <clipPath id="clip-path-4">
      <rect id="Rectangle_166817" data-name="Rectangle 166817" width="948.633" height="313.049" fill="none"/>
    </clipPath>
    <clipPath id="clip-path-5">
      <rect id="Rectangle_166812" data-name="Rectangle 166812" width="45.113" height="44.663" fill="none"/>
    </clipPath>
    <clipPath id="clip-path-6">
      <rect id="Rectangle_166813" data-name="Rectangle 166813" width="43.84" height="43.401" fill="none"/>
    </clipPath>
    <clipPath id="clip-path-7">
      <rect id="Rectangle_166814" data-name="Rectangle 166814" width="30.239" height="29.936" fill="none"/>
    </clipPath>
    <clipPath id="clip-path-8">
      <rect id="Rectangle_166815" data-name="Rectangle 166815" width="30.239" height="29.937" fill="none"/>
    </clipPath>
    <clipPath id="clip-path-9">
      <rect id="Rectangle_166816" data-name="Rectangle 166816" width="45.44" height="44.986" fill="none"/>
    </clipPath>
    <clipPath id="clip-path-11">
      <rect id="Rectangle_166818" data-name="Rectangle 166818" width="26.814" height="24.654" fill="none"/>
    </clipPath>
    <clipPath id="clip-path-12">
      <rect id="Rectangle_166819" data-name="Rectangle 166819" width="26.814" height="24.653" fill="none"/>
    </clipPath>
    <clipPath id="clip-path-15">
      <rect id="Rectangle_166822" data-name="Rectangle 166822" width="26.813" height="24.653" fill="none"/>
    </clipPath>
    <clipPath id="clip-path-21">
      <rect id="Rectangle_166828" data-name="Rectangle 166828" width="11.227" height="11.115" fill="none"/>
    </clipPath>
    <clipPath id="clip-path-22">
      <rect id="Rectangle_166829" data-name="Rectangle 166829" width="11.227" height="11.116" fill="none"/>
    </clipPath>
    <clipPath id="clip-path-23">
      <rect id="Rectangle_166830" data-name="Rectangle 166830" width="11.228" height="11.116" fill="none"/>
    </clipPath>
    <clipPath id="clip-path-27">
      <rect id="Rectangle_166834" data-name="Rectangle 166834" width="57.671" height="57.095" fill="none"/>
    </clipPath>
    <clipPath id="clip-path-29">
      <rect id="Rectangle_166836" data-name="Rectangle 166836" width="11.228" height="11.115" fill="none"/>
    </clipPath>
  </defs>
  <g id="_13d-Snow" data-name="13d-Snow" clip-path="url(#clip-path)">
    <g id="Group_143180" data-name="Group 143180" transform="translate(-1541 -285)">
      <g id="_13d-Snow-2" data-name="13d-Snow" transform="translate(1541 285)" clip-path="url(#clip-path)">
        <g transform="matrix(1, 0, 0, 1, 0, 0)" filter="url(#Polygon_99)">
          <path id="Polygon_99-2" data-name="Polygon 99" d="M6.5,0,13,12H0Z" transform="translate(241 65)" fill="#75c2de" opacity="0.65"/>
        </g>
        <g id="Group_133773" data-name="Group 133773">
          <g transform="matrix(1, 0, 0, 1, 0, 0)" filter="url(#Path_92371)">
            <path id="Path_92371-2" data-name="Path 92371" d="M4.048,0h491.9A4.181,4.181,0,0,1,500,4.3V137.7a4.181,4.181,0,0,1-4.048,4.3H4.048A4.181,4.181,0,0,1,0,137.7V4.3A4.181,4.181,0,0,1,4.048,0Z" fill="#083242" opacity="0.97"/>
          </g>
          <g id="Mask_Group_317" data-name="Mask Group 317" transform="translate(-9030 -3090)" opacity="0.36" clip-path="url(#clip-path-2)">
            <g id="Group_133772" data-name="Group 133772" transform="translate(8776.465 3030)">
              <g id="Group_133771" data-name="Group 133771" clip-path="url(#clip-path-3)">
                <path id="Path_92781" data-name="Path 92781" d="M519.532,131.784l-7.2-1.91,6.357-6.184-2.121-2.139-7.628,7.423-3.8-1.008,4.04-3.934-1.478-1.488-4.928,4.795-12.436-3.3,9.2-9.111,6.335.94.312-2.064-4.793-.711,2.626-2.6,9.915,1.472.451-2.965-7.7-1.143,5.02-4.97-2.142-2.12-5.27,5.217-2.232-8.542-2.929.751,2.679,10.252-2.781,2.753-1.414-5.433-2.041.523,1.73,6.623-9.1,9.013-3.369-12.446,3.99-4.961-1.649-1.3-3.019,3.753-.963-3.556,6.245-7.765-2.371-1.868-4.848,6.031-1.837-6.789-2.929.776,1.929,7.127L470.8,98.569l-.808,2.889,10.3,2.83,1.018,3.76-5.463-1.5-.564,2.011,6.66,1.828,3.333,12.312-12.572-3.335-2.344-5.9-1.963.763,1.775,4.466-3.593-.953-3.67-9.237-2.819,1.1,2.85,7.174-6.858-1.819-.784,2.9,7.2,1.91-6.357,6.185,2.121,2.139,7.629-7.423,3.8,1.008-4.04,3.933,1.478,1.489,4.928-4.795,12.436,3.3-9.2,9.111-6.335-.94-.312,2.064,4.793.712-2.626,2.6L460.9,137.68l-.45,2.965,7.7,1.144-5.02,4.969,2.141,2.121,5.271-5.217,2.231,8.541,2.929-.751L473.021,141.2l2.78-2.753,1.418,5.424,2.041-.523-1.731-6.623,9.1-9.013L490,140.159l-3.99,4.961,1.649,1.3,3.019-3.754.963,3.557-6.245,7.765,2.37,1.868,4.848-6.031,1.837,6.789,2.929-.776-1.929-7.127,8.586,2.357.808-2.89-10.3-2.829-1.018-3.76,5.463,1.5.563-2.012-6.659-1.827-3.333-12.312,12.572,3.335,2.344,5.9,1.963-.764-1.775-4.466,3.593.953,3.67,9.237,2.819-1.1-2.851-7.173,6.858,1.819Z" transform="translate(4.599)" fill="#fff"/>
                <g id="Group_133709" data-name="Group 133709" transform="translate(0 29.13)">
                  <g id="Group_133708" data-name="Group 133708" clip-path="url(#clip-path-4)">
                    <g id="Group_133695" data-name="Group 133695" transform="translate(432.189 168.666)" style="mix-blend-mode: screen;isolation: isolate">
                      <g id="Group_133694" data-name="Group 133694">
                        <g id="Group_133693" data-name="Group 133693" clip-path="url(#clip-path-5)">
                          <path id="Path_92782" data-name="Path 92782" d="M472.98,225.021l-5.056-1.341,4.464-4.343-1.491-1.5-5.354,5.213-2.668-.707,2.839-2.763-1.038-1.045-3.461,3.367-8.734-2.317,6.465-6.4,4.444.66.22-1.449-3.367-.5,1.846-1.828,6.964,1.033.315-2.083-5.408-.8,3.525-3.491-1.5-1.489-3.7,3.664-1.568-6-2.06.528,1.882,7.2-1.954,1.934-1-3.816-1.433.367,1.212,4.652-6.394,6.329-2.366-8.74,2.8-3.484-1.159-.914-2.121,2.637-.676-2.5,4.386-5.453-1.665-1.312-3.406,4.235-1.291-4.765-2.055.545,1.355,5.006-6.031-1.656-.569,2.03,7.239,1.987.714,2.641-3.838-1.053-.395,1.412L446.573,210l2.339,8.646-8.828-2.342-1.646-4.144-1.379.536,1.246,3.136-2.525-.669-2.577-6.487-1.98.771,2,5.038L428.41,213.2l-.551,2.034,5.056,1.341-4.465,4.344,1.492,1.5,5.354-5.213,2.668.708-2.839,2.762,1.037,1.046,3.462-3.368,8.733,2.317-6.465,6.4-4.444-.66-.219,1.45,3.367.5-1.847,1.829-6.963-1.034-.316,2.083,5.408.8-3.525,3.49,1.5,1.489,3.7-3.664,1.568,6,2.06-.527-1.881-7.2,1.953-1.933,1,3.815,1.433-.367-1.212-4.651,6.394-6.33,2.377,8.735-2.8,3.484,1.158.913,2.121-2.637.676,2.5-4.386,5.454,1.665,1.311,3.406-4.235,1.29,4.768,2.056-.545-1.356-5.005,6.032,1.655.568-2.029-7.238-1.987-.715-2.641,3.838,1.053.4-1.413-4.688-1.283-2.34-8.646,8.829,2.342L462.4,228.1l1.378-.536-1.246-3.136,2.525.669,2.578,6.487,1.98-.771-2-5.038,4.816,1.277Z" transform="translate(-427.867 -197.796)" fill="#706f6f"/>
                        </g>
                      </g>
                    </g>
                    <g id="Group_133698" data-name="Group 133698" transform="translate(723.493 47.982)" style="mix-blend-mode: screen;isolation: isolate">
                      <g id="Group_133697" data-name="Group 133697">
                        <g id="Group_133696" data-name="Group 133696" clip-path="url(#clip-path-6)">
                          <path id="Path_92783" data-name="Path 92783" d="M760.1,103.568l-4.913-1.3,4.338-4.221-1.449-1.46-5.208,5.063-2.593-.688,2.76-2.684-1.01-1.016-3.363,3.272-8.485-2.251,6.281-6.218,4.323.642.213-1.409-3.271-.485,1.794-1.777,6.768,1,.3-2.024-5.253-.78,3.426-3.392L753.3,82.4l-3.6,3.561-1.523-5.83-2,.513,1.828,7-1.9,1.879-.969-3.708-1.393.357,1.181,4.52-6.213,6.151-2.3-8.494,2.727-3.386-1.126-.887-2.061,2.562L735.29,84.2l4.263-5.3-1.616-1.275-3.31,4.116-1.256-4.629-2,.53,1.313,4.864L726.829,80.9l-.552,1.972,7.034,1.931.695,2.566-3.728-1.023-.385,1.373,4.545,1.247,2.274,8.4-8.58-2.275-1.6-4.028-1.339.522,1.212,3.047-2.452-.65-2.505-6.3-1.924.749,1.945,4.9-4.68-1.242-.535,1.977,4.913,1.3-4.337,4.221,1.448,1.459,5.207-5.065,2.592.687-2.76,2.685,1.01,1.016,3.364-3.273,8.485,2.252-6.281,6.217-4.323-.641-.213,1.408,3.272.486-1.795,1.777-6.768-1-.3,2.025,5.253.78-3.426,3.391,1.463,1.448,3.6-3.561,1.523,5.829,2-.512-1.828-7,1.9-1.879.969,3.707,1.393-.356-1.181-4.52,6.212-6.151,2.3,8.494-2.727,3.385,1.125.888L740.4,111l.657,2.427-4.262,5.3L738.422,120l3.31-4.116,1.255,4.634,2-.53-1.313-4.864,5.859,1.609.552-1.972-7.034-1.931-.694-2.567,3.727,1.023.385-1.372-4.545-1.248-2.275-8.4,8.58,2.276,1.6,4.027,1.339-.521L749.95,103l2.452.651,2.5,6.3,1.919-.749-1.939-4.9,4.68,1.241Z" transform="translate(-716.258 -77.112)" fill="#706f6f"/>
                        </g>
                      </g>
                    </g>
                    <g id="Group_133701" data-name="Group 133701" transform="translate(673.772 86.757)" style="mix-blend-mode: screen;isolation: isolate">
                      <g id="Group_133700" data-name="Group 133700">
                        <g id="Group_133699" data-name="Group 133699" clip-path="url(#clip-path-7)">
                          <path id="Path_92784" data-name="Path 92784" d="M697.274,134.135l-3.389-.9,2.992-2.911-1-1.007-3.591,3.494-1.789-.474,1.9-1.852-.695-.7-2.323,2.258-5.859-1.553,4.332-4.289,2.982.442.147-.971-2.257-.335,1.238-1.226,4.667.693.212-1.4-3.625-.538,2.364-2.34-1.01-1-2.481,2.456-1.05-4.021-1.381.354,1.262,4.825-1.313,1.3-.669-2.557-.961.246.815,3.118-4.286,4.242-1.586-5.858L682.8,121.3l-.777-.612-1.421,1.767-.453-1.674,2.94-3.655-1.111-.879L679.7,119.08l-.865-3.195-1.378.365.909,3.355-4.04-1.11-.381,1.361,4.849,1.331.479,1.771-2.572-.706-.265.947,3.131.86,1.569,5.8-5.918-1.57-1.1-2.778-.924.36.835,2.1-1.691-.449-1.727-4.348-1.327.517,1.341,3.377-3.232-.857-.369,1.364,3.389.9-2.992,2.911,1,1.007,3.592-3.494,1.788.474-1.9,1.852.695.7,2.323-2.258,5.859,1.553-4.332,4.289-2.982-.442-.147.971,2.257.335-1.232,1.227-4.667-.693-.212,1.4,3.625.538-2.364,2.34,1.01,1,2.481-2.456,1.05,4.021,1.381-.354-1.262-4.825,1.313-1.3.669,2.557.961-.246-.815-3.118,4.286-4.242,1.586,5.858-1.879,2.336.777.612,1.421-1.767.453,1.674-2.94,3.655,1.111.88,2.283-2.839.866,3.2,1.377-.365-.909-3.355,4.04,1.11.381-1.361-4.848-1.331-.479-1.771,2.572.706.265-.947-3.131-.86-1.569-5.8,5.917,1.57,1.1,2.778.924-.36-.835-2.1,1.691.449,1.727,4.348,1.327-.517-1.341-3.377,3.232.857Z" transform="translate(-667.034 -115.887)" fill="#706f6f"/>
                        </g>
                      </g>
                    </g>
                    <g id="Group_133704" data-name="Group 133704" transform="translate(788.333 29.225)" style="mix-blend-mode: screen;isolation: isolate">
                      <g id="Group_133703" data-name="Group 133703">
                        <g id="Group_133702" data-name="Group 133702" clip-path="url(#clip-path-8)">
                          <path id="Path_92785" data-name="Path 92785" d="M810.689,76.6l-3.389-.9,2.992-2.911-1-1L805.7,75.281l-1.789-.474,1.9-1.852-.695-.7-2.323,2.258-5.859-1.553,4.332-4.289,2.982.442.147-.971-2.257-.335,1.238-1.226,4.668.693.211-1.4-3.625-.538L807,63l-1.01-1L803.5,64.452l-1.05-4.021-1.381.354,1.262,4.825-1.313,1.3-.669-2.557-.961.246.815,3.118-4.286,4.242L794.336,66.1l1.879-2.336-.777-.612-1.4,1.768-.454-1.674,2.94-3.655-1.111-.88-2.283,2.839-.865-3.2-1.378.365.909,3.355-4.04-1.11-.381,1.361,4.849,1.331.479,1.771-2.572-.706-.265.947,3.131.86,1.569,5.8-5.917-1.57-1.1-2.778-.924.36.835,2.1-1.691-.449-1.728-4.345-1.327.517,1.341,3.377-3.232-.857-.37,1.364,3.389.9-2.992,2.911,1,1.007,3.592-3.494,1.788.474-1.9,1.852.695.7,2.323-2.258,5.859,1.553-4.332,4.289-2.982-.442-.147.971,2.257.335-1.238,1.226-4.667-.693-.212,1.4,3.625.538-2.364,2.34,1.01,1,2.481-2.456,1.05,4.021,1.381-.354L788.8,81.039l1.313-1.3.669,2.557.961-.246-.815-3.118,4.286-4.242,1.586,5.858-1.878,2.336.776.612,1.421-1.767.454,1.674-2.94,3.655,1.111.88,2.283-2.839.866,3.2,1.377-.365-.909-3.355,4.04,1.11.381-1.361L798.928,83l-.479-1.771,2.572.706.265-.947-3.131-.86-1.569-5.8,5.917,1.57,1.1,2.778.924-.36-.835-2.1,1.691.449,1.727,4.348,1.327-.517L807.1,77.116l3.232.857Z" transform="translate(-780.45 -58.355)" fill="#706f6f"/>
                        </g>
                      </g>
                    </g>
                    <g id="Group_133707" data-name="Group 133707" transform="translate(201.406 101.041)" style="mix-blend-mode: screen;isolation: isolate">
                      <g id="Group_133706" data-name="Group 133706">
                        <g id="Group_133705" data-name="Group 133705" clip-path="url(#clip-path-9)">
                          <path id="Path_92786" data-name="Path 92786" d="M244.832,157.593l-5.092-1.351,4.5-4.375-1.5-1.513-5.4,5.251-2.688-.713,2.86-2.782-1.045-1.053-3.486,3.392-8.8-2.334,6.51-6.445,4.481.665.221-1.46-3.391-.5,1.861-1.842,7.014,1.041.317-2.1-5.447-.808,3.552-3.516-1.515-1.5-3.728,3.691-1.579-6.043-2.075.532,1.895,7.252-1.967,1.947-1-3.843-1.444.369,1.224,4.686-6.439,6.375-2.383-8.8,2.822-3.509-1.167-.92-2.135,2.655-.681-2.515,4.417-5.493-1.677-1.322-3.434,4.266-1.3-4.8-2.07.549,1.365,5.042-6.076-1.668-.573,2.044,7.292,2,.72,2.66-3.865-1.061-.4,1.423,4.71,1.293,2.358,8.709L211.7,148.81l-1.659-4.174-1.388.54,1.255,3.159-2.541-.674-2.6-6.534-1.994.776,2.02,5.075-4.848-1.287-.555,2.049,5.092,1.351-4.5,4.375,1.5,1.513,5.4-5.251,2.687.713-2.86,2.783,1.045,1.053,3.487-3.392,8.8,2.333-6.51,6.445L209.057,159l-.221,1.46,3.391.5-1.86,1.841-7.014-1.041-.318,2.1,5.447.809-3.551,3.515,1.515,1.5,3.727-3.69,1.579,6.042,2.075-.531-1.895-7.252L213.9,162.3l1.005,3.843,1.443-.37-1.224-4.685,6.44-6.376,2.383,8.8-2.823,3.51,1.168.919,2.135-2.655.681,2.516L220.69,173.3l1.676,1.321,3.434-4.266,1.3,4.8,2.07-.549-1.365-5.041,6.075,1.667.573-2.044-7.291-2-.72-2.66,3.864,1.06.4-1.423L226,162.872l-2.358-8.71,8.889,2.359,1.659,4.175,1.388-.541L234.311,157l2.541.675,2.6,6.533,1.994-.776-2.02-5.075,4.848,1.287Z" transform="translate(-199.392 -130.171)" fill="#706f6f"/>
                        </g>
                      </g>
                    </g>
                  </g>
                </g>
                <path id="Path_92787" data-name="Path 92787" d="M217.886,29.13l-4.444,4.405-1.193-4.405h-3.636l1.435,5.3-14.586-3.869-.576-1.436H192.26l.261.656-2.473-.656H176.465l7.147,1.9-7.374,7.176,2.465,2.482,8.851-8.613,4.4,1.165-4.691,4.565,1.717,1.727,5.719-5.564L209.129,37.8,198.454,48.368l-7.35-1.092-.363,2.4,5.563.825-3.052,3.021-11.505-1.708-.521,3.442,8.935,1.326-5.824,5.767,2.485,2.46,6.115-6.053,2.589,9.911,3.4-.873L195.821,55.9l3.226-3.194,1.647,6.3,2.374-.606-2.008-7.685,10.563-10.457,3.909,14.44-4.63,5.757,1.919,1.508,3.5-4.355,1.117,4.126-7.246,9.01,2.749,2.168,5.628-7,2.132,7.877,3.395-.9-2.243-8.268,9.965,2.734L232.755,64l-11.961-3.28-1.181-4.364,6.338,1.74.654-2.334-7.726-2.12-3.867-14.286L229.6,43.225l2.721,6.847,2.276-.885L232.538,44l4.167,1.11,4.259,10.718,3.271-1.274-3.307-8.323,7.957,2.11.909-3.361-8.353-2.216,7.374-7.176-2.464-2.482-8.85,8.613-4.408-1.169,4.691-4.565-1.717-1.727-5.718,5.565-14.429-3.829,6.934-6.864Z" transform="translate(1.78)" fill="#fff"/>
                <path id="Path_92788" data-name="Path 92788" d="M925.159,75.133l-8.352-2.216,7.374-7.176-2.464-2.481-8.852,8.612L908.459,70.7l4.691-4.564-1.717-1.728-5.718,5.564-14.429-3.827,10.678-10.571,7.35,1.09.363-2.4-5.562-.825,3.051-3.021,11.505,1.707.521-3.441-8.935-1.326,5.825-5.766L913.6,39.131l-6.114,6.054-2.59-9.911-3.4.871,3.108,11.9-3.226,3.194-1.647-6.3-2.369.607,2.008,7.685L888.8,63.687l-3.908-14.44,4.629-5.757L887.6,41.982l-3.5,4.355-1.117-4.126,7.246-9.01-2.75-2.168-5.627,7-2.131-7.877-3.4.9,2.238,8.27L868.6,36.591l-.939,3.353,11.96,3.282L880.8,47.59l-6.338-1.74-.654,2.334,7.726,2.121L885.4,64.59l-14.587-3.87-2.721-6.847-2.276.887,2.059,5.181-4.169-1.106-4.259-10.717-3.271,1.273,3.307,8.324L851.534,55.6l-.909,3.362,8.353,2.215L851.6,68.353l2.464,2.482,8.852-8.612,4.407,1.169-4.691,4.564,1.717,1.727,5.718-5.564L884.5,67.947,873.819,78.52l-7.351-1.091-.363,2.395,5.562.826-3.052,3.021-11.5-1.708-.521,3.441,8.934,1.327L859.7,92.5l2.485,2.461,6.115-6.054,2.59,9.911,3.4-.871-3.109-11.895,3.232-3.194,1.646,6.3,2.369-.606-2.008-7.685L886.983,70.41l3.908,14.44-4.634,5.757,1.919,1.508,3.5-4.355,1.116,4.126-7.246,9.014,2.75,2.167,5.627-7,2.132,7.877,3.395-.9-2.238-8.269,9.966,2.735.938-3.353-11.964-3.284-1.181-4.364,6.338,1.74.654-2.334-7.726-2.121-3.863-14.285,14.587,3.869,2.72,6.848,2.277-.887L907.9,74.158l4.168,1.1,4.259,10.718L919.6,84.7l-3.308-8.323,7.957,2.11Z" transform="translate(8.592)" fill="#fff"/>
                <path id="Path_92789" data-name="Path 92789" d="M100.914,130.393l-5.758-1.528,5.087-4.95-1.7-1.715-6.105,5.941-3.038-.8,3.232-3.148L91.449,123l-3.939,3.838L77.558,124.2l7.365-7.291,5.071.752L90.238,116l-3.838-.569,2.1-2.084,7.935,1.178.36-2.374-6.162-.915,4.017-3.977-1.717-1.7-4.217,4.175L86.937,102.9l-2.347.6,2.144,8.2-2.222,2.2-1.136-4.348-1.633.418,1.385,5.3-7.289,7.23-2.7-9.961,3.193-3.97-1.32-1.041-2.416,3-.771-2.847,5-6.214-1.9-1.5L71.048,104.8l-1.471-5.433-2.342.621,1.544,5.7L61.911,103.8l-.647,2.313,8.249,2.265.814,3.009-4.372-1.2-.451,1.61,5.329,1.463,2.667,9.853-10.062-2.669-1.876-4.723-1.571.612,1.42,3.574-2.876-.763L55.6,111.753l-2.256.878,2.281,5.741-5.488-1.455L49.5,119.24l5.758,1.528-5.088,4.95,1.7,1.712,6.105-5.941,3.04.807-3.232,3.148,1.183,1.191L62.91,122.8l9.953,2.641L65.5,132.73l-5.07-.753-.251,1.652,3.838.569-2.1,2.084L53.979,135.1l-.36,2.374,6.162.915-4.018,3.981,1.717,1.7,4.217-4.176,1.787,6.836,2.346-.6-2.143-8.205,2.222-2.2,1.136,4.348,1.633-.418-1.385-5.3,7.286-7.213,2.7,9.958-3.193,3.97,1.32,1.041,2.416-3.005.771,2.847-5,6.214,1.9,1.495,3.882-4.826,1.471,5.433,2.341-.621-1.543-5.7,6.874,1.887.647-2.313-8.247-2.272-.814-3.01,4.372,1.2.451-1.61-5.329-1.463-2.667-9.853,10.061,2.669,1.877,4.723,1.571-.612-1.42-3.574,2.875.763,2.937,7.392L97.082,137,94.8,131.259l5.489,1.455Z" transform="translate(0.5)" fill="#fff"/>
                <path id="Path_92790" data-name="Path 92790" d="M759.9,192.222l-5.758-1.528,5.087-4.95-1.7-1.712-6.105,5.941-3.04-.807,3.232-3.148-1.183-1.191-3.945,3.838-9.953-2.641,7.365-7.291,5.071.752.25-1.652-3.838-.569,2.1-2.084,7.935,1.178.36-2.374-6.162-.915,4.017-3.977-1.717-1.7-4.217,4.175-1.787-6.836-2.347.6,2.144,8.205-2.222,2.2-1.136-4.348-1.633.418,1.385,5.3-7.286,7.213-2.7-9.961,3.193-3.97L734,169.347l-2.416,3-.771-2.847,5-6.214-1.9-1.5-3.881,4.826-1.471-5.433-2.342.621,1.544,5.7-6.874-1.887-.647,2.313,8.25,2.265.814,3.009-4.372-1.2-.451,1.61,5.331,1.49,2.667,9.853-10.062-2.669-1.876-4.723-1.571.612,1.42,3.574-2.876-.763-2.937-7.392-2.256.878,2.281,5.741-5.488-1.455-.627,2.318,5.758,1.528-5.088,4.95,1.7,1.712,6.105-5.941,3.04.807-3.232,3.148,1.183,1.191,3.939-3.838,9.953,2.641-7.366,7.292-5.07-.753-.25,1.652,3.838.569-2.1,2.084-7.936-1.178-.36,2.374,6.162.915-4.018,3.977,1.717,1.7,4.217-4.176,1.787,6.836,2.346-.6-2.143-8.205,2.222-2.2,1.136,4.348,1.633-.418-1.385-5.3,7.286-7.213,2.7,9.961-3.193,3.97,1.32,1.041,2.416-3.005.77,2.847-5,6.214,1.9,1.495,3.882-4.826,1.471,5.433,2.341-.621-1.543-5.7,6.869,1.887.647-2.313-8.249-2.264-.814-3.01,4.372,1.2.45-1.61-5.329-1.463-2.667-9.853,10.061,2.669,1.877,4.723,1.571-.612-1.42-3.574,2.875.763,2.937,7.392,2.257-.878-2.282-5.741,5.489,1.455Z" transform="translate(7.156)" fill="#fff"/>
                <path id="Path_92791" data-name="Path 92791" d="M298.427,134.7l-3.974-1.054,3.508-3.414-1.172-1.181-4.211,4.1-2.1-.557,2.231-2.171-.815-.822-2.721,2.647-6.869-1.821,5.08-5.029,3.5.519.173-1.14-2.646-.393,1.453-1.437,5.474.812.247-1.637-4.251-.631,2.771-2.743-1.183-1.171-2.909,2.88-1.232-4.715-1.616.414,1.479,5.66-1.535,1.519-.784-3-1.127.289.956,3.656-5.025,4.975-1.86-6.87,2.2-2.739-.909-.718L278.894,121l-.531-1.964,3.447-4.286-1.313-1.031-2.678,3.329-1.01-3.748-1.616.428,1.065,3.935-4.741-1.3-.446,1.6,5.69,1.562.563,2.076-3.016-.828-.311,1.11,3.677,1.009,1.839,6.8-6.94-1.841-1.294-3.258-1.084.422.98,2.465-1.983-.526-2.026-5.1-1.557.606,1.574,3.96-3.786-1-.432,1.6,3.974,1.054-3.509,3.414,1.173,1.181,4.211-4.1,2.1.556-2.232,2.171.816.822,2.721-2.647,6.869,1.821-5.08,5.03-3.5-.519-.173,1.139,2.646.393-1.453,1.437-5.474-.812-.247,1.637,4.251.631-2.771,2.744,1.183,1.17,2.909-2.88,1.231,4.715,1.616-.414-1.479-5.66,1.535-1.519.784,3,1.126-.289-.956-3.656,5.026-4.975,1.86,6.87-2.2,2.739.909.718,1.667-2.073.531,1.964-3.447,4.286L280.891,148l2.678-3.33,1.01,3.748,1.616-.428-1.065-3.935,4.74,1.3.447-1.6-5.69-1.561-.563-2.076,3.016.827.31-1.11-3.676-1.009-1.839-6.8,6.94,1.841,1.294,3.258,1.083-.422-.979-2.465,1.983.526,2.026,5.1,1.557-.606-1.569-3.958,3.785,1Z" transform="translate(2.656)" fill="#fff"/>
                <path id="Path_92792" data-name="Path 92792" d="M563.355,220.479l-3.974-1.054,3.508-3.414-1.172-1.181-4.211,4.1-2.1-.557,2.231-2.171-.815-.822-2.721,2.647-6.869-1.821,5.08-5.029,3.5.519.173-1.14-2.646-.393,1.452-1.437,5.474.812.247-1.637-4.251-.631,2.771-2.743-1.183-1.171-2.909,2.88-1.232-4.715-1.616.414,1.479,5.66-1.535,1.519-.784-3-1.126.289.955,3.656-5.025,4.975-1.86-6.87,2.2-2.739-.909-.718-1.667,2.073-.531-1.964,3.448-4.286-1.313-1.031-2.678,3.329-1.01-3.748-1.616.428,1.065,3.935-4.741-1.3-.446,1.6,5.69,1.562.563,2.076-3.016-.828-.311,1.11,3.677,1.009,1.839,6.8-6.94-1.841-1.294-3.258-1.084.422.98,2.465-1.983-.526-2.026-5.1-1.557.606,1.574,3.96-3.786-1-.432,1.6,3.974,1.054-3.509,3.414,1.173,1.181,4.211-4.1,2.1.556-2.232,2.171.816.822,2.721-2.647,6.869,1.821-5.08,5.03-3.5-.519-.173,1.139,2.646.393-1.453,1.437-5.474-.812-.247,1.637,4.25.631-2.771,2.744,1.183,1.17,2.909-2.88,1.231,4.715,1.616-.414-1.479-5.66,1.535-1.519.784,3,1.126-.289-.955-3.656,5.025-4.975,1.86,6.87-2.2,2.739.909.718,1.667-2.073.531,1.964-3.448,4.286,1.313,1.032,2.678-3.33,1.01,3.748,1.616-.428-1.065-3.935,4.74,1.3.448-1.6-5.69-1.561-.563-2.076,3.016.827.311-1.11-3.677-1.009-1.839-6.8,6.94,1.841,1.294,3.258,1.083-.422-.979-2.465,1.983.526,2.026,5.1,1.557-.606-1.574-3.96,3.786,1Z" transform="translate(5.332)" fill="#fff"/>
                <path id="Path_92793" data-name="Path 92793" d="M603.361,77.637l-3.974-1.054,3.508-3.414-1.172-1.181-4.211,4.1-2.1-.557,2.231-2.171-.815-.822-2.721,2.647-6.869-1.821,5.08-5.029,3.5.519.173-1.14-2.646-.393,1.453-1.437,5.474.812.247-1.637-4.25-.631,2.771-2.743-1.183-1.171-2.909,2.88-1.232-4.715-1.616.414,1.479,5.66-1.535,1.52-.784-3-1.126.289.955,3.656-5.025,4.975-1.86-6.87,2.2-2.739-.909-.718-1.667,2.073-.531-1.964,3.448-4.286-1.313-1.031-2.678,3.329-1.01-3.748-1.616.428,1.065,3.935-4.741-1.3L576,60.9l5.69,1.562.563,2.076-3.016-.828-.311,1.11,3.677,1.009,1.839,6.8-6.94-1.841-1.294-3.258-1.084.422.98,2.465-1.983-.526-2.026-5.1-1.557.606,1.574,3.96-3.786-1-.432,1.6L571.873,71l-3.509,3.414,1.173,1.181,4.211-4.1,2.1.556-2.232,2.171.816.822,2.721-2.647,6.869,1.821-5.08,5.03-3.5-.519-.173,1.139,2.646.393L576.459,81.7l-5.474-.812-.247,1.637,4.25.631L572.217,85.9l1.183,1.17,2.909-2.88L577.54,88.9l1.616-.414-1.479-5.66,1.535-1.519.784,3,1.126-.289-.955-3.656,5.025-4.975,1.86,6.87L584.854,85l.909.718,1.667-2.073.531,1.964L584.513,89.9l1.313,1.032L588.5,87.6l1.01,3.748,1.616-.428-1.065-3.935,4.74,1.3.448-1.6-5.69-1.561L589,83.045l3.016.827.311-1.11-3.677-1.009-1.839-6.8,6.94,1.841,1.294,3.258,1.083-.422-.979-2.465,1.983.526,2.026,5.1,1.557-.606-1.574-3.96,3.786,1Z" transform="translate(5.736)" fill="#fff"/>
                <path id="Path_92794" data-name="Path 92794" d="M671.359,194.147l-5.517-1.463,4.872-4.74-1.628-1.639-5.845,5.688-2.911-.772,3.1-3.015-1.132-1.141-3.777,3.676-9.531-2.529,7.054-6.982,4.855.721.239-1.582-3.674-.546,2.02-2,7.6,1.128.344-2.273-5.9-.876,3.842-3.8-1.641-1.625-4.04,4-1.711-6.546-2.247.575,2.054,7.857-2.131,2.109-1.088-4.163-1.565.4,1.328,5.073-6.977,6.907-2.582-9.538,3.059-3.8-1.265-1-2.313,2.877-.738-2.726,4.786-5.951-1.818-1.431-3.716,4.621-1.414-5.2-2.242.6,1.479,5.462L634,168.7l-.62,2.214,7.9,2.169.78,2.882-4.179-1.16-.431,1.541,5.1,1.4,2.554,9.435-9.634-2.556-1.8-4.522-1.5.585,1.361,3.422-2.754-.73-2.816-7.075-2.16.842,2.184,5.5-5.253-1.394-.6,2.22,5.516,1.464-4.871,4.739,1.627,1.64,5.846-5.689,2.911.772-3.1,3.015,1.133,1.141,3.777-3.675,9.53,2.528-7.052,6.982-4.855-.72-.24,1.582,3.674.545-2.015,1.995-7.6-1.128-.344,2.273,5.9.876-3.847,3.809,1.642,1.625,4.04-4,1.71,6.546,2.247-.576-2.052-7.856,2.131-2.11,1.088,4.164,1.564-.4-1.323-5.076,6.977-6.907,2.582,9.538-3.058,3.8,1.264,1,2.314-2.877.737,2.725-4.786,5.951,1.818,1.432,3.717-4.622,1.408,5.2,2.242-.6-1.478-5.462,6.582,1.807.619-2.215-7.9-2.168-.78-2.882,4.187,1.149.431-1.542-5.1-1.4-2.555-9.436,9.634,2.556,1.8,4.523,1.5-.586-1.36-3.422,2.754.73,2.812,7.079,2.161-.841-2.185-5.5,5.253,1.394Z" transform="translate(6.284)" fill="#fff"/>
                <path id="Path_92795" data-name="Path 92795" d="M383.029,85.631l-5.175-1.373,4.569-4.445L380.9,78.275l-5.483,5.336-2.727-.724,2.905-2.828-1.062-1.07-3.542,3.447-8.939-2.371,6.615-6.549,4.554.676.224-1.484L370,72.2l1.891-1.871,7.126,1.058.323-2.132-5.535-.822,3.605-3.572-1.54-1.524-3.788,3.75-1.6-6.14-2.108.54,1.925,7.369-2,1.979-1.02-3.906L365.8,67.3l1.244,4.761L360.5,78.54l-2.424-8.946,2.869-3.566-1.186-.934-2.17,2.7-.692-2.556,4.489-5.582-1.7-1.343L356.2,62.648l-1.321-4.88-2.1.558,1.387,5.123-6.174-1.694-.582,2.077,7.409,2.034.731,2.7-3.926-1.078-.4,1.446L356,70.248,358.4,79.1l-9.036-2.4-1.685-4.242L346.264,73l1.276,3.21-2.583-.685L342.32,68.89l-2.026.789,2.048,5.156-4.929-1.307-.564,2.082,5.175,1.373-4.569,4.445,1.526,1.538,5.484-5.336,2.727.724-2.906,2.828,1.062,1.07,3.543-3.447,8.938,2.371-6.615,6.549-4.554-.675-.224,1.483,3.445.512-1.89,1.871-7.127-1.058-.323,2.132,5.535.822-3.608,3.572,1.539,1.525,3.788-3.751,1.6,6.14,2.108-.54-1.925-7.369,2-1.978,1.02,3.9,1.468-.376-1.244-4.761L359.37,82.7l2.424,8.946-2.869,3.566,1.186.935,2.171-2.7L362.974,96l-4.489,5.581,1.7,1.343,3.487-4.335,1.32,4.88,2.1-.558L365.718,97.8l6.173,1.7.582-2.078-7.409-2.033-.731-2.7,3.926,1.077.4-1.446L363.876,91l-2.395-8.85,9.036,2.4,1.686,4.242,1.414-.549-1.276-3.21,2.583.685,2.638,6.639,2.026-.789-2.049-5.156,4.929,1.307Z" transform="translate(3.403)" fill="#fff"/>
                <g id="Group_133738" data-name="Group 133738" transform="translate(0 29.13)">
                  <g id="Group_133737" data-name="Group 133737" clip-path="url(#clip-path-4)">
                    <g id="Group_133712" data-name="Group 133712" transform="translate(23.191 32.333)" style="mix-blend-mode: screen;isolation: isolate">
                      <g id="Group_133711" data-name="Group 133711">
                        <g id="Group_133710" data-name="Group 133710" clip-path="url(#clip-path-11)">
                          <path id="Path_92796" data-name="Path 92796" d="M48.576,70.075l-1.065-.622L45.3,73.178H41.615l3.059-4.136-5.152.554,1.863-3.2,4.067-.457-.139-1.216-3.158.355L43.606,62.6l-1.071-.612L41.013,64.6l-1.792-3.134-1.076.6L40.3,65.828l-1.84,3.156-2.089-4.691-2.089,4.691-1.862-3.192,1.633-3.715-1.133-.488-1.269,2.885L30.2,61.989l-1.071.612,1.521,2.608-3.636-.031L27,66.4l4.366.038L33.2,69.6l-5.152-.554,3.058,4.136H27.394L24.962,69.92l-.995.727,1.89,2.531h-2.9V74.4H26l-1.845,3.1,1.066.621L27.436,74.4h3.681l-3.059,4.136,5.152-.554-1.861,3.192-4.067.456.139,1.217,3.158-.355-1.448,2.484,1.071.612,1.521-2.608,1.783,3.137,1.076-.6-2.151-3.762L34.277,78.6l2.089,4.69,2.089-4.69,1.861,3.192L38.682,85.5l1.133.489,1.266-2.883L42.53,85.59l1.071-.612L42.083,82.37l3.636.031.011-1.224-4.366-.037-1.839-3.156,5.152.554L41.615,74.4h3.722l2.433,3.258.994-.728L46.875,74.4h2.893V73.178H46.731Zm-6.558.484-1.936,2.619H37.437l1.321-2.268Zm-5.657-3.231,1.322,2.97-1.322,2.268L35.043,70.3Zm-5.657,3.231,3.26.351,1.322,2.268H32.649Zm0,6.462L32.649,74.4h2.645l-1.322,2.27Zm5.657,3.231-1.323-2.97,1.323-2.268,1.322,2.268Zm5.657-3.231-3.261-.351L37.437,74.4h2.645Z" transform="translate(-22.959 -61.463)" fill="#706f6f"/>
                        </g>
                      </g>
                    </g>
                    <g id="Group_133715" data-name="Group 133715" transform="translate(124.679 122.982)" style="mix-blend-mode: screen;isolation: isolate">
                      <g id="Group_133714" data-name="Group 133714">
                        <g id="Group_133713" data-name="Group 133713" clip-path="url(#clip-path-12)">
                          <path id="Path_92797" data-name="Path 92797" d="M149.05,160.724l-1.065-.622-2.216,3.725h-3.683l3.059-4.136-5.152.554,1.861-3.192,4.067-.457-.139-1.216-3.158.355,1.448-2.485L143,152.638l-1.521,2.608-1.792-3.134-1.076.6,2.15,3.762-1.84,3.156-2.089-4.691-2.089,4.691-1.862-3.192,1.633-3.715-1.133-.488-1.269,2.885-1.449-2.485-1.071.612,1.521,2.608-3.636-.031-.011,1.224,4.366.038,1.84,3.156-5.152-.554,3.058,4.136h-3.722l-2.432-3.258-.995.727,1.89,2.531h-2.9v1.224h3.041l-1.845,3.1,1.066.621,2.215-3.724h3.681l-3.059,4.136,5.152-.554-1.861,3.192-4.067.456.139,1.217,3.158-.355-1.448,2.484,1.071.612,1.521-2.608,1.792,3.135,1.076-.6L132.9,172.4l1.841-3.156,2.089,4.69,2.089-4.69,1.861,3.192-1.626,3.717,1.133.489,1.27-2.885,1.448,2.484,1.071-.612-1.521-2.608,3.636.031.011-1.224-4.366-.037L140,168.633l5.152.554-3.059-4.136h3.722l2.433,3.258.994-.728-1.889-2.53h2.9v-1.224h-3.041Zm-6.558.484-1.936,2.619h-2.645l1.322-2.268Zm-5.657-3.231,1.322,2.97-1.322,2.268-1.323-2.268Zm-5.657,3.231,3.26.351,1.322,2.268h-2.645Zm0,6.462,1.936-2.619h2.645l-1.322,2.268Zm5.657,3.231-1.323-2.97,1.323-2.268,1.322,2.268Zm5.657-3.231-3.26-.351-1.322-2.268h2.645Z" transform="translate(-123.432 -152.112)" fill="#706f6f"/>
                        </g>
                      </g>
                    </g>
                    <g id="Group_133718" data-name="Group 133718" transform="translate(307.084 9.762)" style="mix-blend-mode: screen;isolation: isolate">
                      <g id="Group_133717" data-name="Group 133717">
                        <g id="Group_133716" data-name="Group 133716" clip-path="url(#clip-path-12)">
                          <path id="Path_92798" data-name="Path 92798" d="M329.63,47.5l-1.065-.622L326.349,50.6h-3.681l3.059-4.136-5.152.554,1.861-3.192,4.067-.457-.139-1.216-3.158.355,1.448-2.485-1.071-.612-1.521,2.608-1.792-3.134-1.076.6,2.151,3.762-1.84,3.156-2.089-4.691-2.09,4.691-1.861-3.192L315.1,39.5l-1.133-.488L312.7,41.9l-1.449-2.485-1.071.612,1.521,2.608-3.636-.031-.011,1.224,4.366.038,1.84,3.156-5.152-.554,3.058,4.136h-3.722l-2.424-3.255-.995.727,1.89,2.531h-2.9v1.224h3.041l-1.845,3.1,1.066.621,2.215-3.724h3.681l-3.059,4.136,5.152-.554L312.4,58.6l-4.067.456.139,1.217,3.158-.355L310.181,62.4l1.071.612,1.521-2.608,1.792,3.135,1.076-.6-2.151-3.762,1.84-3.156,2.09,4.69,2.089-4.69,1.861,3.192-1.633,3.714,1.133.489,1.27-2.885,1.448,2.484,1.071-.612L323.137,59.8l3.636.031.011-1.224-4.366-.037-1.84-3.156,5.152.554-3.059-4.136h3.722l2.433,3.258.994-.728-1.889-2.53h2.9V50.607h-3.041Zm-6.558.484L321.136,50.6h-2.645l1.322-2.268Zm-5.657-3.231,1.322,2.969-1.322,2.269-1.323-2.269Zm-5.657,3.231,3.26.351,1.322,2.268H313.7Zm0,6.462,1.936-2.619h2.645L315.026,54.1Zm5.657,3.231-1.323-2.97,1.323-2.268,1.322,2.268Zm5.657-3.231-3.26-.351-1.322-2.268h2.645Z" transform="translate(-304.013 -38.892)" fill="#706f6f"/>
                        </g>
                      </g>
                    </g>
                    <g id="Group_133721" data-name="Group 133721" transform="translate(615.007 95.891)" style="mix-blend-mode: screen;isolation: isolate">
                      <g id="Group_133720" data-name="Group 133720">
                        <g id="Group_133719" data-name="Group 133719" clip-path="url(#clip-path-12)">
                          <path id="Path_92799" data-name="Path 92799" d="M634.474,133.633l-1.066-.622-2.215,3.725h-3.681l3.059-4.136-5.151.554,1.861-3.192,4.067-.457-.139-1.216-3.158.355,1.448-2.485-1.071-.612-1.521,2.608-1.792-3.134-1.076.6,2.151,3.762-1.84,3.156-2.089-4.691-2.089,4.691-1.862-3.192,1.633-3.715-1.133-.488-1.269,2.885-1.449-2.485-1.071.612,1.521,2.608-3.636-.031-.011,1.224,4.366.038,1.842,3.159-5.146-.554,3.058,4.136h-3.722l-2.432-3.258-.995.727,1.89,2.531h-2.9v1.224H611.9l-1.845,3.1,1.066.621,2.215-3.724h3.681l-3.059,4.136,5.152-.554-1.861,3.192-4.067.456.139,1.217,3.158-.355-1.449,2.484,1.071.612,1.521-2.608,1.792,3.135,1.076-.6-2.151-3.762,1.841-3.156,2.089,4.69,2.089-4.69,1.861,3.192-1.633,3.714,1.133.489,1.27-2.885,1.448,2.484,1.071-.612-1.521-2.608,3.636.031.011-1.224-4.366-.037-1.84-3.156,5.151.554-3.059-4.136h3.722l2.433,3.258.994-.728-1.89-2.53h2.89v-1.224h-3.041Zm-6.558.484-1.936,2.619h-2.646l1.322-2.269Zm-5.657-3.231,1.322,2.969-1.322,2.269-1.323-2.269Zm-5.657,3.231,3.26.35,1.322,2.269h-2.638Zm0,6.462,1.936-2.619h2.645l-1.322,2.268Zm5.657,3.231-1.323-2.97,1.323-2.268,1.322,2.268Zm5.657-3.231-3.26-.351-1.322-2.268h2.646Z" transform="translate(-608.857 -125.021)" fill="#706f6f"/>
                        </g>
                      </g>
                    </g>
                    <g id="Group_133724" data-name="Group 133724" transform="translate(550.098 103.755)" style="mix-blend-mode: screen;isolation: isolate">
                      <g id="Group_133723" data-name="Group 133723">
                        <g id="Group_133722" data-name="Group 133722" clip-path="url(#clip-path-15)">
                          <path id="Path_92800" data-name="Path 92800" d="M570.214,141.5l-1.065-.622-2.216,3.722h-3.681l3.059-4.136-5.151.554,1.862-3.192,4.066-.457-.139-1.216-3.158.355,1.449-2.485-1.071-.612-1.521,2.608-1.792-3.134-1.076.6,2.151,3.762-1.84,3.156L558,135.712l-2.089,4.691-1.862-3.192,1.633-3.715-1.133-.488-1.263,2.892-1.449-2.485-1.071.612,1.521,2.608-3.636-.031-.011,1.224,4.366.038,1.84,3.156-5.151-.554,3.058,4.136H549.03l-2.432-3.258-.995.727,1.89,2.531H544.6v1.224h3.041l-1.845,3.1,1.066.621,2.215-3.724h3.681l-3.059,4.136,5.151-.554-1.867,3.193-4.067.456.139,1.217,3.158-.355-1.453,2.482,1.071.612,1.521-2.608,1.792,3.135,1.076-.6-2.151-3.762,1.841-3.156,2.089,4.69,2.089-4.69,1.861,3.192-1.633,3.714,1.133.489,1.27-2.885,1.448,2.484,1.071-.612-1.521-2.608,3.636.031.011-1.224L563,152.565l-1.834-3.159,5.151.554-3.059-4.136h3.722l2.433,3.258.994-.728-1.89-2.53h2.9V144.6h-3.041Zm-6.558.484L561.72,144.6h-2.645l1.322-2.268ZM558,138.753l1.322,2.97L558,143.991l-1.323-2.268Zm-5.657,3.231,3.26.351,1.322,2.268h-2.638Zm0,6.462,1.936-2.619h2.645L555.6,148.1ZM558,151.677l-1.323-2.97L558,146.439l1.322,2.268Zm5.656-3.231-3.26-.351-1.322-2.268h2.645Z" transform="translate(-544.597 -132.885)" fill="#706f6f"/>
                        </g>
                      </g>
                    </g>
                    <g id="Group_133727" data-name="Group 133727" transform="translate(919.489 108.893)" style="mix-blend-mode: screen;isolation: isolate">
                      <g id="Group_133726" data-name="Group 133726">
                        <g id="Group_133725" data-name="Group 133725" clip-path="url(#clip-path-15)">
                          <path id="Path_92801" data-name="Path 92801" d="M935.911,146.635l-1.065-.622-2.216,3.725H928.95l3.059-4.136-5.151.554,1.862-3.192,4.066-.457-.139-1.216-3.158.355,1.448-2.485-1.071-.612-1.521,2.608-1.792-3.134-1.076.6,2.151,3.762-1.84,3.156L923.7,140.85l-2.089,4.691-1.862-3.192,1.633-3.715-1.133-.488-1.269,2.885-1.449-2.485-1.071.612,1.521,2.608-3.636-.031-.011,1.224L918.7,143l1.84,3.156-5.146-.554,3.058,4.136h-3.722l-2.432-3.258-.995.727,1.89,2.531h-2.9v1.224h3.039l-1.846,3.1,1.066.621,2.215-3.724h3.681l-3.059,4.136,5.151-.554-1.861,3.192-4.067.456.139,1.217,3.158-.355-1.448,2.484,1.071.612,1.521-2.608,1.792,3.135,1.076-.6-2.151-3.762,1.841-3.156,2.089,4.69,2.089-4.69,1.861,3.192-1.633,3.714,1.133.489,1.27-2.885,1.448,2.484,1.071-.612-1.521-2.608,3.636.031.011-1.224L928.7,157.7l-1.84-3.156,5.151.554-3.059-4.136h3.722l2.433,3.258.994-.728-1.889-2.53h2.9v-1.224h-3.041Zm-6.558.484-1.936,2.619h-2.646l1.322-2.268Zm-5.657-3.231,1.322,2.97-1.322,2.268-1.323-2.268Zm-5.656,3.231,3.26.351,1.323,2.268h-2.646Zm0,6.462,1.936-2.619h2.645l-1.312,2.268Zm5.656,3.231-1.323-2.97,1.323-2.268,1.322,2.268Zm5.657-3.231-3.26-.351-1.322-2.268h2.646Z" transform="translate(-910.294 -138.023)" fill="#706f6f"/>
                        </g>
                      </g>
                    </g>
                    <g id="Group_133730" data-name="Group 133730" transform="translate(626.273 42.457)" style="mix-blend-mode: screen;isolation: isolate">
                      <g id="Group_133729" data-name="Group 133729">
                        <g id="Group_133728" data-name="Group 133728" clip-path="url(#clip-path-12)">
                          <path id="Path_92802" data-name="Path 92802" d="M645.627,80.2l-1.066-.622L642.346,83.3h-3.681l3.059-4.136-5.151.554,1.861-3.192,4.067-.457-.139-1.216-3.158.355,1.448-2.485-1.071-.612-1.521,2.608-1.792-3.134-1.076.6,2.151,3.762L635.5,79.1l-2.089-4.691L631.324,79.1l-1.862-3.192L631.1,72.2l-1.133-.488L628.7,74.6l-1.449-2.485-1.071.612,1.521,2.608-3.636-.031-.011,1.224,4.366.038,1.84,3.156-5.146-.554,3.058,4.136h-3.724l-2.432-3.258-.995.727,1.89,2.531h-2.9v1.224h3.041l-1.845,3.1,1.066.621,2.215-3.724h3.681l-3.059,4.136,5.151-.554L628.4,91.3l-4.067.456.139,1.217,3.158-.355L626.178,95.1l1.071.612L628.77,93.1l1.792,3.135,1.076-.6-2.151-3.762,1.841-3.156,2.089,4.69,2.089-4.69,1.861,3.192-1.633,3.714,1.133.489,1.27-2.885,1.448,2.484,1.071-.612-1.521-2.608,3.636.031.011-1.224-4.366-.037-1.84-3.156,5.151.554-3.059-4.136h3.722l2.433,3.258.994-.728-1.89-2.53h2.9V83.3h-3.041Zm-6.558.484L637.133,83.3h-2.645l1.322-2.268Zm-5.657-3.231,1.322,2.97-1.322,2.268-1.323-2.268Zm-5.657,3.231,3.26.351,1.322,2.268H629.7Zm0,6.462,1.936-2.619h2.646l-1.322,2.268Zm5.657,3.231-1.323-2.97,1.323-2.268,1.322,2.268Zm5.657-3.231-3.26-.351-1.322-2.268h2.645Z" transform="translate(-620.01 -71.587)" fill="#706f6f"/>
                        </g>
                      </g>
                    </g>
                    <g id="Group_133733" data-name="Group 133733" transform="translate(414.634 22.089)" style="mix-blend-mode: screen;isolation: isolate">
                      <g id="Group_133732" data-name="Group 133732">
                        <g id="Group_133731" data-name="Group 133731" clip-path="url(#clip-path-15)">
                          <path id="Path_92803" data-name="Path 92803" d="M436.105,59.831l-1.065-.622-2.217,3.725h-3.681L432.2,58.8l-5.152.554,1.861-3.192,4.067-.457-.139-1.216-3.158.355,1.448-2.485-1.071-.612-1.521,2.608-1.792-3.134-1.076.6,2.151,3.762-1.84,3.156-2.089-4.691L421.8,58.737l-1.862-3.192,1.633-3.715-1.133-.488-1.269,2.885-1.449-2.485-1.071.612,1.521,2.608-3.636-.031-.011,1.224,4.366.038,1.84,3.156-5.152-.554,3.058,4.136h-3.722l-2.432-3.258-.995.727,1.89,2.531h-2.9v1.224h3.051l-1.845,3.1,1.066.621,2.215-3.724h3.681l-3.059,4.136,5.152-.554-1.861,3.192-4.067.456.139,1.217,3.158-.355-1.448,2.484,1.071.612,1.521-2.608,1.792,3.135,1.076-.6-2.15-3.762,1.841-3.156,2.089,4.69,2.089-4.69,1.861,3.192-1.633,3.714,1.133.489,1.27-2.885,1.448,2.484,1.071-.612-1.521-2.608,3.636.031.011-1.224-4.366-.037-1.84-3.156,5.152.554-3.059-4.136h3.722l2.433,3.258.994-.728-1.889-2.53h2.9V62.934h-3.041Zm-6.558.484-1.936,2.619h-2.645l1.322-2.268Zm-5.657-3.231,1.322,2.97-1.322,2.268-1.323-2.268Zm-5.657,3.231,3.26.351,1.322,2.268h-2.645Zm0,6.462,1.936-2.619h2.653L421.5,66.426Zm5.657,3.231-1.323-2.97,1.323-2.268,1.322,2.268Zm5.657-3.231-3.26-.351-1.322-2.268h2.645Z" transform="translate(-410.488 -51.219)" fill="#706f6f"/>
                        </g>
                      </g>
                    </g>
                    <g id="Group_133736" data-name="Group 133736" transform="translate(267.564 42.457)" style="mix-blend-mode: screen;isolation: isolate">
                      <g id="Group_133735" data-name="Group 133735">
                        <g id="Group_133734" data-name="Group 133734" clip-path="url(#clip-path-15)">
                          <path id="Path_92804" data-name="Path 92804" d="M290.505,80.2l-1.065-.622L287.223,83.3h-3.681l3.059-4.136-5.152.554,1.862-3.192,4.066-.457-.139-1.216-3.158.355,1.448-2.485-1.071-.612-1.521,2.608-1.792-3.134-1.076.6,2.151,3.762-1.84,3.156-2.089-4.691L276.2,79.1l-1.862-3.192,1.633-3.715-1.133-.488L273.576,74.6l-1.449-2.485-1.071.612,1.521,2.608-3.636-.031-.011,1.224,4.366.038,1.84,3.156-5.152-.554,3.058,4.136h-3.722l-2.432-3.258-.995.727,1.89,2.531h-2.9v1.224h3.046l-1.845,3.1,1.066.621,2.215-3.724h3.681l-3.059,4.136,5.152-.554L273.274,91.3l-4.067.456.139,1.217,3.158-.355L271.056,95.1l1.071.612,1.521-2.608,1.792,3.135,1.076-.6-2.151-3.762,1.841-3.156,2.089,4.69,2.089-4.69,1.861,3.192-1.633,3.714,1.133.489,1.27-2.885,1.448,2.484,1.071-.612-1.521-2.608,3.636.031.011-1.224-4.366-.037-1.84-3.156,5.152.554-3.059-4.136h3.722l2.433,3.258.994-.728-1.889-2.53h2.9V83.3h-3.041Zm-6.558.484L282.011,83.3h-2.645l1.322-2.268Zm-5.657-3.231,1.322,2.97-1.322,2.268-1.323-2.268Zm-5.657,3.231,3.26.351,1.329,2.265h-2.646Zm0,6.462,1.936-2.619h2.653L275.9,86.795Zm5.657,3.231-1.323-2.97,1.323-2.268,1.322,2.268Zm5.657-3.231-3.26-.351-1.322-2.268h2.645Z" transform="translate(-264.888 -71.587)" fill="#706f6f"/>
                        </g>
                      </g>
                    </g>
                  </g>
                </g>
                <path id="Path_92805" data-name="Path 92805" d="M437.794,184.229l-1.761-1.026-3.66,6.153h-6.082l5.051-6.834-8.5.916,3.076-5.273,6.717-.755-.23-2.009-5.217.586,2.394-4.1-1.77-1.011-2.51,4.3L422.338,170l-1.777,1,3.551,6.214-3.04,5.215-3.452-7.749-3.45,7.749-3.076-5.273,2.7-6.137-1.873-.808-2.1,4.767-2.394-4.1-1.77,1.011,2.513,4.309-6.009-.051-.018,2.022,7.213.062,3.04,5.214-8.5-.916,5.051,6.834H402.8l-4.019-5.383-1.642,1.2,3.121,4.181h-4.788v2.022h5.026l-3.05,5.126,1.761,1.027,3.661-6.153h6.082l-5.051,6.833,8.5-.915-3.075,5.273-6.718.754.23,2.01,5.217-.586-2.394,4.1,1.77,1.011,2.513-4.308,2.96,5.178,1.778-1-3.553-6.215,3.041-5.214,3.45,7.749,3.452-7.749,3.075,5.273-2.7,6.137,1.873.807,2.1-4.766,2.393,4.1,1.77-1.011-2.513-4.308,6.01.051.017-2.022-7.212-.062-3.041-5.214,8.5.915-5.051-6.833h6.151l4.018,5.382,1.643-1.2-3.121-4.18h4.787v-2.022h-5.025Zm-10.834.8-3.2,4.328h-4.372l2.186-3.748Zm-9.338-5.339,2.186,4.907-2.186,3.747-2.185-3.747Zm-9.339,5.338,5.385.58,2.186,3.748h-4.371Zm0,10.677,3.2-4.327h4.371l-2.186,3.747Zm9.339,5.338-2.185-4.907,2.185-3.747,2.186,3.747Zm9.339-5.338-5.385-.58-2.185-3.747h4.371Z" transform="translate(3.995)" fill="#fff"/>
                <path id="Path_92806" data-name="Path 92806" d="M818.71,124.988l-1.761-1.026-3.66,6.153h-6.082l5.051-6.834-8.5.916,3.076-5.273,6.717-.755-.23-2.009-5.217.586,2.394-4.105-1.771-1.011-2.512,4.309-2.961-5.178-1.778,1,3.553,6.214-3.04,5.215-3.451-7.749-3.451,7.749-3.076-5.273,2.7-6.137-1.873-.808-2.1,4.767-2.394-4.105-1.77,1.011,2.513,4.309-6.009-.051-.011,2.018,7.213.062,3.04,5.214-8.5-.916,5.05,6.834h-6.151l-4.019-5.383-1.642,1.2,3.121,4.181h-4.788v2.022h5.026l-3.051,5.126,1.761,1.027,3.661-6.153h6.082l-5.05,6.833,8.5-.915-3.075,5.273-6.718.754.23,2.01,5.217-.586-2.394,4.1,1.77,1.011,2.513-4.308,2.96,5.178,1.778-1-3.553-6.215,3.041-5.214,3.451,7.749,3.452-7.749,3.075,5.273-2.7,6.137,1.873.807,2.1-4.766,2.393,4.1,1.77-1.011-2.513-4.309,6.01.052.017-2.022-7.212-.062-3.041-5.214,8.5.915-5.051-6.833h6.151l4.018,5.382,1.643-1.2-3.121-4.18h4.787V130.1h-5.025Zm-10.834.8-3.2,4.328h-4.372l2.186-3.748Zm-9.339-5.338,2.186,4.907-2.186,3.747-2.185-3.747Zm-9.339,5.338,5.385.58,2.186,3.748H792.4Zm0,10.677,3.2-4.327h4.371l-2.186,3.747Zm9.339,5.338-2.185-4.907,2.185-3.747,2.186,3.747Zm9.339-5.338-5.385-.58-2.185-3.747h4.371Z" transform="translate(7.842)" fill="#fff"/>
                <path id="Path_92807" data-name="Path 92807" d="M344.882,150.687,343.709,150l-2.443,4.106h-4.06l3.372-4.56-5.676.611,2.053-3.52,4.484-.5-.154-1.341-3.482.391,1.6-2.74-1.184-.676-1.677,2.876-1.976-3.456-1.186.665L335.752,146l-2.03,3.48-2.3-5.172-2.3,5.172-2.053-3.52,1.8-4.1-1.25-.539-1.4,3.181-1.6-2.74-1.181.675,1.677,2.876-4.01-.034-.012,1.349,4.814.042,2.029,3.48-5.676-.611,3.373,4.56h-4.105l-2.683-3.592-1.1.8,2.083,2.79h-3.195v1.35h3.355l-2.035,3.422,1.175.685,2.442-4.107h4.06l-3.373,4.561,5.676-.611-2.053,3.519-4.484.5.154,1.341,3.483-.391-1.6,2.739,1.181.675,1.677-2.876,1.976,3.456,1.187-.665-2.371-4.147,2.029-3.481,2.3,5.172,2.3-5.172,2.053,3.52-1.8,4.1,1.251.539,1.4-3.182,1.6,2.74,1.181-.675-1.677-2.876,4.011.035.011-1.35-4.813-.041-2.03-3.48,5.676.611-3.373-4.55h4.1l2.683,3.592,1.1-.8-2.083-2.79H346.2v-1.35h-3.355Zm-7.231.533-2.135,2.888H332.6l1.459-2.5Zm-6.233-3.562,1.459,3.274-1.459,2.5-1.459-2.5Zm-6.232,3.562,3.594.387,1.459,2.5h-2.917Zm0,7.126,2.135-2.888h2.915l-1.459,2.5Zm6.233,3.563-1.459-3.275,1.459-2.5,1.459,2.5Zm6.233-3.563-3.594-.387-1.459-2.5h2.917Z" transform="translate(3.198)" fill="#fff"/>
                <path id="Path_92808" data-name="Path 92808" d="M865.7,145.578l-1.175-.685L862.078,149H858.02l3.372-4.56-5.676.611,2.052-3.52,4.484-.5-.154-1.341-3.482.391,1.6-2.74-1.181-.675-1.677,2.876-1.976-3.456-1.186.665,2.371,4.148-2.03,3.48-2.3-5.172-2.3,5.172-2.053-3.52,1.8-4.1-1.249-.539-1.4,3.181-1.6-2.74-1.181.675,1.677,2.876-4.01-.034-.012,1.349,4.814.042,2.029,3.48-5.676-.611,3.373,4.56H842.34l-2.683-3.592-1.1.8,2.083,2.79h-3.195v1.35H840.8l-2.035,3.422,1.175.685,2.443-4.107h4.06l-3.373,4.561,5.676-.611-2.052,3.519-4.484.5.154,1.341,3.483-.391L844.25,162l1.181.675,1.677-2.876,1.976,3.456,1.187-.665-2.371-4.147,2.029-3.481,2.3,5.172,2.3-5.172,2.052,3.52-1.8,4.1,1.25.539,1.4-3.182,1.6,2.74,1.181-.675-1.677-2.876,4.011.035.011-1.35-4.813-.041-2.03-3.48,5.676.611-3.372-4.561h4.1l2.683,3.592,1.1-.8-2.083-2.79h3.2V149h-3.352Zm-7.231.533L856.33,149h-2.917l1.459-2.5Zm-6.233-3.562,1.459,3.274-1.459,2.5-1.459-2.5ZM846,146.111l3.594.387,1.459,2.5h-2.917Zm0,7.126,2.135-2.888h2.917l-1.459,2.5Zm6.233,3.563-1.459-3.275,1.459-2.5,1.459,2.5Zm6.233-3.563-3.594-.387-1.459-2.5h2.917Z" transform="translate(8.459)" fill="#fff"/>
                <path id="Path_92809" data-name="Path 92809" d="M699.156,55.036l-1.48-.863L694.6,59.348h-5.115l4.25-5.748-7.153.77,2.587-4.435,5.646-.635-.193-1.69-4.389.493,2.014-3.453-1.488-.85-2.106,3.625-2.489-4.355-1.5.838,2.988,5.227L685.1,53.52,682.186,47l-2.9,6.517L676.7,49.082l2.271-5.162-1.576-.679-1.763,4.009-2.01-3.45-1.488.85,2.113,3.624-5.051-.043-.015,1.7,6.067.052,2.558,4.385-7.153-.77,4.249,5.748h-5.173l-3.38-4.527-1.382,1.011,2.626,3.516H663.56v1.7h4.226l-2.565,4.311,1.481.864,3.078-5.175H674.9l-4.25,5.754,7.153-.77-2.587,4.435-5.652.635.194,1.69,4.388-.493-2.013,3.452,1.488.85,2.113-3.624,2.49,4.356,1.495-.838-2.983-5.231,2.558-4.386,2.9,6.518,2.9-6.518,2.587,4.435-2.27,5.162,1.575.679,1.763-4.009,2.014,3.452,1.488-.85-2.114-3.624,5.05.043.015-1.7-6.067-.052-2.558-4.385,7.152.77-4.249-5.747h5.173l3.38,4.527,1.382-1.011-2.626-3.516h4.026v-1.7h-4.226Zm-9.112.672-2.691,3.64h-3.676l1.837-3.152Zm-7.858-4.489,1.837,4.127L682.186,58.5l-1.838-3.151Zm-7.856,4.489,4.529.488,1.838,3.152h-3.677Zm0,8.98,2.691-3.639H680.7L678.863,64.2Zm7.856,4.49-1.838-4.127,1.838-3.151,1.837,3.152Zm7.855-4.49-4.529-.488-1.837-3.151h3.676Z" transform="translate(6.703)" fill="#fff"/>
                <path id="Path_92810" data-name="Path 92810" d="M488.283,49.818l-1.271-.741-2.645,4.441h-4.39l3.647-4.932-6.139.66,2.222-3.806,4.848-.545-.167-1.451-3.766.424,1.727-2.963-1.277-.73-1.818,3.11-2.136-3.738-1.284.719,2.565,4.486L476.2,48.517l-2.491-5.594-2.492,5.594L469,44.71l1.948-4.43L469.6,39.7l-1.515,3.441-1.728-2.963-1.278.73,1.818,3.11-4.337-.037-.013,1.46,5.207.044,2.195,3.764-6.139-.66,3.647,4.932h-4.439l-2.89-3.885-1.186.868,2.253,3.017H457.73v1.46h3.628l-2.2,3.7,1.271.741,2.642-4.442h4.39l-3.647,4.933,6.139-.661-2.222,3.807-4.848.545.167,1.45,3.766-.423-1.728,2.963,1.278.73,1.818-3.11,2.136,3.738,1.284-.719-2.565-4.487,2.195-3.764,2.492,5.594,2.491-5.594,2.222,3.807-1.948,4.43,1.352.583,1.515-3.441,1.728,2.963,1.277-.73-1.813-3.11,4.337.037.013-1.46-5.207-.045-2.2-3.763,6.139.661-3.647-4.933h4.444l2.9,3.886L488.508,58l-2.253-3.018h3.456v-1.46h-3.627Zm-7.821.577-2.31,3.123H475l1.578-2.7Zm-6.741-3.854,1.577,3.542-1.577,2.7-1.576-2.7ZM466.977,50.4l3.887.418,1.578,2.705h-3.155Zm0,7.707,2.31-3.124h3.16l-1.578,2.7Zm6.742,3.854-1.576-3.548,1.578-2.7,1.577,2.7Zm6.741-3.854-3.887-.419L475,54.988h3.155Z" transform="translate(4.624)" fill="#fff"/>
                <g id="Group_133770" data-name="Group 133770" transform="translate(0 29.13)">
                  <g id="Group_133769" data-name="Group 133769" clip-path="url(#clip-path-4)">
                    <g id="Group_133741" data-name="Group 133741" transform="translate(404.843 125.908)" style="mix-blend-mode: screen;isolation: isolate">
                      <g id="Group_133740" data-name="Group 133740">
                        <g id="Group_133739" data-name="Group 133739" clip-path="url(#clip-path-21)">
                          <path id="Path_92811" data-name="Path 92811" d="M411.114,162.6l.909-.519-.524-.9-.586.335-1.438-.382,1.1-1.088-1.348-.768,1.289-.736.655.173.271-1-1.01-.268-.176.647-1.288.737v-1.539l-1.5.4.386-1.424.586-.335-.524-.9-.909.519.338.581-.385,1.422-1.094-1.09-.781,1.336-.744-1.277.176-.647-1.01-.269-.271,1,.654.174.744,1.276h-1.557l.4,1.486-1.437-.381-.338-.581-.909.519.523.9.587-.335,1.437.381-1.1,1.087,1.348.769-1.29.737-.654-.173-.272,1,1.01.268.175-.647,1.289-.737v1.54l1.5-.4-.385,1.424-.587.335.524.9.909-.519-.338-.581.385-1.424,1.111,1.091.77-1.333.742,1.275-.175.647,1.01.269.272-1-.655-.174-.744-1.277h1.559l-.4-1.484,1.436.381Zm-1.394-2.44-.831.821-1.8-.478,1.616-.922Zm-1.277-2.19v1.161l-1.616.923.483-1.783Zm-2.468-.657.825.823-.482,1.783-.932-1.6Zm-2.222,1.267h1.175l.932,1.6-1.8-.478Zm-.661,2.443.831-.82,1.8.478-1.616.922Zm1.278,2.192v-1.162l1.616-.923-.482,1.783Zm2.475.655-.834-.823.483-1.782.932,1.6Zm2.21-1.267H407.88l-.931-1.6,1.8.478Z" transform="translate(-400.795 -155.038)" fill="#706f6f"/>
                        </g>
                      </g>
                    </g>
                    <g id="Group_133744" data-name="Group 133744" transform="translate(518.911 33.573)" style="mix-blend-mode: screen;isolation: isolate">
                      <g id="Group_133743" data-name="Group 133743">
                        <g id="Group_133742" data-name="Group 133742" clip-path="url(#clip-path-22)">
                          <path id="Path_92812" data-name="Path 92812" d="M524.041,70.269l.909-.519-.524-.9-.586.335L522.4,68.8l1.1-1.088-1.349-.768,1.289-.736.655.173.271-1-1.01-.268-.176.647L521.9,66.5V64.961l-1.5.4.386-1.424.586-.335-.524-.9-.909.519.338.581-.385,1.422-1.094-1.09-.781,1.336-.744-1.277.176-.647-1.01-.269-.271,1,.654.174.744,1.276H516l.4,1.486-1.437-.381-.338-.581-.909.519.523.9.587-.335,1.437.381-1.1,1.087,1.349.769-1.29.737-.654-.173-.272,1,1.01.268.175-.647,1.289-.737v1.54l1.5-.4-.385,1.424-.587.335.524.9.909-.519-.338-.581.385-1.425,1.111,1.092.77-1.333.742,1.275-.175.647,1.01.269.272-1-.655-.174-.744-1.277h1.559l-.4-1.484,1.436.381Zm-1.394-2.44-.831.821-1.8-.478,1.616-.922Zm-1.277-2.19V66.8l-1.616.923.483-1.783Zm-2.468-.657.825.823-.482,1.783-.932-1.6Zm-2.222,1.267h1.175l.932,1.6-1.8-.478Zm-.658,2.443.831-.82,1.8.478-1.616.922Zm1.278,2.192V69.722l1.616-.923-.482,1.783Zm2.475.655-.834-.823.483-1.782.932,1.6Zm2.21-1.267h-1.175l-.931-1.6,1.8.478Z" transform="translate(-513.722 -62.703)" fill="#706f6f"/>
                        </g>
                      </g>
                    </g>
                    <g id="Group_133747" data-name="Group 133747" transform="translate(164.654 64.878)" style="mix-blend-mode: screen;isolation: isolate">
                      <g id="Group_133746" data-name="Group 133746">
                        <g id="Group_133745" data-name="Group 133745" clip-path="url(#clip-path-23)">
                          <path id="Path_92813" data-name="Path 92813" d="M173.327,101.574l.909-.519-.524-.9-.586.335-1.438-.382,1.1-1.088-1.348-.768,1.289-.736.655.173.271-1-1.01-.268-.176.647-1.288.737V96.266l-1.5.4.386-1.424.586-.335-.524-.9-.909.519.338.581-.385,1.422-1.094-1.09-.781,1.336L166.55,95.5l.176-.647-1.01-.269-.271,1,.654.174.744,1.276h-1.557l.4,1.486-1.437-.381-.338-.581-.909.519.523.9.587-.335,1.437.381-1.1,1.087,1.348.769-1.29.737-.654-.173-.272,1,1.01.268.175-.647,1.289-.737v1.54l1.5-.4-.385,1.424-.587.335.524.9.909-.519-.339-.581.386-1.425,1.111,1.092.769-1.333.743,1.275-.175.647,1.01.269.272-1-.655-.174L170.4,102.1h1.559l-.4-1.484,1.436.381Zm-1.394-2.44-.831.821-1.8-.478,1.616-.922Zm-1.278-2.19V98.1l-1.616.923.483-1.783Zm-2.467-.657.825.823-.482,1.783-.932-1.6Zm-2.222,1.267h1.175l.932,1.6-1.8-.478ZM165.31,100l.831-.82,1.8.478-1.616.922Zm1.278,2.192V101.03l1.616-.923-.482,1.783Zm2.475.655-.834-.823.483-1.782.932,1.6Zm2.21-1.267H170.1l-.931-1.6,1.8.478Z" transform="translate(-163.007 -94.008)" fill="#706f6f"/>
                        </g>
                      </g>
                    </g>
                    <g id="Group_133750" data-name="Group 133750" transform="translate(204.62 62.114)" style="mix-blend-mode: screen;isolation: isolate">
                      <g id="Group_133749" data-name="Group 133749">
                        <g id="Group_133748" data-name="Group 133748" clip-path="url(#clip-path-21)">
                          <path id="Path_92814" data-name="Path 92814" d="M212.893,98.81l.909-.519-.524-.9-.586.335-1.438-.382,1.1-1.088-1.348-.768,1.289-.736.655.173.271-1-1.01-.268-.176.647-1.288.737V93.5l-1.5.4.386-1.424.586-.335-.524-.9-.909.519.338.581-.385,1.422-1.094-1.09-.781,1.336-.744-1.277.176-.647-1.01-.269-.271,1,.654.174.744,1.276h-1.557l.4,1.486-1.437-.381-.338-.581-.909.519.523.9.587-.335,1.437.381-1.1,1.087,1.348.769-1.29.737-.654-.173-.272,1,1.01.268.175-.647,1.289-.737v1.54l1.5-.4-.385,1.424-.587.335.524.9.909-.519-.339-.581.386-1.424,1.111,1.091.769-1.333.743,1.275-.175.647,1.01.269.272-1-.655-.174-.744-1.277h1.559l-.4-1.484,1.436.381ZM211.5,96.37l-.83.821-1.8-.478,1.616-.922Zm-1.277-2.19v1.161l-1.616.923.483-1.783Zm-2.467-.657.825.823-.482,1.783-.932-1.6Zm-2.222,1.267h1.175l.932,1.6-1.8-.478Zm-.661,2.443.831-.82,1.8.478-1.616.922Zm1.278,2.192V98.263l1.616-.923-.482,1.783Zm2.475.655-.834-.823.483-1.782.932,1.6Zm2.21-1.267h-1.176l-.931-1.6,1.8.478Z" transform="translate(-202.574 -91.244)" fill="#706f6f"/>
                        </g>
                      </g>
                    </g>
                    <g id="Group_133753" data-name="Group 133753" transform="translate(406.878 72.705)" style="mix-blend-mode: screen;isolation: isolate">
                      <g id="Group_133752" data-name="Group 133752">
                        <g id="Group_133751" data-name="Group 133751" clip-path="url(#clip-path-21)">
                          <path id="Path_92815" data-name="Path 92815" d="M413.128,109.4l.909-.519-.524-.9-.586.335-1.438-.382,1.1-1.088-1.348-.768,1.289-.736.655.173.271-1-1.01-.268-.176.647-1.288.737v-1.539l-1.5.4.386-1.424.586-.335-.524-.9-.909.519.338.581-.385,1.422-1.094-1.09L407.1,104.6l-.744-1.277.176-.647-1.01-.269-.271,1,.654.174.744,1.276h-1.557l.4,1.486-1.437-.381-.338-.581-.909.519.523.9.587-.335,1.437.381-1.1,1.087,1.348.769-1.29.737-.654-.173-.272,1,1.01.268.175-.647,1.289-.737v1.54l1.5-.4-.385,1.424-.587.335.524.9.909-.519-.339-.581.386-1.425,1.111,1.092.769-1.333.743,1.275-.175.647,1.01.269.272-1-.655-.174-.744-1.277h1.559l-.4-1.484,1.436.381Zm-1.394-2.44-.831.821-1.8-.478,1.616-.922Zm-1.278-2.19v1.161l-1.616.923.483-1.783Zm-2.467-.657.825.823-.482,1.783-.932-1.6Zm-2.222,1.267h1.174l.932,1.6-1.8-.478Zm-.661,2.443.831-.82,1.8.478-1.616.922Zm1.278,2.192v-1.162L408,107.93l-.482,1.783Zm2.475.655-.834-.823.483-1.782.932,1.6Zm2.21-1.267h-1.176l-.931-1.6,1.8.478Z" transform="translate(-402.809 -101.835)" fill="#706f6f"/>
                        </g>
                      </g>
                    </g>
                    <g id="Group_133756" data-name="Group 133756" transform="translate(70.096 17.755)" style="mix-blend-mode: screen;isolation: isolate">
                      <g id="Group_133755" data-name="Group 133755">
                        <g id="Group_133754" data-name="Group 133754" clip-path="url(#clip-path-21)">
                          <path id="Path_92816" data-name="Path 92816" d="M79.715,54.451l.909-.519-.524-.9-.586.335-1.438-.382,1.1-1.085-1.348-.768,1.289-.732.655.173.271-1-1.01-.268-.176.647-1.288.737V49.15l-1.5.4.386-1.424.586-.335-.524-.9-.909.519.338.581-.38,1.416-1.094-1.09-.781,1.336-.752-1.277.176-.647L72.1,47.46l-.271,1,.654.174.744,1.276H71.674l.4,1.486-1.437-.381-.338-.581-.909.519.523.9.587-.335,1.437.381-1.1,1.087,1.348.769-1.29.737-.654-.173-.272,1,1.01.268.175-.647,1.289-.737v1.54l1.5-.4-.385,1.424-.587.335.524.9.909-.519-.339-.581.386-1.425,1.111,1.092.769-1.333.739,1.274-.175.647,1.01.269.272-1-.655-.174-.744-1.277h1.559l-.4-1.484,1.436.381Zm-1.395-2.44-.83.821-1.8-.478,1.616-.922Zm-1.277-2.19v1.161l-1.616.923.483-1.783Zm-2.467-.657.825.823L74.92,51.77l-.932-1.6Zm-2.222,1.267h1.175l.932,1.6-1.8-.478Zm-.661,2.443.831-.82,1.8.478-1.616.922Zm1.278,2.192V53.9l1.616-.923-.482,1.783Zm2.475.655-.834-.823.483-1.782.932,1.6Zm2.21-1.267H76.485l-.931-1.6,1.8.478Z" transform="translate(-69.395 -46.885)" fill="#706f6f"/>
                        </g>
                      </g>
                    </g>
                    <g id="Group_133759" data-name="Group 133759" transform="translate(95.233 12.881)" style="mix-blend-mode: screen;isolation: isolate">
                      <g id="Group_133758" data-name="Group 133758">
                        <g id="Group_133757" data-name="Group 133757" clip-path="url(#clip-path-27)">
                          <path id="Path_92817" data-name="Path 92817" d="M147.29,80.873l4.662-2.665-2.692-4.615-3.011,1.721-7.386-1.959,5.657-5.591L137.6,63.822l6.62-3.784,3.359.892,1.394-5.148-5.2-1.38-.9,3.326-6.619,3.783.019-7.9-7.727,2.053,1.98-7.313,3.012-1.722-2.692-4.615-4.662,2.664,1.738,2.982-1.978,7.306-5.62-5.6-4.007,6.864-3.825-6.559.9-3.326-5.2-1.379-1.394,5.148,3.365.886,3.823,6.556h-8l2.082,7.631-7.383-1.958-1.737-2.984L94.28,62.91l2.692,4.615L99.984,65.8l7.384,1.958-5.657,5.581,6.927,3.951-6.622,3.785-3.36-.891-1.393,5.148,5.2,1.38.9-3.326,6.62-3.784-.014,7.907,7.72-2.055-1.976,7.315L112.7,94.491l2.692,4.615,4.662-2.664-1.739-2.982,1.982-7.319,5.68,5.6,3.951-6.844,3.818,6.548-.9,3.325,5.2,1.38L139.44,91l-3.359-.891-3.825-6.558h8l-2.086-7.623,7.381,1.958Zm-7.165-12.534-4.27,4.219L126.606,70.1l8.294-4.74Zm-6.559-11.25-.014,5.964-8.293,4.741,2.478-9.156Zm-12.675-3.371,4.242,4.227L122.657,67.1l-4.787-8.2ZM109.5,60.224h6.034l4.788,8.209-9.256-2.449Zm-3.395,12.548,4.27-4.212,9.249,2.454-8.292,4.74Zm6.566,11.26.011-5.968,8.293-4.74L118.5,82.48ZM125.385,87.4,121.1,83.169l2.478-9.154,4.789,8.212Zm11.353-6.506H130.7l-4.787-8.208,9.251,2.454Z" transform="translate(-94.281 -42.011)" fill="#706f6f"/>
                        </g>
                      </g>
                    </g>
                    <g id="Group_133762" data-name="Group 133762" transform="translate(24.324 14.008)" style="mix-blend-mode: screen;isolation: isolate">
                      <g id="Group_133761" data-name="Group 133761">
                        <g id="Group_133760" data-name="Group 133760" clip-path="url(#clip-path-21)">
                          <path id="Path_92818" data-name="Path 92818" d="M34.4,50.7l.909-.519-.524-.9-.586.335-1.438-.382,1.1-1.088-1.348-.768,1.289-.736.655.173.271-1-1.01-.268-.176.647-1.288.737V45.392l-1.5.4.386-1.424.586-.335-.524-.9-.909.519.338.581-.385,1.422L29.151,44.57l-.781,1.336-.744-1.277.176-.647-1.01-.269-.271,1,.654.174.744,1.276h-1.56l.4,1.486-1.437-.381-.338-.581-.909.519.523.9.587-.335,1.437.381-1.1,1.087,1.348.769-1.29.737-.654-.173-.272,1,1.01.268.175-.647,1.289-.737V52l1.5-.4L28.25,53.02l-.587.335.524.9.909-.519-.339-.581.386-1.425,1.106,1.092.769-1.333.743,1.275-.175.647,1.01.269.272-1-.655-.174-.739-1.28h1.559l-.4-1.484,1.436.381Zm-1.395-2.44-.83.821-1.8-.478,1.616-.922Zm-1.277-2.19v1.161l-1.616.923.483-1.783Zm-2.467-.657.825.823-.482,1.783-.932-1.6ZM27.043,46.68h1.175l.932,1.6-1.8-.478Zm-.661,2.443.831-.82,1.8.478L27.4,49.7Zm1.278,2.192V50.153l1.616-.923-.482,1.783Zm2.475.655-.834-.823.483-1.782.932,1.6Zm2.21-1.267H31.171l-.931-1.6,1.8.478Z" transform="translate(-24.081 -43.138)" fill="#706f6f"/>
                        </g>
                      </g>
                    </g>
                    <g id="Group_133765" data-name="Group 133765" transform="translate(282.684 171.063)" style="mix-blend-mode: screen;isolation: isolate">
                      <g id="Group_133764" data-name="Group 133764">
                        <g id="Group_133763" data-name="Group 133763" clip-path="url(#clip-path-29)">
                          <path id="Path_92819" data-name="Path 92819" d="M290.177,207.758l.909-.519-.524-.9-.586.335-1.438-.382,1.1-1.088-1.348-.768,1.289-.736.655.173.271-1-1.01-.268-.176.647-1.288.737V202.45l-1.5.4.386-1.424.586-.335-.524-.9-.909.519.338.581-.385,1.422-1.094-1.09-.781,1.336-.744-1.277.176-.647-1.01-.269-.271,1,.654.174.744,1.276h-1.557l.4,1.486-1.437-.381-.338-.581-.909.519.523.9.587-.335,1.437.382-1.1,1.086,1.348.769-1.29.737-.654-.173-.272,1,1.01.268.175-.647,1.289-.737v1.54l1.5-.4-.385,1.424-.587.335.524.9.909-.519-.339-.581.386-1.424,1.111,1.091.769-1.333.743,1.275-.175.647,1.01.269.272-1-.655-.174-.744-1.277h1.559l-.4-1.484,1.436.381Zm-1.395-2.44-.83.821-1.8-.478,1.616-.922Zm-1.277-2.19v1.161l-1.616.923.483-1.783Zm-2.467-.657.825.823-.482,1.783-.932-1.6Zm-2.222,1.267h1.175l.932,1.6-1.8-.478Zm-.661,2.443.831-.82,1.8.478-1.616.922Zm1.278,2.192v-1.162l1.616-.923-.482,1.783Zm2.475.655-.834-.823.483-1.782.932,1.6Zm2.21-1.267h-1.176l-.931-1.6,1.8.478Z" transform="translate(-279.857 -200.193)" fill="#706f6f"/>
                        </g>
                      </g>
                    </g>
                    <g id="Group_133768" data-name="Group 133768" transform="translate(367.579 104.009)" style="mix-blend-mode: screen;isolation: isolate">
                      <g id="Group_133767" data-name="Group 133767">
                        <g id="Group_133766" data-name="Group 133766" clip-path="url(#clip-path-22)">
                          <path id="Path_92820" data-name="Path 92820" d="M374.222,140.705l.909-.519-.524-.9-.586.335-1.438-.382,1.1-1.088-1.348-.768,1.289-.736.655.173.271-1-1.01-.268-.176.647-1.288.737V135.4l-1.5.4.386-1.424.586-.335-.524-.9-.909.519.338.581-.385,1.422-1.094-1.09-.781,1.336-.744-1.277.176-.647-1.01-.269-.271,1,.654.174.744,1.276h-1.557l.4,1.486-1.437-.381-.338-.581-.909.519.523.9.587-.335,1.437.381-1.1,1.087,1.348.769-1.29.737-.654-.173-.272,1,1.01.268.175-.647,1.289-.737V142l1.5-.4-.385,1.424-.587.335.524.9.909-.519-.338-.581.385-1.425,1.111,1.092.77-1.333.742,1.275-.175.647,1.01.269.272-1-.655-.174-.744-1.277h1.559l-.4-1.484,1.436.381Zm-1.394-2.44-.831.821-1.8-.478,1.616-.922Zm-1.277-2.19v1.161l-1.616.923.483-1.783Zm-2.468-.657.825.823-.482,1.783-.932-1.6Zm-2.222,1.267h1.18l.932,1.6-1.8-.478Zm-.661,2.443.831-.82,1.8.478-1.616.922Zm1.278,2.192v-1.162l1.616-.923-.482,1.783Zm2.475.655-.834-.823.483-1.782.932,1.6Zm2.21-1.267h-1.176l-.931-1.6,1.8.478Z" transform="translate(-363.903 -133.139)" fill="#706f6f"/>
                        </g>
                      </g>
                    </g>
                  </g>
                </g>
              </g>
            </g>
          </g>
        </g>
      </g>
    </g>
  </g>
</svg>
