<svg xmlns="http://www.w3.org/2000/svg" xmlns:xlink="http://www.w3.org/1999/xlink" width="200" height="144" viewBox="0 0 200 144">
  <defs>
    <clipPath id="clip-Overdue_New_Icon_11">
      <rect width="200" height="144"/>
    </clipPath>
  </defs>
  <g id="Overdue_New_Icon_11" data-name="Overdue –New Icon – 11" clip-path="url(#clip-Overdue_New_Icon_11)">
    <path id="Union_659" data-name="Union 659" d="M31.8,90.193h-.031a5.836,5.836,0,0,1-4.981-2.707,5.122,5.122,0,0,1-.029-5.43l10.818-17.89A28.226,28.226,0,0,0,45.7,65.352a28.624,28.624,0,0,0,3.4-.2L39.465,80.616h80.576L79.752,15.968,70.438,30.914a25.282,25.282,0,0,0-7.077-9.388L74.712,2.755a5.808,5.808,0,0,1,5-2.755h.077a5.81,5.81,0,0,1,5,2.756l47.953,79.3a5.175,5.175,0,0,1-.03,5.43,5.893,5.893,0,0,1-5.01,2.707ZM79.748,76.7a4.64,4.64,0,0,1-4.77-4.471,4.331,4.331,0,0,1,1.394-3.178,4.892,4.892,0,0,1,3.374-1.319h.008a4.641,4.641,0,0,1,4.772,4.481,4.322,4.322,0,0,1-1.4,3.173A4.9,4.9,0,0,1,79.753,76.7ZM76.171,62.16c-.327-7.371-.787-15.955-1.193-23.527a4.648,4.648,0,0,1,4.769-4.441h.005a4.639,4.639,0,0,1,4.773,4.474c-.109,2.063-.223,4.166-.334,6.2v.01c-.31,5.678-.63,11.549-.859,17.285a3.587,3.587,0,0,1-7.161,0ZM20.73,53.82A23.212,23.212,0,0,1,18.75,18.439a25.286,25.286,0,0,1,17.494-6.944v-.024a25.265,25.265,0,0,1,17.495,6.968,23.372,23.372,0,0,1,7.249,16.848,22.321,22.321,0,0,1-1.484,8.1,23.24,23.24,0,0,1-1.1,2.539A24.667,24.667,0,0,1,41.537,58.538,25.448,25.448,0,0,1,20.73,53.82Zm2.389-31.166a17.395,17.395,0,0,0,0,25.25,19.072,19.072,0,0,0,26.25,0,17.361,17.361,0,0,0,0-25.25,19.093,19.093,0,0,0-26.25,0ZM34.2,40.232a3.046,3.046,0,0,1-2.2-.87,2.906,2.906,0,0,1-.9-2.1V25.35a2.921,2.921,0,0,1,1.553-2.561,3.105,3.105,0,0,1,3.072,0,2.916,2.916,0,0,1,1.55,2.561v8.942h7.233a3.081,3.081,0,0,1,2.665,1.489,2.857,2.857,0,0,1,0,2.978,3.1,3.1,0,0,1-2.665,1.473Z" transform="translate(28 26.5)" stroke="#bbb" stroke-width="1" opacity="0.3"/>
  </g>
</svg>
