<svg xmlns="http://www.w3.org/2000/svg" xmlns:xlink="http://www.w3.org/1999/xlink" width="62" height="62" viewBox="0 0 62 62">
  <defs>
    <clipPath id="clip-path">
      <rect id="Rectangle_145998" data-name="Rectangle 145998" width="62" height="62"/>
    </clipPath>
    <linearGradient id="linear-gradient" x1="0.146" y1="0.853" x2="0.853" y2="0.146" gradientUnits="objectBoundingBox">
      <stop offset="0" stop-color="#fdb728"/>
      <stop offset="1" stop-color="#ffcd23"/>
    </linearGradient>
    <filter id="Ellipse_16763" x="28.386" y="6.726" width="33.107" height="32.895" filterUnits="userSpaceOnUse">
      <feOffset dy="3" input="SourceAlpha"/>
      <feGaussianBlur stdDeviation="1.5" result="blur"/>
      <feFlood flood-opacity="0.102"/>
      <feComposite operator="in" in2="blur"/>
      <feComposite in="SourceGraphic"/>
    </filter>
    <linearGradient id="linear-gradient-2" x1="0.135" y1="0.179" x2="2.246" y2="2.139" gradientUnits="objectBoundingBox">
      <stop offset="0" stop-color="#fff"/>
      <stop offset="1" stop-color="#d9eaf8"/>
    </linearGradient>
    <filter id="Path_48024" x="-4.186" y="4.665" width="70.191" height="42.764" filterUnits="userSpaceOnUse">
      <feOffset input="SourceAlpha"/>
      <feGaussianBlur stdDeviation="3" result="blur-2"/>
      <feFlood flood-opacity="0.161"/>
      <feComposite operator="in" in2="blur-2"/>
      <feComposite in="SourceGraphic"/>
    </filter>
  </defs>
  <g id="_10d" data-name="10d" clip-path="url(#clip-path)">
    <g id="Group_80213" data-name="Group 80213" transform="translate(9.381 10.222)">
      <g id="Icons" transform="translate(23.505 -1.996)">
        <g id="Dust" transform="translate(0 0)">
          <g transform="matrix(1, 0, 0, 1, -32.89, -8.23)" filter="url(#Ellipse_16763)">
            <ellipse id="Ellipse_16763-2" data-name="Ellipse 16763" cx="12.054" cy="11.948" rx="12.054" ry="11.948" transform="translate(32.89 8.23)" fill="url(#linear-gradient)"/>
          </g>
        </g>
      </g>
      <g id="noun-rain-19228" transform="translate(0 4.793)">
        <g transform="matrix(1, 0, 0, 1, -9.38, -15.02)" filter="url(#Path_48024)">
          <path id="Path_48024-2" data-name="Path 48024" d="M149.464,108.552a6.743,6.743,0,0,0-1.55.188l-1.089.254-.37-.97c-1.657-4.417-6.772-6.909-11.71-5.707l-1.135.269-.341-1.029c-1.45-4.5-6.465-7.209-11.48-6.2s-8.322,5.39-7.57,10.032l.248,1.65-1.769-.416a7.806,7.806,0,0,0-7.5,2.235,6.286,6.286,0,0,0-1.01,7.15,7.455,7.455,0,0,0,6.635,3.9h38.667a5.7,5.7,0,1,0-.024-11.352Z" transform="translate(-98.68 -81.48)" fill="url(#linear-gradient-2)"/>
        </g>
        <path id="Path_48017" data-name="Path 48017" d="M255.373,364.541a13.012,13.012,0,0,0-3.108,3.748,1.931,1.931,0,0,0,1.406,2.331,2.1,2.1,0,0,0,.563.079,1.892,1.892,0,0,0,1.85-1.349,15.136,15.136,0,0,0-.713-4.814" transform="translate(-239.155 -340.803)" fill="#00b3f0"/>
        <path id="Path_48018" data-name="Path 48018" d="M389.773,436a13,13,0,0,0-3.108,3.755,1.933,1.933,0,0,0,1.406,2.331,2.163,2.163,0,0,0,.564.075,1.888,1.888,0,0,0,1.85-1.345,15.135,15.135,0,0,0-.715-4.815" transform="translate(-361.745 -405.982)" fill="#00b3f0"/>
        <path id="Path_48019" data-name="Path 48019" d="M308.27,421.82a8.741,8.741,0,0,0-2.086,2.52,1.295,1.295,0,0,0,.945,1.571,1.506,1.506,0,0,0,.379.052,1.268,1.268,0,0,0,1.243-.906,10.192,10.192,0,0,0-.48-3.237" transform="translate(-288.353 -393.049)" fill="#00b3f0"/>
        <path id="Path_48020" data-name="Path 48020" d="M318.248,488.371a8.717,8.717,0,0,0-2.089,2.52,1.295,1.295,0,0,0,.948,1.569,1.408,1.408,0,0,0,.377.05,1.273,1.273,0,0,0,1.244-.906,10.164,10.164,0,0,0-.48-3.237" transform="translate(-297.453 -453.751)" fill="#00b3f0"/>
        <path id="Path_48021" data-name="Path 48021" d="M229.169,452.27a8.731,8.731,0,0,0-2.087,2.518,1.295,1.295,0,0,0,.947,1.569,1.4,1.4,0,0,0,.379.05,1.265,1.265,0,0,0,1.242-.906,10.181,10.181,0,0,0-.48-3.237" transform="translate(-216.202 -420.823)" fill="#00b3f0"/>
        <path id="Path_48022" data-name="Path 48022" d="M451.379,378.471a8.748,8.748,0,0,0-2.09,2.52,1.295,1.295,0,0,0,.947,1.571,1.518,1.518,0,0,0,.379.051,1.269,1.269,0,0,0,1.243-.906,10.229,10.229,0,0,0-.479-3.237" transform="translate(-418.883 -353.509)" fill="#00b3f0"/>
        <path id="Path_48023" data-name="Path 48023" d="M150.14,121.439h0m15.039-14.409h0" transform="translate(-146.062 -105.921)" fill="#fff"/>
        <path id="Path_48026" data-name="Path 48026" d="M372.734,365.077a5.767,5.767,0,0,0-1.165,1.626,1.3,1.3,0,0,0,.945,1.569,1.463,1.463,0,0,0,.379.053,1.266,1.266,0,0,0,1.242-.906,6.991,6.991,0,0,0-.247-2.342Z" transform="translate(-347.997 -341.291)" fill="#00b3f0"/>
      </g>
    </g>
  </g>
</svg>
