<svg xmlns="http://www.w3.org/2000/svg" xmlns:xlink="http://www.w3.org/1999/xlink" width="10" height="10" viewBox="0 0 62.996 69.766">
  <defs>
    <filter id="Subtraction_2" x="0" y="0" width="62.996" height="69.766" filterUnits="userSpaceOnUse">
      <feOffset dx="-2" input="SourceAlpha"/>
      <feGaussianBlur stdDeviation="5" result="blur"/>
      <feFlood flood-opacity="0.259"/>
      <feComposite operator="in" in2="blur"/>
      <feComposite in="SourceGraphic"/>
    </filter>
  </defs>
  <g id="drag-new" transform="translate(-2027.662 -348.453)">
    <g transform="matrix(1, 0, 0, 1, 2027.66, 348.45)" filter="url(#Subtraction_2)">
      <g id="Subtraction_2-2" data-name="Subtraction 2" transform="translate(26 15)" fill="#fff">
        <path d="M 10.8818998336792 39.36470031738281 C 5.678319931030273 39.36470031738281 0.786050021648407 37.33816909790039 -2.893709897994995 33.65840911865234 C -6.573470115661621 29.97865104675293 -8.600000381469727 25.08638000488281 -8.600000381469727 19.8828010559082 C -8.600000381469727 14.67883110046387 -6.573460102081299 9.786280632019043 -2.893699884414673 6.106400966644287 C 0.7860100269317627 2.426570892333984 5.678279876708984 0.4000009298324585 10.8818998336792 0.4000009298324585 C 15.55563259124756 0.4000009298324585 20.06311225891113 2.074657440185547 23.59580039978027 5.119790554046631 L 23.59580039978027 34.64498519897461 C 20.06305503845215 37.69007873535156 15.55559349060059 39.36470031738281 10.8818998336792 39.36470031738281 Z" stroke="none"/>
        <path d="M 10.8818998336792 38.96470260620117 C 15.39850997924805 38.96470260620117 19.75685119628906 37.3677864074707 23.19580078125 34.46051788330078 L 23.19580078125 5.304248332977295 C 19.75689888000488 2.396950244903564 15.39855861663818 0.8000009059906006 10.8818998336792 0.8000009059906006 C 5.785120010375977 0.8000009059906006 0.9933000206947327 2.784960985183716 -2.610860109329224 6.389240741729736 C -6.215069770812988 9.993571281433105 -8.199999809265137 14.78567123413086 -8.199999809265137 19.8828010559082 C -8.199999809265137 24.97953033447266 -6.215069770812988 29.77136039733887 -2.610860109329224 33.37556076049805 C 0.993340015411377 36.97977066040039 5.785170078277588 38.96470260620117 10.8818998336792 38.96470260620117 M 10.8818998336792 39.76470184326172 C 5.571479797363281 39.76470184326172 0.578760027885437 37.69655990600586 -3.176549911499023 33.94124984741211 C -6.931859970092773 30.18594169616699 -9 25.1932201385498 -9 19.8828010559082 C -9 14.57199096679688 -6.931859970092773 9.578990936279297 -3.176549911499023 5.82356071472168 C 0.5787100195884705 2.068181037902832 5.571430206298828 9.216308853865485e-07 10.8818998336792 9.216308853865485e-07 C 15.71292018890381 9.216308853865485e-07 20.37018966674805 1.753540873527527 23.99580001831055 4.937611103057861 L 23.99580001831055 34.8271598815918 C 20.36984062194824 38.01145172119141 15.71269035339355 39.76470184326172 10.8818998336792 39.76470184326172 Z" stroke="none" fill="#e2e2e2"/>
      </g>
    </g>
    <g id="Group_67676" data-name="Group 67676" transform="translate(2047.287 397.201) rotate(-90)">
      <path id="Path_40968" data-name="Path 40968" d="M14.257,6.875c.331-.324.6-.588.869-.853.46-.459.915-.924,1.382-1.375a1.29,1.29,0,0,1,.441-.309.544.544,0,0,1,.687.253.619.619,0,0,1-.1.793L14.6,8.312c-.321.322-.628.657-1,1.044-.871-.891-1.69-1.735-2.513-2.575-.441-.454-.9-.9-1.349-1.353A.651.651,0,0,1,9.667,4.5a.6.6,0,0,1,.924.029c.71.685,1.4,1.387,2.1,2.082.066.066.137.129.26.246.016-.159.037-.257.037-.356q0-2.457.007-4.914c0-.334-.125-.4-.425-.4Q6.561,1.2.546,1.191C0,1.191,0,1.191,0,.636,0,.527.009.418,0,.311-.017.07.1-.015.327,0H26.659c.566,0,.566,0,.566.572V.9c.016.224-.1.3-.3.294H14.707c-.479,0-.479,0-.479.475V6.436A3.592,3.592,0,0,1,14.257,6.875Z" transform="translate(0 19.303)"/>
      <path id="Path_40969" data-name="Path 40969" d="M12.854,2.5c-.7.722-1.4,1.45-2.115,2.163a1.454,1.454,0,0,1-.525.354.475.475,0,0,1-.622-.294.883.883,0,0,1,.094-.718c.706-.771,1.471-1.491,2.206-2.235C12.457,1.2,13.012.621,13.613,0c.875.882,1.7,1.729,2.525,2.566.441.453.9.9,1.35,1.353a.64.64,0,0,1,.069.927.588.588,0,0,1-.918-.032c-.712-.684-1.4-1.387-2.108-2.081-.066-.066-.138-.126-.268-.244-.013.175-.029.285-.029.4,0,1.618.009,3.227-.009,4.841,0,.35.128.418.441.418q6-.012,11.992,0c.566,0,.566,0,.566.578a.948.948,0,0,1-.012.357.588.588,0,0,1-.262.253c-.075.04-.188.009-.285.009H.549C0,9.34,0,9.34,0,8.786V8.424c-.009-.2.088-.287.284-.281h12.21c.5,0,.5,0,.5-.491V2.574Z" transform="translate(0.009)"/>
      <path id="Path_40970" data-name="Path 40970" d="M13.646.008H26.719c.5,0,.5,0,.5.49-.007.882.106.747-.735.747H.515C0,1.245,0,1.245,0,.738.009-.115-.1.01.725,0Z" transform="translate(0.015 13.7)"/>
    </g>
  </g>
</svg>
