<svg xmlns="http://www.w3.org/2000/svg" xmlns:xlink="http://www.w3.org/1999/xlink" width="200" height="144" viewBox="0 0 200 144">
  <defs>
    <clipPath id="clip-Completed-2-white">
      <rect width="200" height="144"/>
    </clipPath>
  </defs>
  <g id="Completed-2-white" clip-path="url(#clip-Completed-2-white)">
    <path id="Subtraction_427" data-name="Subtraction 427" d="M5706.349,11254.53h-77.509a4.708,4.708,0,0,1-3.424-1.5,5.277,5.277,0,0,1-1.417-3.6v-56.054a5.275,5.275,0,0,1,1.417-3.6,4.711,4.711,0,0,1,3.424-1.488h24.224V11178.1a5.2,5.2,0,0,1,1.416-3.605,4.77,4.77,0,0,1,3.43-1.494h19.368a4.753,4.753,0,0,1,3.426,1.494,5.182,5.182,0,0,1,1.419,3.605v10.189h24.226a4.715,4.715,0,0,1,3.424,1.488,5.276,5.276,0,0,1,1.417,3.6v56.054a5.284,5.284,0,0,1-1.416,3.6A4.716,4.716,0,0,1,5706.349,11254.53Zm-50.179-37.03-4.862,4.872,10.931,10.948,20.614-18.445-4.577-5.134-15.768,14.111Zm1.74-39.4v10.189h19.368V11178.1Z" transform="translate(-5567.498 -11141.501)" fill="#fff" stroke="#999" stroke-width="1" opacity="0.3"/>
  </g>
</svg>
