<svg xmlns="http://www.w3.org/2000/svg" xmlns:xlink="http://www.w3.org/1999/xlink" width="200" height="144" viewBox="0 0 200 144">
  <defs>
    <clipPath id="clip-path">
      <rect id="Rectangle_145726" data-name="Rectangle 145726" width="200" height="144"/>
    </clipPath>
  </defs>
  <g id="In_Progress-2-white" data-name="In Progress-2-white" clip-path="url(#clip-path)">
    <path id="Union_643" data-name="Union 643" d="M12.03,70.12a41.075,41.075,0,1,1,58.089,0,41.075,41.075,0,0,1-58.089,0ZM8.8,41.075A32.274,32.274,0,1,0,41.075,8.8,32.274,32.274,0,0,0,8.8,41.075ZM38.114,58.613a1.414,1.414,0,0,1-.813-.689,1.524,1.524,0,0,1-.127-1.083l3.057-11.949L54.96,42.537,40.235,40.192,37.174,28.235a1.5,1.5,0,0,1,.227-1.241,1.383,1.383,0,0,1,1.07-.589h0a1.307,1.307,0,0,1,.681.15L67.289,41.232a1.444,1.444,0,0,1,.686.779,1.514,1.514,0,0,1,0,1.056,1.444,1.444,0,0,1-.686.779L39.151,58.522a1.357,1.357,0,0,1-.631.157,1.34,1.34,0,0,1-.409-.064Zm-4.153-4.719H26.342a1.368,1.368,0,0,1-1.009-.414,1.5,1.5,0,0,1,0-2.084,1.357,1.357,0,0,1,1.009-.414h7.616a1.361,1.361,0,0,1,1.009.414,1.5,1.5,0,0,1,0,2.084,1.372,1.372,0,0,1-.98.414ZM23.1,43.315a1.515,1.515,0,0,1-.066-1.437,1.4,1.4,0,0,1,1.151-.8,1.1,1.1,0,0,1,.132,0H36.751a1.366,1.366,0,0,1,1.006.414,1.5,1.5,0,0,1,0,2.084,1.366,1.366,0,0,1-1.006.414H24.284A1.39,1.39,0,0,1,23.1,43.315Zm3.24-9.232a1.391,1.391,0,0,1-1.214-.729,1.52,1.52,0,0,1,0-1.457,1.391,1.391,0,0,1,1.214-.729h7.616a1.384,1.384,0,0,1,1.214.729,1.506,1.506,0,0,1,0,1.457,1.384,1.384,0,0,1-1.214.729Z" transform="translate(58.5 30.5)" fill="#fff" stroke="#999" stroke-width="1" opacity="0.3"/>
  </g>
</svg>
