<svg xmlns="http://www.w3.org/2000/svg" xmlns:xlink="http://www.w3.org/1999/xlink" width="48" height="48" viewBox="0 0 48 48">
  <defs>
    <clipPath id="clip-path">
      <path id="Path_48031" data-name="Path 48031" d="M29.6,0A11.007,11.007,0,1,0,40.611,11.006,11.006,11.006,0,0,0,29.6,0Z" fill="none"/>
    </clipPath>
    <linearGradient id="linear-gradient" x1="-0.451" y1="1.102" x2="-0.419" y2="1.102" gradientUnits="objectBoundingBox">
      <stop offset="0" stop-color="#fc9204"/>
      <stop offset="1" stop-color="#ffb100"/>
    </linearGradient>
    <filter id="Path_48032" x="-5" y="8.94" width="55.195" height="41.822" filterUnits="userSpaceOnUse">
      <feOffset dy="3" input="SourceAlpha"/>
      <feGaussianBlur stdDeviation="3" result="blur"/>
      <feFlood flood-opacity="0.161"/>
      <feComposite operator="in" in2="blur"/>
      <feComposite in="SourceGraphic"/>
    </filter>
    <clipPath id="clip-_02d">
      <rect width="48" height="48"/>
    </clipPath>
  </defs>
  <g id="_02d" data-name="02d" clip-path="url(#clip-_02d)">
    <g id="Group_80229" data-name="Group 80229" transform="translate(4 9)">
      <g id="Group_80226" data-name="Group 80226">
        <g id="Group_80225" data-name="Group 80225" clip-path="url(#clip-path)">
          <rect id="Rectangle_148461" data-name="Rectangle 148461" width="31.131" height="31.131" transform="translate(7.591 11.007) rotate(-45)" fill="url(#linear-gradient)"/>
        </g>
      </g>
      <g id="Group_80228" data-name="Group 80228">
        <g id="Group_80230" data-name="Group 80230">
          <g transform="matrix(1, 0, 0, 1, -4, -9)" filter="url(#Path_48032)">
            <path id="Path_48032-2" data-name="Path 48032" d="M30.017,29.758a6.963,6.963,0,1,0,.43-13.919c-.143,0-.287,0-.43,0h-.072A11.094,11.094,0,0,0,8.777,12.53H8.614a8.614,8.614,0,1,0,0,17.228" transform="translate(4 9)" fill="#fff"/>
          </g>
        </g>
      </g>
    </g>
  </g>
</svg>
