<svg xmlns="http://www.w3.org/2000/svg" xmlns:xlink="http://www.w3.org/1999/xlink" width="48" height="48" viewBox="0 0 48 48">
  <defs>
    <clipPath id="clip-UV-Index">
      <rect width="48" height="48"/>
    </clipPath>
  </defs>
  <g id="UV-Index" clip-path="url(#clip-UV-Index)">
    <g id="noun-sun-4444950" transform="translate(-118.003 -48.059)">
      <path id="Path_43846" data-name="Path 43846" d="M241.945,163.113a8.833,8.833,0,1,1-8.833-8.833,8.833,8.833,0,0,1,8.833,8.833" transform="translate(-91.372 -91.32)" fill="#fff"/>
      <path id="Path_43847" data-name="Path 43847" d="M335.21,59.435a1.039,1.039,0,0,0,2.078,0V57.1a1.039,1.039,0,0,0-2.078,0Z" transform="translate(-194.509 0)" fill="#fff"/>
      <path id="Path_43848" data-name="Path 43848" d="M187.607,117.55a1.042,1.042,0,0,0,0,1.472l1.652,1.652a1.03,1.03,0,0,0,.736.3,1.039,1.039,0,0,0,.736-1.775l-1.652-1.652a1.043,1.043,0,0,0-1.472,0Z" transform="translate(-56.993 -56.888)" fill="#fff"/>
      <path id="Path_43849" data-name="Path 43849" d="M129.379,265.21h-2.337a1.039,1.039,0,0,0,0,2.077h2.337a1.039,1.039,0,1,0,0-2.077Z" transform="translate(0 -194.457)" fill="#fff"/>
      <path id="Path_43850" data-name="Path 43850" d="M189.259,389.9l-1.652,1.652a1.042,1.042,0,0,0,0,1.471,1.03,1.03,0,0,0,.736.3,1.047,1.047,0,0,0,.736-.3l1.652-1.652a1.041,1.041,0,0,0-1.472-1.471Z" transform="translate(-56.993 -310.1)" fill="#fff"/>
      <path id="Path_43851" data-name="Path 43851" d="M336.254,441.11a1.038,1.038,0,0,0-1.039,1.039v2.337a1.039,1.039,0,1,0,2.078,0v-2.337A1.038,1.038,0,0,0,336.254,441.11Z" transform="translate(-194.513 -357.999)" fill="#fff"/>
      <path id="Path_43852" data-name="Path 43852" d="M461.334,389.937a1.041,1.041,0,1,0-1.472,1.471l1.652,1.652a1.03,1.03,0,0,0,.736.3,1.039,1.039,0,0,0,.736-1.774Z" transform="translate(-310.12 -310.138)" fill="#fff"/>
      <path id="Path_43853" data-name="Path 43853" d="M514.535,265.21H512.2a1.039,1.039,0,1,0,0,2.077h2.337a1.039,1.039,0,1,0,0-2.077Z" transform="translate(-358.096 -194.457)" fill="#fff"/>
      <path id="Path_43854" data-name="Path 43854" d="M460.621,121.017a1.047,1.047,0,0,0,.736-.3l1.652-1.652a1.041,1.041,0,0,0-1.472-1.472l-1.652,1.652a1.039,1.039,0,0,0,.736,1.775Z" transform="translate(-310.142 -56.924)" fill="#fff"/>
    </g>
  </g>
</svg>
