<svg xmlns="http://www.w3.org/2000/svg" xmlns:xlink="http://www.w3.org/1999/xlink" width="500" height="152" viewBox="0 0 500 152">
  <defs>
    <clipPath id="clip-path">
      <path id="Path_110837" data-name="Path 110837" d="M0,0H500V152H0Z"/>
    </clipPath>
    <clipPath id="clip-path-2">
      <rect id="Rectangle_166488" data-name="Rectangle 166488" width="500" height="142" rx="4"/>
    </clipPath>
    <clipPath id="clip-path-3">
      <rect id="Rectangle_166487" data-name="Rectangle 166487" width="594.403" height="224.508" fill="none"/>
    </clipPath>
    <linearGradient id="linear-gradient" y1="1" x2="0" y2="1" gradientUnits="objectBoundingBox">
      <stop offset="0" stop-color="#bafafc"/>
      <stop offset="0.184" stop-color="#adf2fa"/>
      <stop offset="0.518" stop-color="#8dddf5"/>
      <stop offset="0.96" stop-color="#59bdee"/>
      <stop offset="1" stop-color="#55baee"/>
    </linearGradient>
    <clipPath id="clip-path-6">
      <rect id="Rectangle_166479" data-name="Rectangle 166479" width="39.355" height="64.744" fill="none"/>
    </clipPath>
    <clipPath id="clip-path-7">
      <rect id="Rectangle_166480" data-name="Rectangle 166480" width="78.44" height="103.058" fill="none"/>
    </clipPath>
    <clipPath id="clip-path-8">
      <rect id="Rectangle_166481" data-name="Rectangle 166481" width="89.521" height="34.174" fill="none"/>
    </clipPath>
    <clipPath id="clip-path-9">
      <rect id="Rectangle_166482" data-name="Rectangle 166482" width="98.115" height="49.436" fill="none"/>
    </clipPath>
    <clipPath id="clip-path-10">
      <rect id="Rectangle_166483" data-name="Rectangle 166483" width="93.801" height="78.389" fill="none"/>
    </clipPath>
    <clipPath id="clip-path-11">
      <rect id="Rectangle_166484" data-name="Rectangle 166484" width="93.803" height="78.389" fill="none"/>
    </clipPath>
    <clipPath id="clip-path-12">
      <rect id="Rectangle_166485" data-name="Rectangle 166485" width="93.802" height="78.389" fill="none"/>
    </clipPath>
    <filter id="Rectangle_166489" x="-1" y="0" width="506" height="149" filterUnits="userSpaceOnUse">
      <feOffset dx="2" dy="4" input="SourceAlpha"/>
      <feGaussianBlur stdDeviation="1" result="blur"/>
      <feFlood flood-opacity="0.2"/>
      <feComposite operator="in" in2="blur"/>
      <feComposite in="SourceGraphic"/>
    </filter>
    <clipPath id="clip-_01d-Clear_Sky">
      <rect width="500" height="152"/>
    </clipPath>
  </defs>
  <g id="_01d-Clear_Sky" data-name="01d-Clear Sky" clip-path="url(#clip-_01d-Clear_Sky)">
    <g id="Group_143173" data-name="Group 143173" transform="translate(-27 -102)">
      <g id="Mask_Group_329" data-name="Mask Group 329" transform="translate(27 102)" clip-path="url(#clip-path)">
        <g id="Group_133393" data-name="Group 133393" transform="translate(-7794 -2847)">
          <g id="Mask_Group_313" data-name="Mask Group 313" transform="translate(7794 2847)" clip-path="url(#clip-path-2)">
            <g id="Group_133392" data-name="Group 133392" transform="translate(-47.201 -72.076)">
              <g id="Group_133391" data-name="Group 133391" clip-path="url(#clip-path-3)">
                <g id="Group_133367" data-name="Group 133367">
                  <g id="Group_133366" data-name="Group 133366" clip-path="url(#clip-path-3)">
                    <rect id="Rectangle_166477" data-name="Rectangle 166477" width="594.403" height="224.508" fill="url(#linear-gradient)"/>
                  </g>
                </g>
                <g id="Group_133390" data-name="Group 133390">
                  <g id="Group_133389" data-name="Group 133389" clip-path="url(#clip-path-3)">
                    <g id="Group_133370" data-name="Group 133370" transform="translate(555.048 94.199)" opacity="0.17">
                      <g id="Group_133369" data-name="Group 133369">
                        <g id="Group_133368" data-name="Group 133368" clip-path="url(#clip-path-6)">
                          <path id="Path_83297" data-name="Path 83297" d="M2671.962,420.369v64.744a30.887,30.887,0,0,1-11.931-6.383,18.252,18.252,0,0,1-2.091,1.3c-8.687,4.566-19.213.794-23.51-8.434s-.749-20.412,7.934-24.986a16.834,16.834,0,0,1,6.953-1.918,33.08,33.08,0,0,1,16.565-21.916,30.253,30.253,0,0,1,6.08-2.408" transform="translate(-2632.607 -420.369)" fill="#e8fafe"/>
                        </g>
                      </g>
                    </g>
                    <g id="Group_133373" data-name="Group 133373" transform="translate(0 80.097)" opacity="0.17">
                      <g id="Group_133372" data-name="Group 133372">
                        <g id="Group_133371" data-name="Group 133371" clip-path="url(#clip-path-7)">
                          <path id="Path_83298" data-name="Path 83298" d="M47.343,394.395a29.422,29.422,0,0,0-11.953,2.534A14.393,14.393,0,0,0,23.365,385.3a20.765,20.765,0,0,0,1.616-8.073c0-10.927-8.337-19.79-18.619-19.79A17.711,17.711,0,0,0,0,358.624v74.163a17.686,17.686,0,0,0,16.409-1.944C18.009,447.5,31.248,460.5,47.343,460.5c17.172,0,31.1-14.8,31.1-33.052s-13.923-33.053-31.1-33.053" transform="translate(0 -357.44)" fill="#e8fafe"/>
                        </g>
                      </g>
                    </g>
                    <g id="Group_133376" data-name="Group 133376" transform="translate(455.867 57.24)" opacity="0.16">
                      <g id="Group_133375" data-name="Group 133375">
                        <g id="Group_133374" data-name="Group 133374" clip-path="url(#clip-path-8)">
                          <path id="Path_83299" data-name="Path 83299" d="M2248.674,274.584c-1.656-1.336-9.141-3.641-10.9.017,1.054-2.741-.279-7.9-2.973-9.026-3.279-1.366-7.512-1.213-9.588,6.975,2.251-10.761-5.288-17.115-12.541-17.115-5.491,0-13.319,5.914-10.93,10.321-3.022-1.718-11.6,2.764-7.239,7.47-2.6-4.706-13.177-4.818-14.324,2.382,0,.007.005.012.007.018-7.6-2.7-22.6,4.815-16.626,9.257,8.283,6.157,72.9,6.718,87.095-.822,1.461-.776,1.9-6.347-1.985-9.478" transform="translate(-2162.191 -255.435)" fill="#e8fafe"/>
                        </g>
                      </g>
                    </g>
                    <g id="Group_133379" data-name="Group 133379" transform="translate(69.975 24.891)" opacity="0.16">
                      <g id="Group_133378" data-name="Group 133378">
                        <g id="Group_133377" data-name="Group 133377" clip-path="url(#clip-path-9)">
                          <path id="Path_83300" data-name="Path 83300" d="M430,150.851c.366,11.044-75.129,12.34-94.83,5.322-12.254-4.365,12.923-21.238,24.191-8.141-3.853-22.018,9.541-37.573,21.988-36.935s16.623,12.868,13.191,35.4c2.955-11.661,11.414-13.337,16.083-11.393,3.838,1.6,3.3,10.409,1.805,14.313,2.5-5.209,6.263-6.016,9.216-5.861s8.237,3.689,8.357,7.3" transform="translate(-331.89 -111.078)" fill="#e8fafe"/>
                        </g>
                      </g>
                    </g>
                    <path id="Path_83301" data-name="Path 83301" d="M594.4,467.459V587.113H0V488.184q1.727.653,3.417,1.379a83.193,83.193,0,0,1,35.674,29.789c.11.147.2.3.3.443.2.3.4.594.587.889s.389.592.579.889A32.847,32.847,0,0,1,52,519.523c15.877,0,29.267,11.326,33.41,26.781.315-.024.637-.055.953-.071,1.616-.116,3.232-.171,4.876-.171s3.279.055,4.9.171h.007c.7-9.259,6.7-16.928,14.791-19.548a19.707,19.707,0,0,1,6.153-.982,20.259,20.259,0,0,1,14.343,6.025c.073.07.139.133.2.2a30.74,30.74,0,0,1,21.86-9.251,31.041,31.041,0,0,1,20.709,8.168.437.437,0,0,1,.066.053,19,19,0,0,1,2-.53h.022a19.451,19.451,0,0,1,10.207.609c.227.07.447.148.668.233a19.8,19.8,0,0,1,1.892.827c.007-.015.022-.04.029-.055a32.171,32.171,0,0,1,20.665-16.819,30.105,30.105,0,0,1,7.3-.9,30.5,30.5,0,0,1,20.122,7.646,34.254,34.254,0,0,1,11.095,19.835,18.266,18.266,0,0,1,2.038-.4,18.521,18.521,0,0,1,2.876-.218,19.909,19.909,0,0,1,8.529,1.917,21.07,21.07,0,0,1,6.849,5.191,36.454,36.454,0,0,1,12.43-2.174c.513,0,1.019.008,1.525.038a2.21,2.21,0,0,1,.25.009h.021c1.665-6.812,7.48-11.856,14.417-11.856A15.005,15.005,0,0,1,311.3,544.968c.007-.008.007-.008.014-.008.081-.023.154-.047.235-.07a25.5,25.5,0,0,1,2.787-.717.154.154,0,0,1,.059-.008,26.713,26.713,0,0,1,5.221-.515,27.823,27.823,0,0,1,22.344,11.519c.067.1.132.195.2.3a30.612,30.612,0,0,1,3.454,6.148,18.717,18.717,0,0,1,6.351-1.1,18.938,18.938,0,0,1,8.612,2.068c.114.053.225.115.342.178,5.14-11.309,16.03-19.111,28.636-19.111a30.693,30.693,0,0,1,21.818,9.213c.155.155.3.318.462.475l.007.008c.169-.132.33-.265.505-.4a13.983,13.983,0,0,1,15.6-.9c.074.04.155.085.228.132v-.008c.036-.147.073-.288.117-.429,3.153-11.807,13.368-20.459,25.49-20.459a25.826,25.826,0,0,1,20,9.68l.11-.093a28.647,28.647,0,0,1,19.022-7.287,28.218,28.218,0,0,1,10.73,2.117c.04.016.085.039.128.054h.007c1.43-15.276,13.56-27.209,28.305-27.209a27.461,27.461,0,0,1,19.58,8.3c.169.172.33.335.492.507.037-.039.074-.085.117-.125a24.449,24.449,0,0,1,8.7-6.235c.036-.015.066-.032.1-.047v-.008c.036-.218.074-.437.11-.655a41.968,41.968,0,0,1,1.034-4.552c.05-.179.1-.35.155-.522a43.292,43.292,0,0,1,2.323-6.041c.089-.179.176-.367.272-.554a40.4,40.4,0,0,1,12.671-15c-.014-.148-.014-.3-.014-.451,0-.2,0-.382.014-.577.279-8.488,6.841-15.268,14.894-15.268a12.274,12.274,0,0,1,1.87.132" transform="translate(0 -362.605)" fill="#e8fafe"/>
                    <path id="Path_83302" data-name="Path 83302" d="M925.992,716.428c0,.974-.036,1.948-.1,2.908-1.414-19.72-16.918-35.253-35.83-35.253a34.871,34.871,0,0,0-26.092,11.933c-.707.787-1.371,1.606-2.02,2.456a39.451,39.451,0,0,0-7.722,20.864c-.066-.959-.1-1.933-.1-2.908a39.858,39.858,0,0,1,4.76-19.009q.77-1.428,1.656-2.775a35.342,35.342,0,0,1,29.516-16.407c19.843,0,35.932,17.1,35.932,38.191" transform="translate(-674.046 -526.253)" fill="#fff"/>
                    <path id="Path_83303" data-name="Path 83303" d="M656.58,723.86c-.418.062-.835.125-1.247.21-1.048-.647-2.127-1.247-3.227-1.792a41.67,41.67,0,0,0-43.536,3.81,30.657,30.657,0,0,1,24.881-13.07,30.169,30.169,0,0,1,20.892,8.5,31.4,31.4,0,0,1,2.236,2.346" transform="translate(-480.263 -553.24)" fill="#fff"/>
                    <path id="Path_83304" data-name="Path 83304" d="M833.143,749.532c-.707.787-1.372,1.606-2.02,2.456a39.458,39.458,0,0,0-7.722,20.864c-.066-.959-.1-1.933-.1-2.908a39.859,39.859,0,0,1,4.76-19.009,21.578,21.578,0,0,0-5.617-.734,22.2,22.2,0,0,0-2.9.187c-.418.063-.835.125-1.246.21-1.049-.647-2.127-1.247-3.227-1.792a21.515,21.515,0,0,1,2.237-.764,21.85,21.85,0,0,1,6-.834,22.142,22.142,0,0,1,6.411.949,23.089,23.089,0,0,1,3.429,1.374" transform="translate(-643.221 -579.77)" fill="#fff"/>
                    <path id="Path_83305" data-name="Path 83305" d="M861.951,764.891a39.457,39.457,0,0,0-7.722,20.864c-.066-.959-.1-1.933-.1-2.908a39.858,39.858,0,0,1,4.76-19.009,20.667,20.667,0,0,1,3.065,1.052" transform="translate(-674.046 -592.673)" fill="#fff"/>
                    <path id="Path_83306" data-name="Path 83306" d="M1367.81,777.658c-.3-.024-.624-.055-.938-.07a13.427,13.427,0,0,0-.763-1.371,14.91,14.91,0,0,0-12.679-7.3c-8.309,0-15.04,7.1-15.135,15.908a16.721,16.721,0,0,1-.5-4.092c0-8.893,6.783-16.1,15.143-16.1a15.266,15.266,0,0,1,14.395,11.084,15.471,15.471,0,0,1,.477,1.941" transform="translate(-1055.74 -593.289)" fill="#fff"/>
                    <path id="Path_83307" data-name="Path 83307" d="M1508.591,833.2c-7.374-12.65-20.086-21.411-34.8-22.727-.3-.024-.624-.055-.939-.07a13.332,13.332,0,0,0-.763-1.371c.4-.18.808-.344,1.224-.5a24.907,24.907,0,0,1,8.829-1.606c14.041,0,25.535,11.606,26.451,26.274" transform="translate(-1161.718 -626.107)" fill="#fff"/>
                    <path id="Path_83308" data-name="Path 83308" d="M2317.3,846.7c-.3-.023-.623-.053-.938-.07a13.922,13.922,0,0,0-.762-1.371,14.909,14.909,0,0,0-12.68-7.295c-8.308,0-15.04,7.1-15.135,15.908a16.7,16.7,0,0,1-.5-4.092c0-8.893,6.783-16.1,15.144-16.1a15.263,15.263,0,0,1,14.4,11.082,15.564,15.564,0,0,1,.476,1.938" transform="translate(-1805.045 -646.863)" fill="#fff"/>
                    <path id="Path_83309" data-name="Path 83309" d="M2458.084,902.248c-7.374-12.649-20.086-21.409-34.8-22.728-.3-.023-.624-.053-.938-.07a13.783,13.783,0,0,0-.763-1.371c.4-.18.808-.343,1.224-.5a24.91,24.91,0,0,1,8.829-1.6c14.04,0,25.534,11.6,26.451,26.273" transform="translate(-1911.024 -679.681)" fill="#fff"/>
                    <path id="Path_83310" data-name="Path 83310" d="M1752.882,821.254a17.377,17.377,0,0,0-4.437,2.533,32.9,32.9,0,0,0-4.627-3.734,31.212,31.212,0,0,0-17.423-5.331c-16.853,0-30.726,13.522-32.544,30.919a35.82,35.82,0,0,1-.2-3.9c0-19.228,14.659-34.816,32.75-34.816a31.628,31.628,0,0,1,22.087,9.1,34.93,34.93,0,0,1,4.4,5.231" transform="translate(-1336.564 -626.106)" fill="#fff"/>
                    <path id="Path_83311" data-name="Path 83311" d="M2078.881,773.125c-3.747-10.482-13.281-17.941-24.464-17.941-10.713,0-19.924,6.852-23.972,16.657a28.5,28.5,0,0,0-1.475,4.684,15.794,15.794,0,0,0-2.155-.779,29.324,29.324,0,0,1,.718-5.6c2.794-12.166,13.112-21.192,25.416-21.192,13.288,0,24.259,10.537,25.93,24.177" transform="translate(-1599.49 -581.119)" fill="#fff"/>
                    <path id="Path_83312" data-name="Path 83312" d="M725.211,854.72a19.183,19.183,0,0,0-6.174-19.964,16.569,16.569,0,0,0-19-1.422,17.008,17.008,0,0,0-2.554,1.853,11.981,11.981,0,0,0-.848-1.335,17.969,17.969,0,0,1,2.5-2.663,16.609,16.609,0,0,1,21.488-.365,19.272,19.272,0,0,1,4.592,23.9" transform="translate(-549.755 -641.727)" fill="#fff"/>
                    <path id="Path_83313" data-name="Path 83313" d="M1955.319,839.687a28.523,28.523,0,0,0-1.474,4.684,15.812,15.812,0,0,0-2.156-.779,17.056,17.056,0,0,0-11.01.522,17.386,17.386,0,0,0-4.437,2.533,32.852,32.852,0,0,0-4.627-3.734,18.361,18.361,0,0,1,4.665-4.03,17.134,17.134,0,0,1,16.125-.9,16.714,16.714,0,0,1,2.912,1.7" transform="translate(-1524.363 -648.966)" fill="#fff"/>
                    <path id="Path_83314" data-name="Path 83314" d="M2438.648,659.663a12.408,12.408,0,0,0-1.32,2.838c-.606-.584-1.239-1.137-1.9-1.668a27.06,27.06,0,0,0-17.049-6.078c-15.612,0-28.269,13.452-28.269,30.045a32.833,32.833,0,0,0,.417,5.2,31.592,31.592,0,0,1-2.121-11.45c0-16.593,12.656-30.045,28.27-30.045a27.329,27.329,0,0,1,19.925,8.736,28.578,28.578,0,0,1,2.052,2.423" transform="translate(-1884.841 -503.182)" fill="#fff"/>
                    <path id="Path_83315" data-name="Path 83315" d="M518.717,811.88a12.344,12.344,0,0,0-1.32,2.838q-.909-.876-1.9-1.668a27.051,27.051,0,0,0-17.05-6.08c-15.612,0-28.269,13.454-28.269,30.046a32.818,32.818,0,0,0,.417,5.2,31.592,31.592,0,0,1-2.121-11.449c0-16.594,12.657-30.046,28.269-30.046a27.33,27.33,0,0,1,19.924,8.738,28.641,28.641,0,0,1,2.054,2.423" transform="translate(-369.7 -621.289)" fill="#fff"/>
                    <path id="Path_83316" data-name="Path 83316" d="M2624.031,659.031q-.627,1.694-1.122,3.445a10.833,10.833,0,0,0-1.525.289,11.436,11.436,0,0,0-6.71,4.995,12.421,12.421,0,0,0-1.32,2.838c-.606-.584-1.239-1.137-1.9-1.668a12.344,12.344,0,0,1,1.166-3.593,11.358,11.358,0,0,1,9.344-6.368c.234-.023.469-.03.707-.03a9.785,9.785,0,0,1,1.357.093" transform="translate(-2060.867 -511.279)" fill="#fff"/>
                    <path id="Path_83317" data-name="Path 83317" d="M2692.439,498.766v7.459c-14.328,3.39-26.01,14.247-31.239,28.526q-.627,1.7-1.122,3.445a10.839,10.839,0,0,0-1.525.289c.147-1.279.337-2.55.579-3.8,3.476-17.864,16.588-31.978,33.307-35.923" transform="translate(-2098.031 -386.999)" fill="#fff"/>
                    <path id="Path_83318" data-name="Path 83318" d="M213.929,728.868h-4.906c-5.368-15.034-19.052-25.72-35.082-25.72a35.5,35.5,0,0,0-12.215,2.167c-.413-1.036-.853-2.057-1.316-3.054a35.028,35.028,0,0,1,6.061-2.6,35.558,35.558,0,0,1,10.89-1.708c17.827,0,32.742,13.2,36.566,30.911" transform="translate(-126.591 -541.554)" fill="#fff"/>
                    <path id="Path_83319" data-name="Path 83319" d="M41.748,598.4a35.049,35.049,0,0,0-6.615,1.723c-.41-1.036-.85-2.058-1.313-3.055A62.663,62.663,0,0,0,0,564.692v-2.306c1.152.272,2.295.592,3.417.934a61.872,61.872,0,0,1,35.977,30.233c.169.3.329.609.491.921.668,1.285,1.284,2.6,1.863,3.928" transform="translate(0 -436.363)" fill="#fff"/>
                    <g id="Group_133382" data-name="Group 133382" transform="translate(429.652 145.546)" opacity="0.17">
                      <g id="Group_133381" data-name="Group 133381">
                        <g id="Group_133380" data-name="Group 133380" clip-path="url(#clip-path-10)">
                          <path id="Path_83320" data-name="Path 83320" d="M2094.769,649.508a35.952,35.952,0,0,0-28.128,13.86,19.455,19.455,0,0,0-8.235-1.83c-11.355,0-20.562,9.785-20.562,21.854s9.206,21.854,20.562,21.854a19.67,19.67,0,0,0,2.841-.212c5.827,13.489,18.641,22.863,33.521,22.863,20.367,0,36.877-17.549,36.877-39.2s-16.51-39.194-36.877-39.194" transform="translate(-2037.848 -649.508)" fill="#e8fafe"/>
                        </g>
                      </g>
                    </g>
                    <g id="Group_133385" data-name="Group 133385" transform="translate(271.64 145.546)" opacity="0.17">
                      <g id="Group_133384" data-name="Group 133384">
                        <g id="Group_133383" data-name="Group 133383" clip-path="url(#clip-path-11)">
                          <path id="Path_83321" data-name="Path 83321" d="M1345.326,649.508a35.95,35.95,0,0,0-28.129,13.86,19.455,19.455,0,0,0-8.235-1.83c-11.355,0-20.562,9.785-20.562,21.854s9.206,21.854,20.562,21.854a19.676,19.676,0,0,0,2.841-.212c5.827,13.489,18.64,22.863,33.522,22.863,20.367,0,36.877-17.549,36.877-39.2s-16.51-39.194-36.877-39.194" transform="translate(-1288.401 -649.508)" fill="#e8fafe"/>
                        </g>
                      </g>
                    </g>
                    <g id="Group_133388" data-name="Group 133388" transform="translate(182.462 133.653)" opacity="0.17">
                      <g id="Group_133387" data-name="Group 133387">
                        <g id="Group_133386" data-name="Group 133386" clip-path="url(#clip-path-12)">
                          <path id="Path_83322" data-name="Path 83322" d="M922.347,596.436a35.951,35.951,0,0,0-28.128,13.86,19.455,19.455,0,0,0-8.235-1.83c-11.356,0-20.562,9.785-20.562,21.854s9.206,21.854,20.562,21.854a19.684,19.684,0,0,0,2.841-.211c5.827,13.489,18.64,22.863,33.522,22.863,20.367,0,36.877-17.549,36.877-39.2s-16.51-39.194-36.877-39.194" transform="translate(-865.422 -596.436)" fill="#e8fafe"/>
                        </g>
                      </g>
                    </g>
                  </g>
                </g>
              </g>
            </g>
          </g>
          <g transform="matrix(1, 0, 0, 1, 7794, 2847)" filter="url(#Rectangle_166489)">
            <rect id="Rectangle_166489-2" data-name="Rectangle 166489" width="500" height="142" rx="4" fill="#f7c949" opacity="0.4"/>
          </g>
        </g>
      </g>
    </g>
  </g>
</svg>
